<svg width="20" height="20" viewBox="0 0 20 20" fill="none" xmlns="http://www.w3.org/2000/svg">
<path d="M14.1667 11.6667C14.6269 11.6667 15 11.2936 15 10.8334C15 10.3731 14.6269 10 14.1667 10C13.7064 10 13.3333 10.3731 13.3333 10.8334C13.3333 11.2936 13.7064 11.6667 14.1667 11.6667Z" fill="#FFFBF6"/>
<path d="M14.1667 15C14.6269 15 15 14.6269 15 14.1667C15 13.7065 14.6269 13.3334 14.1667 13.3334C13.7064 13.3334 13.3333 13.7065 13.3333 14.1667C13.3333 14.6269 13.7064 15 14.1667 15Z" fill="#FFFBF6"/>
<path d="M10.8333 10.8334C10.8333 11.2936 10.4602 11.6667 10 11.6667C9.53977 11.6667 9.16667 11.2936 9.16667 10.8334C9.16667 10.3731 9.53977 10 10 10C10.4602 10 10.8333 10.3731 10.8333 10.8334Z" fill="#FFFBF6"/>
<path d="M10.8333 14.1667C10.8333 14.6269 10.4602 15 10 15C9.53977 15 9.16667 14.6269 9.16667 14.1667C9.16667 13.7065 9.53977 13.3334 10 13.3334C10.4602 13.3334 10.8333 13.7065 10.8333 14.1667Z" fill="#FFFBF6"/>
<path d="M5.83334 11.6667C6.29358 11.6667 6.66667 11.2936 6.66667 10.8334C6.66667 10.3731 6.29358 10 5.83334 10C5.3731 10 5.00001 10.3731 5.00001 10.8334C5.00001 11.2936 5.3731 11.6667 5.83334 11.6667Z" fill="#FFFBF6"/>
<path d="M5.83334 15C6.29358 15 6.66667 14.6269 6.66667 14.1667C6.66667 13.7065 6.29358 13.3334 5.83334 13.3334C5.3731 13.3334 5.00001 13.7065 5.00001 14.1667C5.00001 14.6269 5.3731 15 5.83334 15Z" fill="#FFFBF6"/>
<path fill-rule="evenodd" clip-rule="evenodd" d="M5.83334 1.45837C6.17852 1.45837 6.45834 1.7382 6.45834 2.08337V2.71897C7.01 2.70836 7.61778 2.70837 8.28622 2.70837H11.7137C12.3821 2.70837 12.99 2.70836 13.5417 2.71897V2.08337C13.5417 1.7382 13.8215 1.45837 14.1667 1.45837C14.5118 1.45837 14.7917 1.7382 14.7917 2.08337V2.77261C15.0083 2.78913 15.2134 2.80989 15.4075 2.83599C16.3845 2.96734 17.1753 3.24411 17.799 3.86774C18.4226 4.49138 18.6994 5.28217 18.8307 6.25919C18.9584 7.20853 18.9583 8.42154 18.9583 9.95299V11.7137C18.9583 13.2452 18.9584 14.4582 18.8307 15.4076C18.6994 16.3846 18.4226 17.1754 17.799 17.799C17.1753 18.4226 16.3845 18.6994 15.4075 18.8308C14.4582 18.9584 13.2452 18.9584 11.7137 18.9584H8.28633C6.75488 18.9584 5.54182 18.9584 4.59249 18.8308C3.61547 18.6994 2.82468 18.4226 2.20104 17.799C1.57741 17.1754 1.30064 16.3846 1.16928 15.4076C1.04165 14.4582 1.04166 13.2452 1.04167 11.7137V9.95303C1.04166 8.42156 1.04165 7.20853 1.16928 6.25919C1.30064 5.28217 1.57741 4.49138 2.20104 3.86774C2.82468 3.24411 3.61547 2.96734 4.59249 2.83599C4.78659 2.80989 4.99172 2.78913 5.20834 2.77261V2.08337C5.20834 1.7382 5.48816 1.45837 5.83334 1.45837ZM4.75905 4.07484C3.92064 4.18756 3.4376 4.39895 3.08492 4.75163C2.73225 5.1043 2.52086 5.58734 2.40814 6.42575C2.38905 6.56774 2.37309 6.71722 2.35974 6.87504H17.6403C17.6269 6.71722 17.611 6.56774 17.5919 6.42575C17.4792 5.58734 17.2678 5.1043 16.9151 4.75163C16.5624 4.39895 16.0794 4.18756 15.241 4.07484C14.3846 3.9597 13.2557 3.95837 11.6667 3.95837H8.33334C6.74432 3.95837 5.61543 3.9597 4.75905 4.07484ZM2.29167 10C2.29167 9.28836 2.29194 8.66898 2.30258 8.12504H17.6974C17.7081 8.66898 17.7083 9.28836 17.7083 10V11.6667C17.7083 13.2557 17.707 14.3846 17.5919 15.241C17.4792 16.0794 17.2678 16.5624 16.9151 16.9151C16.5624 17.2678 16.0794 17.4792 15.241 17.5919C14.3846 17.707 13.2557 17.7084 11.6667 17.7084H8.33334C6.74432 17.7084 5.61543 17.707 4.75905 17.5919C3.92064 17.4792 3.4376 17.2678 3.08492 16.9151C2.73225 16.5624 2.52086 16.0794 2.40814 15.241C2.293 14.3846 2.29167 13.2557 2.29167 11.6667V10Z" fill="#FFFBF6"/>
</svg>
