<svg width="35" height="35" viewBox="0 0 35 35" fill="none" xmlns="http://www.w3.org/2000/svg">
<path fill-rule="evenodd" clip-rule="evenodd" d="M14.0595 12.375H20.9406C23.4657 12.375 25.4442 12.375 26.9517 12.593C28.4914 12.8158 29.6911 13.285 30.5195 14.346C31.3479 15.4071 31.5122 16.6847 31.3548 18.2324C31.2008 19.7478 30.7209 21.6673 30.1084 24.117L30.0811 24.2262C29.6932 25.7778 29.3858 27.0074 29.0226 27.961C28.6485 28.943 28.1876 29.7109 27.4464 30.2896C26.7053 30.8682 25.8485 31.1291 24.8051 31.2539C23.792 31.375 22.5245 31.375 20.9252 31.375H14.0749C12.4756 31.375 11.2081 31.375 10.1949 31.2539C9.15148 31.1291 8.2947 30.8682 7.55359 30.2896C6.81247 29.7109 6.35157 28.943 5.97745 27.961C5.61419 27.0075 5.30678 25.7778 4.91891 24.2262L4.89159 24.117C4.27915 21.6673 3.79927 19.7478 3.64521 18.2324C3.48787 16.6847 3.65209 15.4071 4.48052 14.346C5.30896 13.285 6.50864 12.8158 8.04832 12.593C9.55582 12.375 11.5343 12.375 14.0595 12.375ZM8.26307 14.0776C6.89497 14.2755 6.14811 14.6476 5.66283 15.2691C5.17755 15.8907 4.99771 16.7055 5.13752 18.0807C5.27932 19.4756 5.73101 21.29 6.36233 23.8153C6.76465 25.4245 7.05153 26.5669 7.37917 27.427C7.69963 28.2681 8.03105 28.7593 8.47671 29.1072C8.92236 29.4552 9.47923 29.6576 10.373 29.7645C11.2868 29.8738 12.4647 29.875 14.1235 29.875H20.8766C22.5353 29.875 23.7132 29.8738 24.627 29.7645C25.5208 29.6576 26.0777 29.4552 26.5233 29.1072C26.969 28.7593 27.3004 28.2681 27.6209 27.427C27.9485 26.5669 28.2354 25.4245 28.6377 23.8153C29.269 21.29 29.7207 19.4756 29.8625 18.0807C30.0023 16.7055 29.8225 15.8907 29.3372 15.2691C28.8519 14.6476 28.1051 14.2755 26.737 14.0776C25.3494 13.8769 23.4796 13.875 20.8766 13.875H14.1235C11.5205 13.875 9.65065 13.8769 8.26307 14.0776Z" fill="black"/>
<path fill-rule="evenodd" clip-rule="evenodd" d="M12.9638 5.08329C13.0168 5.0833 13.0705 5.08332 13.125 5.08332V6.58332C11.5419 6.58332 10.9565 6.59586 10.4802 6.782C9.97396 6.97987 9.5336 7.31623 9.20952 7.75262C8.90465 8.16314 8.73854 8.72467 8.32209 10.252L7.2861 14.0515L5.83893 13.6569L6.87492 9.85738C6.88925 9.80484 6.90337 9.75299 6.9173 9.70183C7.27529 8.38721 7.51005 7.52515 8.00528 6.8583C8.49723 6.19587 9.16569 5.68527 9.9342 5.38491C10.7078 5.08255 11.6013 5.08284 12.9638 5.08329ZM24.5198 6.782C24.0435 6.59586 23.4581 6.58332 21.875 6.58332V5.08332C21.9295 5.08332 21.9832 5.0833 22.0362 5.08329C23.3987 5.08284 24.2922 5.08255 25.0658 5.38491C25.8343 5.68527 26.5028 6.19587 26.9947 6.8583C27.49 7.52515 27.7247 8.38722 28.0827 9.70184C28.0967 9.753 28.1108 9.80484 28.1251 9.85738L29.1611 13.6569L27.7139 14.0515L26.6779 10.252C26.2615 8.72467 26.0954 8.16314 25.7905 7.75262C25.4664 7.31623 25.0261 6.97987 24.5198 6.782Z" fill="black"/>
<path fill-rule="evenodd" clip-rule="evenodd" d="M12.375 5.83333C12.375 4.6137 13.3637 3.625 14.5833 3.625H20.4167C21.6363 3.625 22.625 4.6137 22.625 5.83333C22.625 7.05296 21.6363 8.04167 20.4167 8.04167H14.5833C13.3637 8.04167 12.375 7.05296 12.375 5.83333ZM14.5833 5.125C14.1921 5.125 13.875 5.44213 13.875 5.83333C13.875 6.22453 14.1921 6.54167 14.5833 6.54167H20.4167C20.8079 6.54167 21.125 6.22453 21.125 5.83333C21.125 5.44213 20.8079 5.125 20.4167 5.125H14.5833Z" fill="black"/>
<path fill-rule="evenodd" clip-rule="evenodd" d="M11.6667 18.2083C12.0809 18.2083 12.4167 18.5441 12.4167 18.9583V24.7916C12.4167 25.2059 12.0809 25.5416 11.6667 25.5416C11.2524 25.5416 10.9167 25.2059 10.9167 24.7916V18.9583C10.9167 18.5441 11.2524 18.2083 11.6667 18.2083Z" fill="black"/>
<path fill-rule="evenodd" clip-rule="evenodd" d="M23.3333 18.2083C23.7476 18.2083 24.0833 18.5441 24.0833 18.9583V24.7916C24.0833 25.2059 23.7476 25.5416 23.3333 25.5416C22.9191 25.5416 22.5833 25.2059 22.5833 24.7916V18.9583C22.5833 18.5441 22.9191 18.2083 23.3333 18.2083Z" fill="black"/>
<path fill-rule="evenodd" clip-rule="evenodd" d="M17.5 18.2083C17.9142 18.2083 18.25 18.5441 18.25 18.9583V24.7916C18.25 25.2059 17.9142 25.5416 17.5 25.5416C17.0858 25.5416 16.75 25.2059 16.75 24.7916V18.9583C16.75 18.5441 17.0858 18.2083 17.5 18.2083Z" fill="black"/>
</svg>
