<svg width="35" height="35" viewBox="0 0 35 35" fill="none" xmlns="http://www.w3.org/2000/svg">
<path fill-rule="evenodd" clip-rule="evenodd" d="M17.4163 1.823H17.5837C20.9501 1.82298 23.5883 1.82296 25.6467 2.09971C27.7536 2.38298 29.4161 2.9741 30.7211 4.27903C32.026 5.58396 32.6171 7.2465 32.9004 9.3534C33.1771 11.4118 33.1771 14.05 33.1771 17.4164V17.5837C33.1771 20.9502 33.1771 23.5883 32.9004 25.6468C32.6171 27.7537 32.026 29.4162 30.7211 30.7211C29.4161 32.0261 27.7536 32.6172 25.6467 32.9005C23.5883 33.1772 20.9501 33.1772 17.5837 33.1772H17.4163C14.0499 33.1772 11.4117 33.1772 9.35333 32.9005C7.24642 32.6172 5.58389 32.0261 4.27895 30.7211C2.97402 29.4162 2.3829 27.7537 2.09964 25.6468C1.82289 23.5883 1.8229 20.9502 1.82292 17.5838V17.4164C1.8229 14.05 1.82289 11.4118 2.09964 9.3534C2.3829 7.2465 2.97402 5.58396 4.27895 4.27903C5.58389 2.9741 7.24642 2.38298 9.35333 2.09971C11.4117 1.82296 14.0499 1.82298 17.4163 1.823ZM9.64481 4.26771C7.78047 4.51836 6.6565 4.99508 5.82575 5.82583C4.995 6.65658 4.51828 7.78054 4.26763 9.64488C4.01275 11.5407 4.01042 14.0318 4.01042 17.5001C4.01042 20.9683 4.01275 23.4595 4.26763 25.3553C4.51828 27.2196 4.995 28.3436 5.82575 29.1743C6.6565 30.0051 7.78047 30.4818 9.64481 30.7325C11.5406 30.9873 14.0318 30.9897 17.5 30.9897C20.9683 30.9897 23.4594 30.9873 25.3552 30.7325C27.2195 30.4818 28.3435 30.0051 29.1743 29.1743C30.005 28.3436 30.4817 27.2196 30.7324 25.3553C30.9873 23.4595 30.9896 20.9683 30.9896 17.5001C30.9896 14.0318 30.9873 11.5407 30.7324 9.64488C30.4817 7.78054 30.005 6.65658 29.1743 5.82583C28.3435 4.99508 27.2195 4.51836 25.3552 4.26771C23.4594 4.01282 20.9683 4.0105 17.5 4.0105C14.0318 4.0105 11.5406 4.01282 9.64481 4.26771ZM17.5 12.7605C14.8824 12.7605 12.7604 14.8825 12.7604 17.5001C12.7604 20.1177 14.8824 22.2397 17.5 22.2397C20.1176 22.2397 22.2396 20.1177 22.2396 17.5001C22.2396 14.8825 20.1176 12.7605 17.5 12.7605ZM10.5729 17.5001C10.5729 13.6744 13.6743 10.573 17.5 10.573C21.3257 10.573 24.4271 13.6744 24.4271 17.5001C24.4271 21.3258 21.3257 24.4272 17.5 24.4272C13.6743 24.4272 10.5729 21.3258 10.5729 17.5001Z" fill="#701A1A"/>
</svg>
