<svg width="35" height="35" viewBox="0 0 35 35" fill="none" xmlns="http://www.w3.org/2000/svg">
<path fill-rule="evenodd" clip-rule="evenodd" d="M26.7917 4.41811C26.1676 4.17758 25.4885 4.11716 24.8316 4.24371L24.4271 4.32166V6.73551C25.4833 6.53381 26.5749 6.63181 27.5784 7.01852C28.2012 7.25856 28.8778 7.31883 29.5313 7.1943V4.77594C28.6471 4.89167 27.7448 4.78541 26.9072 4.46261L26.7917 4.41811ZM24.4271 8.96324L24.8316 8.88529C25.4885 8.75873 26.1676 8.81916 26.7917 9.05969C27.8823 9.47998 29.075 9.55849 30.2113 9.28481L30.3084 9.26142C31.1357 9.06215 31.7188 8.32198 31.7188 7.47099V4.23131C31.7188 3.10938 30.6695 2.28281 29.5787 2.54553C28.9524 2.69639 28.295 2.65311 27.6938 2.42143L27.5784 2.37694C26.5719 1.98909 25.4768 1.89165 24.4178 2.09573L23.7089 2.23231C22.856 2.39667 22.2396 3.14313 22.2396 4.01176V9.11467H10.2084C10.1404 9.11467 10.0739 9.12087 10.0093 9.13274C9.83416 9.12076 9.65738 9.11467 9.47919 9.11467C5.25076 9.11467 1.82294 12.5425 1.82294 16.7709V24.4526C1.82294 26.8548 3.7703 28.8022 6.1725 28.8022H14.2188V32.0834C14.2188 32.6875 14.7085 33.1772 15.3125 33.1772C15.9166 33.1772 16.4063 32.6875 16.4063 32.0834V28.8022H20.0521V32.0834C20.0521 32.6875 20.5418 33.1772 21.1459 33.1772C21.7499 33.1772 22.2396 32.6875 22.2396 32.0834V28.8022H28.865C31.2465 28.8022 33.1771 26.8716 33.1771 24.49V16.7709C33.1771 12.5425 29.7493 9.11467 25.5209 9.11467H24.4271V8.96324ZM22.2396 11.3022V16.0418C22.2396 16.6458 22.7293 17.1355 23.3334 17.1355C23.9374 17.1355 24.4271 16.6458 24.4271 16.0418V11.3022H25.5209C28.5412 11.3022 30.9896 13.7506 30.9896 16.7709V24.49C30.9896 25.6634 30.0384 26.6147 28.865 26.6147H17.1354V16.7709C17.1354 14.6286 16.2556 12.6918 14.8375 11.3022H22.2396ZM14.9479 26.6147V16.7709C14.9479 13.7506 12.4995 11.3022 9.47919 11.3022C6.45888 11.3022 4.01044 13.7506 4.01044 16.7709V24.4526C4.01044 25.6467 4.97843 26.6147 6.1725 26.6147H14.9479ZM6.19794 23.3334C6.19794 22.7294 6.68763 22.2397 7.29169 22.2397H11.6667C12.2707 22.2397 12.7604 22.7294 12.7604 23.3334C12.7604 23.9375 12.2707 24.4272 11.6667 24.4272H7.29169C6.68763 24.4272 6.19794 23.9375 6.19794 23.3334Z" fill="#701A1A"/>
</svg>
