<svg width="35" height="35" viewBox="0 0 35 35" fill="none" xmlns="http://www.w3.org/2000/svg">
<path d="M17.4928 0C7.81777 0 0 7.83216 0 17.4928C0 24.9074 4.60715 31.2423 11.1148 33.7906C10.9564 32.4085 10.8268 30.2777 11.1723 28.7659C11.4891 27.3982 13.2168 20.0699 13.2168 20.0699C13.2168 20.0699 12.6985 19.0189 12.6985 17.4784C12.6985 15.0452 14.1094 13.2312 15.8659 13.2312C17.3632 13.2312 18.0831 14.3542 18.0831 15.6931C18.0831 17.1905 17.1328 19.4364 16.629 21.5241C16.2114 23.2661 17.5072 24.6915 19.2205 24.6915C22.3303 24.6915 24.7203 21.4089 24.7203 16.6866C24.7203 12.4969 21.7112 9.57425 17.4064 9.57425C12.4249 9.57425 9.50225 13.3031 9.50225 17.1617C9.50225 18.659 10.0781 20.2715 10.798 21.1497C10.942 21.3225 10.9564 21.4809 10.9132 21.6536C10.7836 22.2007 10.4813 23.3957 10.4237 23.6405C10.3517 23.9572 10.1645 24.0292 9.83339 23.8708C7.67378 22.8342 6.32044 19.638 6.32044 17.0753C6.32044 11.5611 10.3229 6.4932 17.8815 6.4932C23.9428 6.4932 28.6652 10.8124 28.6652 16.6001C28.6652 22.6326 24.8642 27.4846 19.5948 27.4846C17.8239 27.4846 16.1538 26.5631 15.5924 25.4689C15.5924 25.4689 14.7141 28.8091 14.4982 29.6298C14.1094 31.1559 13.044 33.0563 12.3241 34.2225C13.9655 34.7264 15.6931 35 17.5072 35C27.1678 35 35 27.1678 35 17.5072C34.9856 7.83216 27.1534 0 17.4928 0Z" fill="#701A1A"/>
</svg>
