<svg width="35" height="35" viewBox="0 0 35 35" fill="none" xmlns="http://www.w3.org/2000/svg">
<path fill-rule="evenodd" clip-rule="evenodd" d="M26.4596 5.29504C24.7534 5.59856 22.453 6.36223 19.2247 7.43833L11.9166 9.87436C9.32077 10.7397 7.44056 11.3673 6.11254 11.9322C4.72411 12.5227 4.2302 12.9343 4.06979 13.2102C3.5757 14.0601 3.5757 15.1098 4.06979 15.9597C4.2302 16.2356 4.72411 16.6473 6.11254 17.2378C7.44056 17.8026 9.32076 18.4303 11.9166 19.2956C11.9576 19.3092 11.9981 19.3227 12.0381 19.336C12.7471 19.5718 13.2983 19.7552 13.7724 20.0726C14.2292 20.3784 14.6217 20.7708 14.9275 21.2277C15.2449 21.7018 15.4282 22.253 15.6641 22.962C15.6774 23.002 15.6908 23.0425 15.7045 23.0834C16.5698 25.6793 17.1975 27.5595 17.7623 28.8875C18.3528 30.276 18.7644 30.7699 19.0404 30.9303C19.8903 31.4244 20.9399 31.4244 21.7898 30.9303C22.0658 30.7699 22.4774 30.276 23.0679 28.8875C23.6327 27.5595 24.2604 25.6793 25.1257 23.0835L27.5617 15.7753C28.6378 12.547 29.4015 10.2467 29.705 8.54051C30.01 6.82617 29.7769 6.09795 29.3395 5.66054C28.9021 5.22313 28.1739 4.99008 26.4596 5.29504ZM26.0671 3.08879C27.9661 2.75096 29.6765 2.82839 30.9241 4.07599C32.1717 5.32359 32.2491 7.03395 31.9113 8.93298C31.5755 10.8205 30.7567 13.277 29.72 16.3869L27.2336 23.846C26.39 26.3768 25.7345 28.3433 25.13 29.7646C24.5469 31.1355 23.8995 32.2959 22.9161 32.8676C21.3699 33.7665 19.4603 33.7665 17.9141 32.8676C16.9307 32.2959 16.2833 31.1355 15.7002 29.7646C15.0957 28.3433 14.4402 26.3768 13.5966 23.846L13.5786 23.7921C13.2831 22.9054 13.193 22.6649 13.0653 22.4743C12.9225 22.2609 12.7392 22.0776 12.5258 21.9348C12.3352 21.8071 12.0947 21.717 11.208 21.4215L11.154 21.4035C8.62321 20.5599 6.65675 19.9044 5.23548 19.2999C3.86452 18.7168 2.70419 18.0694 2.13248 17.086C1.23361 15.5398 1.23361 13.6302 2.13248 12.084C2.7042 11.1006 3.86453 10.4531 5.23548 9.87004C6.65677 9.26554 8.62326 8.61004 11.1541 7.76644L18.6132 5.28007C21.7231 4.24339 24.1795 3.42457 26.0671 3.08879ZM25.7844 9.2245C26.2195 9.66448 26.2156 10.3739 25.7756 10.809L19.7999 16.7189C19.3599 17.154 18.6505 17.1501 18.2153 16.7101C17.7802 16.2701 17.7841 15.5607 18.2241 15.1256L24.1998 9.21572C24.6398 8.78059 25.3492 8.78452 25.7844 9.2245Z" fill="#701A1A"/>
</svg>
