<svg width="35" height="35" viewBox="0 0 35 35" fill="none" xmlns="http://www.w3.org/2000/svg">
<path fill-rule="evenodd" clip-rule="evenodd" d="M17.5 9.5C15.498 9.5 13.875 11.123 13.875 13.125C13.875 15.127 15.498 16.75 17.5 16.75C19.502 16.75 21.125 15.127 21.125 13.125C21.125 11.123 19.502 9.5 17.5 9.5ZM12.375 13.125C12.375 10.2945 14.6695 8 17.5 8C20.3305 8 22.625 10.2945 22.625 13.125C22.625 15.9555 20.3305 18.25 17.5 18.25C14.6695 18.25 12.375 15.9555 12.375 13.125Z" fill="black"/>
<path fill-rule="evenodd" clip-rule="evenodd" d="M17.5 3.66669C9.86005 3.66669 3.66666 9.86008 3.66666 17.5C3.66666 25.14 9.86005 31.3334 17.5 31.3334C25.1399 31.3334 31.3333 25.14 31.3333 17.5C31.3333 9.86008 25.1399 3.66669 17.5 3.66669ZM2.16666 17.5C2.16666 9.03165 9.03162 2.16669 17.5 2.16669C25.9684 2.16669 32.8333 9.03165 32.8333 17.5C32.8333 25.9684 25.9684 32.8334 17.5 32.8334C9.03162 32.8334 2.16666 25.9684 2.16666 17.5Z" fill="black"/>
<path fill-rule="evenodd" clip-rule="evenodd" d="M11.0812 24.4601C10.03 25.5503 9.65797 27.1338 9.54381 29.2079C9.52105 29.6215 9.16731 29.9383 8.75372 29.9155C8.34014 29.8928 8.02331 29.539 8.04608 29.1254C8.16401 26.9828 8.5536 24.9204 10.0014 23.419C11.4583 21.9081 13.8256 21.125 17.5 21.125C21.1744 21.125 23.5418 21.9081 24.9986 23.419C26.4464 24.9204 26.836 26.9828 26.9539 29.1254C26.9767 29.539 26.6599 29.8928 26.2463 29.9155C25.8327 29.9383 25.479 29.6215 25.4562 29.2079C25.3421 27.1338 24.9701 25.5503 23.9188 24.4601C22.8767 23.3794 21.0076 22.625 17.5 22.625C13.9925 22.625 12.1234 23.3794 11.0812 24.4601Z" fill="black"/>
</svg>
