<svg width="20" height="20" viewBox="0 0 20 20" fill="none" xmlns="http://www.w3.org/2000/svg">
<path fill-rule="evenodd" clip-rule="evenodd" d="M10 2.29163C5.74281 2.29163 2.29167 5.74276 2.29167 9.99996C2.29167 14.2572 5.74281 17.7083 10 17.7083C14.2572 17.7083 17.7083 14.2572 17.7083 9.99996C17.7083 5.74276 14.2572 2.29163 10 2.29163ZM1.04167 9.99996C1.04167 5.05241 5.05245 1.04163 10 1.04163C14.9476 1.04163 18.9583 5.05241 18.9583 9.99996C18.9583 14.9475 14.9476 18.9583 10 18.9583C5.05245 18.9583 1.04167 14.9475 1.04167 9.99996ZM10 4.37496C10.3452 4.37496 10.625 4.65478 10.625 4.99996V5.2639C11.9837 5.50718 13.125 6.52797 13.125 7.91663C13.125 8.2618 12.8452 8.54163 12.5 8.54163C12.1548 8.54163 11.875 8.2618 11.875 7.91663C11.875 7.35124 11.4049 6.75279 10.625 6.53953V9.43057C11.9837 9.67385 13.125 10.6946 13.125 12.0833C13.125 13.472 11.9837 14.4927 10.625 14.736V15C10.625 15.3451 10.3452 15.625 10 15.625C9.65483 15.625 9.375 15.3451 9.375 15V14.736C8.01631 14.4927 6.875 13.472 6.875 12.0833C6.875 11.7381 7.15483 11.4583 7.5 11.4583C7.84518 11.4583 8.125 11.7381 8.125 12.0833C8.125 12.6487 8.59509 13.2471 9.375 13.4604V10.5693C8.01631 10.3261 6.875 9.30528 6.875 7.91663C6.875 6.52797 8.01631 5.50718 9.375 5.2639V4.99996C9.375 4.65478 9.65483 4.37496 10 4.37496ZM9.375 6.53953C8.59509 6.75279 8.125 7.35124 8.125 7.91663C8.125 8.48201 8.59509 9.08047 9.375 9.29373V6.53953ZM10.625 10.7062V13.4604C11.4049 13.2471 11.875 12.6487 11.875 12.0833C11.875 11.5179 11.4049 10.9195 10.625 10.7062Z" fill="#FFFBF6"/>
</svg>
