<svg width="35" height="35" viewBox="0 0 35 35" fill="none" xmlns="http://www.w3.org/2000/svg">
<path fill-rule="evenodd" clip-rule="evenodd" d="M17.5 1.82288L17.4163 1.82288C14.0499 1.82286 11.4117 1.82284 9.35333 2.09959C7.24642 2.38286 5.58389 2.97398 4.27895 4.27891C2.97402 5.58384 2.3829 7.24637 2.09964 9.35328C1.82289 11.4117 1.8229 14.0499 1.82292 17.4163L1.82299 18.2163C1.82411 21.2698 1.84125 23.7248 2.09964 25.6466C2.3829 27.7535 2.97402 29.4161 4.27895 30.721C5.58389 32.0259 7.24642 32.6171 9.35333 32.9003C11.4117 33.1771 14.0499 33.1771 17.4163 33.177H17.5837C20.9501 33.1771 23.5883 33.1771 25.6467 32.9003C27.7536 32.6171 29.4161 32.0259 30.7211 30.721C32.026 29.4161 32.6171 27.7535 32.9004 25.6466C33.1771 23.5882 33.1771 20.95 33.1771 17.5836V17.5C33.1771 16.8959 32.6874 16.4062 32.0833 16.4062C31.4793 16.4062 30.9896 16.8959 30.9896 17.5C30.9896 20.9682 30.9873 23.4594 30.7324 25.3552C30.7223 25.4301 30.7119 25.5038 30.7011 25.5763L26.6557 21.9355C24.7607 20.23 21.9387 20.0601 19.8528 21.526L19.4179 21.8317C18.6932 22.341 17.7072 22.2556 17.0808 21.6292L10.8249 15.3734C9.16914 13.7176 6.51312 13.6291 4.75083 15.1711L4.01184 15.8177C4.01848 13.2038 4.05597 11.219 4.26763 9.64476C4.51828 7.78042 4.995 6.65645 5.82575 5.8257C6.6565 4.99496 7.78047 4.51824 9.64481 4.26758C11.5406 4.0127 14.0318 4.01038 17.5 4.01038C18.1041 4.01038 18.5938 3.52069 18.5938 2.91663C18.5938 2.31257 18.1041 1.82288 17.5 1.82288ZM30.0555 27.9133C29.9988 27.8787 29.9445 27.8383 29.8933 27.7923L25.1923 23.5614C24.0554 22.5381 22.3621 22.4362 21.1106 23.3158L20.6757 23.6214C19.0813 24.742 16.912 24.5541 15.534 23.176L9.27815 16.9202C8.43668 16.0787 7.08689 16.0337 6.1913 16.8174L4.01098 18.7251C4.01474 21.5666 4.04381 23.6904 4.26763 25.3552C4.51828 27.2195 4.995 28.3435 5.82575 29.1742C6.6565 30.005 7.78047 30.4817 9.64481 30.7323C11.5406 30.9872 14.0318 30.9895 17.5 30.9895C20.9683 30.9895 23.4594 30.9872 25.3552 30.7323C27.2195 30.4817 28.3435 30.005 29.1743 29.1742C29.5294 28.8191 29.8198 28.4105 30.0555 27.9133Z" fill="#701A1A"/>
<path fill-rule="evenodd" clip-rule="evenodd" d="M33.1771 7.83909C33.1771 5.78393 32.185 4.12527 30.5288 3.51566C29.1583 3.01122 27.6112 3.3276 26.25 4.34076C24.8888 3.3276 23.3417 3.01122 21.9712 3.51567C20.315 4.12528 19.3229 5.78394 19.3229 7.8391C19.3229 8.98702 19.8446 10.0523 20.469 10.9333C21.1039 11.829 21.9255 12.647 22.704 13.3233L22.8277 13.431C23.8749 14.3427 24.7469 15.1019 26.25 15.1019C27.7531 15.1019 28.6251 14.3427 29.6723 13.431L29.796 13.3234C30.5745 12.647 31.3961 11.829 32.031 10.9334C32.6555 10.0523 33.1771 8.98701 33.1771 7.83909ZM29.7732 5.56852C29.1516 5.33972 28.1264 5.45096 27.0255 6.55778C26.8202 6.76416 26.5411 6.8802 26.25 6.8802C25.9589 6.8802 25.6798 6.76416 25.4745 6.55778C24.3736 5.45096 23.3484 5.33972 22.7268 5.56852C22.1226 5.79093 21.5104 6.47808 21.5104 7.8391C21.5104 8.33637 21.7476 8.95437 22.2537 9.66836C22.7494 10.3677 23.4301 11.0564 24.1387 11.672C25.3533 12.7272 25.6319 12.9144 26.25 12.9144C26.8681 12.9144 27.1468 12.7272 28.3614 11.672C29.07 11.0564 29.7506 10.3677 30.2463 9.66838C30.7524 8.95438 30.9896 8.33638 30.9896 7.83909C30.9896 6.47807 30.3775 5.79093 29.7732 5.56852Z" fill="#701A1A"/>
</svg>
