<svg width="20" height="20" viewBox="0 0 20 20" fill="none" xmlns="http://www.w3.org/2000/svg">
<path fill-rule="evenodd" clip-rule="evenodd" d="M15.0029 1.24981C15.2331 0.992607 15.6282 0.970719 15.8854 1.20092C17.7705 2.88812 18.9583 5.34199 18.9583 8.07246C18.9583 12.8653 15.301 16.8038 10.625 17.2496V17.7083H11.6667C12.0118 17.7083 12.2917 17.9881 12.2917 18.3333C12.2917 18.6785 12.0118 18.9583 11.6667 18.9583H8.33333C7.98816 18.9583 7.70833 18.6785 7.70833 18.3333C7.70833 17.9881 7.98816 17.7083 8.33333 17.7083H9.375V17.2846C6.79102 17.1841 4.47947 16.0196 2.86762 14.2187C2.63742 13.9615 2.65931 13.5664 2.91651 13.3362C3.17372 13.106 3.56884 13.1279 3.79904 13.3851C5.25915 15.0164 7.37902 16.0416 9.73916 16.0416C14.1404 16.0416 17.7083 12.4737 17.7083 8.07246C17.7083 5.71232 16.6831 3.59244 15.0518 2.13234C14.7946 1.90214 14.7727 1.50701 15.0029 1.24981ZM6.01816 4.97579C5.25291 5.88241 4.79167 7.05399 4.79167 8.3333C4.79167 11.2098 7.12352 13.5416 10 13.5416C10.0802 13.5416 10.16 13.5398 10.2393 13.5362C10.1671 13.0287 10.2032 12.4087 10.5237 11.8047C10.9299 11.0393 11.7577 10.7242 12.3219 10.5856C12.6238 10.5113 12.9024 10.475 13.1042 10.4568C13.2059 10.4477 13.29 10.4431 13.3502 10.4407C13.3803 10.4395 13.4046 10.4389 13.4222 10.4385L13.4436 10.4382L13.4481 10.4382C14.0727 10.4317 14.4241 10.286 14.6302 10.1373C14.8372 9.98803 14.9594 9.79154 15.048 9.57083C15.0558 9.5515 15.0644 9.53277 15.0738 9.51466C15.1618 9.1351 15.2083 8.73963 15.2083 8.3333C15.2083 6.92999 14.6533 5.65631 13.7509 4.71977C13.6489 5.01732 13.5187 5.29704 13.3831 5.51055C13.2073 5.78712 12.8757 6.0556 12.6192 6.24677C12.4427 6.37827 12.2601 6.48915 12.0999 6.58489C12.0804 6.59653 12.0613 6.60793 12.0425 6.61913C11.8994 6.70448 11.7757 6.77826 11.6567 6.85981C11.4012 7.03492 11.2139 7.21564 11.087 7.48693C11.053 7.55963 11.0496 7.63212 11.0731 7.72086C11.1219 7.90524 11.1555 8.11369 11.1561 8.3276C11.1584 9.26177 10.2919 9.79963 9.57626 9.79153C7.92221 9.77281 6.94698 8.38448 6.81992 6.91791C6.75961 6.22178 6.40112 5.51904 6.01816 4.97579ZM6.94031 4.11798C7.43173 4.78127 7.97351 5.75108 8.06526 6.81002C8.15699 7.86883 8.78909 8.53254 9.59041 8.54161C9.67425 8.54256 9.76755 8.50914 9.83379 8.45379C9.89536 8.40232 9.90615 8.35826 9.90608 8.33071C9.90586 8.24201 9.8913 8.14106 9.86476 8.04079C9.78343 7.73361 9.77078 7.35061 9.95469 6.95737C10.209 6.41364 10.5871 6.0774 10.9502 5.82863C11.1041 5.72317 11.2638 5.62806 11.4033 5.54493C11.4221 5.53371 11.4405 5.52272 11.4586 5.51195C11.6179 5.41669 11.7518 5.33422 11.8723 5.24441C12.1427 5.04297 12.2918 4.89727 12.328 4.84022C12.4687 4.61874 12.6257 4.21679 12.6849 3.8694C11.9008 3.39683 10.9822 3.12497 10 3.12497C8.85664 3.12497 7.79933 3.49338 6.94031 4.11798ZM14.0155 11.6506C13.8417 11.6734 13.6571 11.6861 13.4611 11.6881L13.4546 11.6882L13.4455 11.6883C13.4361 11.6885 13.4205 11.6889 13.3996 11.6897C13.3575 11.6914 13.2944 11.6948 13.216 11.7018C13.0576 11.7161 12.8444 11.7443 12.6202 11.7994C12.1322 11.9194 11.7707 12.1216 11.6279 12.3906C11.4607 12.7058 11.438 13.0468 11.4725 13.3306C12.4811 13.0338 13.3625 12.4401 14.0155 11.6506ZM3.54167 8.3333C3.54167 4.76646 6.43316 1.87497 10 1.87497C13.5668 1.87497 16.4583 4.76646 16.4583 8.3333C16.4583 11.9001 13.5668 14.7916 10 14.7916C6.43316 14.7916 3.54167 11.9001 3.54167 8.3333Z" fill="#FFFBF6"/>
</svg>
