<svg width="35" height="35" viewBox="0 0 35 35" fill="none" xmlns="http://www.w3.org/2000/svg">
<path fill-rule="evenodd" clip-rule="evenodd" d="M6.19794 12.4173C6.19794 6.49352 11.3334 1.823 17.5 1.823C23.6666 1.823 28.8021 6.49352 28.8021 12.4173C28.8021 17.9752 25.3562 24.5002 19.7966 26.876C18.337 27.4998 16.663 27.4998 15.2035 26.876C9.64382 24.5002 6.19794 17.9752 6.19794 12.4173ZM17.5 4.0105C12.3908 4.0105 8.38544 7.84703 8.38544 12.4173C8.38544 17.2711 11.4559 22.8956 16.0631 24.8645C16.9736 25.2536 18.0265 25.2536 18.937 24.8645C23.5442 22.8956 26.6146 17.2711 26.6146 12.4173C26.6146 7.84703 22.6092 4.0105 17.5 4.0105ZM17.5 11.3022C16.4933 11.3022 15.6771 12.1183 15.6771 13.1251C15.6771 14.1319 16.4933 14.948 17.5 14.948C18.5068 14.948 19.3229 14.1319 19.3229 13.1251C19.3229 12.1183 18.5068 11.3022 17.5 11.3022ZM13.4896 13.1251C13.4896 10.9102 15.2851 9.11466 17.5 9.11466C19.7149 9.11466 21.5104 10.9102 21.5104 13.1251C21.5104 15.34 19.7149 17.1355 17.5 17.1355C15.2851 17.1355 13.4896 15.34 13.4896 13.1251ZM5.24333 21.8701C5.64879 22.3179 5.61449 23.0095 5.16672 23.415C4.33884 24.1647 4.01044 24.8823 4.01044 25.5209C4.01044 26.6346 5.06629 28.0071 7.63688 29.1639C10.1048 30.2745 13.591 30.9897 17.5 30.9897C21.4091 30.9897 24.8952 30.2745 27.3632 29.1639C29.9338 28.0071 30.9896 26.6346 30.9896 25.5209C30.9896 24.8823 30.6612 24.1647 29.8333 23.415C29.3856 23.0095 29.3513 22.3179 29.7567 21.8701C30.1622 21.4223 30.8538 21.388 31.3016 21.7935C32.4143 22.8011 33.1771 24.0642 33.1771 25.5209C33.1771 28.0316 30.9684 29.9403 28.2608 31.1587C25.4506 32.4233 21.6451 33.1772 17.5 33.1772C13.3549 33.1772 9.54941 32.4233 6.73921 31.1587C4.03168 29.9403 1.82294 28.0316 1.82294 25.5209C1.82294 24.0642 2.58572 22.8011 3.69843 21.7935C4.1462 21.388 4.83787 21.4223 5.24333 21.8701Z" fill="#701A1A"/>
</svg>
