<svg width="35" height="35" viewBox="0 0 35 35" fill="none" xmlns="http://www.w3.org/2000/svg">
<path d="M19.337 2.74199C19.4335 2.14569 19.9972 1.74119 20.5935 1.83773C20.6304 1.84479 20.7492 1.86699 20.8114 1.88085C20.9358 1.90856 21.1094 1.95123 21.3259 2.01426C21.7587 2.14033 22.3633 2.348 23.089 2.6807C24.5419 3.3468 26.4754 4.51202 28.4817 6.51839C30.4881 8.52476 31.6533 10.4582 32.3194 11.9111C32.6521 12.6368 32.8598 13.2415 32.9859 13.6743C33.0489 13.8907 33.0916 14.0643 33.1193 14.1887C33.1331 14.2509 33.1433 14.3009 33.1503 14.3378L33.1587 14.3833C33.2553 14.9796 32.8544 15.5666 32.2581 15.6631C31.6635 15.7594 31.1034 15.3569 31.0045 14.7634C31.0014 14.7474 30.9931 14.7046 30.9841 14.6642C30.9661 14.5835 30.935 14.4554 30.8856 14.286C30.7869 13.9472 30.6155 13.4436 30.3309 12.8228C29.7624 11.5828 28.7402 9.8704 26.9349 8.06519C25.1297 6.25997 23.4174 5.23769 22.1773 4.66918C21.5566 4.38458 21.0529 4.21318 20.7141 4.11449C20.5447 4.06515 20.3318 4.01628 20.2511 3.99829C19.6576 3.89938 19.2407 3.33658 19.337 2.74199Z" fill="#701A1A"/>
<path fill-rule="evenodd" clip-rule="evenodd" d="M19.6669 7.77246C19.8329 7.19164 20.4382 6.85532 21.0191 7.02127L20.7186 8.07294C21.0191 7.02127 21.0191 7.02127 21.0191 7.02127L21.0212 7.02187L21.0234 7.02252L21.0283 7.02394L21.0396 7.02731L21.0684 7.0363C21.0904 7.04333 21.1179 7.05249 21.1506 7.06411C21.2161 7.08735 21.3027 7.1204 21.4088 7.16591C21.6213 7.25696 21.9116 7.39757 22.2682 7.60861C22.982 8.03106 23.9564 8.73278 25.1012 9.87753C26.2459 11.0223 26.9476 11.9967 27.3701 12.7105C27.5811 13.0671 27.7218 13.3574 27.8128 13.5699C27.8583 13.676 27.8914 13.7626 27.9146 13.8281C27.9262 13.8608 27.9354 13.8883 27.9424 13.9103L27.9514 13.9391L27.9548 13.9504L27.9562 13.9553L27.9568 13.9575C27.9568 13.9575 27.9574 13.9596 26.9058 14.2601L27.9574 13.9596C28.1234 14.5405 27.7871 15.1458 27.2063 15.3118C26.6304 15.4763 26.0303 15.1471 25.8584 14.5753L25.853 14.5596C25.8453 14.5377 25.8292 14.4946 25.8022 14.4316C25.7482 14.3057 25.6504 14.0997 25.4876 13.8247C25.1624 13.2752 24.5751 12.4451 23.5544 11.4243C22.5336 10.4036 21.7035 9.81629 21.154 9.49112C20.879 9.32835 20.6731 9.2305 20.5472 9.17654C20.4841 9.14954 20.441 9.13345 20.4191 9.12567L20.4034 9.12028C19.8316 8.94838 19.5024 8.34835 19.6669 7.77246Z" fill="#701A1A"/>
<path fill-rule="evenodd" clip-rule="evenodd" d="M7.30257 6.42685C9.75267 3.97675 13.8873 4.16301 15.5932 7.21985L16.5397 8.91579C17.6538 10.912 17.179 13.4306 15.5482 15.0814C15.5264 15.1112 15.4113 15.2788 15.397 15.5717C15.3787 15.9455 15.5114 16.8099 16.8508 18.1493C18.1898 19.4882 19.0541 19.6213 19.4281 19.6031C19.7212 19.5889 19.8889 19.4737 19.9187 19.4519C21.5695 17.8211 24.0881 17.3464 26.0843 18.4604L27.7803 19.4069C30.8371 21.1129 31.0234 25.2474 28.5733 27.6975C27.2627 29.0081 25.5201 30.1726 23.4724 30.2502C20.4377 30.3652 15.3988 29.5816 10.4087 24.5915C5.41857 19.6013 4.63488 14.5625 4.74993 11.5278C4.82756 9.47998 5.99203 7.7374 7.30257 6.42685ZM13.6831 8.28589C12.8095 6.72059 10.462 6.36098 8.84937 7.97365C7.71865 9.10436 6.98355 10.3524 6.93586 11.6106C6.83992 14.1413 7.46473 18.5539 11.9555 23.0447C16.4462 27.5354 20.8588 28.1602 23.3895 28.0643C24.6477 28.0166 25.8958 27.2815 27.0265 26.1508C28.6391 24.5381 28.2795 22.1906 26.7142 21.3171L25.0183 20.3706C23.9633 19.7818 22.4815 19.9826 21.4412 21.0229C21.339 21.125 20.6886 21.7319 19.5343 21.7881C18.3528 21.8455 16.9225 21.3146 15.304 19.6961C13.685 18.077 13.1542 16.6464 13.2121 15.4647C13.2686 14.3104 13.8756 13.6606 13.9772 13.559C15.0174 12.5187 15.2183 11.0368 14.6296 9.98183L13.6831 8.28589Z" fill="#701A1A"/>
</svg>
