<svg width="35" height="35" viewBox="0 0 35 35" fill="none" xmlns="http://www.w3.org/2000/svg">
<path fill-rule="evenodd" clip-rule="evenodd" d="M18.5937 2.91663C18.5937 2.31256 18.1041 1.82288 17.5 1.82288C16.8959 1.82288 16.4062 2.31256 16.4062 2.91663V4.01038L9.6343 4.0103C8.81467 4.00967 8.16841 4.00917 7.55971 4.20729C7.29281 4.29416 7.03576 4.40882 6.79279 4.54937C6.2387 4.8699 5.80728 5.35108 5.26014 5.96135L5.13011 6.10626C4.53958 6.76386 4.04446 7.31523 3.68398 7.80451C3.30519 8.31864 3.00985 8.84789 2.89314 9.47879C2.80393 9.96103 2.80393 10.4556 2.89314 10.9378C3.00985 11.5687 3.30519 12.0979 3.68398 12.6121C4.04445 13.1014 4.53958 13.6527 5.1301 14.3103L5.26014 14.4552C5.80728 15.0655 6.2387 15.5467 6.79279 15.8672C7.03576 16.0078 7.29281 16.1224 7.55971 16.2093C8.16841 16.4074 8.81467 16.4069 9.6343 16.4063L16.4062 16.4062V17.1354L9.42325 17.1354C8.44678 17.1354 7.63197 17.1353 6.97232 17.2024C6.28184 17.2727 5.64109 17.4254 5.0636 17.8113C4.6257 18.1038 4.24972 18.4798 3.95713 18.9177C3.57126 19.4952 3.41855 20.136 3.34831 20.8264C3.2812 21.4861 3.28123 22.3009 3.28125 23.2774V23.3892C3.28123 24.3657 3.2812 25.1805 3.34831 25.8401C3.41855 26.5306 3.57126 27.1714 3.95713 27.7489C4.24972 28.1868 4.6257 28.5627 5.0636 28.8553C5.64109 29.2412 6.28184 29.3939 6.97232 29.4642C7.63197 29.5313 8.44678 29.5312 9.42325 29.5312H16.4062V30.9895H14.5833C13.9793 30.9895 13.4896 31.4792 13.4896 32.0833C13.4896 32.6874 13.9793 33.177 14.5833 33.177H20.4167C21.0207 33.177 21.5104 32.6874 21.5104 32.0833C21.5104 31.4792 21.0207 30.9895 20.4167 30.9895H18.5937V29.5312L25.3657 29.5313C26.1853 29.5319 26.8316 29.5324 27.4403 29.3343C27.7072 29.2474 27.9642 29.1328 28.2072 28.9922C28.7613 28.6717 29.1927 28.1905 29.7398 27.5803L29.8699 27.4352C30.4604 26.7777 30.9555 26.2263 31.316 25.7371C31.6948 25.2229 31.9901 24.6937 32.1068 24.0628C32.1961 23.5806 32.1961 23.086 32.1068 22.6038C31.9901 21.9729 31.6948 21.4436 31.316 20.9295C30.9555 20.4402 30.4604 19.8888 29.8699 19.2312L29.7398 19.0863C29.1927 18.4761 28.7613 17.9949 28.2072 17.6744C27.9642 17.5338 27.7072 17.4192 27.4403 17.3323C26.8316 17.1342 26.1853 17.1347 25.3657 17.1353L18.5937 17.1354V16.4062L25.5767 16.4062C26.5532 16.4062 27.368 16.4063 28.0277 16.3392C28.7181 16.2689 29.3589 16.1162 29.9364 15.7303C30.3743 15.4377 30.7503 15.0618 31.0429 14.6239C31.4287 14.0464 31.5814 13.4056 31.6517 12.7151C31.7188 12.0555 31.7188 11.2407 31.7187 10.2642V10.1524C31.7188 9.17592 31.7188 8.3611 31.6517 7.70145C31.5814 7.01097 31.4287 6.37022 31.0429 5.79273C30.7503 5.35483 30.3743 4.97885 29.9364 4.68625C29.3589 4.30038 28.7181 4.14768 28.0277 4.07744C27.368 4.01033 26.5532 4.01035 25.5767 4.01038L18.5937 4.01038V2.91663ZM8.23674 6.28738C8.47322 6.21041 8.74668 6.19788 9.77664 6.19788H25.5208C26.5677 6.19788 27.2705 6.1992 27.8063 6.2537C28.3238 6.30635 28.5629 6.39942 28.7211 6.50509C28.9201 6.63809 29.091 6.80899 29.224 7.00803C29.3297 7.16619 29.4228 7.40532 29.4754 7.92283C29.5299 8.45863 29.5312 9.16144 29.5312 10.2083C29.5312 11.2551 29.5299 11.958 29.4754 12.4938C29.4228 13.0113 29.3297 13.2504 29.224 13.4086C29.091 13.6076 28.9201 13.7785 28.7211 13.9115C28.5629 14.0172 28.3238 14.1102 27.8063 14.1629C27.2705 14.2174 26.5677 14.2187 25.5208 14.2187H9.77665C8.74668 14.2187 8.47322 14.2062 8.23674 14.1292C8.11542 14.0897 7.99858 14.0376 7.88814 13.9737C7.67288 13.8492 7.48085 13.6541 6.7927 12.8878C6.15806 12.181 5.73518 11.7083 5.44511 11.3146C5.16626 10.9361 5.07678 10.7163 5.04415 10.5399C5.0036 10.3207 5.0036 10.0959 5.04415 9.8767C5.07678 9.7003 5.16626 9.48051 5.44511 9.10203C5.73518 8.70832 6.15806 8.23559 6.7927 7.52883C7.48085 6.76249 7.67288 6.5674 7.88814 6.44287C7.99858 6.37898 8.11542 6.32687 8.23674 6.28738ZM26.7632 19.4124C26.5268 19.3354 26.2533 19.3229 25.2233 19.3229H9.47917C8.43232 19.3229 7.72951 19.3242 7.19371 19.3787C6.67619 19.4314 6.43707 19.5244 6.27891 19.6301C6.07986 19.7631 5.90896 19.934 5.77597 20.133C5.67029 20.2912 5.57722 20.5303 5.52458 21.0478C5.47007 21.5836 5.46875 22.2864 5.46875 23.3333C5.46875 24.3801 5.47007 25.083 5.52458 25.6188C5.57722 26.1363 5.67029 26.3754 5.77597 26.5336C5.90896 26.7326 6.07986 26.9035 6.27891 27.0365C6.43707 27.1422 6.67619 27.2352 7.19371 27.2879C7.72951 27.3424 8.43232 27.3437 9.47917 27.3437H25.2233C26.2533 27.3437 26.5268 27.3312 26.7632 27.2542C26.8846 27.2147 27.0014 27.1626 27.1118 27.0987C27.3271 26.9742 27.5191 26.7791 28.2073 26.0128C28.8419 25.306 29.2648 24.8333 29.5549 24.4396C29.8337 24.0611 29.9232 23.8413 29.9558 23.6649C29.9964 23.4457 29.9964 23.2209 29.9558 23.0017C29.9232 22.8253 29.8337 22.6055 29.5549 22.227C29.2648 21.8333 28.8419 21.3606 28.2073 20.6538C27.5191 19.8875 27.3271 19.6924 27.1118 19.5679C27.0014 19.504 26.8846 19.4519 26.7632 19.4124Z" fill="#701A1A"/>
</svg>
