<svg width="622" height="114" viewBox="0 0 622 114" fill="none" xmlns="http://www.w3.org/2000/svg">
<path d="M120.719 113.64C114.719 113.4 110.279 111.8 107.399 108.84C104.599 105.96 103.199 102.04 103.199 97.08C103.199 92.92 104.159 88.04 106.079 82.44C106.799 80.36 107.919 77.64 109.439 74.28C111.039 70.84 112.839 67 114.839 62.76C116.839 58.52 118.919 54.16 121.079 49.68C123.239 45.2 125.239 40.84 127.079 36.6C128.999 32.36 130.599 28.56 131.879 25.2C133.239 21.76 134.079 19 134.399 16.92C134.479 16.52 134.519 16.2 134.519 15.96C134.519 15.64 134.519 15.32 134.519 15C134.519 13.16 133.999 11.84 132.959 11.04C131.919 10.16 130.599 9.72 128.999 9.72C126.439 9.72 123.319 10.6 119.639 12.36C115.239 14.44 110.719 17.36 106.079 21.12C101.519 24.8 97.0392 29.28 92.6392 34.56C88.4792 39.6 84.5592 45.08 80.8792 51C77.2792 56.84 73.9192 62.76 70.7992 68.76C67.7592 74.76 64.9592 80.52 62.3992 86.04C59.8392 91.48 57.5592 96.24 55.5592 100.32C54.9992 101.44 54.0392 102.28 52.6792 102.84C51.3992 103.48 50.1592 103.8 48.9592 103.8C47.9192 103.8 47.0392 103.56 46.3192 103.08C45.5992 102.68 45.3592 102.04 45.5992 101.16C46.7992 99.4 48.4392 96.64 50.5192 92.88C52.5992 89.04 54.8392 84.56 57.2392 79.44C59.7192 74.32 62.1992 68.88 64.6792 63.12C67.1592 57.28 69.3992 51.48 71.3992 45.72C73.4792 39.88 75.0792 34.4 76.1992 29.28C76.9992 25.76 77.3992 22.48 77.3992 19.44C77.3992 13.84 76.0792 9.88 73.4392 7.55999C70.8792 5.16 67.5592 3.96 63.4792 3.96C59.7992 3.96 55.7592 4.76 51.3592 6.36C46.9592 7.95999 42.5992 10.12 38.2792 12.84C31.3192 17.08 25.5592 22.04 20.9992 27.72C16.4392 33.32 13.0392 39.04 10.7992 44.88C8.55921 50.64 7.43921 56 7.43921 60.96C7.43921 66.16 8.67921 70.48 11.1592 73.92C13.7192 77.36 17.4792 79.08 22.4392 79.08C26.6792 79.08 30.5592 78.2 34.0792 76.44C37.6792 74.68 40.7592 72.4 43.3192 69.6C45.9592 66.8 47.9992 63.88 49.4392 60.84C50.8792 57.8 51.5992 55 51.5992 52.44C51.5992 50.12 50.9592 48.24 49.6792 46.8C48.3992 45.28 46.3192 44.52 43.4392 44.52C43.1192 44.52 42.7992 44.56 42.4792 44.64C42.1592 44.64 41.7992 44.64 41.3992 44.64H41.0392C40.3192 44.64 39.9592 44.44 39.9592 44.04C39.9592 43.32 40.3592 42.88 41.1592 42.72C43.2392 42.24 45.0392 42 46.5592 42C49.8392 42 52.2392 42.88 53.7592 44.64C55.3592 46.4 56.1592 48.64 56.1592 51.36C56.1592 54.24 55.3192 57.44 53.6392 60.96C52.0392 64.4 49.7192 67.68 46.6792 70.8C43.7192 73.84 40.1592 76.36 35.9992 78.36C31.8392 80.36 27.2392 81.36 22.1992 81.36C18.3592 81.36 14.7592 80.44 11.3992 78.6C8.03921 76.68 5.31921 73.96 3.23921 70.44C1.23921 66.92 0.239213 62.68 0.239213 57.72C0.239213 55.24 0.519213 52.64 1.07921 49.92C1.63921 47.12 2.55921 44.24 3.83921 41.28C5.75921 36.64 8.43921 32.24 11.8792 28.08C15.3192 23.92 19.1992 20.12 23.5192 16.68C27.9192 13.16 32.3992 10.16 36.9592 7.67999C40.9592 5.43999 45.2792 3.67999 49.9192 2.4C54.5592 1.03999 58.9992 0.359994 63.2392 0.359994C67.0792 0.359994 70.5992 0.999995 73.7992 2.28C76.9992 3.56 79.5192 5.64 81.3592 8.52C83.2792 11.32 84.2392 15.08 84.2392 19.8C84.2392 20.6 84.1992 21.36 84.1192 22.08C84.1192 22.8 84.0392 23.68 83.8792 24.72C83.3992 29.36 82.1192 34.08 80.0392 38.88C78.0392 43.6 75.9992 48.2 73.9192 52.68C72.7992 55.16 71.9992 56.96 71.5192 58.08C71.0392 59.2 70.7992 59.84 70.7992 60C70.7992 60.16 70.9992 59.88 71.3992 59.16C71.8792 58.44 72.3992 57.56 72.9592 56.52C73.5992 55.48 74.1592 54.6 74.6392 53.88C76.4792 51 78.7192 47.72 81.3592 44.04C83.9992 40.36 87.0392 36.44 90.4792 32.28C94.9592 26.84 99.6792 21.84 104.639 17.28C109.679 12.72 114.519 9.35999 119.159 7.2C121.239 6.24 123.399 5.47999 125.639 4.91999C127.879 4.35999 129.999 4.08 131.999 4.08C135.199 4.08 137.999 4.91999 140.399 6.59999C142.799 8.2 143.959 11.16 143.879 15.48C143.879 19.08 142.999 23.08 141.239 27.48C139.559 31.88 137.319 36.64 134.519 41.76C131.799 46.88 128.839 52.36 125.639 58.2C122.439 64.04 119.359 70.2 116.399 76.68C114.239 81.32 112.639 85.64 111.599 89.64C110.639 93.56 110.159 97 110.159 99.96C110.159 103.24 110.799 105.8 112.079 107.64C113.359 109.56 115.199 110.52 117.599 110.52C119.359 110.52 121.319 110 123.479 108.96C124.199 108.56 124.839 108.28 125.399 108.12C126.039 108.04 126.519 108 126.839 108C128.039 108 128.639 108.44 128.639 109.32C128.639 110.2 127.919 111.16 126.479 112.2C125.039 113.24 123.119 113.72 120.719 113.64ZM155.153 96C152.113 96 149.873 95 148.433 93C146.993 90.92 146.273 88.4 146.273 85.44C146.273 81.84 147.113 78.08 148.793 74.16C150.393 70.48 152.433 67.12 154.913 64.08C157.393 61.04 160.073 58.6 162.953 56.76C165.833 54.84 168.633 53.88 171.353 53.88C174.393 53.88 176.633 54.88 178.073 56.88C179.513 58.88 180.233 61.4 180.233 64.44C180.233 68.12 179.393 71.88 177.713 75.72C176.753 77.88 175.393 80.28 173.633 82.92C171.873 85.48 169.873 87.84 167.633 90C168.113 90.88 168.793 91.64 169.673 92.28C170.553 92.84 171.753 93.12 173.273 93.12C175.193 93.12 176.993 92.32 178.673 90.72C180.433 89.12 182.033 87.2 183.473 84.96C184.913 82.64 186.193 80.32 187.313 78C188.433 75.68 189.353 73.8 190.073 72.36C190.313 71.88 190.713 71.64 191.273 71.64C191.593 71.64 191.833 71.8 191.993 72.12C192.153 72.36 192.113 72.76 191.873 73.32C191.393 74.52 190.593 76.32 189.473 78.72C188.353 81.04 186.993 83.48 185.393 86.04C183.793 88.52 181.953 90.64 179.873 92.4C177.793 94.16 175.473 95.04 172.913 95.04C171.153 95.04 169.633 94.76 168.353 94.2C167.073 93.56 166.033 92.8 165.233 91.92C163.553 93.2 161.873 94.2 160.193 94.92C158.513 95.64 156.833 96 155.153 96ZM156.953 93.36C159.113 93.36 161.433 92.32 163.913 90.24C163.273 89.28 162.793 88.28 162.473 87.24C162.153 86.2 161.993 85.24 161.993 84.36C161.993 82.92 162.313 81.68 162.953 80.64C163.673 79.6 164.753 79.08 166.193 79.08C167.233 79.08 168.073 79.48 168.713 80.28C169.433 81 169.793 81.84 169.793 82.8C169.793 83.04 169.753 83.28 169.673 83.52C169.673 83.68 169.633 83.88 169.553 84.12C170.913 82.28 172.193 80.12 173.393 77.64C176.033 71.96 177.353 67.28 177.353 63.6C177.353 61.76 176.993 60.32 176.273 59.28C175.553 58.24 174.473 57.72 173.033 57.72C171.353 57.72 169.513 58.44 167.513 59.88C165.593 61.32 163.713 63.24 161.873 65.64C160.113 68.04 158.553 70.72 157.193 73.68C155.913 76.4 154.873 79.04 154.073 81.6C153.353 84.08 152.993 86.24 152.993 88.08C152.993 89.68 153.313 90.96 153.953 91.92C154.593 92.88 155.593 93.36 156.953 93.36ZM212.268 96C210.028 96 208.028 95.24 206.268 93.72C204.508 92.12 203.628 89.64 203.628 86.28C203.628 83.64 204.108 80.4 205.068 76.56C206.108 72.64 207.348 68.6 208.788 64.44C210.308 60.2 211.788 56.36 213.228 52.92H206.868C206.308 52.92 206.028 52.52 206.028 51.72C206.028 51.32 206.108 50.96 206.268 50.64C206.508 50.32 206.828 50.16 207.228 50.16H214.428C215.788 47.12 217.228 44.16 218.748 41.28C220.268 38.4 221.748 35.68 223.188 33.12C225.028 29.92 226.988 27.52 229.068 25.92C231.148 24.32 232.948 23.52 234.468 23.52C235.668 23.52 236.668 24 237.468 24.96C238.268 25.84 238.668 27.2 238.668 29.04C238.668 30.16 238.428 31.72 237.948 33.72C237.468 35.64 236.708 37.68 235.668 39.84C235.108 40.96 234.308 42.56 233.268 44.64C232.308 46.72 231.348 48.56 230.388 50.16H236.148C236.708 50.16 236.988 50.56 236.988 51.36C236.988 51.68 236.908 52.04 236.748 52.44C236.588 52.76 236.348 52.92 236.028 52.92H228.948C226.948 56.36 224.668 59.72 222.108 63C219.548 66.28 216.508 69.56 212.988 72.84C212.748 73.56 212.428 74.6 212.028 75.96C211.708 77.32 211.388 78.72 211.068 80.16C210.828 81.52 210.588 82.68 210.348 83.64C210.188 84.6 210.108 85.08 210.108 85.08C209.868 86.12 209.748 87.08 209.748 87.96C209.748 89.64 210.148 90.88 210.948 91.68C211.748 92.4 212.668 92.76 213.708 92.76C214.348 92.76 214.988 92.68 215.628 92.52C216.268 92.28 216.988 91.88 217.788 91.32C220.588 89.32 223.028 86.6 225.108 83.16C227.268 79.72 229.148 76.4 230.748 73.2C231.228 72.24 231.708 71.76 232.188 71.76C232.508 71.76 232.668 72 232.668 72.48C232.668 72.72 232.548 73.16 232.308 73.8C230.548 77.48 229.068 80.44 227.868 82.68C226.668 84.92 225.508 86.8 224.388 88.32C223.268 89.76 221.948 91.2 220.428 92.64C219.308 93.76 218.028 94.6 216.588 95.16C215.148 95.72 213.708 96 212.268 96ZM221.748 50.16H227.868C228.988 48.08 230.028 46.04 230.988 44.04C232.028 42.04 232.948 40.04 233.748 38.04C234.308 36.76 234.788 35.32 235.188 33.72C235.588 32.12 235.788 30.88 235.788 30C235.788 28.8 235.508 28.2 234.948 28.2C234.548 28.2 233.948 28.56 233.148 29.28C232.428 29.92 231.508 31.04 230.388 32.64C228.948 34.64 227.508 37.24 226.068 40.44C224.708 43.56 223.268 46.8 221.748 50.16ZM213.948 69C216.268 66.6 218.428 64.04 220.428 61.32C222.508 58.6 224.428 55.8 226.188 52.92H220.548C219.268 55.88 218.068 58.76 216.948 61.56C215.828 64.36 214.828 66.84 213.948 69ZM273.249 96.36C272.369 96.44 271.369 96.24 270.249 95.76C269.129 95.28 268.129 94.4 267.249 93.12C266.449 91.84 266.049 90.04 266.049 87.72C266.049 85.8 266.409 83.48 267.129 80.76C266.169 82.28 264.929 84.16 263.409 86.4C261.889 88.56 260.249 90.48 258.489 92.16C256.969 93.6 255.529 94.64 254.169 95.28C252.809 95.92 251.569 96.24 250.449 96.24C248.369 96.24 246.689 95.32 245.409 93.48C244.129 91.56 243.489 89.08 243.489 86.04C243.489 82.84 244.289 79.2 245.889 75.12C247.489 71.04 250.089 66.8 253.689 62.4C256.009 59.6 258.809 57.36 262.089 55.68C265.449 53.92 268.729 53.04 271.929 53.04C273.769 53.04 275.529 53.36 277.209 54C278.889 54.56 280.369 55.52 281.649 56.88C282.209 57.44 282.489 58.08 282.489 58.8C282.489 59.28 282.289 59.68 281.889 60C281.489 60.32 280.969 60.4 280.329 60.24C279.449 57.44 277.569 56.04 274.689 56.04C273.329 56.04 271.769 56.48 270.009 57.36C267.289 58.8 264.449 61.16 261.489 64.44C258.609 67.72 256.089 71.12 253.929 74.64C253.609 75.12 253.089 76.04 252.369 77.4C251.729 78.76 251.089 80.28 250.449 81.96C249.809 83.64 249.369 85.28 249.129 86.88C249.049 87.36 249.009 87.72 249.009 87.96C249.009 88.12 249.009 88.4 249.009 88.8C249.009 91.44 250.009 92.76 252.009 92.76C254.409 92.76 257.129 91 260.169 87.48C262.249 84.92 264.129 82.24 265.809 79.44C267.489 76.64 269.209 73.64 270.969 70.44C272.169 68.28 273.289 66.48 274.329 65.04C275.369 63.6 276.849 62.88 278.769 62.88C279.649 62.88 280.529 63 281.409 63.24C282.289 63.48 283.209 63.52 284.169 63.36C283.529 64 282.649 65.2 281.529 66.96C280.489 68.72 279.369 70.72 278.169 72.96C276.969 75.2 275.889 77.48 274.929 79.8C273.969 82.12 273.289 84.12 272.889 85.8C272.809 86.28 272.689 86.96 272.529 87.84C272.449 88.72 272.409 89.36 272.409 89.76C272.409 92 273.049 93.12 274.329 93.12C275.609 93.12 276.969 92.36 278.409 90.84C279.929 89.32 281.409 87.44 282.849 85.2C284.289 82.96 285.609 80.72 286.809 78.48C288.009 76.16 288.969 74.28 289.689 72.84C290.009 72.04 290.489 71.64 291.129 71.64C291.529 71.64 291.729 71.92 291.729 72.48C291.729 72.72 291.609 73.16 291.369 73.8C290.409 75.8 289.249 78.08 287.889 80.64C286.529 83.12 285.049 85.56 283.449 87.96C281.849 90.28 280.169 92.24 278.409 93.84C276.729 95.36 275.009 96.2 273.249 96.36ZM362.928 96.12C359.488 96.12 356.928 95.24 355.248 93.48C353.568 91.72 352.728 89.52 352.728 86.88C352.728 85.6 352.888 84.36 353.208 83.16C353.688 81.32 354.368 79.28 355.248 77.04C356.208 74.72 357.288 72.36 358.488 69.96C355.688 75.4 353.128 80 350.808 83.76C348.568 87.44 346.848 89.84 345.648 90.96C345.408 91.2 345.168 91.32 344.928 91.32C344.528 91.32 344.328 91.12 344.328 90.72C344.328 90.4 344.448 90.08 344.688 89.76C346.368 87.52 348.288 84.44 350.448 80.52C352.688 76.6 355.048 72.24 357.528 67.44C360.008 62.56 362.528 57.64 365.088 52.68C367.648 47.72 370.128 43.04 372.528 38.64C375.008 34.24 377.248 30.52 379.248 27.48C380.688 25.32 382.048 23.8 383.328 22.92C384.608 21.96 385.928 21.48 387.288 21.48H387.888C388.608 21.48 389.408 21.6 390.288 21.84C391.248 22.08 392.128 22.12 392.928 21.96C391.888 23.08 390.288 25.08 388.128 27.96C386.048 30.76 383.688 34.08 381.048 37.92C378.488 41.68 375.888 45.68 373.248 49.92C370.688 54.08 368.408 58.16 366.408 62.16C364.488 66 362.768 70.12 361.248 74.52C359.808 78.84 359.088 82.64 359.088 85.92C359.088 87.84 359.408 89.44 360.048 90.72C360.688 92 361.768 92.8 363.288 93.12C365.848 93.68 369.288 91.4 373.608 86.28C375.288 84.28 376.968 81.92 378.648 79.2C380.328 76.4 381.648 73.8 382.608 71.4C383.968 68.2 384.648 65.28 384.648 62.64C384.648 60.64 384.128 59.04 383.088 57.84C382.128 56.64 380.488 56.16 378.168 56.4H377.688C376.248 56.4 375.528 56 375.528 55.2C375.528 54.88 375.728 54.56 376.128 54.24C376.608 53.92 377.248 53.76 378.048 53.76C378.288 53.76 378.528 53.8 378.768 53.88C379.088 53.88 379.408 53.92 379.728 54C383.328 54.56 385.888 56.04 387.408 58.44C389.008 60.76 389.808 63.44 389.808 66.48C389.808 67.12 389.768 67.84 389.688 68.64C389.608 69.36 389.488 70.16 389.328 71.04C388.688 74.32 387.448 77.68 385.608 81.12C383.768 84.48 381.488 87.44 378.768 90C376.128 92.56 373.168 94.28 369.888 95.16C368.528 95.48 367.248 95.72 366.048 95.88C364.928 96.04 363.888 96.12 362.928 96.12ZM421.209 96.48C418.249 96.48 415.569 95.52 413.169 93.6C410.849 91.68 409.689 88.76 409.689 84.84C409.689 81.24 410.569 77.4 412.329 73.32C414.089 69.16 416.329 65.52 419.049 62.4C421.369 59.68 423.969 57.44 426.849 55.68C429.729 53.92 432.449 53.04 435.009 53.04C436.769 53.04 438.289 53.52 439.569 54.48C440.929 55.52 441.609 57 441.609 58.92C441.609 60.92 440.849 63.12 439.329 65.52C437.809 67.92 435.649 70.16 432.849 72.24C431.649 73.12 430.129 73.96 428.289 74.76C426.449 75.56 424.609 76.24 422.769 76.8C420.929 77.28 419.409 77.52 418.209 77.52C417.809 78.48 417.409 79.76 417.009 81.36C416.689 82.96 416.529 84.6 416.529 86.28C416.529 88.28 416.929 90.08 417.729 91.68C418.529 93.28 420.009 94.08 422.169 94.08C424.809 94.08 427.209 93.32 429.369 91.8C431.529 90.28 433.449 88.4 435.129 86.16C436.809 83.84 438.209 81.52 439.329 79.2C440.529 76.88 441.489 74.92 442.209 73.32C442.689 72.2 443.329 71.64 444.129 71.64C444.529 71.64 444.729 71.84 444.729 72.24C444.729 72.56 444.609 72.96 444.369 73.44C443.249 75.84 442.049 78.4 440.769 81.12C439.489 83.76 437.969 86.28 436.209 88.68C434.449 91 432.329 92.88 429.849 94.32C427.449 95.76 424.569 96.48 421.209 96.48ZM419.049 75.36C420.169 75.36 422.049 74.96 424.689 74.16C427.329 73.28 429.729 71.92 431.889 70.08C433.969 68.24 435.569 66.24 436.689 64.08C437.809 61.84 438.369 59.96 438.369 58.44C438.369 56.68 437.729 55.8 436.449 55.8C435.489 55.8 434.169 56.44 432.489 57.72C430.809 59 428.729 61.16 426.249 64.2C424.729 66.12 423.289 68.2 421.929 70.44C420.569 72.68 419.609 74.32 419.049 75.36ZM447.855 96.96C450.735 91.12 453.495 85.36 456.135 79.68C458.855 73.92 461.615 68.44 464.415 63.24C466.015 60.36 467.335 58.36 468.375 57.24C469.495 56.04 470.975 55.44 472.815 55.44C473.455 55.44 474.135 55.56 474.855 55.8C475.575 55.96 476.295 56.04 477.015 56.04C477.495 56.04 477.855 56 478.095 55.92C476.975 56.56 475.535 58.16 473.775 60.72C472.015 63.2 470.215 66.08 468.375 69.36C466.535 72.64 464.895 75.72 463.455 78.6C464.975 76.76 466.535 74.92 468.135 73.08C469.815 71.24 471.655 69.48 473.655 67.8C475.575 66.12 477.855 64.4 480.495 62.64C483.215 60.8 485.855 59.28 488.415 58.08C490.975 56.88 493.015 56.28 494.535 56.28C495.095 56.28 495.495 56.32 495.735 56.4C495.735 56.4 495.295 57.2 494.415 58.8C493.535 60.32 492.415 62.36 491.055 64.92C489.775 67.4 488.455 70.08 487.095 72.96C485.735 75.76 484.495 78.48 483.375 81.12C482.335 83.68 481.655 85.84 481.335 87.6C481.095 88.64 480.975 89.6 480.975 90.48C480.975 91.76 481.215 92.6 481.695 93C482.175 93.4 482.695 93.6 483.255 93.6C484.775 93.6 486.375 92.8 488.055 91.2C489.735 89.52 491.335 87.48 492.855 85.08C494.455 82.68 495.855 80.36 497.055 78.12C498.335 75.8 499.255 74.04 499.815 72.84C500.135 72.2 500.375 71.84 500.535 71.76C500.695 71.6 500.935 71.52 501.255 71.52C501.735 71.52 501.975 71.84 501.975 72.48C501.975 72.88 501.855 73.32 501.615 73.8C500.655 75.64 499.495 77.84 498.135 80.4C496.855 82.96 495.375 85.48 493.695 87.96C492.015 90.36 490.175 92.4 488.175 94.08C486.175 95.68 484.015 96.48 481.695 96.48C480.095 96.48 478.415 95.92 476.655 94.8C474.975 93.68 474.135 91.6 474.135 88.56C474.135 87.68 474.215 86.76 474.375 85.8C474.535 84.76 474.815 83.64 475.215 82.44C475.855 80.84 476.615 79.12 477.495 77.28C478.375 75.44 479.815 72.92 481.815 69.72C482.375 68.84 482.695 68.16 482.775 67.68C482.935 67.2 483.015 66.8 483.015 66.48C483.015 65.52 482.575 65.04 481.695 65.04C480.975 65.04 479.895 65.44 478.455 66.24C477.095 67.04 475.375 68.44 473.295 70.44C471.295 72.36 468.895 75.08 466.095 78.6C463.375 82.12 460.215 87.32 456.615 94.2C456.055 95.24 455.415 95.8 454.695 95.88C454.055 95.96 453.135 96.04 451.935 96.12C451.135 96.2 450.375 96.24 449.655 96.24C448.935 96.32 448.335 96.56 447.855 96.96ZM524.888 96.48C521.928 96.48 519.248 95.52 516.848 93.6C514.528 91.68 513.368 88.76 513.368 84.84C513.368 81.24 514.248 77.4 516.008 73.32C517.768 69.16 520.008 65.52 522.728 62.4C525.048 59.68 527.648 57.44 530.528 55.68C533.408 53.92 536.128 53.04 538.688 53.04C540.448 53.04 541.968 53.52 543.248 54.48C544.608 55.52 545.288 57 545.288 58.92C545.288 60.92 544.528 63.12 543.008 65.52C541.488 67.92 539.328 70.16 536.528 72.24C535.328 73.12 533.808 73.96 531.968 74.76C530.128 75.56 528.288 76.24 526.448 76.8C524.608 77.28 523.088 77.52 521.888 77.52C521.488 78.48 521.088 79.76 520.688 81.36C520.368 82.96 520.208 84.6 520.208 86.28C520.208 88.28 520.608 90.08 521.408 91.68C522.208 93.28 523.688 94.08 525.848 94.08C528.488 94.08 530.888 93.32 533.048 91.8C535.208 90.28 537.128 88.4 538.808 86.16C540.488 83.84 541.888 81.52 543.008 79.2C544.208 76.88 545.168 74.92 545.888 73.32C546.368 72.2 547.008 71.64 547.808 71.64C548.208 71.64 548.408 71.84 548.408 72.24C548.408 72.56 548.288 72.96 548.048 73.44C546.928 75.84 545.728 78.4 544.448 81.12C543.168 83.76 541.648 86.28 539.888 88.68C538.128 91 536.008 92.88 533.528 94.32C531.128 95.76 528.248 96.48 524.888 96.48ZM522.728 75.36C523.848 75.36 525.728 74.96 528.368 74.16C531.008 73.28 533.408 71.92 535.568 70.08C537.648 68.24 539.248 66.24 540.368 64.08C541.488 61.84 542.048 59.96 542.048 58.44C542.048 56.68 541.408 55.8 540.128 55.8C539.168 55.8 537.848 56.44 536.168 57.72C534.488 59 532.408 61.16 529.928 64.2C528.408 66.12 526.968 68.2 525.608 70.44C524.248 72.68 523.288 74.32 522.728 75.36ZM580.933 83.16L579.733 82.92L579.853 82.2L610.573 23.76C611.133 22.64 611.973 21.96 613.093 21.72C614.213 21.48 615.413 21.36 616.693 21.36H620.533L621.133 21.72L621.373 22.32C621.213 22.88 620.413 24.28 618.973 26.52C617.613 28.68 615.813 31.44 613.573 34.8C611.413 38.08 609.013 41.72 606.373 45.72C603.733 49.64 601.053 53.6 598.333 57.6C595.613 61.52 593.053 65.24 590.653 68.76C588.253 72.28 586.173 75.32 584.413 77.88C582.733 80.44 581.573 82.2 580.933 83.16ZM574.813 97.8C573.293 97.8 572.173 97.28 571.453 96.24C570.813 95.2 570.573 94 570.733 92.64C570.893 91.2 571.573 90.04 572.773 89.16C573.973 88.28 575.213 87.84 576.493 87.84C577.773 87.84 578.813 88.24 579.613 89.04C580.413 89.76 580.813 90.72 580.813 91.92C580.813 93.44 580.173 94.8 578.893 96C577.693 97.2 576.333 97.8 574.813 97.8Z" fill="#FFF2E4"/>
</svg>
