<svg width="968" height="295" viewBox="0 0 968 295" fill="none" xmlns="http://www.w3.org/2000/svg">
<path d="M76.692 102.68C74.852 102.68 72.972 102.56 71.052 102.32C66.012 101.68 62.292 100.2 59.892 97.88C57.572 95.48 56.412 92.92 56.412 90.2C56.412 87.24 57.692 84.56 60.252 82.16C62.892 79.76 66.612 78.56 71.412 78.56C74.612 78.56 78.092 79.2 81.852 80.48C83.452 80.96 85.412 81.8 87.732 83C90.132 84.12 92.492 85.28 94.812 86.48C97.132 87.68 98.932 88.64 100.212 89.36C103.732 85.92 106.972 81.96 109.932 77.48C112.972 72.92 115.852 68.08 118.572 62.96C121.292 57.76 124.052 52.52 126.852 47.24C129.652 41.96 132.572 36.84 135.612 31.88C138.732 26.84 142.172 22.24 145.932 18.08C141.772 15.52 137.172 13.56 132.132 12.2C127.172 10.76 122.052 10.04 116.772 10.04C114.772 10.04 112.732 10.16 110.652 10.4C108.652 10.64 106.612 10.96 104.532 11.36C97.092 12.96 90.812 15.52 85.692 19.04C80.572 22.48 76.692 26.28 74.052 30.44C71.492 34.52 70.212 38.4 70.212 42.08C70.212 44.8 70.932 47.2 72.372 49.28C73.812 51.36 76.012 52.84 78.972 53.72C81.132 54.36 83.012 54.68 84.612 54.68C87.252 54.68 89.532 54.16 91.452 53.12C93.452 52 95.132 50.64 96.492 49.04C97.852 47.44 98.852 45.88 99.492 44.36C100.212 42.84 100.612 41.6 100.692 40.64C100.692 40.08 101.052 39.8 101.772 39.8C102.892 39.8 103.332 40.48 103.092 41.84C102.692 45.04 101.492 47.84 99.492 50.24C97.492 52.56 95.092 54.4 92.292 55.76C89.492 57.04 86.612 57.68 83.652 57.68C81.732 57.68 79.732 57.36 77.652 56.72C73.972 55.44 70.852 53.24 68.292 50.12C65.812 46.92 64.572 43.16 64.572 38.84C64.572 34.6 65.972 30.36 68.772 26.12C71.652 21.8 76.212 17.92 82.452 14.48C88.692 11.04 96.852 8.6 106.932 7.16C110.292 6.68 113.692 6.44 117.132 6.44C122.812 6.44 128.372 7.12 133.812 8.47999C139.332 9.84 144.532 11.8 149.412 14.36L152.412 10.88C153.132 10.24 154.132 9.44 155.412 8.47999C156.772 7.52 158.132 6.6 159.492 5.71999C160.852 4.84 161.852 4.28 162.492 4.03999C163.532 3.63999 164.372 3.43999 165.012 3.43999C165.492 3.43999 165.732 3.56 165.732 3.8C165.732 4.35999 165.092 5.04 163.812 5.84C163.012 6.4 162.292 7.04 161.652 7.76C161.012 8.4 160.532 8.92 160.212 9.32C159.012 11 158.052 12.36 157.332 13.4C156.692 14.44 155.812 15.8 154.692 17.48C162.052 22.36 168.052 28.68 172.692 36.44C177.332 44.12 179.652 52.92 179.652 62.84C179.652 64.92 179.532 67.04 179.292 69.2C178.812 74.32 177.412 78.96 175.092 83.12C172.772 87.28 169.732 90.8 165.972 93.68C162.292 96.56 158.172 98.76 153.612 100.28C149.132 101.88 144.412 102.68 139.452 102.68C137.612 102.68 135.772 102.56 133.932 102.32C126.092 101.36 119.612 100.08 114.492 98.48C109.452 96.96 105.012 95.36 101.172 93.68C93.892 99.68 85.732 102.68 76.692 102.68ZM137.412 99.08C143.812 99.08 149.452 97.72 154.332 95C159.292 92.2 163.292 88.56 166.332 84.08C169.372 79.6 171.172 74.76 171.732 69.56C171.972 67.64 172.092 65.72 172.092 63.8C172.092 55.08 170.212 47.16 166.452 40.04C162.772 32.84 157.892 26.8 151.812 21.92C148.292 27.44 144.652 33.28 140.892 39.44C137.212 45.6 133.492 51.72 129.732 57.8C125.972 63.8 122.292 69.36 118.692 74.48C115.172 79.6 111.852 83.84 108.732 87.2C108.172 87.68 107.452 88.4 106.572 89.36C105.772 90.24 104.932 90.96 104.052 91.52C107.812 93.2 112.092 94.72 116.892 96.08C121.692 97.44 127.332 98.4 133.812 98.96C134.532 99.04 135.132 99.08 135.612 99.08C136.172 99.08 136.772 99.08 137.412 99.08ZM74.052 98.96C78.452 99.2 82.572 98.68 86.412 97.4C90.252 96.04 93.812 94.16 97.092 91.76C94.212 90.4 91.292 89 88.332 87.56C85.372 86.04 82.252 84.68 78.972 83.48C76.812 82.76 74.892 82.4 73.212 82.4C70.252 82.4 68.012 83.24 66.492 84.92C64.972 86.52 64.212 88.32 64.212 90.32C64.212 92.48 65.052 94.44 66.732 96.2C68.412 97.88 70.852 98.8 74.052 98.96ZM205.636 98C204.756 98 203.676 97.8 202.396 97.4C201.196 97 200.116 96.28 199.156 95.24C198.276 94.12 197.836 92.48 197.836 90.32C197.836 88.24 198.316 86.24 199.276 84.32C200.316 82.32 201.276 80.4 202.156 78.56C201.916 78.56 201.636 78.48 201.316 78.32C201.076 78.16 200.956 77.92 200.956 77.6C200.956 77.28 201.036 76.96 201.196 76.64C201.516 76 201.876 75.32 202.276 74.6C202.676 73.88 203.036 73.12 203.356 72.32C204.556 69.84 205.756 67.48 206.956 65.24C208.156 62.92 209.196 60.88 210.076 59.12C210.956 57.36 212.476 56.48 214.636 56.48H222.076C220.716 57.52 219.476 58.68 218.356 59.96C217.316 61.16 215.996 63.4 214.396 66.68C214.396 66.68 214.116 67.24 213.556 68.36C212.996 69.48 212.276 70.92 211.396 72.68C210.596 74.36 209.756 76.08 208.876 77.84C208.076 79.6 207.396 81.08 206.836 82.28C205.796 84.52 205.116 86.32 204.796 87.68C204.476 88.96 204.316 90.16 204.316 91.28C204.316 93.92 205.196 95.24 206.956 95.24C208.876 95.24 211.196 93.68 213.916 90.56C216.156 87.92 218.356 84.76 220.516 81.08C222.676 77.4 224.716 73.6 226.636 69.68C228.636 65.76 230.396 62.24 231.916 59.12C232.796 57.36 234.356 56.48 236.596 56.48H243.196C241.996 57.44 240.996 58.36 240.196 59.24C239.396 60.04 238.596 61.16 237.796 62.6C237.076 63.96 236.076 65.92 234.796 68.48C233.756 70.64 232.636 72.96 231.436 75.44C230.316 77.84 229.316 80.12 228.436 82.28C227.556 84.44 226.996 86.2 226.756 87.56C226.676 88.36 226.596 88.96 226.516 89.36C226.436 89.76 226.396 90.2 226.396 90.68C226.396 92.2 226.636 93.28 227.116 93.92C227.676 94.56 228.316 94.88 229.036 94.88C230.956 94.88 232.876 93.8 234.796 91.64C236.796 89.48 238.676 86.84 240.436 83.72C242.276 80.6 243.836 77.64 245.116 74.84C245.596 73.96 246.036 73.52 246.436 73.52C246.916 73.52 247.156 73.8 247.156 74.36C247.156 74.76 246.996 75.24 246.676 75.8C245.796 77.72 244.716 79.92 243.436 82.4C242.156 84.88 240.716 87.32 239.116 89.72C237.516 92.12 235.756 94.12 233.836 95.72C231.916 97.24 229.836 98 227.596 98C225.596 98 223.956 97.28 222.676 95.84C221.396 94.32 220.756 92.2 220.756 89.48C220.756 87.32 221.156 85 221.956 82.52C220.596 84.92 219.036 87.32 217.276 89.72C215.516 92.12 213.636 94.12 211.636 95.72C209.636 97.24 207.636 98 205.636 98ZM276.001 98.12C274.481 98.12 272.961 97.52 271.441 96.32C269.921 95.04 269.161 93 269.161 90.2C269.161 88.04 269.681 85.56 270.721 82.76C271.681 80.04 272.961 77.4 274.561 74.84C276.241 72.28 277.441 70.2 278.161 68.6C278.401 67.96 278.521 67.4 278.521 66.92C278.521 65.48 277.601 64.44 275.761 63.8C274.001 63.16 271.681 62.8 268.801 62.72L267.361 66.68C266.481 69.24 265.241 72.24 263.641 75.68C262.121 79.12 260.401 82.44 258.481 85.64C256.641 88.84 254.721 91.4 252.721 93.32C252.561 93.48 252.361 93.56 252.121 93.56C251.801 93.56 251.601 93.36 251.521 92.96C251.361 92.56 251.521 92.08 252.001 91.52C255.121 87.36 257.921 82.76 260.401 77.72C262.881 72.6 264.961 67.4 266.641 62.12C268.401 56.84 269.681 51.96 270.481 47.48C270.721 46.2 271.161 45.28 271.801 44.72C272.441 44.08 273.121 43.76 273.841 43.76C274.881 43.76 275.841 44.28 276.721 45.32C277.601 46.28 278.041 47.68 278.041 49.52C278.041 49.84 278.001 50.2 277.921 50.6C277.921 51 277.881 51.4 277.801 51.8C277.481 53.48 276.521 55.08 274.921 56.6C273.401 58.04 272.161 59.12 271.201 59.84C272.001 59.92 272.841 60 273.721 60.08C274.601 60.08 275.561 60.08 276.601 60.08C280.361 60.08 284.081 59.84 287.761 59.36C287.921 59.84 288.001 60.2 288.001 60.44C288.001 61.48 287.681 62.8 287.041 64.4C286.481 66 285.881 67.44 285.241 68.72C284.921 69.44 284.281 70.76 283.321 72.68C282.361 74.52 281.321 76.64 280.201 79.04C279.081 81.36 278.121 83.68 277.321 86C276.601 88.24 276.241 90.16 276.241 91.76C276.241 93.84 277.041 94.88 278.641 94.88C279.841 94.88 281.161 94.12 282.601 92.6C284.041 91 285.441 89.08 286.801 86.84C288.241 84.52 289.521 82.28 290.641 80.12C291.841 77.88 292.761 76.12 293.401 74.84C293.721 74.04 294.161 73.64 294.721 73.64C295.041 73.64 295.201 73.92 295.201 74.48C295.201 74.8 295.081 75.28 294.841 75.92C293.961 77.76 292.921 79.84 291.721 82.16C290.521 84.48 289.161 86.76 287.641 89C286.201 91.24 284.601 93.2 282.841 94.88C281.161 96.48 279.321 97.52 277.321 98C277.081 98.08 276.641 98.12 276.001 98.12ZM335.73 98.36C334.85 98.44 333.85 98.24 332.73 97.76C331.61 97.28 330.61 96.4 329.73 95.12C328.93 93.84 328.53 92.04 328.53 89.72C328.53 87.8 328.89 85.48 329.61 82.76C328.65 84.28 327.41 86.16 325.89 88.4C324.37 90.56 322.73 92.48 320.97 94.16C319.45 95.6 318.01 96.64 316.65 97.28C315.29 97.92 314.05 98.24 312.93 98.24C310.85 98.24 309.17 97.32 307.89 95.48C306.61 93.56 305.97 91.08 305.97 88.04C305.97 84.84 306.77 81.2 308.37 77.12C309.97 73.04 312.57 68.8 316.17 64.4C318.49 61.6 321.29 59.36 324.57 57.68C327.93 55.92 331.21 55.04 334.41 55.04C336.25 55.04 338.01 55.36 339.69 56C341.37 56.56 342.85 57.52 344.13 58.88C344.69 59.44 344.97 60.08 344.97 60.8C344.97 61.28 344.77 61.68 344.37 62C343.97 62.32 343.45 62.4 342.81 62.24C341.93 59.44 340.05 58.04 337.17 58.04C335.81 58.04 334.25 58.48 332.49 59.36C329.77 60.8 326.93 63.16 323.97 66.44C321.09 69.72 318.57 73.12 316.41 76.64C316.09 77.12 315.57 78.04 314.85 79.4C314.21 80.76 313.57 82.28 312.93 83.96C312.29 85.64 311.85 87.28 311.61 88.88C311.53 89.36 311.49 89.72 311.49 89.96C311.49 90.12 311.49 90.4 311.49 90.8C311.49 93.44 312.49 94.76 314.49 94.76C316.89 94.76 319.61 93 322.65 89.48C324.73 86.92 326.61 84.24 328.29 81.44C329.97 78.64 331.69 75.64 333.45 72.44C334.65 70.28 335.77 68.48 336.81 67.04C337.85 65.6 339.33 64.88 341.25 64.88C342.13 64.88 343.01 65 343.89 65.24C344.77 65.48 345.69 65.52 346.65 65.36C346.01 66 345.13 67.2 344.01 68.96C342.97 70.72 341.85 72.72 340.65 74.96C339.45 77.2 338.37 79.48 337.41 81.8C336.45 84.12 335.77 86.12 335.37 87.8C335.29 88.28 335.17 88.96 335.01 89.84C334.93 90.72 334.89 91.36 334.89 91.76C334.89 94 335.53 95.12 336.81 95.12C338.09 95.12 339.45 94.36 340.89 92.84C342.41 91.32 343.89 89.44 345.33 87.2C346.77 84.96 348.09 82.72 349.29 80.48C350.49 78.16 351.45 76.28 352.17 74.84C352.49 74.04 352.97 73.64 353.61 73.64C354.01 73.64 354.21 73.92 354.21 74.48C354.21 74.72 354.09 75.16 353.85 75.8C352.89 77.8 351.73 80.08 350.37 82.64C349.01 85.12 347.53 87.56 345.93 89.96C344.33 92.28 342.65 94.24 340.89 95.84C339.21 97.36 337.49 98.2 335.73 98.36ZM426.729 102.68C424.969 102.68 423.249 102.56 421.569 102.32C416.529 101.68 412.809 100.2 410.409 97.88C408.089 95.56 406.929 93.04 406.929 90.32C406.929 87.36 408.249 84.68 410.889 82.28C413.609 79.88 417.409 78.68 422.289 78.68C423.809 78.68 425.409 78.84 427.089 79.16C428.849 79.4 430.689 79.84 432.609 80.48C433.569 80.8 434.049 81.24 434.049 81.8C434.049 82.12 433.809 82.28 433.329 82.28C432.849 82.28 432.449 82.2 432.129 82.04C430.849 81.56 429.609 81.24 428.409 81.08C427.289 80.84 426.209 80.72 425.169 80.72C421.729 80.72 419.089 81.72 417.249 83.72C415.489 85.64 414.609 87.76 414.609 90.08C414.609 92.32 415.529 94.36 417.369 96.2C419.209 98.04 422.129 98.96 426.129 98.96C431.169 98.96 435.809 97.8 440.049 95.48C444.369 93.16 448.449 90.12 452.289 86.36C456.369 82.36 460.089 77.56 463.449 71.96C466.809 66.28 470.129 60.24 473.409 53.84C476.769 47.36 480.409 40.84 484.329 34.28C488.249 27.72 492.769 21.56 497.889 15.8C498.929 14.68 499.969 13.52 501.009 12.32C502.129 11.04 503.209 9.96 504.249 9.07999C501.529 8.67999 498.729 8.39999 495.849 8.24C492.969 8 490.129 7.87999 487.329 7.87999C483.169 7.87999 479.209 8.07999 475.449 8.47999C471.769 8.79999 468.089 9.28 464.409 9.92C460.649 10.64 456.449 11.76 451.809 13.28C447.169 14.8 442.649 16.8 438.249 19.28C433.929 21.68 430.209 24.6 427.089 28.04C424.049 31.48 422.169 35.44 421.449 39.92C421.369 40.32 421.289 40.76 421.209 41.24C421.209 41.64 421.209 42.04 421.209 42.44C421.209 46.12 422.449 49.16 424.929 51.56C427.489 53.96 430.449 55.16 433.809 55.16C436.289 55.16 438.689 54.52 441.009 53.24C443.329 51.88 445.409 50.12 447.249 47.96C449.089 45.72 450.449 43.28 451.329 40.64C451.409 39.84 451.729 39.44 452.289 39.44C452.769 39.44 453.009 39.88 453.009 40.76C452.929 44.28 451.889 47.32 449.889 49.88C447.969 52.44 445.529 54.4 442.569 55.76C439.609 57.04 436.609 57.68 433.569 57.68C430.449 57.68 427.489 57.04 424.689 55.76C421.889 54.4 419.609 52.44 417.849 49.88C416.089 47.24 415.209 44 415.209 40.16C415.209 35.68 416.289 31.72 418.449 28.28C420.689 24.84 423.649 21.84 427.329 19.28C431.009 16.64 435.009 14.44 439.329 12.68C443.649 10.84 447.969 9.4 452.289 8.36C456.609 7.24 460.529 6.4 464.049 5.84C467.649 5.28 471.369 4.84 475.209 4.51999C479.129 4.19999 483.089 4.03999 487.089 4.03999C490.529 4.03999 493.969 4.19999 497.409 4.51999C500.849 4.84 504.209 5.32 507.489 5.96C508.849 4.92 510.249 4 511.689 3.2C513.129 2.4 514.729 1.68 516.489 1.04C517.609 0.559998 518.449 0.319999 519.009 0.319999C519.489 0.319999 519.729 0.479997 519.729 0.799993C519.729 1.35999 519.089 2.04 517.809 2.83999C517.169 3.16 516.369 3.72 515.409 4.51999C514.449 5.31999 513.409 6.23999 512.289 7.27999C517.489 8.56 522.169 10.48 526.329 13.04C530.889 15.76 534.129 18.64 536.049 21.68C538.049 24.72 539.049 27.84 539.049 31.04C539.049 34.72 537.929 38.4 535.689 42.08C533.449 45.68 530.529 49.04 526.929 52.16C523.329 55.28 519.369 58 515.049 60.32C510.729 62.56 506.449 64.2 502.209 65.24C498.129 66.28 494.009 67.04 489.849 67.52C485.689 68 481.969 68.24 478.689 68.24C478.129 68.24 477.529 68.24 476.889 68.24C476.329 68.24 475.769 68.2 475.209 68.12C472.489 71.96 469.689 75.72 466.809 79.4C463.929 83 460.689 86.52 457.089 89.96C452.689 94.12 447.889 97.28 442.689 99.44C437.489 101.6 432.169 102.68 426.729 102.68ZM476.889 65.48C479.929 65.56 483.329 65.32 487.089 64.76C490.849 64.2 494.609 63.36 498.369 62.24C504.609 60.32 510.209 57.56 515.169 53.96C520.209 50.36 524.169 46.36 527.049 41.96C530.009 37.56 531.489 33.24 531.489 29C531.489 26.44 530.849 24 529.569 21.68C528.369 19.36 526.369 17.28 523.569 15.44C521.729 14.24 519.649 13.2 517.329 12.32C515.009 11.44 512.569 10.72 510.009 10.16C505.929 15.92 502.089 21.92 498.489 28.16C494.969 34.4 491.449 40.68 487.929 47C484.489 53.32 480.809 59.48 476.889 65.48ZM558.161 98.36C557.281 98.44 556.281 98.24 555.161 97.76C554.041 97.28 553.041 96.4 552.161 95.12C551.361 93.84 550.961 92.04 550.961 89.72C550.961 87.8 551.321 85.48 552.041 82.76C551.081 84.28 549.841 86.16 548.321 88.4C546.801 90.56 545.161 92.48 543.401 94.16C541.881 95.6 540.441 96.64 539.081 97.28C537.721 97.92 536.481 98.24 535.361 98.24C533.281 98.24 531.601 97.32 530.321 95.48C529.041 93.56 528.401 91.08 528.401 88.04C528.401 84.84 529.201 81.2 530.801 77.12C532.401 73.04 535.001 68.8 538.601 64.4C540.921 61.6 543.721 59.36 547.001 57.68C550.361 55.92 553.641 55.04 556.841 55.04C558.681 55.04 560.441 55.36 562.121 56C563.801 56.56 565.281 57.52 566.561 58.88C567.121 59.44 567.401 60.08 567.401 60.8C567.401 61.28 567.201 61.68 566.801 62C566.401 62.32 565.881 62.4 565.241 62.24C564.361 59.44 562.481 58.04 559.601 58.04C558.241 58.04 556.681 58.48 554.921 59.36C552.201 60.8 549.361 63.16 546.401 66.44C543.521 69.72 541.001 73.12 538.841 76.64C538.521 77.12 538.001 78.04 537.281 79.4C536.641 80.76 536.001 82.28 535.361 83.96C534.721 85.64 534.281 87.28 534.041 88.88C533.961 89.36 533.921 89.72 533.921 89.96C533.921 90.12 533.921 90.4 533.921 90.8C533.921 93.44 534.921 94.76 536.921 94.76C539.321 94.76 542.041 93 545.081 89.48C547.161 86.92 549.041 84.24 550.721 81.44C552.401 78.64 554.121 75.64 555.881 72.44C557.081 70.28 558.201 68.48 559.241 67.04C560.281 65.6 561.761 64.88 563.681 64.88C564.561 64.88 565.441 65 566.321 65.24C567.201 65.48 568.121 65.52 569.081 65.36C568.441 66 567.561 67.2 566.441 68.96C565.401 70.72 564.281 72.72 563.081 74.96C561.881 77.2 560.801 79.48 559.841 81.8C558.881 84.12 558.201 86.12 557.801 87.8C557.721 88.28 557.601 88.96 557.441 89.84C557.361 90.72 557.321 91.36 557.321 91.76C557.321 94 557.961 95.12 559.241 95.12C560.521 95.12 561.881 94.36 563.321 92.84C564.841 91.32 566.321 89.44 567.761 87.2C569.201 84.96 570.521 82.72 571.721 80.48C572.921 78.16 573.881 76.28 574.601 74.84C574.921 74.04 575.401 73.64 576.041 73.64C576.441 73.64 576.641 73.92 576.641 74.48C576.641 74.72 576.521 75.16 576.281 75.8C575.321 77.8 574.161 80.08 572.801 82.64C571.441 85.12 569.961 87.56 568.361 89.96C566.761 92.28 565.081 94.24 563.321 95.84C561.641 97.36 559.921 98.2 558.161 98.36ZM579.829 98.96C582.709 93.12 585.469 87.36 588.109 81.68C590.829 75.92 593.589 70.44 596.389 65.24C597.989 62.36 599.309 60.36 600.349 59.24C601.469 58.04 602.949 57.44 604.789 57.44C605.429 57.44 606.109 57.56 606.829 57.8C607.549 57.96 608.269 58.04 608.989 58.04C609.469 58.04 609.829 58 610.069 57.92C608.949 58.56 607.509 60.16 605.749 62.72C603.989 65.2 602.189 68.08 600.349 71.36C598.509 74.64 596.869 77.72 595.429 80.6C596.949 78.76 598.509 76.92 600.109 75.08C601.789 73.24 603.629 71.48 605.629 69.8C607.549 68.12 609.829 66.4 612.469 64.64C615.189 62.8 617.829 61.28 620.389 60.08C622.949 58.88 624.989 58.28 626.509 58.28C627.069 58.28 627.469 58.32 627.709 58.4C627.709 58.4 627.269 59.2 626.389 60.8C625.509 62.32 624.389 64.36 623.029 66.92C621.749 69.4 620.429 72.08 619.069 74.96C617.709 77.76 616.469 80.48 615.349 83.12C614.309 85.68 613.629 87.84 613.309 89.6C613.069 90.64 612.949 91.6 612.949 92.48C612.949 93.76 613.189 94.6 613.669 95C614.149 95.4 614.669 95.6 615.229 95.6C616.749 95.6 618.349 94.8 620.029 93.2C621.709 91.52 623.309 89.48 624.829 87.08C626.429 84.68 627.829 82.36 629.029 80.12C630.309 77.8 631.229 76.04 631.789 74.84C632.109 74.2 632.349 73.84 632.509 73.76C632.669 73.6 632.909 73.52 633.229 73.52C633.709 73.52 633.949 73.84 633.949 74.48C633.949 74.88 633.829 75.32 633.589 75.8C632.629 77.64 631.469 79.84 630.109 82.4C628.829 84.96 627.349 87.48 625.669 89.96C623.989 92.36 622.149 94.4 620.149 96.08C618.149 97.68 615.989 98.48 613.669 98.48C612.069 98.48 610.389 97.92 608.629 96.8C606.949 95.68 606.109 93.6 606.109 90.56C606.109 89.68 606.189 88.76 606.349 87.8C606.509 86.76 606.789 85.64 607.189 84.44C607.829 82.84 608.589 81.12 609.469 79.28C610.349 77.44 611.789 74.92 613.789 71.72C614.349 70.84 614.669 70.16 614.749 69.68C614.909 69.2 614.989 68.8 614.989 68.48C614.989 67.52 614.549 67.04 613.669 67.04C612.949 67.04 611.869 67.44 610.429 68.24C609.069 69.04 607.349 70.44 605.269 72.44C603.269 74.36 600.869 77.08 598.069 80.6C595.349 84.12 592.189 89.32 588.589 96.2C588.029 97.24 587.389 97.8 586.669 97.88C586.029 97.96 585.109 98.04 583.909 98.12C583.109 98.2 582.349 98.24 581.629 98.24C580.909 98.32 580.309 98.56 579.829 98.96ZM630.101 130.76C629.141 130.76 628.181 130.6 627.221 130.28C626.181 130.04 625.141 130 624.101 130.16C624.581 129.68 625.501 128.28 626.861 125.96C628.221 123.72 629.821 120.92 631.661 117.56C633.421 114.2 635.301 110.56 637.301 106.64C639.301 102.72 641.181 98.88 642.941 95.12C644.701 91.28 646.181 87.8 647.381 84.68C648.661 81.48 649.461 78.96 649.781 77.12C649.061 78.16 648.341 78.76 647.621 78.92C646.981 79 646.821 78.76 647.141 78.2C647.301 77.88 647.621 77.12 648.101 75.92C648.661 74.64 649.141 73.56 649.541 72.68C650.181 71.08 650.701 69.32 651.101 67.4C651.581 65.48 651.821 63.64 651.821 61.88C651.821 60.76 651.701 59.8 651.461 59C651.221 58.2 650.781 57.76 650.141 57.68C650.141 57.68 650.581 57.6 651.461 57.44C652.341 57.28 653.261 57.12 654.221 56.96C655.181 56.8 655.821 56.72 656.141 56.72C656.621 56.64 657.061 56.6 657.461 56.6C657.861 56.52 658.221 56.48 658.541 56.48C659.261 56.48 659.741 56.76 659.981 57.32C660.301 57.8 660.461 58.84 660.461 60.44C660.461 62.44 660.101 65 659.381 68.12C658.741 71.16 657.981 73.84 657.101 76.16C657.981 74.72 659.101 72.88 660.461 70.64C661.901 68.4 663.541 66.12 665.381 63.8C667.221 61.48 669.141 59.56 671.141 58.04C673.141 56.44 675.101 55.64 677.021 55.64C677.421 55.64 677.941 55.72 678.581 55.88C680.821 56.44 682.381 57.56 683.261 59.24C684.221 60.84 684.701 62.76 684.701 65C684.701 67.4 684.221 70.04 683.261 72.92C682.381 75.8 681.181 78.64 679.661 81.44C678.141 84.16 676.461 86.64 674.621 88.88C672.381 91.68 669.701 93.92 666.581 95.6C663.461 97.28 660.261 98.12 656.981 98.12C654.021 98.12 651.261 97.36 648.701 95.84L637.301 124.52C636.181 126.92 635.101 128.56 634.061 129.44C633.021 130.32 631.701 130.76 630.101 130.76ZM653.141 95.6C655.381 95.6 657.901 94.56 660.701 92.48C663.501 90.4 666.181 87.76 668.741 84.56C671.381 81.28 673.581 78 675.341 74.72C676.541 72.48 677.421 70.44 677.981 68.6C678.541 66.68 678.821 65.04 678.821 63.68C678.821 60.56 677.701 59 675.461 59C674.421 59 673.061 59.56 671.381 60.68C669.781 61.8 667.901 63.84 665.741 66.8C663.421 70 660.861 74.04 658.061 78.92C655.341 83.72 652.541 88.8 649.661 94.16C650.621 95.12 651.781 95.6 653.141 95.6ZM731.608 98.36C730.728 98.44 729.728 98.24 728.608 97.76C727.488 97.28 726.488 96.4 725.608 95.12C724.808 93.84 724.408 92.04 724.408 89.72C724.408 87.8 724.768 85.48 725.488 82.76C724.528 84.28 723.288 86.16 721.768 88.4C720.248 90.56 718.608 92.48 716.848 94.16C715.328 95.6 713.888 96.64 712.528 97.28C711.168 97.92 709.928 98.24 708.808 98.24C706.728 98.24 705.048 97.32 703.768 95.48C702.488 93.56 701.848 91.08 701.848 88.04C701.848 84.84 702.648 81.2 704.248 77.12C705.848 73.04 708.448 68.8 712.048 64.4C714.368 61.6 717.168 59.36 720.448 57.68C723.808 55.92 727.088 55.04 730.288 55.04C732.128 55.04 733.888 55.36 735.568 56C737.248 56.56 738.728 57.52 740.008 58.88C740.568 59.44 740.848 60.08 740.848 60.8C740.848 61.28 740.648 61.68 740.248 62C739.848 62.32 739.328 62.4 738.688 62.24C737.808 59.44 735.928 58.04 733.048 58.04C731.688 58.04 730.128 58.48 728.368 59.36C725.648 60.8 722.808 63.16 719.848 66.44C716.968 69.72 714.448 73.12 712.288 76.64C711.968 77.12 711.448 78.04 710.728 79.4C710.088 80.76 709.448 82.28 708.808 83.96C708.168 85.64 707.728 87.28 707.488 88.88C707.408 89.36 707.368 89.72 707.368 89.96C707.368 90.12 707.368 90.4 707.368 90.8C707.368 93.44 708.368 94.76 710.368 94.76C712.768 94.76 715.488 93 718.528 89.48C720.608 86.92 722.488 84.24 724.168 81.44C725.848 78.64 727.568 75.64 729.328 72.44C730.528 70.28 731.648 68.48 732.688 67.04C733.728 65.6 735.208 64.88 737.128 64.88C738.008 64.88 738.888 65 739.768 65.24C740.648 65.48 741.568 65.52 742.528 65.36C741.888 66 741.008 67.2 739.888 68.96C738.848 70.72 737.728 72.72 736.528 74.96C735.328 77.2 734.248 79.48 733.288 81.8C732.328 84.12 731.648 86.12 731.248 87.8C731.168 88.28 731.048 88.96 730.888 89.84C730.808 90.72 730.768 91.36 730.768 91.76C730.768 94 731.408 95.12 732.688 95.12C733.968 95.12 735.328 94.36 736.768 92.84C738.288 91.32 739.768 89.44 741.208 87.2C742.648 84.96 743.968 82.72 745.168 80.48C746.368 78.16 747.328 76.28 748.048 74.84C748.368 74.04 748.848 73.64 749.488 73.64C749.888 73.64 750.088 73.92 750.088 74.48C750.088 74.72 749.968 75.16 749.728 75.8C748.768 77.8 747.608 80.08 746.248 82.64C744.888 85.12 743.408 87.56 741.808 89.96C740.208 92.28 738.528 94.24 736.768 95.84C735.088 97.36 733.368 98.2 731.608 98.36ZM753.275 98.96C756.155 93.12 758.915 87.36 761.555 81.68C764.275 75.92 767.035 70.44 769.835 65.24C771.435 62.36 772.755 60.36 773.795 59.24C774.915 58.04 776.395 57.44 778.235 57.44C778.875 57.44 779.555 57.56 780.275 57.8C780.995 57.96 781.715 58.04 782.435 58.04C782.915 58.04 783.275 58 783.515 57.92C782.395 58.56 780.955 60.16 779.195 62.72C777.435 65.2 775.635 68.08 773.795 71.36C771.955 74.64 770.315 77.72 768.875 80.6C770.395 78.76 771.955 76.92 773.555 75.08C775.235 73.24 777.075 71.48 779.075 69.8C780.995 68.12 783.275 66.4 785.915 64.64C788.635 62.8 791.275 61.28 793.835 60.08C796.395 58.88 798.435 58.28 799.955 58.28C800.515 58.28 800.915 58.32 801.155 58.4C801.155 58.4 800.715 59.2 799.835 60.8C798.955 62.32 797.835 64.36 796.475 66.92C795.195 69.4 793.875 72.08 792.515 74.96C791.155 77.76 789.915 80.48 788.795 83.12C787.755 85.68 787.075 87.84 786.755 89.6C786.515 90.64 786.395 91.6 786.395 92.48C786.395 93.76 786.635 94.6 787.115 95C787.595 95.4 788.115 95.6 788.675 95.6C790.195 95.6 791.795 94.8 793.475 93.2C795.155 91.52 796.755 89.48 798.275 87.08C799.875 84.68 801.275 82.36 802.475 80.12C803.755 77.8 804.675 76.04 805.235 74.84C805.555 74.2 805.795 73.84 805.955 73.76C806.115 73.6 806.355 73.52 806.675 73.52C807.155 73.52 807.395 73.84 807.395 74.48C807.395 74.88 807.275 75.32 807.035 75.8C806.075 77.64 804.915 79.84 803.555 82.4C802.275 84.96 800.795 87.48 799.115 89.96C797.435 92.36 795.595 94.4 793.595 96.08C791.595 97.68 789.435 98.48 787.115 98.48C785.515 98.48 783.835 97.92 782.075 96.8C780.395 95.68 779.555 93.6 779.555 90.56C779.555 89.68 779.635 88.76 779.795 87.8C779.955 86.76 780.235 85.64 780.635 84.44C781.275 82.84 782.035 81.12 782.915 79.28C783.795 77.44 785.235 74.92 787.235 71.72C787.795 70.84 788.115 70.16 788.195 69.68C788.355 69.2 788.435 68.8 788.435 68.48C788.435 67.52 787.995 67.04 787.115 67.04C786.395 67.04 785.315 67.44 783.875 68.24C782.515 69.04 780.795 70.44 778.715 72.44C776.715 74.36 774.315 77.08 771.515 80.6C768.795 84.12 765.635 89.32 762.035 96.2C761.475 97.24 760.835 97.8 760.115 97.88C759.475 97.96 758.555 98.04 757.355 98.12C756.555 98.2 755.795 98.24 755.075 98.24C754.355 98.32 753.755 98.56 753.275 98.96Z" fill="#FFF2E4"/>
<path d="M385.243 262.48C381.323 262.48 378.523 261.48 376.843 259.48C375.243 257.4 374.443 255.24 374.443 253C374.443 251.16 374.883 249.48 375.763 247.96C376.723 246.44 377.843 245.64 379.123 245.56C380.723 242.44 382.443 239.04 384.283 235.36C386.203 231.68 387.963 228.12 389.563 224.68C390.683 222.36 392.083 220.12 393.763 217.96C395.523 215.8 397.443 214.56 399.523 214.24H400.723C401.363 214.24 401.923 214.28 402.403 214.36C402.963 214.44 403.523 214.6 404.083 214.84C404.963 215.24 405.403 215.84 405.403 216.64C405.403 217.12 405.123 217.36 404.563 217.36C404.323 217.36 404.003 217.24 403.603 217C402.643 216.6 401.803 216.4 401.083 216.4C400.603 216.4 400.163 216.52 399.763 216.76C398.243 217.56 397.163 218.68 396.523 220.12C395.963 221.56 395.683 223.08 395.683 224.68C395.683 225.96 395.803 227.28 396.043 228.64C396.363 229.92 396.723 231.08 397.123 232.12C398.003 234.36 398.923 236.56 399.883 238.72C400.923 240.88 401.443 243.2 401.443 245.68C401.443 248.08 400.643 250.64 399.043 253.36C397.443 256 395.403 258.12 392.923 259.72L393.763 259.84C394.163 259.92 394.443 259.96 394.603 259.96C394.763 259.96 394.883 259.96 394.963 259.96C396.803 259.96 398.523 259.44 400.123 258.4C401.803 257.28 403.283 255.92 404.563 254.32C405.843 252.72 407.283 250.48 408.883 247.6C410.563 244.72 412.163 241.68 413.683 238.48C413.923 238.08 414.203 237.88 414.523 237.88C414.923 237.88 415.203 238.04 415.363 238.36C415.603 238.6 415.643 238.92 415.483 239.32C414.443 241.56 413.243 244 411.883 246.64C410.603 249.2 409.123 251.68 407.443 254.08C405.763 256.4 403.803 258.32 401.563 259.84C399.403 261.28 396.963 262 394.243 262C393.603 262 392.923 261.96 392.203 261.88C391.483 261.8 390.763 261.64 390.043 261.4C389.243 261.72 388.403 261.96 387.523 262.12C386.723 262.36 385.963 262.48 385.243 262.48ZM388.843 258.88C390.203 257.76 391.403 256.12 392.443 253.96C393.563 251.8 394.123 248.96 394.123 245.44C394.123 242.32 393.803 239 393.163 235.48C392.523 231.96 392.203 228.84 392.203 226.12C392.203 225.56 392.203 225.08 392.203 224.68C392.283 224.2 392.363 223.76 392.443 223.36C391.403 225.52 390.203 228.04 388.843 230.92C387.483 233.72 386.123 236.44 384.763 239.08C383.403 241.72 382.243 243.96 381.283 245.8C381.283 245.8 381.483 245.84 381.883 245.92C382.363 245.92 382.803 246.2 383.203 246.76C383.603 247.24 383.763 248.24 383.683 249.76C383.603 251.76 384.043 253.64 385.003 255.4C386.043 257.08 387.323 258.24 388.843 258.88ZM384.283 260.56C384.763 260.56 385.203 260.52 385.603 260.44C386.003 260.28 386.363 260.16 386.683 260.08C385.483 259.2 384.403 258.04 383.443 256.6C382.563 255.08 382.043 253.16 381.883 250.84C380.443 252.36 379.723 254 379.723 255.76C379.723 257.04 380.123 258.16 380.923 259.12C381.723 260.08 382.843 260.56 384.283 260.56ZM438.624 262.48C435.664 262.48 432.984 261.52 430.584 259.6C428.264 257.68 427.104 254.76 427.104 250.84C427.104 247.24 427.984 243.4 429.744 239.32C431.504 235.16 433.744 231.52 436.464 228.4C438.784 225.68 441.384 223.44 444.264 221.68C447.144 219.92 449.864 219.04 452.424 219.04C454.184 219.04 455.704 219.52 456.984 220.48C458.344 221.52 459.024 223 459.024 224.92C459.024 226.92 458.264 229.12 456.744 231.52C455.224 233.92 453.064 236.16 450.264 238.24C449.064 239.12 447.544 239.96 445.704 240.76C443.864 241.56 442.024 242.24 440.184 242.8C438.344 243.28 436.824 243.52 435.624 243.52C435.224 244.48 434.824 245.76 434.424 247.36C434.104 248.96 433.944 250.6 433.944 252.28C433.944 254.28 434.344 256.08 435.144 257.68C435.944 259.28 437.424 260.08 439.584 260.08C442.224 260.08 444.624 259.32 446.784 257.8C448.944 256.28 450.864 254.4 452.544 252.16C454.224 249.84 455.624 247.52 456.744 245.2C457.944 242.88 458.904 240.92 459.624 239.32C460.104 238.2 460.744 237.64 461.544 237.64C461.944 237.64 462.144 237.84 462.144 238.24C462.144 238.56 462.024 238.96 461.784 239.44C460.664 241.84 459.464 244.4 458.184 247.12C456.904 249.76 455.384 252.28 453.624 254.68C451.864 257 449.744 258.88 447.264 260.32C444.864 261.76 441.984 262.48 438.624 262.48ZM436.464 241.36C437.584 241.36 439.464 240.96 442.104 240.16C444.744 239.28 447.144 237.92 449.304 236.08C451.384 234.24 452.984 232.24 454.104 230.08C455.224 227.84 455.784 225.96 455.784 224.44C455.784 222.68 455.144 221.8 453.864 221.8C452.904 221.8 451.584 222.44 449.904 223.72C448.224 225 446.144 227.16 443.664 230.2C442.144 232.12 440.704 234.2 439.344 236.44C437.984 238.68 437.024 240.32 436.464 241.36ZM503.189 262C501.029 262 499.229 260.92 497.789 258.76C497.389 258.12 497.029 257.28 496.709 256.24C496.389 255.2 496.229 254.04 496.229 252.76C496.229 252.04 496.269 251.32 496.349 250.6C496.429 249.8 496.589 249 496.829 248.2C495.709 249.96 494.389 251.92 492.869 254.08C491.429 256.16 489.749 258 487.829 259.6C485.989 261.12 483.909 261.88 481.589 261.88C480.789 261.88 479.949 261.76 479.069 261.52C476.909 260.88 475.349 259.76 474.389 258.16C473.509 256.56 473.069 254.64 473.069 252.4C473.069 249.92 473.549 247.2 474.509 244.24C475.549 241.28 476.829 238.4 478.349 235.6C479.949 232.8 481.589 230.4 483.269 228.4C485.669 225.6 488.429 223.36 491.549 221.68C494.669 220 497.829 219.16 501.029 219.16C503.909 219.16 506.629 219.92 509.189 221.44C510.389 219.2 511.669 216.72 513.029 214C514.389 211.2 515.749 208.44 517.109 205.72C518.469 203 519.669 200.52 520.709 198.28C521.749 195.96 522.549 194.2 523.109 193C524.309 190.2 525.429 188.44 526.469 187.72C527.589 186.92 528.909 186.52 530.429 186.52C531.309 186.52 532.269 186.64 533.309 186.88C534.429 187.04 535.509 187.08 536.549 187C536.069 187.48 535.069 188.88 533.549 191.2C532.109 193.44 530.389 196.32 528.389 199.84C526.389 203.36 524.229 207.24 521.909 211.48C519.669 215.64 517.429 219.88 515.189 224.2C513.029 228.44 510.989 232.48 509.069 236.32C507.229 240.08 505.749 243.32 504.629 246.04C504.309 246.68 503.829 248 503.189 250C502.629 251.92 502.349 253.6 502.349 255.04C502.349 256.08 502.589 257 503.069 257.8C503.549 258.52 504.349 258.88 505.469 258.88C506.989 258.88 508.509 258.12 510.029 256.6C511.629 255 513.149 253.08 514.589 250.84C516.029 248.52 517.309 246.28 518.429 244.12C519.549 241.88 520.389 240.12 520.949 238.84C521.349 237.96 521.829 237.52 522.389 237.52C522.869 237.52 523.109 237.88 523.109 238.6C523.109 238.68 523.109 238.84 523.109 239.08C523.109 239.24 523.029 239.44 522.869 239.68C522.149 241.36 521.149 243.44 519.869 245.92C518.669 248.4 517.229 250.88 515.549 253.36C513.869 255.84 511.989 257.92 509.909 259.6C507.829 261.2 505.589 262 503.189 262ZM482.429 258.4C483.549 258.4 484.949 257.8 486.629 256.6C488.309 255.32 490.109 253.32 492.029 250.6C494.269 247.4 496.829 243.4 499.709 238.6C502.589 233.8 505.429 228.72 508.229 223.36C507.189 222.4 505.989 221.92 504.629 221.92C502.389 221.92 499.869 222.96 497.069 225.04C494.349 227.12 491.669 229.76 489.029 232.96C486.469 236.16 484.309 239.4 482.549 242.68C481.349 244.92 480.469 246.96 479.909 248.8C479.429 250.64 479.189 252.24 479.189 253.6C479.189 256.8 480.269 258.4 482.429 258.4ZM595.698 266.68C593.938 266.68 592.218 266.56 590.538 266.32C585.498 265.68 581.778 264.2 579.378 261.88C577.058 259.56 575.898 257.04 575.898 254.32C575.898 251.36 577.218 248.68 579.858 246.28C582.578 243.88 586.378 242.68 591.258 242.68C592.778 242.68 594.378 242.84 596.058 243.16C597.818 243.4 599.658 243.84 601.578 244.48C602.538 244.8 603.018 245.24 603.018 245.8C603.018 246.12 602.778 246.28 602.298 246.28C601.818 246.28 601.418 246.2 601.098 246.04C599.818 245.56 598.578 245.24 597.378 245.08C596.258 244.84 595.178 244.72 594.138 244.72C590.698 244.72 588.058 245.72 586.218 247.72C584.458 249.64 583.578 251.76 583.578 254.08C583.578 256.32 584.498 258.36 586.338 260.2C588.178 262.04 591.098 262.96 595.098 262.96C600.138 262.96 604.778 261.8 609.018 259.48C613.338 257.16 617.418 254.12 621.258 250.36C625.338 246.36 629.058 241.56 632.418 235.96C635.778 230.28 639.098 224.24 642.378 217.84C645.738 211.36 649.378 204.84 653.298 198.28C657.218 191.72 661.738 185.56 666.858 179.8C667.898 178.68 668.938 177.52 669.978 176.32C671.098 175.04 672.178 173.96 673.218 173.08C670.498 172.68 667.698 172.4 664.818 172.24C661.938 172 659.098 171.88 656.298 171.88C652.138 171.88 648.178 172.08 644.418 172.48C640.738 172.8 637.058 173.28 633.378 173.92C629.618 174.64 625.418 175.76 620.778 177.28C616.138 178.8 611.618 180.8 607.218 183.28C602.898 185.68 599.178 188.6 596.058 192.04C593.018 195.48 591.138 199.44 590.418 203.92C590.338 204.32 590.258 204.76 590.178 205.24C590.178 205.64 590.178 206.04 590.178 206.44C590.178 210.12 591.418 213.16 593.898 215.56C596.458 217.96 599.418 219.16 602.778 219.16C605.258 219.16 607.658 218.52 609.978 217.24C612.298 215.88 614.378 214.12 616.218 211.96C618.058 209.72 619.418 207.28 620.298 204.64C620.378 203.84 620.698 203.44 621.258 203.44C621.738 203.44 621.978 203.88 621.978 204.76C621.898 208.28 620.858 211.32 618.858 213.88C616.938 216.44 614.498 218.4 611.538 219.76C608.578 221.04 605.578 221.68 602.538 221.68C599.418 221.68 596.458 221.04 593.658 219.76C590.858 218.4 588.578 216.44 586.818 213.88C585.058 211.24 584.178 208 584.178 204.16C584.178 199.68 585.258 195.72 587.418 192.28C589.658 188.84 592.618 185.84 596.298 183.28C599.978 180.64 603.978 178.44 608.298 176.68C612.618 174.84 616.938 173.4 621.258 172.36C625.578 171.24 629.498 170.4 633.018 169.84C636.618 169.28 640.338 168.84 644.178 168.52C648.098 168.2 652.058 168.04 656.058 168.04C659.498 168.04 662.938 168.2 666.378 168.52C669.818 168.84 673.178 169.32 676.458 169.96C677.818 168.92 679.218 168 680.658 167.2C682.098 166.4 683.698 165.68 685.458 165.04C686.578 164.56 687.418 164.32 687.978 164.32C688.458 164.32 688.698 164.48 688.698 164.8C688.698 165.36 688.058 166.04 686.778 166.84C686.138 167.16 685.338 167.72 684.378 168.52C683.418 169.32 682.378 170.24 681.258 171.28C686.458 172.56 691.138 174.48 695.298 177.04C699.858 179.76 703.098 182.64 705.018 185.68C707.018 188.72 708.018 191.84 708.018 195.04C708.018 198.72 706.898 202.4 704.658 206.08C702.418 209.68 699.498 213.04 695.898 216.16C692.298 219.28 688.338 222 684.018 224.32C679.698 226.56 675.418 228.2 671.178 229.24C667.098 230.28 662.978 231.04 658.818 231.52C654.658 232 650.938 232.24 647.658 232.24C647.098 232.24 646.498 232.24 645.858 232.24C645.298 232.24 644.738 232.2 644.178 232.12C641.458 235.96 638.658 239.72 635.778 243.4C632.898 247 629.658 250.52 626.058 253.96C621.658 258.12 616.858 261.28 611.658 263.44C606.458 265.6 601.138 266.68 595.698 266.68ZM645.858 229.48C648.898 229.56 652.298 229.32 656.058 228.76C659.818 228.2 663.578 227.36 667.338 226.24C673.578 224.32 679.178 221.56 684.138 217.96C689.178 214.36 693.138 210.36 696.018 205.96C698.978 201.56 700.458 197.24 700.458 193C700.458 190.44 699.818 188 698.538 185.68C697.338 183.36 695.338 181.28 692.538 179.44C690.698 178.24 688.618 177.2 686.298 176.32C683.978 175.44 681.538 174.72 678.978 174.16C674.898 179.92 671.058 185.92 667.458 192.16C663.938 198.4 660.418 204.68 656.898 211C653.458 217.32 649.778 223.48 645.858 229.48ZM727.13 262.36C726.25 262.44 725.25 262.24 724.13 261.76C723.01 261.28 722.01 260.4 721.13 259.12C720.33 257.84 719.93 256.04 719.93 253.72C719.93 251.8 720.29 249.48 721.01 246.76C720.05 248.28 718.81 250.16 717.29 252.4C715.77 254.56 714.13 256.48 712.37 258.16C710.85 259.6 709.41 260.64 708.05 261.28C706.69 261.92 705.45 262.24 704.33 262.24C702.25 262.24 700.57 261.32 699.29 259.48C698.01 257.56 697.37 255.08 697.37 252.04C697.37 248.84 698.17 245.2 699.77 241.12C701.37 237.04 703.97 232.8 707.57 228.4C709.89 225.6 712.69 223.36 715.97 221.68C719.33 219.92 722.61 219.04 725.81 219.04C727.65 219.04 729.41 219.36 731.09 220C732.77 220.56 734.25 221.52 735.53 222.88C736.09 223.44 736.37 224.08 736.37 224.8C736.37 225.28 736.17 225.68 735.77 226C735.37 226.32 734.85 226.4 734.21 226.24C733.33 223.44 731.45 222.04 728.57 222.04C727.21 222.04 725.65 222.48 723.89 223.36C721.17 224.8 718.33 227.16 715.37 230.44C712.49 233.72 709.97 237.12 707.81 240.64C707.49 241.12 706.97 242.04 706.25 243.4C705.61 244.76 704.97 246.28 704.33 247.96C703.69 249.64 703.25 251.28 703.01 252.88C702.93 253.36 702.89 253.72 702.89 253.96C702.89 254.12 702.89 254.4 702.89 254.8C702.89 257.44 703.89 258.76 705.89 258.76C708.29 258.76 711.01 257 714.05 253.48C716.13 250.92 718.01 248.24 719.69 245.44C721.37 242.64 723.09 239.64 724.85 236.44C726.05 234.28 727.17 232.48 728.21 231.04C729.25 229.6 730.73 228.88 732.65 228.88C733.53 228.88 734.41 229 735.29 229.24C736.17 229.48 737.09 229.52 738.05 229.36C737.41 230 736.53 231.2 735.41 232.96C734.37 234.72 733.25 236.72 732.05 238.96C730.85 241.2 729.77 243.48 728.81 245.8C727.85 248.12 727.17 250.12 726.77 251.8C726.69 252.28 726.57 252.96 726.41 253.84C726.33 254.72 726.29 255.36 726.29 255.76C726.29 258 726.93 259.12 728.21 259.12C729.49 259.12 730.85 258.36 732.29 256.84C733.81 255.32 735.29 253.44 736.73 251.2C738.17 248.96 739.49 246.72 740.69 244.48C741.89 242.16 742.85 240.28 743.57 238.84C743.89 238.04 744.37 237.64 745.01 237.64C745.41 237.64 745.61 237.92 745.61 238.48C745.61 238.72 745.49 239.16 745.25 239.8C744.29 241.8 743.13 244.08 741.77 246.64C740.41 249.12 738.93 251.56 737.33 253.96C735.73 256.28 734.05 258.24 732.29 259.84C730.61 261.36 728.89 262.2 727.13 262.36ZM748.797 262.96C751.677 257.12 754.437 251.36 757.077 245.68C759.797 239.92 762.557 234.44 765.357 229.24C766.957 226.36 768.277 224.36 769.317 223.24C770.437 222.04 771.917 221.44 773.757 221.44C774.397 221.44 775.077 221.56 775.797 221.8C776.517 221.96 777.237 222.04 777.957 222.04C778.437 222.04 778.797 222 779.037 221.92C777.917 222.56 776.477 224.16 774.717 226.72C772.957 229.2 771.157 232.08 769.317 235.36C767.477 238.64 765.837 241.72 764.397 244.6C765.917 242.76 767.477 240.92 769.077 239.08C770.757 237.24 772.597 235.48 774.597 233.8C776.517 232.12 778.797 230.4 781.437 228.64C784.157 226.8 786.797 225.28 789.357 224.08C791.917 222.88 793.957 222.28 795.477 222.28C796.037 222.28 796.437 222.32 796.677 222.4C796.677 222.4 796.237 223.2 795.357 224.8C794.477 226.32 793.357 228.36 791.997 230.92C790.717 233.4 789.397 236.08 788.037 238.96C786.677 241.76 785.437 244.48 784.317 247.12C783.277 249.68 782.597 251.84 782.277 253.6C782.037 254.64 781.917 255.6 781.917 256.48C781.917 257.76 782.157 258.6 782.637 259C783.117 259.4 783.637 259.6 784.197 259.6C785.717 259.6 787.317 258.8 788.997 257.2C790.677 255.52 792.277 253.48 793.797 251.08C795.397 248.68 796.797 246.36 797.997 244.12C799.277 241.8 800.197 240.04 800.757 238.84C801.077 238.2 801.317 237.84 801.477 237.76C801.637 237.6 801.877 237.52 802.197 237.52C802.677 237.52 802.917 237.84 802.917 238.48C802.917 238.88 802.797 239.32 802.557 239.8C801.597 241.64 800.437 243.84 799.077 246.4C797.797 248.96 796.317 251.48 794.637 253.96C792.957 256.36 791.117 258.4 789.117 260.08C787.117 261.68 784.957 262.48 782.637 262.48C781.037 262.48 779.357 261.92 777.597 260.8C775.917 259.68 775.077 257.6 775.077 254.56C775.077 253.68 775.157 252.76 775.317 251.8C775.477 250.76 775.757 249.64 776.157 248.44C776.797 246.84 777.557 245.12 778.437 243.28C779.317 241.44 780.757 238.92 782.757 235.72C783.317 234.84 783.637 234.16 783.717 233.68C783.877 233.2 783.957 232.8 783.957 232.48C783.957 231.52 783.517 231.04 782.637 231.04C781.917 231.04 780.837 231.44 779.397 232.24C778.037 233.04 776.317 234.44 774.237 236.44C772.237 238.36 769.837 241.08 767.037 244.6C764.317 248.12 761.157 253.32 757.557 260.2C756.997 261.24 756.357 261.8 755.637 261.88C754.997 261.96 754.077 262.04 752.877 262.12C752.077 262.2 751.317 262.24 750.597 262.24C749.877 262.32 749.277 262.56 748.797 262.96ZM799.07 294.76C798.11 294.76 797.15 294.6 796.19 294.28C795.15 294.04 794.11 294 793.07 294.16C793.55 293.68 794.47 292.28 795.83 289.96C797.19 287.72 798.79 284.92 800.63 281.56C802.39 278.2 804.27 274.56 806.27 270.64C808.27 266.72 810.15 262.88 811.91 259.12C813.67 255.28 815.15 251.8 816.35 248.68C817.63 245.48 818.43 242.96 818.75 241.12C818.03 242.16 817.31 242.76 816.59 242.92C815.95 243 815.79 242.76 816.11 242.2C816.27 241.88 816.59 241.12 817.07 239.92C817.63 238.64 818.11 237.56 818.51 236.68C819.15 235.08 819.67 233.32 820.07 231.4C820.55 229.48 820.79 227.64 820.79 225.88C820.79 224.76 820.67 223.8 820.43 223C820.19 222.2 819.75 221.76 819.11 221.68C819.11 221.68 819.55 221.6 820.43 221.44C821.31 221.28 822.23 221.12 823.19 220.96C824.15 220.8 824.79 220.72 825.11 220.72C825.59 220.64 826.03 220.6 826.43 220.6C826.83 220.52 827.19 220.48 827.51 220.48C828.23 220.48 828.71 220.76 828.95 221.32C829.27 221.8 829.43 222.84 829.43 224.44C829.43 226.44 829.07 229 828.35 232.12C827.71 235.16 826.95 237.84 826.07 240.16C826.95 238.72 828.07 236.88 829.43 234.64C830.87 232.4 832.51 230.12 834.35 227.8C836.19 225.48 838.11 223.56 840.11 222.04C842.11 220.44 844.07 219.64 845.99 219.64C846.39 219.64 846.91 219.72 847.55 219.88C849.79 220.44 851.35 221.56 852.23 223.24C853.19 224.84 853.67 226.76 853.67 229C853.67 231.4 853.19 234.04 852.23 236.92C851.35 239.8 850.15 242.64 848.63 245.44C847.11 248.16 845.43 250.64 843.59 252.88C841.35 255.68 838.67 257.92 835.55 259.6C832.43 261.28 829.23 262.12 825.95 262.12C822.99 262.12 820.23 261.36 817.67 259.84L806.27 288.52C805.15 290.92 804.07 292.56 803.03 293.44C801.99 294.32 800.67 294.76 799.07 294.76ZM822.11 259.6C824.35 259.6 826.87 258.56 829.67 256.48C832.47 254.4 835.15 251.76 837.71 248.56C840.35 245.28 842.55 242 844.31 238.72C845.51 236.48 846.39 234.44 846.95 232.6C847.51 230.68 847.79 229.04 847.79 227.68C847.79 224.56 846.67 223 844.43 223C843.39 223 842.03 223.56 840.35 224.68C838.75 225.8 836.87 227.84 834.71 230.8C832.39 234 829.83 238.04 827.03 242.92C824.31 247.72 821.51 252.8 818.63 258.16C819.59 259.12 820.75 259.6 822.11 259.6ZM900.577 262.36C899.697 262.44 898.697 262.24 897.577 261.76C896.457 261.28 895.457 260.4 894.577 259.12C893.777 257.84 893.377 256.04 893.377 253.72C893.377 251.8 893.737 249.48 894.457 246.76C893.497 248.28 892.257 250.16 890.737 252.4C889.217 254.56 887.577 256.48 885.817 258.16C884.297 259.6 882.857 260.64 881.497 261.28C880.137 261.92 878.897 262.24 877.777 262.24C875.697 262.24 874.017 261.32 872.737 259.48C871.457 257.56 870.817 255.08 870.817 252.04C870.817 248.84 871.617 245.2 873.217 241.12C874.817 237.04 877.417 232.8 881.017 228.4C883.337 225.6 886.137 223.36 889.417 221.68C892.777 219.92 896.057 219.04 899.257 219.04C901.097 219.04 902.857 219.36 904.537 220C906.217 220.56 907.697 221.52 908.977 222.88C909.537 223.44 909.817 224.08 909.817 224.8C909.817 225.28 909.617 225.68 909.217 226C908.817 226.32 908.297 226.4 907.657 226.24C906.777 223.44 904.897 222.04 902.017 222.04C900.657 222.04 899.097 222.48 897.337 223.36C894.617 224.8 891.777 227.16 888.817 230.44C885.937 233.72 883.417 237.12 881.257 240.64C880.937 241.12 880.417 242.04 879.697 243.4C879.057 244.76 878.417 246.28 877.777 247.96C877.137 249.64 876.697 251.28 876.457 252.88C876.377 253.36 876.337 253.72 876.337 253.96C876.337 254.12 876.337 254.4 876.337 254.8C876.337 257.44 877.337 258.76 879.337 258.76C881.737 258.76 884.457 257 887.497 253.48C889.577 250.92 891.457 248.24 893.137 245.44C894.817 242.64 896.537 239.64 898.297 236.44C899.497 234.28 900.617 232.48 901.657 231.04C902.697 229.6 904.177 228.88 906.097 228.88C906.977 228.88 907.857 229 908.737 229.24C909.617 229.48 910.537 229.52 911.497 229.36C910.857 230 909.977 231.2 908.857 232.96C907.817 234.72 906.697 236.72 905.497 238.96C904.297 241.2 903.217 243.48 902.257 245.8C901.297 248.12 900.617 250.12 900.217 251.8C900.137 252.28 900.017 252.96 899.857 253.84C899.777 254.72 899.737 255.36 899.737 255.76C899.737 258 900.377 259.12 901.657 259.12C902.937 259.12 904.297 258.36 905.737 256.84C907.257 255.32 908.737 253.44 910.177 251.2C911.617 248.96 912.937 246.72 914.137 244.48C915.337 242.16 916.297 240.28 917.017 238.84C917.337 238.04 917.817 237.64 918.457 237.64C918.857 237.64 919.057 237.92 919.057 238.48C919.057 238.72 918.937 239.16 918.697 239.8C917.737 241.8 916.577 244.08 915.217 246.64C913.857 249.12 912.377 251.56 910.777 253.96C909.177 256.28 907.497 258.24 905.737 259.84C904.057 261.36 902.337 262.2 900.577 262.36ZM922.244 262.96C925.124 257.12 927.884 251.36 930.524 245.68C933.244 239.92 936.004 234.44 938.804 229.24C940.404 226.36 941.724 224.36 942.764 223.24C943.884 222.04 945.364 221.44 947.204 221.44C947.844 221.44 948.524 221.56 949.244 221.8C949.964 221.96 950.684 222.04 951.404 222.04C951.884 222.04 952.244 222 952.484 221.92C951.364 222.56 949.924 224.16 948.164 226.72C946.404 229.2 944.604 232.08 942.764 235.36C940.924 238.64 939.284 241.72 937.844 244.6C939.364 242.76 940.924 240.92 942.524 239.08C944.204 237.24 946.044 235.48 948.044 233.8C949.964 232.12 952.244 230.4 954.884 228.64C957.604 226.8 960.244 225.28 962.804 224.08C965.364 222.88 967.404 222.28 968.924 222.28C969.484 222.28 969.884 222.32 970.124 222.4C970.124 222.4 969.684 223.2 968.804 224.8C967.924 226.32 966.804 228.36 965.444 230.92C964.164 233.4 962.844 236.08 961.484 238.96C960.124 241.76 958.884 244.48 957.764 247.12C956.724 249.68 956.044 251.84 955.724 253.6C955.484 254.64 955.364 255.6 955.364 256.48C955.364 257.76 955.604 258.6 956.084 259C956.564 259.4 957.084 259.6 957.644 259.6C959.164 259.6 960.764 258.8 962.444 257.2C964.124 255.52 965.724 253.48 967.244 251.08C968.844 248.68 970.244 246.36 971.444 244.12C972.724 241.8 973.644 240.04 974.204 238.84C974.524 238.2 974.764 237.84 974.924 237.76C975.084 237.6 975.324 237.52 975.644 237.52C976.124 237.52 976.364 237.84 976.364 238.48C976.364 238.88 976.244 239.32 976.004 239.8C975.044 241.64 973.884 243.84 972.524 246.4C971.244 248.96 969.764 251.48 968.084 253.96C966.404 256.36 964.564 258.4 962.564 260.08C960.564 261.68 958.404 262.48 956.084 262.48C954.484 262.48 952.804 261.92 951.044 260.8C949.364 259.68 948.524 257.6 948.524 254.56C948.524 253.68 948.604 252.76 948.764 251.8C948.924 250.76 949.204 249.64 949.604 248.44C950.244 246.84 951.004 245.12 951.884 243.28C952.764 241.44 954.204 238.92 956.204 235.72C956.764 234.84 957.084 234.16 957.164 233.68C957.324 233.2 957.404 232.8 957.404 232.48C957.404 231.52 956.964 231.04 956.084 231.04C955.364 231.04 954.284 231.44 952.844 232.24C951.484 233.04 949.764 234.44 947.684 236.44C945.684 238.36 943.284 241.08 940.484 244.6C937.764 248.12 934.604 253.32 931.004 260.2C930.444 261.24 929.804 261.8 929.084 261.88C928.444 261.96 927.524 262.04 926.324 262.12C925.524 262.2 924.764 262.24 924.044 262.24C923.324 262.32 922.724 262.56 922.244 262.96Z" fill="#FFF2E4"/>
</svg>
