<svg width="1125" height="340" viewBox="0 0 1125 340" fill="none" xmlns="http://www.w3.org/2000/svg">
<path d="M56.0856 101.32C52.5656 101.32 49.2056 100.8 46.0056 99.76C41.2056 98.24 37.3256 94.96 34.3656 89.92C31.4856 84.88 30.0456 79 30.0456 72.28C30.0456 66.44 31.2456 60.4 33.6456 54.16C31.0856 52.32 28.9656 50.16 27.2856 47.68C25.6056 45.2 24.6056 42.32 24.2856 39.04C24.2056 38.4 24.1656 37.84 24.1656 37.36C24.1656 36.8 24.1656 36.24 24.1656 35.68C24.1656 30.16 25.4056 25.24 27.8856 20.92C30.4456 16.6 33.8456 12.96 38.0856 9.99999C42.3256 6.96 47.0856 4.68 52.3656 3.16C57.6456 1.56 63.0056 0.759999 68.4456 0.759999C73.8056 0.759999 79.0056 1.56 84.0456 3.16C89.0856 4.75999 93.5656 7.23999 97.4856 10.6C101.486 13.96 104.566 18.24 106.726 23.44C108.966 28.56 109.926 34.72 109.606 41.92C112.886 39.76 115.966 37.44 118.846 34.96C121.726 32.48 123.926 29.76 125.446 26.8C125.846 26 126.366 25.6 127.006 25.6C127.486 25.6 127.726 25.88 127.726 26.44C127.726 26.52 127.686 26.76 127.606 27.16C127.526 27.48 127.406 27.76 127.246 28C125.006 31.52 122.406 34.84 119.446 37.96C116.486 41.08 113.046 43.84 109.126 46.24C109.046 48 108.766 50 108.286 52.24C107.886 54.4 107.286 56.68 106.486 59.08C104.966 63.96 102.526 68.88 99.1656 73.84C95.8856 78.8 91.9656 83.36 87.4056 87.52C82.8456 91.68 77.8856 95 72.5256 97.48C67.1656 100.04 61.6856 101.32 56.0856 101.32ZM60.0456 56.8C66.7656 56.8 73.8456 55.84 81.2856 53.92C88.8056 51.92 95.8456 49.2 102.406 45.76C102.566 44.72 102.646 43.72 102.646 42.76C102.646 41.72 102.646 40.72 102.646 39.76C102.646 33.2 101.686 27.6 99.7656 22.96C97.9256 18.24 95.4056 14.4 92.2056 11.44C89.0056 8.48 85.4056 6.32 81.4056 4.95999C77.4056 3.51999 73.2456 2.79999 68.9256 2.79999C64.2856 2.79999 59.6856 3.55999 55.1256 5.07999C50.5656 6.59999 46.4456 8.79999 42.7656 11.68C39.0856 14.48 36.1256 17.88 33.8856 21.88C31.7256 25.88 30.6456 30.36 30.6456 35.32C30.6456 36.84 30.7656 38.4 31.0056 40C31.4856 43.68 33.0856 46.72 35.8056 49.12C36.9256 46.72 38.4456 44.04 40.3656 41.08C42.2856 38.04 44.4856 35 46.9656 31.96C49.5256 28.84 52.2456 26 55.1256 23.44C58.0856 20.88 61.1256 18.84 64.2456 17.32C67.4456 15.72 70.6456 14.92 73.8456 14.92C75.2056 14.92 76.5656 15.08 77.9256 15.4C79.3656 15.72 80.7256 16.28 82.0056 17.08C82.6456 17.48 82.9656 17.84 82.9656 18.16C82.9656 18.4 82.7656 18.6 82.3656 18.76C82.0456 18.92 81.6056 18.92 81.0456 18.76C80.0056 18.44 78.8456 18.28 77.5656 18.28C74.6856 18.28 71.7656 19.16 68.8056 20.92C65.8456 22.6 62.9656 24.84 60.1656 27.64C57.3656 30.36 54.7656 33.32 52.3656 36.52C49.9656 39.64 47.8456 42.72 46.0056 45.76C44.2456 48.72 42.8856 51.24 41.9256 53.32C46.8056 55.64 52.8456 56.8 60.0456 56.8ZM57.0456 98.44C61.5256 98.44 65.8856 97.32 70.1256 95.08C74.4456 92.84 78.4856 89.8 82.2456 85.96C86.0856 82.12 89.4856 77.84 92.4456 73.12C95.4056 68.4 97.7656 63.56 99.5256 58.6C100.006 57.24 100.446 55.84 100.846 54.4C101.246 52.88 101.486 51.44 101.566 50.08C95.0856 53.52 88.1656 56.16 80.8056 58C73.4456 59.84 66.4056 60.76 59.6856 60.76C52.2456 60.76 45.7656 59.68 40.2456 57.52C37.7656 63.84 36.5256 70.04 36.5256 76.12C36.5256 80.52 37.3256 84.48 38.9256 88C40.5256 91.52 43.0456 94.16 46.4856 95.92C50.0056 97.6 53.5256 98.44 57.0456 98.44ZM118.062 94.6C121.022 88.92 123.822 83.24 126.462 77.56C129.102 71.8 131.782 66.36 134.502 61.24C136.102 58.36 137.422 56.36 138.462 55.24C139.582 54.04 141.062 53.44 142.902 53.44C143.542 53.44 144.222 53.56 144.942 53.8C145.662 53.96 146.382 54.04 147.102 54.04C147.582 54.04 147.942 54 148.182 53.92C147.062 54.56 145.622 56.16 143.862 58.72C142.102 61.2 140.302 64.08 138.462 67.36C136.622 70.64 134.982 73.72 133.542 76.6C135.062 74.76 136.622 72.92 138.222 71.08C139.902 69.24 141.742 67.48 143.742 65.8C145.502 64.28 147.342 62.64 149.262 60.88C151.262 59.04 153.222 57.48 155.142 56.2C157.062 54.92 158.742 54.28 160.182 54.28C160.742 54.28 161.102 54.32 161.262 54.4C162.782 55.04 163.542 56.08 163.542 57.52C163.542 58 163.342 58.72 162.942 59.68C161.902 62.4 160.542 65.2 158.862 68.08C157.262 70.88 155.742 73.72 154.302 76.6C155.502 75.16 156.982 73.4 158.742 71.32C160.582 69.24 162.422 67.4 164.262 65.8C166.022 64.2 168.262 62.52 170.982 60.76C173.702 59 176.382 57.48 179.022 56.2C181.662 54.92 183.782 54.28 185.382 54.28C185.942 54.28 186.342 54.32 186.582 54.4C186.582 54.4 186.142 55.2 185.262 56.8C184.382 58.32 183.262 60.36 181.902 62.92C180.622 65.4 179.302 68.08 177.942 70.96C176.582 73.76 175.342 76.48 174.222 79.12C173.182 81.68 172.502 83.84 172.182 85.6C171.942 86.64 171.822 87.6 171.822 88.48C171.822 89.76 172.062 90.6 172.542 91C173.022 91.4 173.542 91.6 174.102 91.6C175.702 91.6 177.342 90.76 179.022 89.08C180.702 87.4 182.302 85.4 183.822 83.08C185.422 80.68 186.822 78.36 188.022 76.12C189.222 73.8 190.102 72.04 190.662 70.84C191.142 69.96 191.622 69.52 192.102 69.52C192.582 69.52 192.822 69.84 192.822 70.48C192.822 70.88 192.702 71.32 192.462 71.8C191.502 73.64 190.342 75.84 188.982 78.4C187.702 80.96 186.222 83.48 184.542 85.96C182.862 88.36 180.982 90.4 178.902 92.08C176.902 93.68 174.742 94.48 172.422 94.48C170.742 94.48 169.022 93.92 167.262 92.8C165.582 91.68 164.742 89.6 164.742 86.56C164.742 84.88 165.102 82.84 165.822 80.44C166.382 78.84 167.222 77 168.342 74.92C169.542 72.84 170.982 70.44 172.662 67.72C173.462 66.36 173.862 65.28 173.862 64.48C173.862 63.52 173.382 63.04 172.422 63.04C171.622 63.04 170.502 63.44 169.062 64.24C167.702 65.04 165.982 66.44 163.902 68.44C162.622 69.64 161.102 71.32 159.342 73.48C157.662 75.56 155.942 77.84 154.182 80.32C152.422 82.8 150.902 85.24 149.622 87.64C148.342 90.04 147.502 92.16 147.102 94C145.902 94 144.942 93.52 144.222 92.56C143.502 91.52 143.142 90.32 143.142 88.96C143.142 88.72 143.142 88.48 143.142 88.24C143.142 88 143.182 87.72 143.262 87.4C143.662 84.92 144.302 82.6 145.182 80.44C146.062 78.28 147.062 76.04 148.182 73.72C149.062 72.04 149.942 70.24 150.822 68.32C151.702 66.32 152.142 64.8 152.142 63.76C152.142 63.12 151.902 62.8 151.422 62.8C150.862 62.8 149.942 63.24 148.662 64.12C147.382 64.92 145.622 66.36 143.382 68.44C141.382 70.36 138.942 73.12 136.062 76.72C133.262 80.32 130.182 85.44 126.822 92.08C126.342 92.96 125.782 93.52 125.142 93.76C124.502 93.92 123.502 94 122.142 94C121.262 94 120.542 94 119.982 94C119.342 94.08 118.702 94.28 118.062 94.6ZM195.797 94.96C198.677 89.12 201.437 83.36 204.077 77.68C206.797 71.92 209.557 66.44 212.357 61.24C213.957 58.36 215.277 56.36 216.317 55.24C217.437 54.04 218.917 53.44 220.757 53.44C221.397 53.44 222.077 53.56 222.797 53.8C223.517 53.96 224.237 54.04 224.957 54.04C225.437 54.04 225.797 54 226.037 53.92C224.917 54.56 223.477 56.16 221.717 58.72C219.957 61.2 218.157 64.08 216.317 67.36C214.477 70.64 212.837 73.72 211.397 76.6C212.917 74.76 214.477 72.92 216.077 71.08C217.757 69.24 219.597 67.48 221.597 65.8C223.517 64.12 225.797 62.4 228.437 60.64C231.157 58.8 233.797 57.28 236.357 56.08C238.917 54.88 240.957 54.28 242.477 54.28C243.037 54.28 243.437 54.32 243.677 54.4C243.677 54.4 243.237 55.2 242.357 56.8C241.477 58.32 240.357 60.36 238.997 62.92C237.717 65.4 236.397 68.08 235.037 70.96C233.677 73.76 232.437 76.48 231.317 79.12C230.277 81.68 229.597 83.84 229.277 85.6C229.037 86.64 228.917 87.6 228.917 88.48C228.917 89.76 229.157 90.6 229.637 91C230.117 91.4 230.637 91.6 231.197 91.6C232.717 91.6 234.317 90.8 235.997 89.2C237.677 87.52 239.277 85.48 240.797 83.08C242.397 80.68 243.797 78.36 244.997 76.12C246.277 73.8 247.197 72.04 247.757 70.84C248.077 70.2 248.317 69.84 248.477 69.76C248.637 69.6 248.877 69.52 249.197 69.52C249.677 69.52 249.917 69.84 249.917 70.48C249.917 70.88 249.797 71.32 249.557 71.8C248.597 73.64 247.437 75.84 246.077 78.4C244.797 80.96 243.317 83.48 241.637 85.96C239.957 88.36 238.117 90.4 236.117 92.08C234.117 93.68 231.957 94.48 229.637 94.48C228.037 94.48 226.357 93.92 224.597 92.8C222.917 91.68 222.077 89.6 222.077 86.56C222.077 85.68 222.157 84.76 222.317 83.8C222.477 82.76 222.757 81.64 223.157 80.44C223.797 78.84 224.557 77.12 225.437 75.28C226.317 73.44 227.757 70.92 229.757 67.72C230.317 66.84 230.637 66.16 230.717 65.68C230.877 65.2 230.957 64.8 230.957 64.48C230.957 63.52 230.517 63.04 229.637 63.04C228.917 63.04 227.837 63.44 226.397 64.24C225.037 65.04 223.317 66.44 221.237 68.44C219.237 70.36 216.837 73.08 214.037 76.6C211.317 80.12 208.157 85.32 204.557 92.2C203.997 93.24 203.357 93.8 202.637 93.88C201.997 93.96 201.077 94.04 199.877 94.12C199.077 94.2 198.317 94.24 197.597 94.24C196.877 94.32 196.277 94.56 195.797 94.96ZM272.829 94.48C269.869 94.48 267.189 93.52 264.789 91.6C262.469 89.68 261.309 86.76 261.309 82.84C261.309 79.24 262.189 75.4 263.949 71.32C265.709 67.16 267.949 63.52 270.669 60.4C272.989 57.68 275.589 55.44 278.469 53.68C281.349 51.92 284.069 51.04 286.629 51.04C288.389 51.04 289.909 51.52 291.189 52.48C292.549 53.52 293.229 55 293.229 56.92C293.229 58.92 292.469 61.12 290.949 63.52C289.429 65.92 287.269 68.16 284.469 70.24C283.269 71.12 281.749 71.96 279.909 72.76C278.069 73.56 276.229 74.24 274.389 74.8C272.549 75.28 271.029 75.52 269.829 75.52C269.429 76.48 269.029 77.76 268.629 79.36C268.309 80.96 268.149 82.6 268.149 84.28C268.149 86.28 268.549 88.08 269.349 89.68C270.149 91.28 271.629 92.08 273.789 92.08C276.429 92.08 278.829 91.32 280.989 89.8C283.149 88.28 285.069 86.4 286.749 84.16C288.429 81.84 289.829 79.52 290.949 77.2C292.149 74.88 293.109 72.92 293.829 71.32C294.309 70.2 294.949 69.64 295.749 69.64C296.149 69.64 296.349 69.84 296.349 70.24C296.349 70.56 296.229 70.96 295.989 71.44C294.869 73.84 293.669 76.4 292.389 79.12C291.109 81.76 289.589 84.28 287.829 86.68C286.069 89 283.949 90.88 281.469 92.32C279.069 93.76 276.189 94.48 272.829 94.48ZM270.669 73.36C271.789 73.36 273.669 72.96 276.309 72.16C278.949 71.28 281.349 69.92 283.509 68.08C285.589 66.24 287.189 64.24 288.309 62.08C289.429 59.84 289.989 57.96 289.989 56.44C289.989 54.68 289.349 53.8 288.069 53.8C287.109 53.8 285.789 54.44 284.109 55.72C282.429 57 280.349 59.16 277.869 62.2C276.349 64.12 274.909 66.2 273.549 68.44C272.189 70.68 271.229 72.32 270.669 73.36ZM313.635 94.48C309.715 94.48 306.915 93.48 305.235 91.48C303.635 89.4 302.835 87.24 302.835 85C302.835 83.16 303.275 81.48 304.155 79.96C305.115 78.44 306.235 77.64 307.515 77.56C309.115 74.44 310.835 71.04 312.675 67.36C314.595 63.68 316.355 60.12 317.955 56.68C319.075 54.36 320.475 52.12 322.155 49.96C323.915 47.8 325.835 46.56 327.915 46.24H329.115C329.755 46.24 330.315 46.28 330.795 46.36C331.355 46.44 331.915 46.6 332.475 46.84C333.355 47.24 333.795 47.84 333.795 48.64C333.795 49.12 333.515 49.36 332.955 49.36C332.715 49.36 332.395 49.24 331.995 49C331.035 48.6 330.195 48.4 329.475 48.4C328.995 48.4 328.555 48.52 328.155 48.76C326.635 49.56 325.555 50.68 324.915 52.12C324.355 53.56 324.075 55.08 324.075 56.68C324.075 57.96 324.195 59.28 324.435 60.64C324.755 61.92 325.115 63.08 325.515 64.12C326.395 66.36 327.315 68.56 328.275 70.72C329.315 72.88 329.835 75.2 329.835 77.68C329.835 80.08 329.035 82.64 327.435 85.36C325.835 88 323.795 90.12 321.315 91.72L322.155 91.84C322.555 91.92 322.835 91.96 322.995 91.96C323.155 91.96 323.275 91.96 323.355 91.96C325.195 91.96 326.915 91.44 328.515 90.4C330.195 89.28 331.675 87.92 332.955 86.32C334.235 84.72 335.675 82.48 337.275 79.6C338.955 76.72 340.555 73.68 342.075 70.48C342.315 70.08 342.595 69.88 342.915 69.88C343.315 69.88 343.595 70.04 343.755 70.36C343.995 70.6 344.035 70.92 343.875 71.32C342.835 73.56 341.635 76 340.275 78.64C338.995 81.2 337.515 83.68 335.835 86.08C334.155 88.4 332.195 90.32 329.955 91.84C327.795 93.28 325.355 94 322.635 94C321.995 94 321.315 93.96 320.595 93.88C319.875 93.8 319.155 93.64 318.435 93.4C317.635 93.72 316.795 93.96 315.915 94.12C315.115 94.36 314.355 94.48 313.635 94.48ZM317.235 90.88C318.595 89.76 319.795 88.12 320.835 85.96C321.955 83.8 322.515 80.96 322.515 77.44C322.515 74.32 322.195 71 321.555 67.48C320.915 63.96 320.595 60.84 320.595 58.12C320.595 57.56 320.595 57.08 320.595 56.68C320.675 56.2 320.755 55.76 320.835 55.36C319.795 57.52 318.595 60.04 317.235 62.92C315.875 65.72 314.515 68.44 313.155 71.08C311.795 73.72 310.635 75.96 309.675 77.8C309.675 77.8 309.875 77.84 310.275 77.92C310.755 77.92 311.195 78.2 311.595 78.76C311.995 79.24 312.155 80.24 312.075 81.76C311.995 83.76 312.435 85.64 313.395 87.4C314.435 89.08 315.715 90.24 317.235 90.88ZM312.675 92.56C313.155 92.56 313.595 92.52 313.995 92.44C314.395 92.28 314.755 92.16 315.075 92.08C313.875 91.2 312.795 90.04 311.835 88.6C310.955 87.08 310.435 85.16 310.275 82.84C308.835 84.36 308.115 86 308.115 87.76C308.115 89.04 308.515 90.16 309.315 91.12C310.115 92.08 311.235 92.56 312.675 92.56ZM410.787 94.84C408.307 94.84 406.587 94.2 405.627 92.92C404.667 91.64 404.187 90 404.187 88C404.187 85.92 404.547 83.56 405.267 80.92C406.067 78.28 406.907 75.68 407.787 73.12C407.227 73.92 406.667 74.32 406.107 74.32C405.787 74.32 405.547 74.16 405.387 73.84C405.227 73.52 405.267 73.16 405.507 72.76C405.907 72.04 406.307 71.36 406.707 70.72C407.107 70 407.467 69.28 407.787 68.56C408.427 67.2 408.947 65.6 409.347 63.76C409.827 61.84 410.067 60.08 410.067 58.48C410.067 57.2 409.907 56.12 409.587 55.24C409.267 54.36 408.787 53.84 408.147 53.68C408.147 53.68 408.547 53.6 409.347 53.44C410.227 53.28 411.147 53.12 412.107 52.96C413.067 52.8 413.707 52.72 414.027 52.72C414.507 52.64 414.947 52.6 415.347 52.6C415.747 52.52 416.107 52.48 416.427 52.48C417.227 52.48 417.747 52.8 417.987 53.44C418.307 54.08 418.427 55.48 418.347 57.64C418.267 59.64 417.867 62.08 417.147 64.96C416.427 67.76 415.667 70.2 414.867 72.28C413.827 75 412.867 77.76 411.987 80.56C411.107 83.36 410.667 85.68 410.667 87.52C410.667 89.12 411.107 90.16 411.987 90.64C412.627 90.88 413.187 91 413.667 91C415.507 91 417.307 90.08 419.067 88.24C420.907 86.4 422.667 83.96 424.347 80.92C426.027 77.8 427.587 74.48 429.027 70.96C428.467 69.84 428.067 68.6 427.827 67.24C427.587 65.88 427.467 64.56 427.467 63.28C427.467 61.76 427.667 60.32 428.067 58.96C429.027 55.76 430.347 53.48 432.027 52.12C433.787 50.68 435.267 49.96 436.467 49.96C437.987 49.96 438.747 50.64 438.747 52C438.747 52.32 438.627 52.8 438.387 53.44C438.227 53.6 438.147 53.84 438.147 54.16C437.587 55.84 436.747 58.28 435.627 61.48C434.587 64.68 433.267 68.2 431.667 72.04C430.147 75.8 428.307 79.44 426.147 82.96C424.067 86.4 421.747 89.24 419.187 91.48C416.627 93.72 413.827 94.84 410.787 94.84ZM468.348 45.28C467.148 45.28 466.148 44.88 465.348 44.08C464.628 43.2 464.268 42.16 464.268 40.96C464.268 39.44 464.868 38.12 466.068 37C467.268 35.88 468.588 35.32 470.028 35.32C471.308 35.32 472.348 35.72 473.148 36.52C473.948 37.32 474.348 38.28 474.348 39.4C474.348 40.92 473.748 42.28 472.548 43.48C471.348 44.68 469.948 45.28 468.348 45.28ZM458.628 94C455.668 94 453.588 93.16 452.388 91.48C451.188 89.72 450.588 87.72 450.588 85.48C450.588 84.28 450.708 83.08 450.948 81.88C451.268 80.6 451.628 79.44 452.028 78.4L460.068 57.88C460.308 57.24 460.428 56.68 460.428 56.2C460.428 55.4 460.228 54.72 459.828 54.16C459.428 53.52 459.148 53.08 458.988 52.84L465.588 52.6C466.788 52.52 467.628 52.68 468.108 53.08C468.668 53.4 468.948 53.8 468.948 54.28C468.948 54.76 468.668 55.64 468.108 56.92L458.148 80.32C458.148 80.32 457.908 80.84 457.428 81.88C457.028 82.84 456.788 83.48 456.708 83.8C456.468 85 456.308 85.76 456.228 86.08C456.148 86.4 456.107 86.6 456.107 86.68C456.107 86.76 456.107 87.08 456.107 87.64C456.107 88.68 456.348 89.56 456.828 90.28C457.388 91 458.308 91.36 459.588 91.36C460.388 91.36 461.308 91.12 462.348 90.64C463.388 90.16 464.148 89.68 464.628 89.2C466.628 87.12 468.588 84.4 470.508 81.04C472.508 77.6 474.348 74.2 476.028 70.84C476.348 70.04 476.748 69.64 477.228 69.64C477.628 69.64 477.828 69.92 477.828 70.48C477.828 70.8 477.708 71.28 477.468 71.92C476.668 73.6 475.668 75.68 474.468 78.16C473.268 80.64 471.828 83.12 470.148 85.6C468.548 88 466.788 90 464.868 91.6C462.948 93.2 460.868 94 458.628 94ZM518.721 94.36C517.841 94.44 516.841 94.24 515.721 93.76C514.601 93.28 513.601 92.4 512.721 91.12C511.921 89.84 511.521 88.04 511.521 85.72C511.521 83.8 511.881 81.48 512.601 78.76C511.641 80.28 510.401 82.16 508.881 84.4C507.361 86.56 505.721 88.48 503.961 90.16C502.441 91.6 501.001 92.64 499.641 93.28C498.281 93.92 497.041 94.24 495.921 94.24C493.841 94.24 492.161 93.32 490.881 91.48C489.601 89.56 488.961 87.08 488.961 84.04C488.961 80.84 489.761 77.2 491.361 73.12C492.961 69.04 495.561 64.8 499.161 60.4C501.481 57.6 504.281 55.36 507.561 53.68C510.921 51.92 514.201 51.04 517.401 51.04C519.241 51.04 521.001 51.36 522.681 52C524.361 52.56 525.841 53.52 527.121 54.88C527.681 55.44 527.961 56.08 527.961 56.8C527.961 57.28 527.761 57.68 527.361 58C526.961 58.32 526.441 58.4 525.801 58.24C524.921 55.44 523.041 54.04 520.161 54.04C518.801 54.04 517.241 54.48 515.481 55.36C512.761 56.8 509.921 59.16 506.961 62.44C504.081 65.72 501.561 69.12 499.401 72.64C499.081 73.12 498.561 74.04 497.841 75.4C497.201 76.76 496.561 78.28 495.921 79.96C495.281 81.64 494.841 83.28 494.601 84.88C494.521 85.36 494.481 85.72 494.481 85.96C494.481 86.12 494.481 86.4 494.481 86.8C494.481 89.44 495.481 90.76 497.481 90.76C499.881 90.76 502.601 89 505.641 85.48C507.721 82.92 509.601 80.24 511.281 77.44C512.961 74.64 514.681 71.64 516.441 68.44C517.641 66.28 518.761 64.48 519.801 63.04C520.841 61.6 522.321 60.88 524.241 60.88C525.121 60.88 526.001 61 526.881 61.24C527.761 61.48 528.681 61.52 529.641 61.36C529.001 62 528.121 63.2 527.001 64.96C525.961 66.72 524.841 68.72 523.641 70.96C522.441 73.2 521.361 75.48 520.401 77.8C519.441 80.12 518.761 82.12 518.361 83.8C518.281 84.28 518.161 84.96 518.001 85.84C517.921 86.72 517.881 87.36 517.881 87.76C517.881 90 518.521 91.12 519.801 91.12C521.081 91.12 522.441 90.36 523.881 88.84C525.401 87.32 526.881 85.44 528.321 83.2C529.761 80.96 531.081 78.72 532.281 76.48C533.481 74.16 534.441 72.28 535.161 70.84C535.481 70.04 535.961 69.64 536.601 69.64C537.001 69.64 537.201 69.92 537.201 70.48C537.201 70.72 537.081 71.16 536.841 71.8C535.881 73.8 534.721 76.08 533.361 78.64C532.001 81.12 530.521 83.56 528.921 85.96C527.321 88.28 525.641 90.24 523.881 91.84C522.201 93.36 520.481 94.2 518.721 94.36ZM560.309 94.48C557.349 94.48 554.669 93.52 552.269 91.6C549.949 89.68 548.789 86.76 548.789 82.84C548.789 79.24 549.669 75.4 551.429 71.32C553.189 67.16 555.429 63.52 558.149 60.4C560.469 57.68 563.069 55.44 565.949 53.68C568.829 51.92 571.549 51.04 574.109 51.04C575.869 51.04 577.389 51.52 578.669 52.48C580.029 53.52 580.709 55 580.709 56.92C580.709 58.92 579.949 61.12 578.429 63.52C576.909 65.92 574.749 68.16 571.949 70.24C570.749 71.12 569.229 71.96 567.389 72.76C565.549 73.56 563.709 74.24 561.869 74.8C560.029 75.28 558.509 75.52 557.309 75.52C556.909 76.48 556.509 77.76 556.109 79.36C555.789 80.96 555.629 82.6 555.629 84.28C555.629 86.28 556.029 88.08 556.829 89.68C557.629 91.28 559.109 92.08 561.269 92.08C563.909 92.08 566.309 91.32 568.469 89.8C570.629 88.28 572.549 86.4 574.229 84.16C575.909 81.84 577.309 79.52 578.429 77.2C579.629 74.88 580.589 72.92 581.309 71.32C581.789 70.2 582.429 69.64 583.229 69.64C583.629 69.64 583.829 69.84 583.829 70.24C583.829 70.56 583.709 70.96 583.469 71.44C582.349 73.84 581.149 76.4 579.869 79.12C578.589 81.76 577.069 84.28 575.309 86.68C573.549 89 571.429 90.88 568.949 92.32C566.549 93.76 563.669 94.48 560.309 94.48ZM558.149 73.36C559.269 73.36 561.149 72.96 563.789 72.16C566.429 71.28 568.829 69.92 570.989 68.08C573.069 66.24 574.669 64.24 575.789 62.08C576.909 59.84 577.469 57.96 577.469 56.44C577.469 54.68 576.829 53.8 575.549 53.8C574.589 53.8 573.269 54.44 571.589 55.72C569.909 57 567.829 59.16 565.349 62.2C563.829 64.12 562.389 66.2 561.029 68.44C559.669 70.68 558.709 72.32 558.149 73.36Z" fill="#FFF2E4"/>
<path d="M385.646 260.04C383.406 260.04 381.166 259.52 378.926 258.48C376.766 257.44 374.726 255.92 372.806 253.92C370.006 251.04 367.566 247.6 365.486 243.6C363.486 239.52 361.766 235.36 360.326 231.12C358.886 226.8 357.766 222.88 356.966 219.36C356.166 215.76 355.606 213 355.286 211.08C352.326 216.76 349.246 222.4 346.046 228C342.926 233.52 338.926 238.96 334.046 244.32C329.406 249.36 324.326 253.16 318.806 255.72C313.286 258.36 307.566 259.68 301.646 259.68C299.806 259.68 297.926 259.56 296.006 259.32C290.726 258.68 286.846 257.16 284.366 254.76C281.886 252.36 280.646 249.8 280.646 247.08C280.646 244.12 281.966 241.44 284.606 239.04C287.246 236.64 291.006 235.44 295.886 235.44C297.486 235.44 299.206 235.6 301.046 235.92C302.886 236.24 304.806 236.76 306.806 237.48C307.686 237.8 308.126 238.16 308.126 238.56C308.126 238.88 307.806 239.04 307.166 239.04C306.766 239.04 306.446 239 306.206 238.92C303.566 237.96 301.206 237.48 299.126 237.48C295.766 237.48 293.206 238.48 291.446 240.48C289.686 242.4 288.806 244.52 288.806 246.84C288.806 249.08 289.766 251.16 291.686 253.08C293.606 255 296.566 255.96 300.566 255.96C305.606 255.96 310.246 254.8 314.486 252.48C318.726 250.08 322.686 246.84 326.366 242.76C330.046 238.6 333.566 233.92 336.926 228.72C340.286 223.44 343.566 217.96 346.766 212.28C352.126 202.76 356.966 194.12 361.286 186.36C365.686 178.52 370.326 171.88 375.206 166.44C373.046 166.2 370.846 166.04 368.606 165.96C366.366 165.88 364.086 165.84 361.766 165.84C356.726 165.84 351.486 166.12 346.046 166.68C340.686 167.16 335.486 167.96 330.446 169.08C323.646 170.52 317.806 172.68 312.926 175.56C308.046 178.36 304.166 181.52 301.286 185.04C298.486 188.48 296.726 191.96 296.006 195.48C295.766 196.76 295.646 198 295.646 199.2C295.646 203.28 297.006 206.44 299.726 208.68C302.446 210.92 305.566 212.04 309.086 212.04C311.326 212.04 313.566 211.6 315.806 210.72C318.126 209.76 320.206 208.28 322.046 206.28C323.566 204.68 324.686 203.2 325.406 201.84C326.126 200.4 326.526 199.32 326.606 198.6C326.686 197.48 326.926 196.92 327.326 196.92C327.566 196.92 327.766 197.12 327.926 197.52C328.166 197.92 328.246 198.32 328.166 198.72C327.846 200.56 327.286 202.36 326.486 204.12C325.686 205.88 324.726 207.36 323.606 208.56C321.366 210.88 318.806 212.6 315.926 213.72C313.046 214.84 310.286 215.4 307.646 215.4C304.526 215.4 301.566 214.72 298.766 213.36C296.046 212 293.846 210.04 292.166 207.48C290.486 204.84 289.646 201.6 289.646 197.76C289.646 193.28 291.206 188.72 294.326 184.08C297.446 179.36 302.126 175.2 308.366 171.6C314.686 168 322.526 165.52 331.886 164.16C336.606 163.52 341.166 163.04 345.566 162.72C350.046 162.32 354.366 162.12 358.526 162.12C361.886 162.12 365.166 162.24 368.366 162.48C371.566 162.72 374.726 163.04 377.846 163.44C379.926 161.28 381.326 160.2 382.046 160.2C382.606 160.2 382.886 160.64 382.886 161.52C382.886 161.84 382.846 162.24 382.766 162.72C382.686 163.2 382.566 163.68 382.406 164.16C384.566 164.48 386.646 164.84 388.646 165.24C390.726 165.56 392.566 165.96 394.166 166.44C400.486 168.2 405.086 170.52 407.966 173.4C410.926 176.2 412.406 179.24 412.406 182.52C412.406 186.04 410.806 189.56 407.606 193.08C404.486 196.6 400.046 199.72 394.286 202.44C388.606 205.16 381.926 207.16 374.246 208.44C371.766 208.84 369.566 209.12 367.646 209.28C365.806 209.44 364.206 209.56 362.846 209.64C363.006 210.44 363.366 212.12 363.926 214.68C364.486 217.24 365.286 220.28 366.326 223.8C367.366 227.24 368.686 230.88 370.286 234.72C371.966 238.56 373.966 242.2 376.286 245.64C378.126 248.36 380.006 250.6 381.926 252.36C383.846 254.12 385.886 255 388.046 255C389.406 255 390.806 254.64 392.246 253.92C393.766 253.2 395.326 252.04 396.926 250.44C398.846 248.52 400.566 246.36 402.086 243.96C403.686 241.48 405.046 239.16 406.166 237C407.286 234.84 408.046 233.32 408.446 232.44C409.086 231.32 409.766 230.76 410.486 230.76C410.726 230.76 410.846 230.92 410.846 231.24C410.846 231.4 410.726 231.8 410.486 232.44C410.086 233.32 409.486 234.68 408.686 236.52C407.886 238.28 406.926 240.24 405.806 242.4C404.686 244.56 403.486 246.68 402.206 248.76C400.926 250.84 399.646 252.6 398.366 254.04C396.526 256.04 394.446 257.52 392.126 258.48C389.886 259.52 387.726 260.04 385.646 260.04ZM357.806 206.4C360.126 206 362.606 205.72 365.246 205.56C367.886 205.4 370.486 205.16 373.046 204.84C377.206 204.28 381.126 203.2 384.806 201.6C388.486 199.92 391.726 197.92 394.526 195.6C397.406 193.28 399.646 190.84 401.246 188.28C402.846 185.64 403.646 183.12 403.646 180.72C403.646 175.28 400.006 171.52 392.726 169.44C391.286 169.04 389.406 168.64 387.086 168.24C384.846 167.84 382.806 167.48 380.966 167.16C377.126 173.72 373.166 180.16 369.086 186.48C365.086 192.8 361.326 199.44 357.806 206.4ZM431.161 255C428.121 255 425.881 254 424.441 252C423.001 249.92 422.281 247.4 422.281 244.44C422.281 240.84 423.121 237.08 424.801 233.16C426.401 229.48 428.441 226.12 430.921 223.08C433.401 220.04 436.081 217.6 438.961 215.76C441.841 213.84 444.641 212.88 447.361 212.88C450.401 212.88 452.641 213.88 454.081 215.88C455.521 217.88 456.241 220.4 456.241 223.44C456.241 227.12 455.401 230.88 453.721 234.72C452.761 236.88 451.401 239.28 449.641 241.92C447.881 244.48 445.881 246.84 443.641 249C444.121 249.88 444.801 250.64 445.681 251.28C446.561 251.84 447.761 252.12 449.281 252.12C451.201 252.12 453.001 251.32 454.681 249.72C456.441 248.12 458.041 246.2 459.481 243.96C460.921 241.64 462.201 239.32 463.321 237C464.441 234.68 465.361 232.8 466.081 231.36C466.321 230.88 466.721 230.64 467.281 230.64C467.601 230.64 467.841 230.8 468.001 231.12C468.161 231.36 468.121 231.76 467.881 232.32C467.401 233.52 466.601 235.32 465.481 237.72C464.361 240.04 463.001 242.48 461.401 245.04C459.801 247.52 457.961 249.64 455.881 251.4C453.801 253.16 451.481 254.04 448.921 254.04C447.161 254.04 445.641 253.76 444.361 253.2C443.081 252.56 442.041 251.8 441.241 250.92C439.561 252.2 437.881 253.2 436.201 253.92C434.521 254.64 432.841 255 431.161 255ZM432.961 252.36C435.121 252.36 437.441 251.32 439.921 249.24C439.281 248.28 438.801 247.28 438.481 246.24C438.161 245.2 438.001 244.24 438.001 243.36C438.001 241.92 438.321 240.68 438.961 239.64C439.681 238.6 440.761 238.08 442.201 238.08C443.241 238.08 444.081 238.48 444.721 239.28C445.441 240 445.801 240.84 445.801 241.8C445.801 242.04 445.761 242.28 445.681 242.52C445.681 242.68 445.641 242.88 445.561 243.12C446.921 241.28 448.201 239.12 449.401 236.64C452.041 230.96 453.361 226.28 453.361 222.6C453.361 220.76 453.001 219.32 452.281 218.28C451.561 217.24 450.481 216.72 449.041 216.72C447.361 216.72 445.521 217.44 443.521 218.88C441.601 220.32 439.721 222.24 437.881 224.64C436.121 227.04 434.561 229.72 433.201 232.68C431.921 235.4 430.881 238.04 430.081 240.6C429.361 243.08 429.001 245.24 429.001 247.08C429.001 248.68 429.321 249.96 429.961 250.92C430.601 251.88 431.601 252.36 432.961 252.36ZM471.117 255.6C474.077 249.92 476.877 244.24 479.517 238.56C482.157 232.8 484.837 227.36 487.557 222.24C489.157 219.36 490.477 217.36 491.517 216.24C492.637 215.04 494.117 214.44 495.957 214.44C496.597 214.44 497.277 214.56 497.997 214.8C498.717 214.96 499.437 215.04 500.157 215.04C500.637 215.04 500.997 215 501.237 214.92C500.117 215.56 498.677 217.16 496.917 219.72C495.157 222.2 493.357 225.08 491.517 228.36C489.677 231.64 488.037 234.72 486.597 237.6C488.117 235.76 489.677 233.92 491.277 232.08C492.957 230.24 494.797 228.48 496.797 226.8C498.557 225.28 500.397 223.64 502.317 221.88C504.317 220.04 506.277 218.48 508.197 217.2C510.117 215.92 511.797 215.28 513.237 215.28C513.797 215.28 514.157 215.32 514.317 215.4C515.837 216.04 516.597 217.08 516.597 218.52C516.597 219 516.397 219.72 515.997 220.68C514.957 223.4 513.597 226.2 511.917 229.08C510.317 231.88 508.797 234.72 507.357 237.6C508.557 236.16 510.037 234.4 511.797 232.32C513.637 230.24 515.477 228.4 517.317 226.8C519.077 225.2 521.317 223.52 524.037 221.76C526.757 220 529.437 218.48 532.077 217.2C534.717 215.92 536.837 215.28 538.437 215.28C538.997 215.28 539.397 215.32 539.637 215.4C539.637 215.4 539.197 216.2 538.317 217.8C537.437 219.32 536.317 221.36 534.957 223.92C533.677 226.4 532.357 229.08 530.997 231.96C529.637 234.76 528.397 237.48 527.277 240.12C526.237 242.68 525.557 244.84 525.237 246.6C524.997 247.64 524.877 248.6 524.877 249.48C524.877 250.76 525.117 251.6 525.597 252C526.077 252.4 526.597 252.6 527.157 252.6C528.757 252.6 530.397 251.76 532.077 250.08C533.757 248.4 535.357 246.4 536.877 244.08C538.477 241.68 539.877 239.36 541.077 237.12C542.277 234.8 543.157 233.04 543.717 231.84C544.197 230.96 544.677 230.52 545.157 230.52C545.637 230.52 545.877 230.84 545.877 231.48C545.877 231.88 545.757 232.32 545.517 232.8C544.557 234.64 543.397 236.84 542.037 239.4C540.757 241.96 539.277 244.48 537.597 246.96C535.917 249.36 534.037 251.4 531.957 253.08C529.957 254.68 527.797 255.48 525.477 255.48C523.797 255.48 522.077 254.92 520.317 253.8C518.637 252.68 517.797 250.6 517.797 247.56C517.797 245.88 518.157 243.84 518.877 241.44C519.437 239.84 520.277 238 521.397 235.92C522.597 233.84 524.037 231.44 525.717 228.72C526.517 227.36 526.917 226.28 526.917 225.48C526.917 224.52 526.437 224.04 525.477 224.04C524.677 224.04 523.557 224.44 522.117 225.24C520.757 226.04 519.037 227.44 516.957 229.44C515.677 230.64 514.157 232.32 512.397 234.48C510.717 236.56 508.997 238.84 507.237 241.32C505.477 243.8 503.957 246.24 502.677 248.64C501.397 251.04 500.557 253.16 500.157 255C498.957 255 497.997 254.52 497.277 253.56C496.557 252.52 496.197 251.32 496.197 249.96C496.197 249.72 496.197 249.48 496.197 249.24C496.197 249 496.237 248.72 496.317 248.4C496.717 245.92 497.357 243.6 498.237 241.44C499.117 239.28 500.117 237.04 501.237 234.72C502.117 233.04 502.997 231.24 503.877 229.32C504.757 227.32 505.197 225.8 505.197 224.76C505.197 224.12 504.957 223.8 504.477 223.8C503.917 223.8 502.997 224.24 501.717 225.12C500.437 225.92 498.677 227.36 496.437 229.44C494.437 231.36 491.997 234.12 489.117 237.72C486.317 241.32 483.237 246.44 479.877 253.08C479.397 253.96 478.837 254.52 478.197 254.76C477.557 254.92 476.557 255 475.197 255C474.317 255 473.597 255 473.037 255C472.397 255.08 471.757 255.28 471.117 255.6ZM586.171 255.36C585.291 255.44 584.291 255.24 583.171 254.76C582.051 254.28 581.051 253.4 580.171 252.12C579.371 250.84 578.971 249.04 578.971 246.72C578.971 244.8 579.331 242.48 580.051 239.76C579.091 241.28 577.851 243.16 576.331 245.4C574.811 247.56 573.171 249.48 571.411 251.16C569.891 252.6 568.451 253.64 567.091 254.28C565.731 254.92 564.491 255.24 563.371 255.24C561.291 255.24 559.611 254.32 558.331 252.48C557.051 250.56 556.411 248.08 556.411 245.04C556.411 241.84 557.211 238.2 558.811 234.12C560.411 230.04 563.011 225.8 566.611 221.4C568.931 218.6 571.731 216.36 575.011 214.68C578.371 212.92 581.651 212.04 584.851 212.04C586.691 212.04 588.451 212.36 590.131 213C591.811 213.56 593.291 214.52 594.571 215.88C595.131 216.44 595.411 217.08 595.411 217.8C595.411 218.28 595.211 218.68 594.811 219C594.411 219.32 593.891 219.4 593.251 219.24C592.371 216.44 590.491 215.04 587.611 215.04C586.251 215.04 584.691 215.48 582.931 216.36C580.211 217.8 577.371 220.16 574.411 223.44C571.531 226.72 569.011 230.12 566.851 233.64C566.531 234.12 566.011 235.04 565.291 236.4C564.651 237.76 564.011 239.28 563.371 240.96C562.731 242.64 562.291 244.28 562.051 245.88C561.971 246.36 561.931 246.72 561.931 246.96C561.931 247.12 561.931 247.4 561.931 247.8C561.931 250.44 562.931 251.76 564.931 251.76C567.331 251.76 570.051 250 573.091 246.48C575.171 243.92 577.051 241.24 578.731 238.44C580.411 235.64 582.131 232.64 583.891 229.44C585.091 227.28 586.211 225.48 587.251 224.04C588.291 222.6 589.771 221.88 591.691 221.88C592.571 221.88 593.451 222 594.331 222.24C595.211 222.48 596.131 222.52 597.091 222.36C596.451 223 595.571 224.2 594.451 225.96C593.411 227.72 592.291 229.72 591.091 231.96C589.891 234.2 588.811 236.48 587.851 238.8C586.891 241.12 586.211 243.12 585.811 244.8C585.731 245.28 585.611 245.96 585.451 246.84C585.371 247.72 585.331 248.36 585.331 248.76C585.331 251 585.971 252.12 587.251 252.12C588.531 252.12 589.891 251.36 591.331 249.84C592.851 248.32 594.331 246.44 595.771 244.2C597.211 241.96 598.531 239.72 599.731 237.48C600.931 235.16 601.891 233.28 602.611 231.84C602.931 231.04 603.411 230.64 604.051 230.64C604.451 230.64 604.651 230.92 604.651 231.48C604.651 231.72 604.531 232.16 604.291 232.8C603.331 234.8 602.171 237.08 600.811 239.64C599.451 242.12 597.971 244.56 596.371 246.96C594.771 249.28 593.091 251.24 591.331 252.84C589.651 254.36 587.931 255.2 586.171 255.36ZM607.959 255.6C610.919 249.92 613.719 244.24 616.359 238.56C618.999 232.8 621.679 227.36 624.399 222.24C625.999 219.36 627.319 217.36 628.359 216.24C629.479 215.04 630.959 214.44 632.799 214.44C633.439 214.44 634.119 214.56 634.839 214.8C635.559 214.96 636.279 215.04 636.999 215.04C637.479 215.04 637.839 215 638.079 214.92C636.959 215.56 635.519 217.16 633.759 219.72C631.999 222.2 630.199 225.08 628.359 228.36C626.519 231.64 624.879 234.72 623.439 237.6C624.959 235.76 626.519 233.92 628.119 232.08C629.799 230.24 631.639 228.48 633.639 226.8C635.399 225.28 637.239 223.64 639.159 221.88C641.159 220.04 643.119 218.48 645.039 217.2C646.959 215.92 648.639 215.28 650.079 215.28C650.639 215.28 650.999 215.32 651.159 215.4C652.679 216.04 653.439 217.08 653.439 218.52C653.439 219 653.239 219.72 652.839 220.68C651.799 223.4 650.439 226.2 648.759 229.08C647.159 231.88 645.639 234.72 644.199 237.6C645.399 236.16 646.879 234.4 648.639 232.32C650.479 230.24 652.319 228.4 654.159 226.8C655.919 225.2 658.159 223.52 660.879 221.76C663.599 220 666.279 218.48 668.919 217.2C671.559 215.92 673.679 215.28 675.279 215.28C675.839 215.28 676.239 215.32 676.479 215.4C676.479 215.4 676.039 216.2 675.159 217.8C674.279 219.32 673.159 221.36 671.799 223.92C670.519 226.4 669.199 229.08 667.839 231.96C666.479 234.76 665.239 237.48 664.119 240.12C663.079 242.68 662.399 244.84 662.079 246.6C661.839 247.64 661.719 248.6 661.719 249.48C661.719 250.76 661.959 251.6 662.439 252C662.919 252.4 663.439 252.6 663.999 252.6C665.599 252.6 667.239 251.76 668.919 250.08C670.599 248.4 672.199 246.4 673.719 244.08C675.319 241.68 676.719 239.36 677.919 237.12C679.119 234.8 679.999 233.04 680.559 231.84C681.039 230.96 681.519 230.52 681.999 230.52C682.479 230.52 682.719 230.84 682.719 231.48C682.719 231.88 682.599 232.32 682.359 232.8C681.399 234.64 680.239 236.84 678.879 239.4C677.599 241.96 676.119 244.48 674.439 246.96C672.759 249.36 670.879 251.4 668.799 253.08C666.799 254.68 664.639 255.48 662.319 255.48C660.639 255.48 658.919 254.92 657.159 253.8C655.479 252.68 654.639 250.6 654.639 247.56C654.639 245.88 654.999 243.84 655.719 241.44C656.279 239.84 657.119 238 658.239 235.92C659.439 233.84 660.879 231.44 662.559 228.72C663.359 227.36 663.759 226.28 663.759 225.48C663.759 224.52 663.279 224.04 662.319 224.04C661.519 224.04 660.399 224.44 658.959 225.24C657.599 226.04 655.879 227.44 653.799 229.44C652.519 230.64 650.999 232.32 649.239 234.48C647.559 236.56 645.839 238.84 644.079 241.32C642.319 243.8 640.799 246.24 639.519 248.64C638.239 251.04 637.399 253.16 636.999 255C635.799 255 634.839 254.52 634.119 253.56C633.399 252.52 633.039 251.32 633.039 249.96C633.039 249.72 633.039 249.48 633.039 249.24C633.039 249 633.079 248.72 633.159 248.4C633.559 245.92 634.199 243.6 635.079 241.44C635.959 239.28 636.959 237.04 638.079 234.72C638.959 233.04 639.839 231.24 640.719 229.32C641.599 227.32 642.039 225.8 642.039 224.76C642.039 224.12 641.799 223.8 641.319 223.8C640.759 223.8 639.839 224.24 638.559 225.12C637.279 225.92 635.519 227.36 633.279 229.44C631.279 231.36 628.839 234.12 625.959 237.72C623.159 241.32 620.079 246.44 616.719 253.08C616.239 253.96 615.679 254.52 615.039 254.76C614.399 254.92 613.399 255 612.039 255C611.159 255 610.439 255 609.879 255C609.239 255.08 608.599 255.28 607.959 255.6ZM771.585 255C769.425 255 767.625 253.92 766.185 251.76C765.785 251.12 765.425 250.28 765.105 249.24C764.785 248.2 764.625 247.04 764.625 245.76C764.625 245.04 764.665 244.32 764.745 243.6C764.825 242.8 764.985 242 765.225 241.2C764.105 242.96 762.785 244.92 761.265 247.08C759.825 249.16 758.145 251 756.225 252.6C754.385 254.12 752.305 254.88 749.985 254.88C749.185 254.88 748.345 254.76 747.465 254.52C745.305 253.88 743.745 252.76 742.785 251.16C741.905 249.56 741.465 247.64 741.465 245.4C741.465 242.92 741.945 240.2 742.905 237.24C743.945 234.28 745.225 231.4 746.745 228.6C748.345 225.8 749.985 223.4 751.665 221.4C754.065 218.6 756.825 216.36 759.945 214.68C763.065 213 766.225 212.16 769.425 212.16C772.305 212.16 775.025 212.92 777.585 214.44C778.785 212.2 780.065 209.72 781.425 207C782.785 204.2 784.145 201.44 785.505 198.72C786.865 196 788.065 193.52 789.105 191.28C790.145 188.96 790.945 187.2 791.505 186C792.705 183.2 793.825 181.44 794.865 180.72C795.985 179.92 797.305 179.52 798.825 179.52C799.705 179.52 800.665 179.64 801.705 179.88C802.825 180.04 803.905 180.08 804.945 180C804.465 180.48 803.465 181.88 801.945 184.2C800.505 186.44 798.785 189.32 796.785 192.84C794.785 196.36 792.625 200.24 790.305 204.48C788.065 208.64 785.825 212.88 783.585 217.2C781.425 221.44 779.385 225.48 777.465 229.32C775.625 233.08 774.145 236.32 773.025 239.04C772.705 239.68 772.225 241 771.585 243C771.025 244.92 770.745 246.6 770.745 248.04C770.745 249.08 770.985 250 771.465 250.8C771.945 251.52 772.745 251.88 773.865 251.88C775.385 251.88 776.905 251.12 778.425 249.6C780.025 248 781.545 246.08 782.985 243.84C784.425 241.52 785.705 239.28 786.825 237.12C787.945 234.88 788.785 233.12 789.345 231.84C789.745 230.96 790.225 230.52 790.785 230.52C791.265 230.52 791.505 230.88 791.505 231.6C791.505 231.68 791.505 231.84 791.505 232.08C791.505 232.24 791.425 232.44 791.265 232.68C790.545 234.36 789.545 236.44 788.265 238.92C787.065 241.4 785.625 243.88 783.945 246.36C782.265 248.84 780.385 250.92 778.305 252.6C776.225 254.2 773.985 255 771.585 255ZM750.825 251.4C751.945 251.4 753.345 250.8 755.025 249.6C756.705 248.32 758.505 246.32 760.425 243.6C762.665 240.4 765.225 236.4 768.105 231.6C770.985 226.8 773.825 221.72 776.625 216.36C775.585 215.4 774.385 214.92 773.025 214.92C770.785 214.92 768.265 215.96 765.465 218.04C762.745 220.12 760.065 222.76 757.425 225.96C754.865 229.16 752.705 232.4 750.945 235.68C749.745 237.92 748.865 239.96 748.305 241.8C747.825 243.64 747.585 245.24 747.585 246.6C747.585 249.8 748.665 251.4 750.825 251.4ZM810.002 255C809.122 255 808.042 254.8 806.762 254.4C805.562 254 804.482 253.28 803.522 252.24C802.642 251.12 802.202 249.48 802.202 247.32C802.202 245.24 802.682 243.24 803.642 241.32C804.682 239.32 805.642 237.4 806.522 235.56C806.282 235.56 806.002 235.48 805.682 235.32C805.442 235.16 805.322 234.92 805.322 234.6C805.322 234.28 805.402 233.96 805.562 233.64C805.882 233 806.242 232.32 806.642 231.6C807.042 230.88 807.402 230.12 807.722 229.32C808.922 226.84 810.122 224.48 811.322 222.24C812.522 219.92 813.562 217.88 814.442 216.12C815.322 214.36 816.842 213.48 819.002 213.48H826.442C825.082 214.52 823.842 215.68 822.722 216.96C821.682 218.16 820.362 220.4 818.762 223.68C818.762 223.68 818.482 224.24 817.922 225.36C817.362 226.48 816.642 227.92 815.762 229.68C814.962 231.36 814.122 233.08 813.242 234.84C812.442 236.6 811.762 238.08 811.202 239.28C810.162 241.52 809.482 243.32 809.162 244.68C808.842 245.96 808.682 247.16 808.682 248.28C808.682 250.92 809.562 252.24 811.322 252.24C813.242 252.24 815.562 250.68 818.282 247.56C820.522 244.92 822.722 241.76 824.882 238.08C827.042 234.4 829.082 230.6 831.002 226.68C833.002 222.76 834.762 219.24 836.282 216.12C837.162 214.36 838.722 213.48 840.962 213.48H847.562C846.362 214.44 845.362 215.36 844.562 216.24C843.762 217.04 842.962 218.16 842.162 219.6C841.442 220.96 840.442 222.92 839.162 225.48C838.122 227.64 837.002 229.96 835.802 232.44C834.682 234.84 833.682 237.12 832.802 239.28C831.922 241.44 831.362 243.2 831.122 244.56C831.042 245.36 830.962 245.96 830.882 246.36C830.802 246.76 830.762 247.2 830.762 247.68C830.762 249.2 831.002 250.28 831.482 250.92C832.042 251.56 832.682 251.88 833.402 251.88C835.322 251.88 837.242 250.8 839.162 248.64C841.162 246.48 843.042 243.84 844.802 240.72C846.642 237.6 848.202 234.64 849.482 231.84C849.962 230.96 850.402 230.52 850.802 230.52C851.282 230.52 851.522 230.8 851.522 231.36C851.522 231.76 851.362 232.24 851.042 232.8C850.162 234.72 849.082 236.92 847.802 239.4C846.522 241.88 845.082 244.32 843.482 246.72C841.882 249.12 840.122 251.12 838.202 252.72C836.282 254.24 834.202 255 831.962 255C829.962 255 828.322 254.28 827.042 252.84C825.762 251.32 825.122 249.2 825.122 246.48C825.122 244.32 825.522 242 826.322 239.52C824.962 241.92 823.402 244.32 821.642 246.72C819.882 249.12 818.002 251.12 816.002 252.72C814.002 254.24 812.002 255 810.002 255ZM876.047 255.48C871.487 255.48 868.287 254.4 866.447 252.24C864.607 250 863.687 247.28 863.687 244.08C863.687 240.56 864.487 236.8 866.087 232.8C867.767 228.8 869.727 225.32 871.967 222.36C874.287 219.24 876.847 216.84 879.647 215.16C882.447 213.4 885.287 212.52 888.167 212.52C891.207 212.52 893.447 213.28 894.887 214.8C896.327 216.32 896.887 218.36 896.567 220.92C896.407 222.52 895.647 224.12 894.287 225.72C892.927 227.24 891.567 228 890.207 228C889.567 228 889.007 227.76 888.527 227.28C889.167 226.48 889.847 225.52 890.567 224.4C891.287 223.28 891.807 222.2 892.127 221.16C892.447 220.2 892.607 219.24 892.607 218.28C892.607 216.28 891.647 215.28 889.727 215.28C887.567 215.28 885.287 216.4 882.887 218.64C880.567 220.8 878.527 223.16 876.767 225.72C876.047 226.68 875.167 228.2 874.127 230.28C873.167 232.28 872.287 234.52 871.487 237C870.687 239.4 870.287 241.76 870.287 244.08C870.287 246.48 870.807 248.64 871.847 250.56C872.967 252.4 874.807 253.32 877.367 253.32C880.887 253.32 883.887 252.24 886.367 250.08C888.927 247.84 891.167 245.08 893.087 241.8C895.087 238.52 896.887 235.32 898.487 232.2C898.967 231.24 899.447 230.76 899.927 230.76C900.327 230.76 900.527 231.08 900.527 231.72C900.527 232.04 900.407 232.44 900.167 232.92C898.247 237.08 896.287 240.88 894.287 244.32C892.287 247.76 889.847 250.48 886.967 252.48C884.167 254.48 880.527 255.48 876.047 255.48ZM918.016 255C917.136 255 916.056 254.8 914.776 254.4C913.576 254 912.496 253.28 911.536 252.24C910.656 251.12 910.216 249.48 910.216 247.32C910.216 245.24 910.696 243.24 911.656 241.32C912.696 239.32 913.656 237.4 914.536 235.56C914.296 235.56 914.016 235.48 913.696 235.32C913.456 235.16 913.336 234.92 913.336 234.6C913.336 234.28 913.416 233.96 913.576 233.64C913.896 233 914.256 232.32 914.656 231.6C915.056 230.88 915.416 230.12 915.736 229.32C916.936 226.84 918.136 224.48 919.336 222.24C920.536 219.92 921.576 217.88 922.456 216.12C923.336 214.36 924.856 213.48 927.016 213.48H934.456C933.096 214.52 931.856 215.68 930.736 216.96C929.696 218.16 928.376 220.4 926.776 223.68C926.776 223.68 926.496 224.24 925.936 225.36C925.376 226.48 924.656 227.92 923.776 229.68C922.976 231.36 922.136 233.08 921.256 234.84C920.456 236.6 919.776 238.08 919.216 239.28C918.176 241.52 917.496 243.32 917.176 244.68C916.856 245.96 916.696 247.16 916.696 248.28C916.696 250.92 917.576 252.24 919.336 252.24C921.256 252.24 923.576 250.68 926.296 247.56C928.536 244.92 930.736 241.76 932.896 238.08C935.056 234.4 937.096 230.6 939.016 226.68C941.016 222.76 942.776 219.24 944.296 216.12C945.176 214.36 946.736 213.48 948.976 213.48H955.576C954.376 214.44 953.376 215.36 952.576 216.24C951.776 217.04 950.976 218.16 950.176 219.6C949.456 220.96 948.456 222.92 947.176 225.48C946.136 227.64 945.016 229.96 943.816 232.44C942.696 234.84 941.696 237.12 940.816 239.28C939.936 241.44 939.376 243.2 939.136 244.56C939.056 245.36 938.976 245.96 938.896 246.36C938.816 246.76 938.776 247.2 938.776 247.68C938.776 249.2 939.016 250.28 939.496 250.92C940.056 251.56 940.696 251.88 941.416 251.88C943.336 251.88 945.256 250.8 947.176 248.64C949.176 246.48 951.056 243.84 952.816 240.72C954.656 237.6 956.216 234.64 957.496 231.84C957.976 230.96 958.416 230.52 958.816 230.52C959.296 230.52 959.536 230.8 959.536 231.36C959.536 231.76 959.376 232.24 959.056 232.8C958.176 234.72 957.096 236.92 955.816 239.4C954.536 241.88 953.096 244.32 951.496 246.72C949.896 249.12 948.136 251.12 946.216 252.72C944.296 254.24 942.216 255 939.976 255C937.976 255 936.336 254.28 935.056 252.84C933.776 251.32 933.136 249.2 933.136 246.48C933.136 244.32 933.536 242 934.336 239.52C932.976 241.92 931.416 244.32 929.656 246.72C927.896 249.12 926.016 251.12 924.016 252.72C922.016 254.24 920.016 255 918.016 255ZM962.701 255.96C965.581 250.12 968.341 244.36 970.981 238.68C973.701 232.92 976.461 227.44 979.261 222.24C980.861 219.36 982.181 217.36 983.221 216.24C984.341 215.04 985.821 214.44 987.661 214.44C988.301 214.44 988.981 214.56 989.701 214.8C990.421 214.96 991.141 215.04 991.861 215.04C992.341 215.04 992.701 215 992.941 214.92C991.821 215.56 990.381 217.16 988.621 219.72C986.861 222.2 985.061 225.08 983.221 228.36C981.381 231.64 979.741 234.72 978.301 237.6C979.821 235.76 981.381 233.92 982.981 232.08C984.661 230.24 986.501 228.48 988.501 226.8C990.421 225.12 992.701 223.4 995.341 221.64C998.061 219.8 1000.7 218.28 1003.26 217.08C1005.82 215.88 1007.86 215.28 1009.38 215.28C1009.94 215.28 1010.34 215.32 1010.58 215.4C1010.58 215.4 1010.14 216.2 1009.26 217.8C1008.38 219.32 1007.26 221.36 1005.9 223.92C1004.62 226.4 1003.3 229.08 1001.94 231.96C1000.58 234.76 999.341 237.48 998.221 240.12C997.181 242.68 996.501 244.84 996.181 246.6C995.941 247.64 995.821 248.6 995.821 249.48C995.821 250.76 996.061 251.6 996.541 252C997.021 252.4 997.541 252.6 998.101 252.6C999.621 252.6 1001.22 251.8 1002.9 250.2C1004.58 248.52 1006.18 246.48 1007.7 244.08C1009.3 241.68 1010.7 239.36 1011.9 237.12C1013.18 234.8 1014.1 233.04 1014.66 231.84C1014.98 231.2 1015.22 230.84 1015.38 230.76C1015.54 230.6 1015.78 230.52 1016.1 230.52C1016.58 230.52 1016.82 230.84 1016.82 231.48C1016.82 231.88 1016.7 232.32 1016.46 232.8C1015.5 234.64 1014.34 236.84 1012.98 239.4C1011.7 241.96 1010.22 244.48 1008.54 246.96C1006.86 249.36 1005.02 251.4 1003.02 253.08C1001.02 254.68 998.861 255.48 996.541 255.48C994.941 255.48 993.261 254.92 991.501 253.8C989.821 252.68 988.981 250.6 988.981 247.56C988.981 246.68 989.061 245.76 989.221 244.8C989.381 243.76 989.661 242.64 990.061 241.44C990.701 239.84 991.461 238.12 992.341 236.28C993.221 234.44 994.661 231.92 996.661 228.72C997.221 227.84 997.541 227.16 997.621 226.68C997.781 226.2 997.861 225.8 997.861 225.48C997.861 224.52 997.421 224.04 996.541 224.04C995.821 224.04 994.741 224.44 993.301 225.24C991.941 226.04 990.221 227.44 988.141 229.44C986.141 231.36 983.741 234.08 980.941 237.6C978.221 241.12 975.061 246.32 971.461 253.2C970.901 254.24 970.261 254.8 969.541 254.88C968.901 254.96 967.981 255.04 966.781 255.12C965.981 255.2 965.221 255.24 964.501 255.24C963.781 255.32 963.181 255.56 962.701 255.96ZM1037.09 255C1034.85 255 1032.85 254.24 1031.09 252.72C1029.33 251.12 1028.45 248.64 1028.45 245.28C1028.45 242.64 1028.93 239.4 1029.89 235.56C1030.93 231.64 1032.17 227.6 1033.61 223.44C1035.13 219.2 1036.61 215.36 1038.05 211.92H1031.69C1031.13 211.92 1030.85 211.52 1030.85 210.72C1030.85 210.32 1030.93 209.96 1031.09 209.64C1031.33 209.32 1031.65 209.16 1032.05 209.16H1039.25C1040.61 206.12 1042.05 203.16 1043.57 200.28C1045.09 197.4 1046.57 194.68 1048.01 192.12C1049.85 188.92 1051.81 186.52 1053.89 184.92C1055.97 183.32 1057.77 182.52 1059.29 182.52C1060.49 182.52 1061.49 183 1062.29 183.96C1063.09 184.84 1063.49 186.2 1063.49 188.04C1063.49 189.16 1063.25 190.72 1062.77 192.72C1062.29 194.64 1061.53 196.68 1060.49 198.84C1059.93 199.96 1059.13 201.56 1058.09 203.64C1057.13 205.72 1056.17 207.56 1055.21 209.16H1060.97C1061.53 209.16 1061.81 209.56 1061.81 210.36C1061.81 210.68 1061.73 211.04 1061.57 211.44C1061.41 211.76 1061.17 211.92 1060.85 211.92H1053.77C1051.77 215.36 1049.49 218.72 1046.93 222C1044.37 225.28 1041.33 228.56 1037.81 231.84C1037.57 232.56 1037.25 233.6 1036.85 234.96C1036.53 236.32 1036.21 237.72 1035.89 239.16C1035.65 240.52 1035.41 241.68 1035.17 242.64C1035.01 243.6 1034.93 244.08 1034.93 244.08C1034.69 245.12 1034.57 246.08 1034.57 246.96C1034.57 248.64 1034.97 249.88 1035.77 250.68C1036.57 251.4 1037.49 251.76 1038.53 251.76C1039.17 251.76 1039.81 251.68 1040.45 251.52C1041.09 251.28 1041.81 250.88 1042.61 250.32C1045.41 248.32 1047.85 245.6 1049.93 242.16C1052.09 238.72 1053.97 235.4 1055.57 232.2C1056.05 231.24 1056.53 230.76 1057.01 230.76C1057.33 230.76 1057.49 231 1057.49 231.48C1057.49 231.72 1057.37 232.16 1057.13 232.8C1055.37 236.48 1053.89 239.44 1052.69 241.68C1051.49 243.92 1050.33 245.8 1049.21 247.32C1048.09 248.76 1046.77 250.2 1045.25 251.64C1044.13 252.76 1042.85 253.6 1041.41 254.16C1039.97 254.72 1038.53 255 1037.09 255ZM1046.57 209.16H1052.69C1053.81 207.08 1054.85 205.04 1055.81 203.04C1056.85 201.04 1057.77 199.04 1058.57 197.04C1059.13 195.76 1059.61 194.32 1060.01 192.72C1060.41 191.12 1060.61 189.88 1060.61 189C1060.61 187.8 1060.33 187.2 1059.77 187.2C1059.37 187.2 1058.77 187.56 1057.97 188.28C1057.25 188.92 1056.33 190.04 1055.21 191.64C1053.77 193.64 1052.33 196.24 1050.89 199.44C1049.53 202.56 1048.09 205.8 1046.57 209.16ZM1038.77 228C1041.09 225.6 1043.25 223.04 1045.25 220.32C1047.33 217.6 1049.25 214.8 1051.01 211.92H1045.37C1044.09 214.88 1042.89 217.76 1041.77 220.56C1040.65 223.36 1039.65 225.84 1038.77 228Z" fill="#FFF2E4"/>
</svg>
