<svg width="1080" height="315" viewBox="0 0 1080 315" fill="none" xmlns="http://www.w3.org/2000/svg">
<path d="M269.789 104.68C266.269 104.68 263.789 103.28 262.349 100.48C260.909 97.76 260.189 94.56 260.189 90.88C260.189 87.6 260.629 84.36 261.509 81.16C262.469 77.96 263.589 75.52 264.869 73.84C262.709 76.4 260.029 79.32 256.829 82.6C253.629 85.88 250.109 89.04 246.269 92.08C242.429 95.12 238.469 97.64 234.389 99.64C230.309 101.64 226.269 102.64 222.269 102.64C221.069 102.64 219.869 102.52 218.669 102.28C217.549 102.12 216.429 101.8 215.309 101.32C212.349 100.12 210.149 98 208.709 94.96C207.269 91.84 206.549 88.12 206.549 83.8C206.549 79.24 207.309 74.36 208.829 69.16C210.429 63.88 212.749 58.52 215.789 53.08C217.229 50.44 218.829 47.84 220.589 45.28C222.429 42.64 224.389 40.16 226.469 37.84C223.989 36.72 221.709 35.48 219.629 34.12C217.549 32.68 215.789 31.12 214.349 29.44C213.389 28.32 212.669 27 212.189 25.48C211.709 23.96 211.469 22.48 211.469 21.04C211.469 18.48 212.069 16.8 213.269 16C213.669 15.36 214.149 15.04 214.709 15.04C215.429 15.04 215.789 15.48 215.789 16.36C215.789 16.92 215.629 17.52 215.309 18.16C214.909 19.2 214.709 20.16 214.709 21.04C214.709 22.32 215.029 23.52 215.669 24.64C216.309 25.68 217.069 26.68 217.949 27.64C220.509 30.68 224.029 33.2 228.509 35.2C233.629 29.6 239.229 24.44 245.309 19.72C251.469 14.92 258.069 11.08 265.109 8.2C272.149 5.32 279.549 3.88 287.309 3.88C293.789 3.88 298.869 5.32 302.549 8.2C306.229 11 308.069 14.64 308.069 19.12C308.069 21.28 307.429 23.64 306.149 26.2C304.869 28.68 302.789 31.12 299.909 33.52C297.029 35.84 293.189 37.88 288.389 39.64C283.669 41.32 277.789 42.48 270.749 43.12C268.269 43.36 266.029 43.56 264.029 43.72C262.109 43.8 260.029 43.84 257.789 43.84C253.629 43.84 249.589 43.56 245.669 43C241.829 42.44 237.989 41.56 234.149 40.36C232.709 42.36 230.869 45.08 228.629 48.52C226.469 51.96 224.309 55.64 222.149 59.56C219.989 63.48 218.189 67.2 216.749 70.72C215.469 74.08 214.509 77.16 213.869 79.96C213.229 82.68 212.909 85.12 212.909 87.28C212.909 91.2 213.829 94.16 215.669 96.16C217.509 98.08 219.989 99.04 223.109 99.04C226.149 99.04 229.589 98.16 233.429 96.4C237.349 94.64 241.429 92 245.669 88.48C249.909 84.96 254.029 81 258.029 76.6C262.109 72.2 265.829 67.72 269.189 63.16C272.549 58.6 275.269 54.4 277.349 50.56C278.709 48 280.029 46.2 281.309 45.16C282.589 44.04 283.669 43.48 284.549 43.48C285.429 43.48 286.109 43.84 286.589 44.56C287.069 45.2 287.309 46.08 287.309 47.2C287.309 49.44 286.309 51.68 284.309 53.92C282.069 56.4 279.869 59.44 277.709 63.04C275.549 66.64 273.629 70.44 271.949 74.44C270.269 78.44 269.069 82.36 268.349 86.2C268.109 87.48 267.949 88.68 267.869 89.8C267.789 90.92 267.749 91.92 267.749 92.8C267.749 95.76 268.189 97.88 269.069 99.16C270.029 100.44 271.269 101.08 272.789 101.08C274.629 101.08 276.749 100.24 279.149 98.56C281.549 96.88 283.869 94.64 286.109 91.84C288.029 89.28 289.869 86.56 291.629 83.68C293.469 80.8 295.149 77.8 296.669 74.68C296.909 74.12 297.229 73.72 297.629 73.48C298.109 73.16 298.429 73 298.589 73C298.989 73 299.189 73.24 299.189 73.72C299.189 74.04 299.069 74.52 298.829 75.16C298.109 76.76 297.149 78.68 295.949 80.92C294.749 83.16 293.429 85.48 291.989 87.88C290.549 90.2 289.069 92.36 287.549 94.36C285.469 97.08 282.829 99.48 279.629 101.56C276.509 103.64 273.229 104.68 269.789 104.68ZM256.709 40.96C260.869 40.96 265.509 40.72 270.629 40.24C277.269 39.68 283.029 38.36 287.909 36.28C292.789 34.2 296.549 31.56 299.189 28.36C301.829 25.16 303.149 21.6 303.149 17.68C303.149 14.16 301.669 11.48 298.709 9.63999C295.829 7.79999 292.149 6.87999 287.669 6.87999C280.229 6.87999 273.429 8.35999 267.269 11.32C261.189 14.2 255.589 18 250.469 22.72C245.429 27.44 240.629 32.52 236.069 37.96C242.149 39.96 249.029 40.96 256.709 40.96ZM318.128 97.84C315.648 97.84 313.928 97.2 312.968 95.92C312.008 94.64 311.528 93 311.528 91C311.528 88.92 311.888 86.56 312.608 83.92C313.408 81.28 314.248 78.68 315.128 76.12C314.568 76.92 314.008 77.32 313.448 77.32C313.128 77.32 312.888 77.16 312.728 76.84C312.568 76.52 312.608 76.16 312.848 75.76C313.248 75.04 313.648 74.36 314.048 73.72C314.448 73 314.808 72.28 315.128 71.56C315.768 70.2 316.288 68.6 316.688 66.76C317.168 64.84 317.408 63.08 317.408 61.48C317.408 60.2 317.248 59.12 316.928 58.24C316.608 57.36 316.128 56.84 315.488 56.68C315.488 56.68 315.888 56.6 316.688 56.44C317.568 56.28 318.488 56.12 319.448 55.96C320.408 55.8 321.048 55.72 321.368 55.72C321.848 55.64 322.288 55.6 322.688 55.6C323.088 55.52 323.448 55.48 323.768 55.48C324.568 55.48 325.088 55.8 325.328 56.44C325.648 57.08 325.768 58.48 325.688 60.64C325.608 62.64 325.208 65.08 324.488 67.96C323.768 70.76 323.008 73.2 322.208 75.28C321.168 78 320.208 80.76 319.328 83.56C318.448 86.36 318.008 88.68 318.008 90.52C318.008 92.12 318.448 93.16 319.328 93.64C319.968 93.88 320.528 94 321.008 94C322.848 94 324.648 93.08 326.408 91.24C328.248 89.4 330.008 86.96 331.688 83.92C333.368 80.8 334.928 77.48 336.368 73.96C335.808 72.84 335.408 71.6 335.168 70.24C334.928 68.88 334.808 67.56 334.808 66.28C334.808 64.76 335.008 63.32 335.408 61.96C336.368 58.76 337.688 56.48 339.368 55.12C341.128 53.68 342.608 52.96 343.808 52.96C345.328 52.96 346.088 53.64 346.088 55C346.088 55.32 345.968 55.8 345.728 56.44C345.568 56.6 345.488 56.84 345.488 57.16C344.928 58.84 344.088 61.28 342.968 64.48C341.928 67.68 340.608 71.2 339.008 75.04C337.488 78.8 335.648 82.44 333.488 85.96C331.408 89.4 329.088 92.24 326.528 94.48C323.968 96.72 321.168 97.84 318.128 97.84ZM370.768 97.48C367.808 97.48 365.128 96.52 362.728 94.6C360.408 92.68 359.248 89.76 359.248 85.84C359.248 82.24 360.128 78.4 361.888 74.32C363.648 70.16 365.888 66.52 368.608 63.4C370.928 60.68 373.528 58.44 376.408 56.68C379.288 54.92 382.008 54.04 384.568 54.04C386.328 54.04 387.848 54.52 389.128 55.48C390.488 56.52 391.168 58 391.168 59.92C391.168 61.92 390.408 64.12 388.888 66.52C387.368 68.92 385.208 71.16 382.408 73.24C381.208 74.12 379.688 74.96 377.848 75.76C376.008 76.56 374.168 77.24 372.328 77.8C370.488 78.28 368.968 78.52 367.768 78.52C367.368 79.48 366.968 80.76 366.568 82.36C366.248 83.96 366.088 85.6 366.088 87.28C366.088 89.28 366.488 91.08 367.288 92.68C368.088 94.28 369.568 95.08 371.728 95.08C374.368 95.08 376.768 94.32 378.928 92.8C381.088 91.28 383.008 89.4 384.688 87.16C386.368 84.84 387.768 82.52 388.888 80.2C390.088 77.88 391.048 75.92 391.768 74.32C392.248 73.2 392.888 72.64 393.688 72.64C394.088 72.64 394.288 72.84 394.288 73.24C394.288 73.56 394.168 73.96 393.928 74.44C392.808 76.84 391.608 79.4 390.328 82.12C389.048 84.76 387.528 87.28 385.768 89.68C384.008 92 381.888 93.88 379.408 95.32C377.008 96.76 374.128 97.48 370.768 97.48ZM368.608 76.36C369.728 76.36 371.608 75.96 374.248 75.16C376.888 74.28 379.288 72.92 381.448 71.08C383.528 69.24 385.128 67.24 386.248 65.08C387.368 62.84 387.928 60.96 387.928 59.44C387.928 57.68 387.288 56.8 386.008 56.8C385.048 56.8 383.728 57.44 382.048 58.72C380.368 60 378.288 62.16 375.808 65.2C374.288 67.12 372.848 69.2 371.488 71.44C370.128 73.68 369.168 75.32 368.608 76.36ZM403.414 109.36C403.174 109.44 402.934 109.48 402.694 109.48C402.214 109.48 401.974 109.32 401.974 109C401.974 108.6 402.334 108.28 403.054 108.04C405.374 107.32 407.374 106.04 409.054 104.2C410.814 102.44 411.854 100.2 412.174 97.48C411.134 98.36 410.014 98.8 408.814 98.8C407.614 98.8 406.574 98.32 405.694 97.36C404.894 96.48 404.614 95.24 404.854 93.64C405.014 92.2 405.694 91.04 406.894 90.16C408.094 89.28 409.334 88.84 410.614 88.84C412.294 88.84 413.574 89.4 414.454 90.52C415.414 91.64 415.894 93 415.894 94.6C415.894 97.24 415.174 99.56 413.734 101.56C412.374 103.56 410.734 105.2 408.814 106.48C406.894 107.76 405.094 108.72 403.414 109.36ZM531.461 109.36C528.501 109.36 525.461 109.04 522.341 108.4C519.301 107.76 516.261 106.8 513.221 105.52C508.261 103.36 504.261 100.52 501.221 97C498.181 93.56 495.981 89.64 494.621 85.24C493.261 80.84 492.581 76.24 492.581 71.44C492.581 66.4 493.181 61.36 494.381 56.32C495.661 51.28 497.421 46.48 499.661 41.92C501.901 37.28 504.421 33.16 507.221 29.56C506.661 27.48 506.181 25.08 505.781 22.36C505.461 19.64 505.301 16.88 505.301 14.08C505.301 9.84 505.781 5.8 506.741 1.95999C507.061 0.839993 507.621 0.279994 508.421 0.279994C508.981 0.279994 509.261 0.679993 509.261 1.47999C509.261 1.96 509.221 2.32 509.141 2.55999C508.981 3.76 508.821 5 508.661 6.27999C508.581 7.56 508.541 8.88 508.541 10.24C508.541 12.96 508.701 15.64 509.021 18.28C509.341 20.92 509.701 23.36 510.101 25.6C515.941 18 522.621 12.36 530.141 8.67999C537.741 4.91999 545.701 3.03999 554.021 3.03999C556.181 3.03999 558.261 3.15999 560.261 3.4C566.661 4.12 571.901 5.72 575.981 8.2C580.061 10.6 583.061 13.56 584.981 17.08C586.981 20.6 587.981 24.32 587.981 28.24C587.981 32.08 587.101 35.88 585.341 39.64C583.581 43.4 581.021 46.84 577.661 49.96C574.301 53 570.181 55.48 565.301 57.4C560.501 59.24 555.061 60.16 548.981 60.16C547.621 60.16 546.261 60.12 544.901 60.04C543.541 59.96 542.061 59.8 540.461 59.56C534.141 58.6 528.381 56.56 523.181 53.44C517.981 50.32 513.781 45.52 510.581 39.04C509.941 39.84 509.061 41.48 507.941 43.96C506.821 46.36 505.701 49.28 504.581 52.72C503.461 56.16 502.501 59.92 501.701 64C500.901 68 500.501 72.04 500.501 76.12C500.501 80.04 501.021 83.84 502.061 87.52C503.101 91.12 504.901 94.28 507.461 97C510.021 99.8 513.501 101.88 517.901 103.24C520.061 103.88 522.301 104.36 524.621 104.68C526.941 105 529.301 105.16 531.701 105.16C536.341 105.16 540.941 104.56 545.501 103.36C550.061 102.16 554.301 100.4 558.221 98.08C563.421 95.04 567.421 91.52 570.221 87.52C573.021 83.44 575.621 78.88 578.021 73.84C578.341 73.04 578.781 72.64 579.341 72.64C579.741 72.64 579.941 72.92 579.941 73.48C579.941 73.88 579.781 74.36 579.461 74.92C577.781 78.44 576.101 81.68 574.421 84.64C572.741 87.52 570.781 90.2 568.541 92.68C566.301 95.16 563.461 97.6 560.021 100C556.101 102.72 551.701 104.96 546.821 106.72C541.941 108.48 536.821 109.36 531.461 109.36ZM548.261 57.04C553.781 57.04 558.661 56.24 562.901 54.64C567.141 52.96 570.701 50.8 573.581 48.16C576.541 45.44 578.741 42.44 580.181 39.16C581.701 35.88 582.461 32.56 582.461 29.2C582.461 25.92 581.701 22.8 580.181 19.84C578.661 16.88 576.341 14.36 573.221 12.28C570.181 10.12 566.261 8.71999 561.461 8.07999C559.701 7.84 557.941 7.72 556.181 7.72C550.741 7.72 545.381 8.88 540.101 11.2C534.901 13.44 529.981 16.64 525.341 20.8C520.701 24.88 516.581 29.68 512.981 35.2C515.781 42.16 519.701 47.28 524.741 50.56C529.861 53.84 535.701 55.88 542.261 56.68C544.341 56.92 546.341 57.04 548.261 57.04ZM620.485 97.36C619.605 97.44 618.605 97.24 617.485 96.76C616.365 96.28 615.365 95.4 614.485 94.12C613.685 92.84 613.285 91.04 613.285 88.72C613.285 86.8 613.645 84.48 614.365 81.76C613.405 83.28 612.165 85.16 610.645 87.4C609.125 89.56 607.485 91.48 605.725 93.16C604.205 94.6 602.765 95.64 601.405 96.28C600.045 96.92 598.805 97.24 597.685 97.24C595.605 97.24 593.925 96.32 592.645 94.48C591.365 92.56 590.725 90.08 590.725 87.04C590.725 83.84 591.525 80.2 593.125 76.12C594.725 72.04 597.325 67.8 600.925 63.4C603.245 60.6 606.045 58.36 609.325 56.68C612.685 54.92 615.965 54.04 619.165 54.04C621.005 54.04 622.765 54.36 624.445 55C626.125 55.56 627.605 56.52 628.885 57.88C629.445 58.44 629.725 59.08 629.725 59.8C629.725 60.28 629.525 60.68 629.125 61C628.725 61.32 628.205 61.4 627.565 61.24C626.685 58.44 624.805 57.04 621.925 57.04C620.565 57.04 619.005 57.48 617.245 58.36C614.525 59.8 611.685 62.16 608.725 65.44C605.845 68.72 603.325 72.12 601.165 75.64C600.845 76.12 600.325 77.04 599.605 78.4C598.965 79.76 598.325 81.28 597.685 82.96C597.045 84.64 596.605 86.28 596.365 87.88C596.285 88.36 596.245 88.72 596.245 88.96C596.245 89.12 596.245 89.4 596.245 89.8C596.245 92.44 597.245 93.76 599.245 93.76C601.645 93.76 604.365 92 607.405 88.48C609.485 85.92 611.365 83.24 613.045 80.44C614.725 77.64 616.445 74.64 618.205 71.44C619.405 69.28 620.525 67.48 621.565 66.04C622.605 64.6 624.085 63.88 626.005 63.88C626.885 63.88 627.765 64 628.645 64.24C629.525 64.48 630.445 64.52 631.405 64.36C630.765 65 629.885 66.2 628.765 67.96C627.725 69.72 626.605 71.72 625.405 73.96C624.205 76.2 623.125 78.48 622.165 80.8C621.205 83.12 620.525 85.12 620.125 86.8C620.045 87.28 619.925 87.96 619.765 88.84C619.685 89.72 619.645 90.36 619.645 90.76C619.645 93 620.285 94.12 621.565 94.12C622.845 94.12 624.205 93.36 625.645 91.84C627.165 90.32 628.645 88.44 630.085 86.2C631.525 83.96 632.845 81.72 634.045 79.48C635.245 77.16 636.205 75.28 636.925 73.84C637.245 73.04 637.725 72.64 638.365 72.64C638.765 72.64 638.965 72.92 638.965 73.48C638.965 73.72 638.845 74.16 638.605 74.8C637.645 76.8 636.485 79.08 635.125 81.64C633.765 84.12 632.285 86.56 630.685 88.96C629.085 91.28 627.405 93.24 625.645 94.84C623.965 96.36 622.245 97.2 620.485 97.36ZM662.073 97.48C659.113 97.48 656.433 96.52 654.033 94.6C651.713 92.68 650.553 89.76 650.553 85.84C650.553 82.24 651.433 78.4 653.193 74.32C654.953 70.16 657.193 66.52 659.913 63.4C662.233 60.68 664.833 58.44 667.713 56.68C670.593 54.92 673.313 54.04 675.873 54.04C677.633 54.04 679.153 54.52 680.433 55.48C681.793 56.52 682.473 58 682.473 59.92C682.473 61.92 681.713 64.12 680.193 66.52C678.673 68.92 676.513 71.16 673.713 73.24C672.513 74.12 670.993 74.96 669.153 75.76C667.313 76.56 665.473 77.24 663.633 77.8C661.793 78.28 660.273 78.52 659.073 78.52C658.673 79.48 658.273 80.76 657.873 82.36C657.553 83.96 657.393 85.6 657.393 87.28C657.393 89.28 657.793 91.08 658.593 92.68C659.393 94.28 660.873 95.08 663.033 95.08C665.673 95.08 668.073 94.32 670.233 92.8C672.393 91.28 674.313 89.4 675.993 87.16C677.673 84.84 679.073 82.52 680.193 80.2C681.393 77.88 682.353 75.92 683.073 74.32C683.553 73.2 684.193 72.64 684.993 72.64C685.393 72.64 685.593 72.84 685.593 73.24C685.593 73.56 685.473 73.96 685.233 74.44C684.113 76.84 682.913 79.4 681.633 82.12C680.353 84.76 678.833 87.28 677.073 89.68C675.313 92 673.193 93.88 670.713 95.32C668.313 96.76 665.433 97.48 662.073 97.48ZM659.913 76.36C661.033 76.36 662.913 75.96 665.553 75.16C668.193 74.28 670.593 72.92 672.753 71.08C674.833 69.24 676.433 67.24 677.553 65.08C678.673 62.84 679.233 60.96 679.233 59.44C679.233 57.68 678.593 56.8 677.313 56.8C676.353 56.8 675.033 57.44 673.353 58.72C671.673 60 669.593 62.16 667.113 65.2C665.593 67.12 664.153 69.2 662.793 71.44C661.433 73.68 660.473 75.32 659.913 76.36ZM702.878 97.48C698.958 97.48 696.158 96.48 694.478 94.48C692.878 92.4 692.078 90.24 692.078 88C692.078 86.16 692.518 84.48 693.398 82.96C694.358 81.44 695.478 80.64 696.758 80.56C698.358 77.44 700.078 74.04 701.918 70.36C703.838 66.68 705.598 63.12 707.198 59.68C708.318 57.36 709.718 55.12 711.398 52.96C713.158 50.8 715.078 49.56 717.158 49.24H718.358C718.998 49.24 719.558 49.28 720.038 49.36C720.598 49.44 721.158 49.6 721.718 49.84C722.598 50.24 723.038 50.84 723.038 51.64C723.038 52.12 722.758 52.36 722.198 52.36C721.958 52.36 721.638 52.24 721.238 52C720.278 51.6 719.438 51.4 718.718 51.4C718.238 51.4 717.798 51.52 717.398 51.76C715.878 52.56 714.798 53.68 714.158 55.12C713.598 56.56 713.318 58.08 713.318 59.68C713.318 60.96 713.438 62.28 713.678 63.64C713.998 64.92 714.358 66.08 714.758 67.12C715.638 69.36 716.558 71.56 717.518 73.72C718.558 75.88 719.078 78.2 719.078 80.68C719.078 83.08 718.278 85.64 716.678 88.36C715.078 91 713.038 93.12 710.558 94.72L711.398 94.84C711.798 94.92 712.078 94.96 712.238 94.96C712.398 94.96 712.518 94.96 712.598 94.96C714.438 94.96 716.158 94.44 717.758 93.4C719.438 92.28 720.918 90.92 722.198 89.32C723.478 87.72 724.918 85.48 726.518 82.6C728.198 79.72 729.798 76.68 731.318 73.48C731.558 73.08 731.838 72.88 732.158 72.88C732.558 72.88 732.838 73.04 732.998 73.36C733.238 73.6 733.278 73.92 733.118 74.32C732.078 76.56 730.878 79 729.518 81.64C728.238 84.2 726.758 86.68 725.078 89.08C723.398 91.4 721.438 93.32 719.198 94.84C717.038 96.28 714.598 97 711.878 97C711.238 97 710.558 96.96 709.838 96.88C709.118 96.8 708.398 96.64 707.678 96.4C706.878 96.72 706.038 96.96 705.158 97.12C704.358 97.36 703.598 97.48 702.878 97.48ZM706.478 93.88C707.838 92.76 709.038 91.12 710.078 88.96C711.198 86.8 711.758 83.96 711.758 80.44C711.758 77.32 711.438 74 710.798 70.48C710.158 66.96 709.838 63.84 709.838 61.12C709.838 60.56 709.838 60.08 709.838 59.68C709.918 59.2 709.998 58.76 710.078 58.36C709.038 60.52 707.838 63.04 706.478 65.92C705.118 68.72 703.758 71.44 702.398 74.08C701.038 76.72 699.878 78.96 698.918 80.8C698.918 80.8 699.118 80.84 699.518 80.92C699.998 80.92 700.438 81.2 700.838 81.76C701.238 82.24 701.398 83.24 701.318 84.76C701.238 86.76 701.678 88.64 702.638 90.4C703.678 92.08 704.958 93.24 706.478 93.88ZM701.918 95.56C702.398 95.56 702.838 95.52 703.238 95.44C703.638 95.28 703.998 95.16 704.318 95.08C703.118 94.2 702.038 93.04 701.078 91.6C700.198 90.08 699.678 88.16 699.518 85.84C698.078 87.36 697.358 89 697.358 90.76C697.358 92.04 697.758 93.16 698.558 94.12C699.358 95.08 700.478 95.56 701.918 95.56ZM773.659 97.36C772.779 97.44 771.779 97.24 770.659 96.76C769.539 96.28 768.539 95.4 767.659 94.12C766.859 92.84 766.459 91.04 766.459 88.72C766.459 86.8 766.819 84.48 767.539 81.76C766.579 83.28 765.339 85.16 763.819 87.4C762.299 89.56 760.659 91.48 758.899 93.16C757.379 94.6 755.939 95.64 754.579 96.28C753.219 96.92 751.979 97.24 750.859 97.24C748.779 97.24 747.099 96.32 745.819 94.48C744.539 92.56 743.899 90.08 743.899 87.04C743.899 83.84 744.699 80.2 746.299 76.12C747.899 72.04 750.499 67.8 754.099 63.4C756.419 60.6 759.219 58.36 762.499 56.68C765.859 54.92 769.139 54.04 772.339 54.04C774.179 54.04 775.939 54.36 777.619 55C779.299 55.56 780.779 56.52 782.059 57.88C782.619 58.44 782.899 59.08 782.899 59.8C782.899 60.28 782.699 60.68 782.299 61C781.899 61.32 781.379 61.4 780.739 61.24C779.859 58.44 777.979 57.04 775.099 57.04C773.739 57.04 772.179 57.48 770.419 58.36C767.699 59.8 764.859 62.16 761.899 65.44C759.019 68.72 756.499 72.12 754.339 75.64C754.019 76.12 753.499 77.04 752.779 78.4C752.139 79.76 751.499 81.28 750.859 82.96C750.219 84.64 749.779 86.28 749.539 87.88C749.459 88.36 749.419 88.72 749.419 88.96C749.419 89.12 749.419 89.4 749.419 89.8C749.419 92.44 750.419 93.76 752.419 93.76C754.819 93.76 757.539 92 760.579 88.48C762.659 85.92 764.539 83.24 766.219 80.44C767.899 77.64 769.619 74.64 771.379 71.44C772.579 69.28 773.699 67.48 774.739 66.04C775.779 64.6 777.259 63.88 779.179 63.88C780.059 63.88 780.939 64 781.819 64.24C782.699 64.48 783.619 64.52 784.579 64.36C783.939 65 783.059 66.2 781.939 67.96C780.899 69.72 779.779 71.72 778.579 73.96C777.379 76.2 776.299 78.48 775.339 80.8C774.379 83.12 773.699 85.12 773.299 86.8C773.219 87.28 773.099 87.96 772.939 88.84C772.859 89.72 772.819 90.36 772.819 90.76C772.819 93 773.459 94.12 774.739 94.12C776.019 94.12 777.379 93.36 778.819 91.84C780.339 90.32 781.819 88.44 783.259 86.2C784.699 83.96 786.019 81.72 787.219 79.48C788.419 77.16 789.379 75.28 790.099 73.84C790.419 73.04 790.899 72.64 791.539 72.64C791.939 72.64 792.139 72.92 792.139 73.48C792.139 73.72 792.019 74.16 791.779 74.8C790.819 76.8 789.659 79.08 788.299 81.64C786.939 84.12 785.459 86.56 783.859 88.96C782.259 91.28 780.579 93.24 778.819 94.84C777.139 96.36 775.419 97.2 773.659 97.36ZM821.006 97.12C819.486 97.12 817.966 96.52 816.446 95.32C814.926 94.04 814.166 92 814.166 89.2C814.166 87.04 814.686 84.56 815.726 81.76C816.686 79.04 817.966 76.4 819.566 73.84C821.246 71.28 822.446 69.2 823.166 67.6C823.406 66.96 823.526 66.4 823.526 65.92C823.526 64.48 822.606 63.44 820.766 62.8C819.006 62.16 816.686 61.8 813.806 61.72L812.366 65.68C811.486 68.24 810.246 71.24 808.646 74.68C807.126 78.12 805.406 81.44 803.486 84.64C801.646 87.84 799.726 90.4 797.726 92.32C797.566 92.48 797.366 92.56 797.126 92.56C796.806 92.56 796.606 92.36 796.526 91.96C796.366 91.56 796.526 91.08 797.006 90.52C800.126 86.36 802.926 81.76 805.406 76.72C807.886 71.6 809.966 66.4 811.646 61.12C813.406 55.84 814.686 50.96 815.486 46.48C815.726 45.2 816.166 44.28 816.806 43.72C817.446 43.08 818.126 42.76 818.846 42.76C819.886 42.76 820.846 43.28 821.726 44.32C822.606 45.28 823.046 46.68 823.046 48.52C823.046 48.84 823.006 49.2 822.926 49.6C822.926 50 822.886 50.4 822.806 50.8C822.486 52.48 821.526 54.08 819.926 55.6C818.406 57.04 817.166 58.12 816.206 58.84C817.006 58.92 817.846 59 818.726 59.08C819.606 59.08 820.566 59.08 821.606 59.08C825.366 59.08 829.086 58.84 832.766 58.36C832.926 58.84 833.006 59.2 833.006 59.44C833.006 60.48 832.686 61.8 832.046 63.4C831.486 65 830.886 66.44 830.246 67.72C829.926 68.44 829.286 69.76 828.326 71.68C827.366 73.52 826.326 75.64 825.206 78.04C824.086 80.36 823.126 82.68 822.326 85C821.606 87.24 821.246 89.16 821.246 90.76C821.246 92.84 822.046 93.88 823.646 93.88C824.846 93.88 826.166 93.12 827.606 91.6C829.046 90 830.446 88.08 831.806 85.84C833.246 83.52 834.526 81.28 835.646 79.12C836.846 76.88 837.766 75.12 838.406 73.84C838.726 73.04 839.166 72.64 839.726 72.64C840.046 72.64 840.206 72.92 840.206 73.48C840.206 73.8 840.086 74.28 839.846 74.92C838.966 76.76 837.926 78.84 836.726 81.16C835.526 83.48 834.166 85.76 832.646 88C831.206 90.24 829.606 92.2 827.846 93.88C826.166 95.48 824.326 96.52 822.326 97C822.086 97.08 821.646 97.12 821.006 97.12ZM849.415 109.36C849.175 109.44 848.935 109.48 848.695 109.48C848.215 109.48 847.975 109.32 847.975 109C847.975 108.6 848.335 108.28 849.055 108.04C851.375 107.32 853.375 106.04 855.055 104.2C856.815 102.44 857.855 100.2 858.175 97.48C857.135 98.36 856.015 98.8 854.815 98.8C853.615 98.8 852.575 98.32 851.695 97.36C850.895 96.48 850.615 95.24 850.855 93.64C851.015 92.2 851.695 91.04 852.895 90.16C854.095 89.28 855.335 88.84 856.615 88.84C858.295 88.84 859.575 89.4 860.455 90.52C861.415 91.64 861.895 93 861.895 94.6C861.895 97.24 861.175 99.56 859.735 101.56C858.375 103.56 856.735 105.2 854.815 106.48C852.895 107.76 851.095 108.72 849.415 109.36Z" fill="#FFF2E4"/>
<path d="M11.3502 305.6C14.3102 299.92 17.1102 294.24 19.7502 288.56C22.3902 282.8 25.0702 277.36 27.7902 272.24C29.3902 269.36 30.7102 267.36 31.7502 266.24C32.8702 265.04 34.3502 264.44 36.1902 264.44C36.8302 264.44 37.5102 264.56 38.2302 264.8C38.9502 264.96 39.6702 265.04 40.3902 265.04C40.8702 265.04 41.2302 265 41.4702 264.92C40.3502 265.56 38.9102 267.16 37.1502 269.72C35.3902 272.2 33.5902 275.08 31.7502 278.36C29.9102 281.64 28.2702 284.72 26.8302 287.6C28.3502 285.76 29.9102 283.92 31.5102 282.08C33.1902 280.24 35.0302 278.48 37.0302 276.8C38.7902 275.28 40.6302 273.64 42.5502 271.88C44.5502 270.04 46.5102 268.48 48.4302 267.2C50.3502 265.92 52.0302 265.28 53.4702 265.28C54.0302 265.28 54.3902 265.32 54.5502 265.4C56.0702 266.04 56.8302 267.08 56.8302 268.52C56.8302 269 56.6302 269.72 56.2302 270.68C55.1902 273.4 53.8302 276.2 52.1502 279.08C50.5502 281.88 49.0302 284.72 47.5902 287.6C48.7902 286.16 50.2702 284.4 52.0302 282.32C53.8702 280.24 55.7102 278.4 57.5502 276.8C59.3102 275.2 61.5502 273.52 64.2702 271.76C66.9902 270 69.6702 268.48 72.3102 267.2C74.9502 265.92 77.0702 265.28 78.6702 265.28C79.2302 265.28 79.6302 265.32 79.8702 265.4C79.8702 265.4 79.4302 266.2 78.5502 267.8C77.6702 269.32 76.5502 271.36 75.1902 273.92C73.9102 276.4 72.5902 279.08 71.2302 281.96C69.8702 284.76 68.6302 287.48 67.5102 290.12C66.4702 292.68 65.7902 294.84 65.4702 296.6C65.2302 297.64 65.1102 298.6 65.1102 299.48C65.1102 300.76 65.3502 301.6 65.8302 302C66.3102 302.4 66.8302 302.6 67.3902 302.6C68.9902 302.6 70.6302 301.76 72.3102 300.08C73.9902 298.4 75.5902 296.4 77.1102 294.08C78.7102 291.68 80.1102 289.36 81.3102 287.12C82.5102 284.8 83.3902 283.04 83.9502 281.84C84.4302 280.96 84.9102 280.52 85.3902 280.52C85.8702 280.52 86.1102 280.84 86.1102 281.48C86.1102 281.88 85.9902 282.32 85.7502 282.8C84.7902 284.64 83.6302 286.84 82.2702 289.4C80.9902 291.96 79.5102 294.48 77.8302 296.96C76.1502 299.36 74.2702 301.4 72.1902 303.08C70.1902 304.68 68.0302 305.48 65.7102 305.48C64.0302 305.48 62.3102 304.92 60.5502 303.8C58.8702 302.68 58.0302 300.6 58.0302 297.56C58.0302 295.88 58.3902 293.84 59.1102 291.44C59.6702 289.84 60.5102 288 61.6302 285.92C62.8302 283.84 64.2702 281.44 65.9502 278.72C66.7502 277.36 67.1502 276.28 67.1502 275.48C67.1502 274.52 66.6702 274.04 65.7102 274.04C64.9102 274.04 63.7902 274.44 62.3502 275.24C60.9902 276.04 59.2702 277.44 57.1902 279.44C55.9102 280.64 54.3902 282.32 52.6302 284.48C50.9502 286.56 49.2302 288.84 47.4702 291.32C45.7102 293.8 44.1902 296.24 42.9102 298.64C41.6302 301.04 40.7902 303.16 40.3902 305C39.1902 305 38.2302 304.52 37.5102 303.56C36.7902 302.52 36.4302 301.32 36.4302 299.96C36.4302 299.72 36.4302 299.48 36.4302 299.24C36.4302 299 36.4702 298.72 36.5502 298.4C36.9502 295.92 37.5902 293.6 38.4702 291.44C39.3502 289.28 40.3502 287.04 41.4702 284.72C42.3502 283.04 43.2302 281.24 44.1102 279.32C44.9902 277.32 45.4302 275.8 45.4302 274.76C45.4302 274.12 45.1902 273.8 44.7102 273.8C44.1502 273.8 43.2302 274.24 41.9502 275.12C40.6702 275.92 38.9102 277.36 36.6702 279.44C34.6702 281.36 32.2302 284.12 29.3502 287.72C26.5502 291.32 23.4702 296.44 20.1102 303.08C19.6302 303.96 19.0702 304.52 18.4302 304.76C17.7902 304.92 16.7902 305 15.4302 305C14.5502 305 13.8302 305 13.2702 305C12.6302 305.08 11.9902 305.28 11.3502 305.6ZM106.245 305C103.205 305 100.965 304 99.5248 302C98.0848 299.92 97.3648 297.4 97.3648 294.44C97.3648 290.84 98.2048 287.08 99.8848 283.16C101.485 279.48 103.525 276.12 106.005 273.08C108.485 270.04 111.165 267.6 114.045 265.76C116.925 263.84 119.725 262.88 122.445 262.88C125.485 262.88 127.725 263.88 129.165 265.88C130.605 267.88 131.325 270.4 131.325 273.44C131.325 277.12 130.485 280.88 128.805 284.72C127.845 286.88 126.485 289.28 124.725 291.92C122.965 294.48 120.965 296.84 118.725 299C119.205 299.88 119.885 300.64 120.765 301.28C121.645 301.84 122.845 302.12 124.365 302.12C126.285 302.12 128.085 301.32 129.765 299.72C131.525 298.12 133.125 296.2 134.565 293.96C136.005 291.64 137.285 289.32 138.405 287C139.525 284.68 140.445 282.8 141.165 281.36C141.405 280.88 141.805 280.64 142.365 280.64C142.685 280.64 142.925 280.8 143.085 281.12C143.245 281.36 143.205 281.76 142.965 282.32C142.485 283.52 141.685 285.32 140.565 287.72C139.445 290.04 138.085 292.48 136.485 295.04C134.885 297.52 133.045 299.64 130.965 301.4C128.885 303.16 126.565 304.04 124.005 304.04C122.245 304.04 120.725 303.76 119.445 303.2C118.165 302.56 117.125 301.8 116.325 300.92C114.645 302.2 112.965 303.2 111.285 303.92C109.605 304.64 107.925 305 106.245 305ZM108.045 302.36C110.205 302.36 112.525 301.32 115.005 299.24C114.365 298.28 113.885 297.28 113.565 296.24C113.245 295.2 113.085 294.24 113.085 293.36C113.085 291.92 113.405 290.68 114.045 289.64C114.765 288.6 115.845 288.08 117.285 288.08C118.325 288.08 119.165 288.48 119.805 289.28C120.525 290 120.885 290.84 120.885 291.8C120.885 292.04 120.845 292.28 120.765 292.52C120.765 292.68 120.725 292.88 120.645 293.12C122.005 291.28 123.285 289.12 124.485 286.64C127.125 280.96 128.445 276.28 128.445 272.6C128.445 270.76 128.085 269.32 127.365 268.28C126.645 267.24 125.565 266.72 124.125 266.72C122.445 266.72 120.605 267.44 118.605 268.88C116.685 270.32 114.805 272.24 112.965 274.64C111.205 277.04 109.645 279.72 108.285 282.68C107.005 285.4 105.965 288.04 105.165 290.6C104.445 293.08 104.085 295.24 104.085 297.08C104.085 298.68 104.405 299.96 105.045 300.92C105.685 301.88 106.685 302.36 108.045 302.36ZM171.76 305.12C170.24 305.12 168.72 304.52 167.2 303.32C165.68 302.04 164.92 300 164.92 297.2C164.92 295.04 165.44 292.56 166.48 289.76C167.44 287.04 168.72 284.4 170.32 281.84C172 279.28 173.2 277.2 173.92 275.6C174.16 274.96 174.28 274.4 174.28 273.92C174.28 272.48 173.36 271.44 171.52 270.8C169.76 270.16 167.44 269.8 164.56 269.72L163.12 273.68C162.24 276.24 161 279.24 159.4 282.68C157.88 286.12 156.16 289.44 154.24 292.64C152.4 295.84 150.48 298.4 148.48 300.32C148.32 300.48 148.12 300.56 147.88 300.56C147.56 300.56 147.36 300.36 147.28 299.96C147.12 299.56 147.28 299.08 147.76 298.52C150.88 294.36 153.68 289.76 156.16 284.72C158.64 279.6 160.72 274.4 162.4 269.12C164.16 263.84 165.44 258.96 166.24 254.48C166.48 253.2 166.92 252.28 167.56 251.72C168.2 251.08 168.88 250.76 169.6 250.76C170.64 250.76 171.6 251.28 172.48 252.32C173.36 253.28 173.8 254.68 173.8 256.52C173.8 256.84 173.76 257.2 173.68 257.6C173.68 258 173.64 258.4 173.56 258.8C173.24 260.48 172.28 262.08 170.68 263.6C169.16 265.04 167.92 266.12 166.96 266.84C167.76 266.92 168.6 267 169.48 267.08C170.36 267.08 171.32 267.08 172.36 267.08C176.12 267.08 179.84 266.84 183.52 266.36C183.68 266.84 183.76 267.2 183.76 267.44C183.76 268.48 183.44 269.8 182.8 271.4C182.24 273 181.64 274.44 181 275.72C180.68 276.44 180.04 277.76 179.08 279.68C178.12 281.52 177.08 283.64 175.96 286.04C174.84 288.36 173.88 290.68 173.08 293C172.36 295.24 172 297.16 172 298.76C172 300.84 172.8 301.88 174.4 301.88C175.6 301.88 176.92 301.12 178.36 299.6C179.8 298 181.2 296.08 182.56 293.84C184 291.52 185.28 289.28 186.4 287.12C187.6 284.88 188.52 283.12 189.16 281.84C189.48 281.04 189.92 280.64 190.48 280.64C190.8 280.64 190.96 280.92 190.96 281.48C190.96 281.8 190.84 282.28 190.6 282.92C189.72 284.76 188.68 286.84 187.48 289.16C186.28 291.48 184.92 293.76 183.4 296C181.96 298.24 180.36 300.2 178.6 301.88C176.92 303.48 175.08 304.52 173.08 305C172.84 305.08 172.4 305.12 171.76 305.12ZM219.009 256.28C217.809 256.28 216.809 255.88 216.009 255.08C215.289 254.2 214.929 253.16 214.929 251.96C214.929 250.44 215.529 249.12 216.729 248C217.929 246.88 219.249 246.32 220.689 246.32C221.969 246.32 223.009 246.72 223.809 247.52C224.609 248.32 225.009 249.28 225.009 250.4C225.009 251.92 224.409 253.28 223.209 254.48C222.009 255.68 220.609 256.28 219.009 256.28ZM209.289 305C206.329 305 204.249 304.16 203.049 302.48C201.849 300.72 201.249 298.72 201.249 296.48C201.249 295.28 201.369 294.08 201.609 292.88C201.929 291.6 202.289 290.44 202.689 289.4L210.729 268.88C210.969 268.24 211.089 267.68 211.089 267.2C211.089 266.4 210.889 265.72 210.489 265.16C210.089 264.52 209.809 264.08 209.649 263.84L216.249 263.6C217.449 263.52 218.289 263.68 218.769 264.08C219.329 264.4 219.609 264.8 219.609 265.28C219.609 265.76 219.329 266.64 218.769 267.92L208.809 291.32C208.809 291.32 208.569 291.84 208.089 292.88C207.689 293.84 207.449 294.48 207.369 294.8C207.129 296 206.969 296.76 206.889 297.08C206.809 297.4 206.769 297.6 206.769 297.68C206.769 297.76 206.769 298.08 206.769 298.64C206.769 299.68 207.009 300.56 207.489 301.28C208.049 302 208.969 302.36 210.249 302.36C211.049 302.36 211.969 302.12 213.009 301.64C214.049 301.16 214.809 300.68 215.289 300.2C217.289 298.12 219.249 295.4 221.169 292.04C223.169 288.6 225.009 285.2 226.689 281.84C227.009 281.04 227.409 280.64 227.889 280.64C228.289 280.64 228.489 280.92 228.489 281.48C228.489 281.8 228.369 282.28 228.129 282.92C227.329 284.6 226.329 286.68 225.129 289.16C223.929 291.64 222.489 294.12 220.809 296.6C219.209 299 217.449 301 215.529 302.6C213.609 304.2 211.529 305 209.289 305ZM249.343 305C247.103 305 245.103 304.24 243.343 302.72C241.583 301.12 240.703 298.64 240.703 295.28C240.703 292.64 241.183 289.4 242.143 285.56C243.183 281.64 244.423 277.6 245.863 273.44C247.383 269.2 248.863 265.36 250.303 261.92H243.943C243.383 261.92 243.103 261.52 243.103 260.72C243.103 260.32 243.183 259.96 243.343 259.64C243.583 259.32 243.903 259.16 244.303 259.16H251.503C252.863 256.12 254.303 253.16 255.823 250.28C257.343 247.4 258.823 244.68 260.263 242.12C262.103 238.92 264.063 236.52 266.143 234.92C268.223 233.32 270.023 232.52 271.543 232.52C272.743 232.52 273.743 233 274.543 233.96C275.343 234.84 275.743 236.2 275.743 238.04C275.743 239.16 275.503 240.72 275.023 242.72C274.543 244.64 273.783 246.68 272.743 248.84C272.183 249.96 271.383 251.56 270.343 253.64C269.383 255.72 268.423 257.56 267.463 259.16H273.223C273.783 259.16 274.063 259.56 274.063 260.36C274.063 260.68 273.983 261.04 273.823 261.44C273.663 261.76 273.423 261.92 273.103 261.92H266.023C264.023 265.36 261.743 268.72 259.183 272C256.623 275.28 253.583 278.56 250.063 281.84C249.823 282.56 249.503 283.6 249.103 284.96C248.783 286.32 248.463 287.72 248.143 289.16C247.903 290.52 247.663 291.68 247.423 292.64C247.263 293.6 247.183 294.08 247.183 294.08C246.943 295.12 246.823 296.08 246.823 296.96C246.823 298.64 247.223 299.88 248.023 300.68C248.823 301.4 249.743 301.76 250.783 301.76C251.423 301.76 252.063 301.68 252.703 301.52C253.343 301.28 254.063 300.88 254.863 300.32C257.663 298.32 260.103 295.6 262.183 292.16C264.343 288.72 266.223 285.4 267.823 282.2C268.303 281.24 268.783 280.76 269.263 280.76C269.583 280.76 269.743 281 269.743 281.48C269.743 281.72 269.623 282.16 269.383 282.8C267.623 286.48 266.143 289.44 264.943 291.68C263.743 293.92 262.583 295.8 261.463 297.32C260.343 298.76 259.023 300.2 257.503 301.64C256.383 302.76 255.103 303.6 253.663 304.16C252.223 304.72 250.783 305 249.343 305ZM258.823 259.16H264.943C266.063 257.08 267.103 255.04 268.063 253.04C269.103 251.04 270.023 249.04 270.823 247.04C271.383 245.76 271.863 244.32 272.263 242.72C272.663 241.12 272.863 239.88 272.863 239C272.863 237.8 272.583 237.2 272.023 237.2C271.623 237.2 271.023 237.56 270.223 238.28C269.503 238.92 268.583 240.04 267.463 241.64C266.023 243.64 264.583 246.24 263.143 249.44C261.783 252.56 260.343 255.8 258.823 259.16ZM251.023 278C253.343 275.6 255.503 273.04 257.503 270.32C259.583 267.6 261.503 264.8 263.263 261.92H257.623C256.343 264.88 255.143 267.76 254.023 270.56C252.903 273.36 251.903 275.84 251.023 278ZM288.244 305C287.364 305 286.284 304.8 285.004 304.4C283.804 304 282.724 303.28 281.764 302.24C280.884 301.12 280.444 299.48 280.444 297.32C280.444 295.24 280.924 293.24 281.884 291.32C282.924 289.32 283.884 287.4 284.764 285.56C284.524 285.56 284.244 285.48 283.924 285.32C283.684 285.16 283.564 284.92 283.564 284.6C283.564 284.28 283.644 283.96 283.804 283.64C284.124 283 284.484 282.32 284.884 281.6C285.284 280.88 285.644 280.12 285.964 279.32C287.164 276.84 288.364 274.48 289.564 272.24C290.764 269.92 291.804 267.88 292.684 266.12C293.564 264.36 295.084 263.48 297.244 263.48H304.684C303.324 264.52 302.084 265.68 300.964 266.96C299.924 268.16 298.604 270.4 297.004 273.68C297.004 273.68 296.724 274.24 296.164 275.36C295.604 276.48 294.884 277.92 294.004 279.68C293.204 281.36 292.364 283.08 291.484 284.84C290.684 286.6 290.004 288.08 289.444 289.28C288.404 291.52 287.724 293.32 287.404 294.68C287.084 295.96 286.924 297.16 286.924 298.28C286.924 300.92 287.804 302.24 289.564 302.24C291.484 302.24 293.804 300.68 296.524 297.56C298.764 294.92 300.964 291.76 303.124 288.08C305.284 284.4 307.324 280.6 309.244 276.68C311.244 272.76 313.004 269.24 314.524 266.12C315.404 264.36 316.964 263.48 319.204 263.48H325.804C324.604 264.44 323.604 265.36 322.804 266.24C322.004 267.04 321.204 268.16 320.404 269.6C319.684 270.96 318.684 272.92 317.404 275.48C316.364 277.64 315.244 279.96 314.044 282.44C312.924 284.84 311.924 287.12 311.044 289.28C310.164 291.44 309.604 293.2 309.364 294.56C309.284 295.36 309.204 295.96 309.124 296.36C309.044 296.76 309.004 297.2 309.004 297.68C309.004 299.2 309.244 300.28 309.724 300.92C310.284 301.56 310.924 301.88 311.644 301.88C313.564 301.88 315.484 300.8 317.404 298.64C319.404 296.48 321.284 293.84 323.044 290.72C324.884 287.6 326.444 284.64 327.724 281.84C328.204 280.96 328.644 280.52 329.044 280.52C329.524 280.52 329.764 280.8 329.764 281.36C329.764 281.76 329.604 282.24 329.284 282.8C328.404 284.72 327.324 286.92 326.044 289.4C324.764 291.88 323.324 294.32 321.724 296.72C320.124 299.12 318.364 301.12 316.444 302.72C314.524 304.24 312.444 305 310.204 305C308.204 305 306.564 304.28 305.284 302.84C304.004 301.32 303.364 299.2 303.364 296.48C303.364 294.32 303.764 292 304.564 289.52C303.204 291.92 301.644 294.32 299.884 296.72C298.124 299.12 296.244 301.12 294.244 302.72C292.244 304.24 290.244 305 288.244 305ZM297.844 254.72L299.884 250.28H325.564L323.524 254.72H297.844ZM358.609 305.12C357.089 305.12 355.569 304.52 354.049 303.32C352.529 302.04 351.769 300 351.769 297.2C351.769 295.04 352.289 292.56 353.329 289.76C354.289 287.04 355.569 284.4 357.169 281.84C358.849 279.28 360.049 277.2 360.769 275.6C361.009 274.96 361.129 274.4 361.129 273.92C361.129 272.48 360.209 271.44 358.369 270.8C356.609 270.16 354.289 269.8 351.409 269.72L349.969 273.68C349.089 276.24 347.849 279.24 346.249 282.68C344.729 286.12 343.009 289.44 341.089 292.64C339.249 295.84 337.329 298.4 335.329 300.32C335.169 300.48 334.969 300.56 334.729 300.56C334.409 300.56 334.209 300.36 334.129 299.96C333.969 299.56 334.129 299.08 334.609 298.52C337.729 294.36 340.529 289.76 343.009 284.72C345.489 279.6 347.569 274.4 349.249 269.12C351.009 263.84 352.289 258.96 353.089 254.48C353.329 253.2 353.769 252.28 354.409 251.72C355.049 251.08 355.729 250.76 356.449 250.76C357.489 250.76 358.449 251.28 359.329 252.32C360.209 253.28 360.649 254.68 360.649 256.52C360.649 256.84 360.609 257.2 360.529 257.6C360.529 258 360.489 258.4 360.409 258.8C360.089 260.48 359.129 262.08 357.529 263.6C356.009 265.04 354.769 266.12 353.809 266.84C354.609 266.92 355.449 267 356.329 267.08C357.209 267.08 358.169 267.08 359.209 267.08C362.969 267.08 366.689 266.84 370.369 266.36C370.529 266.84 370.609 267.2 370.609 267.44C370.609 268.48 370.289 269.8 369.649 271.4C369.089 273 368.489 274.44 367.849 275.72C367.529 276.44 366.889 277.76 365.929 279.68C364.969 281.52 363.929 283.64 362.809 286.04C361.689 288.36 360.729 290.68 359.929 293C359.209 295.24 358.849 297.16 358.849 298.76C358.849 300.84 359.649 301.88 361.249 301.88C362.449 301.88 363.769 301.12 365.209 299.6C366.649 298 368.049 296.08 369.409 293.84C370.849 291.52 372.129 289.28 373.249 287.12C374.449 284.88 375.369 283.12 376.009 281.84C376.329 281.04 376.769 280.64 377.329 280.64C377.649 280.64 377.809 280.92 377.809 281.48C377.809 281.8 377.689 282.28 377.449 282.92C376.569 284.76 375.529 286.84 374.329 289.16C373.129 291.48 371.769 293.76 370.249 296C368.809 298.24 367.209 300.2 365.449 301.88C363.769 303.48 361.929 304.52 359.929 305C359.689 305.08 359.249 305.12 358.609 305.12ZM405.858 256.28C404.658 256.28 403.658 255.88 402.858 255.08C402.138 254.2 401.778 253.16 401.778 251.96C401.778 250.44 402.378 249.12 403.578 248C404.778 246.88 406.098 246.32 407.538 246.32C408.818 246.32 409.858 246.72 410.658 247.52C411.458 248.32 411.858 249.28 411.858 250.4C411.858 251.92 411.258 253.28 410.058 254.48C408.858 255.68 407.458 256.28 405.858 256.28ZM396.138 305C393.178 305 391.098 304.16 389.898 302.48C388.698 300.72 388.098 298.72 388.098 296.48C388.098 295.28 388.218 294.08 388.458 292.88C388.778 291.6 389.138 290.44 389.538 289.4L397.578 268.88C397.818 268.24 397.938 267.68 397.938 267.2C397.938 266.4 397.738 265.72 397.338 265.16C396.938 264.52 396.658 264.08 396.498 263.84L403.098 263.6C404.298 263.52 405.138 263.68 405.618 264.08C406.178 264.4 406.458 264.8 406.458 265.28C406.458 265.76 406.178 266.64 405.618 267.92L395.658 291.32C395.658 291.32 395.418 291.84 394.938 292.88C394.538 293.84 394.298 294.48 394.218 294.8C393.978 296 393.818 296.76 393.738 297.08C393.658 297.4 393.618 297.6 393.618 297.68C393.618 297.76 393.618 298.08 393.618 298.64C393.618 299.68 393.858 300.56 394.338 301.28C394.898 302 395.818 302.36 397.098 302.36C397.898 302.36 398.818 302.12 399.858 301.64C400.898 301.16 401.658 300.68 402.138 300.2C404.138 298.12 406.098 295.4 408.018 292.04C410.018 288.6 411.858 285.2 413.538 281.84C413.858 281.04 414.258 280.64 414.738 280.64C415.138 280.64 415.338 280.92 415.338 281.48C415.338 281.8 415.218 282.28 414.978 282.92C414.178 284.6 413.178 286.68 411.978 289.16C410.778 291.64 409.338 294.12 407.658 296.6C406.058 299 404.298 301 402.378 302.6C400.458 304.2 398.378 305 396.138 305ZM484.163 305C481.923 305 479.923 304.24 478.163 302.72C476.403 301.12 475.523 298.64 475.523 295.28C475.523 292.64 476.003 289.4 476.963 285.56C478.003 281.64 479.243 277.6 480.683 273.44C482.203 269.2 483.683 265.36 485.123 261.92H478.763C478.203 261.92 477.923 261.52 477.923 260.72C477.923 260.32 478.003 259.96 478.163 259.64C478.403 259.32 478.723 259.16 479.123 259.16H486.323C487.683 256.12 489.123 253.16 490.643 250.28C492.163 247.4 493.643 244.68 495.083 242.12C496.923 238.92 498.883 236.52 500.963 234.92C503.043 233.32 504.843 232.52 506.363 232.52C507.563 232.52 508.563 233 509.363 233.96C510.163 234.84 510.563 236.2 510.563 238.04C510.563 239.16 510.323 240.72 509.843 242.72C509.363 244.64 508.603 246.68 507.563 248.84C507.003 249.96 506.203 251.56 505.163 253.64C504.203 255.72 503.243 257.56 502.283 259.16H508.043C508.603 259.16 508.883 259.56 508.883 260.36C508.883 260.68 508.803 261.04 508.643 261.44C508.483 261.76 508.243 261.92 507.923 261.92H500.843C498.843 265.36 496.563 268.72 494.003 272C491.443 275.28 488.403 278.56 484.883 281.84C484.643 282.56 484.323 283.6 483.923 284.96C483.603 286.32 483.283 287.72 482.963 289.16C482.723 290.52 482.483 291.68 482.243 292.64C482.083 293.6 482.003 294.08 482.003 294.08C481.763 295.12 481.643 296.08 481.643 296.96C481.643 298.64 482.043 299.88 482.843 300.68C483.643 301.4 484.563 301.76 485.603 301.76C486.243 301.76 486.883 301.68 487.523 301.52C488.163 301.28 488.883 300.88 489.683 300.32C492.483 298.32 494.923 295.6 497.003 292.16C499.163 288.72 501.043 285.4 502.643 282.2C503.123 281.24 503.603 280.76 504.083 280.76C504.403 280.76 504.563 281 504.563 281.48C504.563 281.72 504.443 282.16 504.203 282.8C502.443 286.48 500.963 289.44 499.763 291.68C498.563 293.92 497.403 295.8 496.283 297.32C495.163 298.76 493.843 300.2 492.323 301.64C491.203 302.76 489.923 303.6 488.483 304.16C487.043 304.72 485.603 305 484.163 305ZM493.643 259.16H499.763C500.883 257.08 501.923 255.04 502.883 253.04C503.923 251.04 504.843 249.04 505.643 247.04C506.203 245.76 506.683 244.32 507.083 242.72C507.483 241.12 507.683 239.88 507.683 239C507.683 237.8 507.403 237.2 506.843 237.2C506.443 237.2 505.843 237.56 505.043 238.28C504.323 238.92 503.403 240.04 502.283 241.64C500.843 243.64 499.403 246.24 497.963 249.44C496.603 252.56 495.163 255.8 493.643 259.16ZM485.843 278C488.163 275.6 490.323 273.04 492.323 270.32C494.403 267.6 496.323 264.8 498.083 261.92H492.443C491.163 264.88 489.963 267.76 488.843 270.56C487.723 273.36 486.723 275.84 485.843 278ZM527.744 305.48C524.784 305.48 522.104 304.52 519.704 302.6C517.384 300.68 516.224 297.76 516.224 293.84C516.224 290.24 517.104 286.4 518.864 282.32C520.624 278.16 522.864 274.52 525.584 271.4C527.904 268.68 530.504 266.44 533.384 264.68C536.264 262.92 538.984 262.04 541.544 262.04C543.304 262.04 544.824 262.52 546.104 263.48C547.464 264.52 548.144 266 548.144 267.92C548.144 269.92 547.384 272.12 545.864 274.52C544.344 276.92 542.184 279.16 539.384 281.24C538.184 282.12 536.664 282.96 534.824 283.76C532.984 284.56 531.144 285.24 529.304 285.8C527.464 286.28 525.944 286.52 524.744 286.52C524.344 287.48 523.944 288.76 523.544 290.36C523.224 291.96 523.064 293.6 523.064 295.28C523.064 297.28 523.464 299.08 524.264 300.68C525.064 302.28 526.544 303.08 528.704 303.08C531.344 303.08 533.744 302.32 535.904 300.8C538.064 299.28 539.984 297.4 541.664 295.16C543.344 292.84 544.744 290.52 545.864 288.2C547.064 285.88 548.024 283.92 548.744 282.32C549.224 281.2 549.864 280.64 550.664 280.64C551.064 280.64 551.264 280.84 551.264 281.24C551.264 281.56 551.144 281.96 550.904 282.44C549.784 284.84 548.584 287.4 547.304 290.12C546.024 292.76 544.504 295.28 542.744 297.68C540.984 300 538.864 301.88 536.384 303.32C533.984 304.76 531.104 305.48 527.744 305.48ZM525.584 284.36C526.704 284.36 528.584 283.96 531.224 283.16C533.864 282.28 536.264 280.92 538.424 279.08C540.504 277.24 542.104 275.24 543.224 273.08C544.344 270.84 544.904 268.96 544.904 267.44C544.904 265.68 544.264 264.8 542.984 264.8C542.024 264.8 540.704 265.44 539.024 266.72C537.344 268 535.264 270.16 532.784 273.2C531.264 275.12 529.824 277.2 528.464 279.44C527.104 281.68 526.144 283.32 525.584 284.36ZM616.521 305.48C612.601 305.48 609.801 304.48 608.121 302.48C606.521 300.4 605.721 298.24 605.721 296C605.721 294.16 606.161 292.48 607.041 290.96C608.001 289.44 609.121 288.64 610.401 288.56C612.001 285.44 613.721 282.04 615.561 278.36C617.481 274.68 619.241 271.12 620.841 267.68C621.961 265.36 623.361 263.12 625.041 260.96C626.801 258.8 628.721 257.56 630.801 257.24H632.001C632.641 257.24 633.201 257.28 633.681 257.36C634.241 257.44 634.801 257.6 635.361 257.84C636.241 258.24 636.681 258.84 636.681 259.64C636.681 260.12 636.401 260.36 635.841 260.36C635.601 260.36 635.281 260.24 634.881 260C633.921 259.6 633.081 259.4 632.361 259.4C631.881 259.4 631.441 259.52 631.041 259.76C629.521 260.56 628.441 261.68 627.801 263.12C627.241 264.56 626.961 266.08 626.961 267.68C626.961 268.96 627.081 270.28 627.321 271.64C627.641 272.92 628.001 274.08 628.401 275.12C629.281 277.36 630.201 279.56 631.161 281.72C632.201 283.88 632.721 286.2 632.721 288.68C632.721 291.08 631.921 293.64 630.321 296.36C628.721 299 626.681 301.12 624.201 302.72L625.041 302.84C625.441 302.92 625.721 302.96 625.881 302.96C626.041 302.96 626.161 302.96 626.241 302.96C628.081 302.96 629.801 302.44 631.401 301.4C633.081 300.28 634.561 298.92 635.841 297.32C637.121 295.72 638.561 293.48 640.161 290.6C641.841 287.72 643.441 284.68 644.961 281.48C645.201 281.08 645.481 280.88 645.801 280.88C646.201 280.88 646.481 281.04 646.641 281.36C646.881 281.6 646.921 281.92 646.761 282.32C645.721 284.56 644.521 287 643.161 289.64C641.881 292.2 640.401 294.68 638.721 297.08C637.041 299.4 635.081 301.32 632.841 302.84C630.681 304.28 628.241 305 625.521 305C624.881 305 624.201 304.96 623.481 304.88C622.761 304.8 622.041 304.64 621.321 304.4C620.521 304.72 619.681 304.96 618.801 305.12C618.001 305.36 617.241 305.48 616.521 305.48ZM620.121 301.88C621.481 300.76 622.681 299.12 623.721 296.96C624.841 294.8 625.401 291.96 625.401 288.44C625.401 285.32 625.081 282 624.441 278.48C623.801 274.96 623.481 271.84 623.481 269.12C623.481 268.56 623.481 268.08 623.481 267.68C623.561 267.2 623.641 266.76 623.721 266.36C622.681 268.52 621.481 271.04 620.121 273.92C618.761 276.72 617.401 279.44 616.041 282.08C614.681 284.72 613.521 286.96 612.561 288.8C612.561 288.8 612.761 288.84 613.161 288.92C613.641 288.92 614.081 289.2 614.481 289.76C614.881 290.24 615.041 291.24 614.961 292.76C614.881 294.76 615.321 296.64 616.281 298.4C617.321 300.08 618.601 301.24 620.121 301.88ZM615.561 303.56C616.041 303.56 616.481 303.52 616.881 303.44C617.281 303.28 617.641 303.16 617.961 303.08C616.761 302.2 615.681 301.04 614.721 299.6C613.841 298.08 613.321 296.16 613.161 293.84C611.721 295.36 611.001 297 611.001 298.76C611.001 300.04 611.401 301.16 612.201 302.12C613.001 303.08 614.121 303.56 615.561 303.56ZM687.302 305.36C686.422 305.44 685.422 305.24 684.302 304.76C683.182 304.28 682.182 303.4 681.302 302.12C680.502 300.84 680.102 299.04 680.102 296.72C680.102 294.8 680.462 292.48 681.182 289.76C680.222 291.28 678.982 293.16 677.462 295.4C675.942 297.56 674.302 299.48 672.542 301.16C671.022 302.6 669.582 303.64 668.222 304.28C666.862 304.92 665.622 305.24 664.502 305.24C662.422 305.24 660.742 304.32 659.462 302.48C658.182 300.56 657.542 298.08 657.542 295.04C657.542 291.84 658.342 288.2 659.942 284.12C661.542 280.04 664.142 275.8 667.742 271.4C670.062 268.6 672.862 266.36 676.142 264.68C679.502 262.92 682.782 262.04 685.982 262.04C687.822 262.04 689.582 262.36 691.262 263C692.942 263.56 694.422 264.52 695.702 265.88C696.262 266.44 696.542 267.08 696.542 267.8C696.542 268.28 696.342 268.68 695.942 269C695.542 269.32 695.022 269.4 694.382 269.24C693.502 266.44 691.622 265.04 688.742 265.04C687.382 265.04 685.822 265.48 684.062 266.36C681.342 267.8 678.502 270.16 675.542 273.44C672.662 276.72 670.142 280.12 667.982 283.64C667.662 284.12 667.142 285.04 666.422 286.4C665.782 287.76 665.142 289.28 664.502 290.96C663.862 292.64 663.422 294.28 663.182 295.88C663.102 296.36 663.062 296.72 663.062 296.96C663.062 297.12 663.062 297.4 663.062 297.8C663.062 300.44 664.062 301.76 666.062 301.76C668.462 301.76 671.182 300 674.222 296.48C676.302 293.92 678.182 291.24 679.862 288.44C681.542 285.64 683.262 282.64 685.022 279.44C686.222 277.28 687.342 275.48 688.382 274.04C689.422 272.6 690.902 271.88 692.822 271.88C693.702 271.88 694.582 272 695.462 272.24C696.342 272.48 697.262 272.52 698.222 272.36C697.582 273 696.702 274.2 695.582 275.96C694.542 277.72 693.422 279.72 692.222 281.96C691.022 284.2 689.942 286.48 688.982 288.8C688.022 291.12 687.342 293.12 686.942 294.8C686.862 295.28 686.742 295.96 686.582 296.84C686.502 297.72 686.462 298.36 686.462 298.76C686.462 301 687.102 302.12 688.382 302.12C689.662 302.12 691.022 301.36 692.462 299.84C693.982 298.32 695.462 296.44 696.902 294.2C698.342 291.96 699.662 289.72 700.862 287.48C702.062 285.16 703.022 283.28 703.742 281.84C704.062 281.04 704.542 280.64 705.182 280.64C705.582 280.64 705.782 280.92 705.782 281.48C705.782 281.72 705.662 282.16 705.422 282.8C704.462 284.8 703.302 287.08 701.942 289.64C700.582 292.12 699.102 294.56 697.502 296.96C695.902 299.28 694.222 301.24 692.462 302.84C690.782 304.36 689.062 305.2 687.302 305.36ZM726.369 305.36C723.009 305.36 720.729 304.48 719.529 302.72C718.329 300.88 717.729 298.72 717.729 296.24C717.729 293.68 718.089 291.04 718.809 288.32C719.529 285.6 720.169 283.32 720.729 281.48C722.009 277 723.609 272.24 725.529 267.2C727.529 262.08 729.689 257.08 732.009 252.2C734.409 247.24 736.769 242.8 739.089 238.88C740.929 235.76 742.889 233.44 744.969 231.92C747.129 230.32 749.009 229.52 750.609 229.52C751.889 229.52 752.889 230 753.609 230.96C754.409 231.84 754.809 233.2 754.809 235.04C754.809 236.32 754.569 237.84 754.089 239.6C753.689 241.36 752.969 243.36 751.929 245.6C749.129 251.84 745.769 258.08 741.849 264.32C738.009 270.56 733.129 276.4 727.209 281.84C726.889 282.88 726.449 284.12 725.889 285.56C725.409 286.92 724.969 288.32 724.569 289.76C724.089 291.92 723.849 293.76 723.849 295.28C723.849 297.76 724.329 299.64 725.289 300.92C726.329 302.12 727.569 302.72 729.009 302.72C730.289 302.72 731.649 302.28 733.089 301.4C734.529 300.44 735.889 299.08 737.169 297.32C739.089 294.52 740.809 291.68 742.329 288.8C743.929 285.84 745.129 283.56 745.929 281.96C746.409 281.08 746.929 280.64 747.489 280.64C747.889 280.64 748.089 280.88 748.089 281.36C748.089 281.76 747.969 282.2 747.729 282.68C747.009 284.28 746.049 286.36 744.849 288.92C743.729 291.4 742.289 293.92 740.529 296.48C738.849 298.96 736.809 301.08 734.409 302.84C732.089 304.52 729.409 305.36 726.369 305.36ZM728.169 278C731.049 275.04 733.849 271.64 736.569 267.8C739.289 263.88 741.809 259.84 744.129 255.68C746.529 251.44 748.529 247.44 750.129 243.68C750.689 242.48 751.129 241.16 751.449 239.72C751.849 238.28 752.049 237.08 752.049 236.12C752.049 235 751.769 234.44 751.209 234.44C750.889 234.44 750.409 234.76 749.769 235.4C749.129 235.96 748.289 236.96 747.249 238.4C745.729 240.4 744.049 243.12 742.209 246.56C740.449 250 738.649 253.68 736.809 257.6C734.969 261.52 733.289 265.32 731.769 269C730.249 272.6 729.049 275.6 728.169 278ZM766.556 305C765.676 305 764.596 304.8 763.316 304.4C762.116 304 761.036 303.28 760.076 302.24C759.196 301.12 758.756 299.48 758.756 297.32C758.756 295.24 759.236 293.24 760.196 291.32C761.236 289.32 762.196 287.4 763.076 285.56C762.836 285.56 762.556 285.48 762.236 285.32C761.996 285.16 761.876 284.92 761.876 284.6C761.876 284.28 761.956 283.96 762.116 283.64C762.436 283 762.796 282.32 763.196 281.6C763.596 280.88 763.956 280.12 764.276 279.32C765.476 276.84 766.676 274.48 767.876 272.24C769.076 269.92 770.116 267.88 770.996 266.12C771.876 264.36 773.396 263.48 775.556 263.48H782.996C781.636 264.52 780.396 265.68 779.276 266.96C778.236 268.16 776.916 270.4 775.316 273.68C775.316 273.68 775.036 274.24 774.476 275.36C773.916 276.48 773.196 277.92 772.316 279.68C771.516 281.36 770.676 283.08 769.796 284.84C768.996 286.6 768.316 288.08 767.756 289.28C766.716 291.52 766.036 293.32 765.716 294.68C765.396 295.96 765.236 297.16 765.236 298.28C765.236 300.92 766.116 302.24 767.876 302.24C769.796 302.24 772.116 300.68 774.836 297.56C777.076 294.92 779.276 291.76 781.436 288.08C783.596 284.4 785.636 280.6 787.556 276.68C789.556 272.76 791.316 269.24 792.836 266.12C793.716 264.36 795.276 263.48 797.516 263.48H804.116C802.916 264.44 801.916 265.36 801.116 266.24C800.316 267.04 799.516 268.16 798.716 269.6C797.996 270.96 796.996 272.92 795.716 275.48C794.676 277.64 793.556 279.96 792.356 282.44C791.236 284.84 790.236 287.12 789.356 289.28C788.476 291.44 787.916 293.2 787.676 294.56C787.596 295.36 787.516 295.96 787.436 296.36C787.356 296.76 787.316 297.2 787.316 297.68C787.316 299.2 787.556 300.28 788.036 300.92C788.596 301.56 789.236 301.88 789.956 301.88C791.876 301.88 793.796 300.8 795.716 298.64C797.716 296.48 799.596 293.84 801.356 290.72C803.196 287.6 804.756 284.64 806.036 281.84C806.516 280.96 806.956 280.52 807.356 280.52C807.836 280.52 808.076 280.8 808.076 281.36C808.076 281.76 807.916 282.24 807.596 282.8C806.716 284.72 805.636 286.92 804.356 289.4C803.076 291.88 801.636 294.32 800.036 296.72C798.436 299.12 796.676 301.12 794.756 302.72C792.836 304.24 790.756 305 788.516 305C786.516 305 784.876 304.28 783.596 302.84C782.316 301.32 781.676 299.2 781.676 296.48C781.676 294.32 782.076 292 782.876 289.52C781.516 291.92 779.956 294.32 778.196 296.72C776.436 299.12 774.556 301.12 772.556 302.72C770.556 304.24 768.556 305 766.556 305ZM776.156 254.72L778.196 250.28H803.876L801.836 254.72H776.156ZM828.521 305C826.281 305 824.281 304.24 822.521 302.72C820.761 301.12 819.881 298.64 819.881 295.28C819.881 292.64 820.361 289.4 821.321 285.56C822.361 281.64 823.601 277.6 825.041 273.44C826.561 269.2 828.041 265.36 829.481 261.92H823.121C822.561 261.92 822.281 261.52 822.281 260.72C822.281 260.32 822.361 259.96 822.521 259.64C822.761 259.32 823.081 259.16 823.481 259.16H830.681C832.041 256.12 833.481 253.16 835.001 250.28C836.521 247.4 838.001 244.68 839.441 242.12C841.281 238.92 843.241 236.52 845.321 234.92C847.401 233.32 849.201 232.52 850.721 232.52C851.921 232.52 852.921 233 853.721 233.96C854.521 234.84 854.921 236.2 854.921 238.04C854.921 239.16 854.681 240.72 854.201 242.72C853.721 244.64 852.961 246.68 851.921 248.84C851.361 249.96 850.561 251.56 849.521 253.64C848.561 255.72 847.601 257.56 846.641 259.16H852.401C852.961 259.16 853.241 259.56 853.241 260.36C853.241 260.68 853.161 261.04 853.001 261.44C852.841 261.76 852.601 261.92 852.281 261.92H845.201C843.201 265.36 840.921 268.72 838.361 272C835.801 275.28 832.761 278.56 829.241 281.84C829.001 282.56 828.681 283.6 828.281 284.96C827.961 286.32 827.641 287.72 827.321 289.16C827.081 290.52 826.841 291.68 826.601 292.64C826.441 293.6 826.361 294.08 826.361 294.08C826.121 295.12 826.001 296.08 826.001 296.96C826.001 298.64 826.401 299.88 827.201 300.68C828.001 301.4 828.921 301.76 829.961 301.76C830.601 301.76 831.241 301.68 831.881 301.52C832.521 301.28 833.241 300.88 834.041 300.32C836.841 298.32 839.281 295.6 841.361 292.16C843.521 288.72 845.401 285.4 847.001 282.2C847.481 281.24 847.961 280.76 848.441 280.76C848.761 280.76 848.921 281 848.921 281.48C848.921 281.72 848.801 282.16 848.561 282.8C846.801 286.48 845.321 289.44 844.121 291.68C842.921 293.92 841.761 295.8 840.641 297.32C839.521 298.76 838.201 300.2 836.681 301.64C835.561 302.76 834.281 303.6 832.841 304.16C831.401 304.72 829.961 305 828.521 305ZM838.001 259.16H844.121C845.241 257.08 846.281 255.04 847.241 253.04C848.281 251.04 849.201 249.04 850.001 247.04C850.561 245.76 851.041 244.32 851.441 242.72C851.841 241.12 852.041 239.88 852.041 239C852.041 237.8 851.761 237.2 851.201 237.2C850.801 237.2 850.201 237.56 849.401 238.28C848.681 238.92 847.761 240.04 846.641 241.64C845.201 243.64 843.761 246.24 842.321 249.44C840.961 252.56 839.521 255.8 838.001 259.16ZM830.201 278C832.521 275.6 834.681 273.04 836.681 270.32C838.761 267.6 840.681 264.8 842.441 261.92H836.801C835.521 264.88 834.321 267.76 833.201 270.56C832.081 273.36 831.081 275.84 830.201 278ZM889.502 305.36C888.622 305.44 887.622 305.24 886.502 304.76C885.382 304.28 884.382 303.4 883.502 302.12C882.702 300.84 882.302 299.04 882.302 296.72C882.302 294.8 882.662 292.48 883.382 289.76C882.422 291.28 881.182 293.16 879.662 295.4C878.142 297.56 876.502 299.48 874.742 301.16C873.222 302.6 871.782 303.64 870.422 304.28C869.062 304.92 867.822 305.24 866.702 305.24C864.622 305.24 862.942 304.32 861.662 302.48C860.382 300.56 859.742 298.08 859.742 295.04C859.742 291.84 860.542 288.2 862.142 284.12C863.742 280.04 866.342 275.8 869.942 271.4C872.262 268.6 875.062 266.36 878.342 264.68C881.702 262.92 884.982 262.04 888.182 262.04C890.022 262.04 891.782 262.36 893.462 263C895.142 263.56 896.622 264.52 897.902 265.88C898.462 266.44 898.742 267.08 898.742 267.8C898.742 268.28 898.542 268.68 898.142 269C897.742 269.32 897.222 269.4 896.582 269.24C895.702 266.44 893.822 265.04 890.942 265.04C889.582 265.04 888.022 265.48 886.262 266.36C883.542 267.8 880.702 270.16 877.742 273.44C874.862 276.72 872.342 280.12 870.182 283.64C869.862 284.12 869.342 285.04 868.622 286.4C867.982 287.76 867.342 289.28 866.702 290.96C866.062 292.64 865.622 294.28 865.382 295.88C865.302 296.36 865.262 296.72 865.262 296.96C865.262 297.12 865.262 297.4 865.262 297.8C865.262 300.44 866.262 301.76 868.262 301.76C870.662 301.76 873.382 300 876.422 296.48C878.502 293.92 880.382 291.24 882.062 288.44C883.742 285.64 885.462 282.64 887.222 279.44C888.422 277.28 889.542 275.48 890.582 274.04C891.622 272.6 893.102 271.88 895.022 271.88C895.902 271.88 896.782 272 897.662 272.24C898.542 272.48 899.462 272.52 900.422 272.36C899.782 273 898.902 274.2 897.782 275.96C896.742 277.72 895.622 279.72 894.422 281.96C893.222 284.2 892.142 286.48 891.182 288.8C890.222 291.12 889.542 293.12 889.142 294.8C889.062 295.28 888.942 295.96 888.782 296.84C888.702 297.72 888.662 298.36 888.662 298.76C888.662 301 889.302 302.12 890.582 302.12C891.862 302.12 893.222 301.36 894.662 299.84C896.182 298.32 897.662 296.44 899.102 294.2C900.542 291.96 901.862 289.72 903.062 287.48C904.262 285.16 905.222 283.28 905.942 281.84C906.262 281.04 906.742 280.64 907.382 280.64C907.782 280.64 907.982 280.92 907.982 281.48C907.982 281.72 907.862 282.16 907.622 282.8C906.662 284.8 905.502 287.08 904.142 289.64C902.782 292.12 901.302 294.56 899.702 296.96C898.102 299.28 896.422 301.24 894.662 302.84C892.982 304.36 891.262 305.2 889.502 305.36ZM911.169 305.96C914.049 300.12 916.809 294.36 919.449 288.68C922.169 282.92 924.929 277.44 927.729 272.24C929.329 269.36 930.649 267.36 931.689 266.24C932.809 265.04 934.289 264.44 936.129 264.44C936.769 264.44 937.449 264.56 938.169 264.8C938.889 264.96 939.609 265.04 940.329 265.04C940.809 265.04 941.169 265 941.409 264.92C940.289 265.56 938.849 267.16 937.089 269.72C935.329 272.2 933.529 275.08 931.689 278.36C929.849 281.64 928.209 284.72 926.769 287.6C928.289 285.76 929.849 283.92 931.449 282.08C933.129 280.24 934.969 278.48 936.969 276.8C938.889 275.12 941.169 273.4 943.809 271.64C946.529 269.8 949.169 268.28 951.729 267.08C954.289 265.88 956.329 265.28 957.849 265.28C958.409 265.28 958.809 265.32 959.049 265.4C959.049 265.4 958.609 266.2 957.729 267.8C956.849 269.32 955.729 271.36 954.369 273.92C953.089 276.4 951.769 279.08 950.409 281.96C949.049 284.76 947.809 287.48 946.689 290.12C945.649 292.68 944.969 294.84 944.649 296.6C944.409 297.64 944.289 298.6 944.289 299.48C944.289 300.76 944.529 301.6 945.009 302C945.489 302.4 946.009 302.6 946.569 302.6C948.089 302.6 949.689 301.8 951.369 300.2C953.049 298.52 954.649 296.48 956.169 294.08C957.769 291.68 959.169 289.36 960.369 287.12C961.649 284.8 962.569 283.04 963.129 281.84C963.449 281.2 963.689 280.84 963.849 280.76C964.009 280.6 964.249 280.52 964.569 280.52C965.049 280.52 965.289 280.84 965.289 281.48C965.289 281.88 965.169 282.32 964.929 282.8C963.969 284.64 962.809 286.84 961.449 289.4C960.169 291.96 958.689 294.48 957.009 296.96C955.329 299.36 953.489 301.4 951.489 303.08C949.489 304.68 947.329 305.48 945.009 305.48C943.409 305.48 941.729 304.92 939.969 303.8C938.289 302.68 937.449 300.6 937.449 297.56C937.449 296.68 937.529 295.76 937.689 294.8C937.849 293.76 938.129 292.64 938.529 291.44C939.169 289.84 939.929 288.12 940.809 286.28C941.689 284.44 943.129 281.92 945.129 278.72C945.689 277.84 946.009 277.16 946.089 276.68C946.249 276.2 946.329 275.8 946.329 275.48C946.329 274.52 945.889 274.04 945.009 274.04C944.289 274.04 943.209 274.44 941.769 275.24C940.409 276.04 938.689 277.44 936.609 279.44C934.609 281.36 932.209 284.08 929.409 287.6C926.689 291.12 923.529 296.32 919.929 303.2C919.369 304.24 918.729 304.8 918.009 304.88C917.369 304.96 916.449 305.04 915.249 305.12C914.449 305.2 913.689 305.24 912.969 305.24C912.249 305.32 911.649 305.56 911.169 305.96ZM985.562 305C983.322 305 981.322 304.24 979.562 302.72C977.802 301.12 976.922 298.64 976.922 295.28C976.922 292.64 977.402 289.4 978.362 285.56C979.402 281.64 980.642 277.6 982.082 273.44C983.602 269.2 985.082 265.36 986.522 261.92H980.162C979.602 261.92 979.322 261.52 979.322 260.72C979.322 260.32 979.402 259.96 979.562 259.64C979.802 259.32 980.122 259.16 980.522 259.16H987.722C989.082 256.12 990.522 253.16 992.042 250.28C993.562 247.4 995.042 244.68 996.482 242.12C998.322 238.92 1000.28 236.52 1002.36 234.92C1004.44 233.32 1006.24 232.52 1007.76 232.52C1008.96 232.52 1009.96 233 1010.76 233.96C1011.56 234.84 1011.96 236.2 1011.96 238.04C1011.96 239.16 1011.72 240.72 1011.24 242.72C1010.76 244.64 1010 246.68 1008.96 248.84C1008.4 249.96 1007.6 251.56 1006.56 253.64C1005.6 255.72 1004.64 257.56 1003.68 259.16H1009.44C1010 259.16 1010.28 259.56 1010.28 260.36C1010.28 260.68 1010.2 261.04 1010.04 261.44C1009.88 261.76 1009.64 261.92 1009.32 261.92H1002.24C1000.24 265.36 997.962 268.72 995.402 272C992.842 275.28 989.802 278.56 986.282 281.84C986.042 282.56 985.722 283.6 985.322 284.96C985.002 286.32 984.682 287.72 984.362 289.16C984.122 290.52 983.882 291.68 983.642 292.64C983.482 293.6 983.402 294.08 983.402 294.08C983.162 295.12 983.042 296.08 983.042 296.96C983.042 298.64 983.442 299.88 984.242 300.68C985.042 301.4 985.962 301.76 987.002 301.76C987.642 301.76 988.282 301.68 988.922 301.52C989.562 301.28 990.282 300.88 991.082 300.32C993.882 298.32 996.322 295.6 998.402 292.16C1000.56 288.72 1002.44 285.4 1004.04 282.2C1004.52 281.24 1005 280.76 1005.48 280.76C1005.8 280.76 1005.96 281 1005.96 281.48C1005.96 281.72 1005.84 282.16 1005.6 282.8C1003.84 286.48 1002.36 289.44 1001.16 291.68C999.962 293.92 998.802 295.8 997.682 297.32C996.562 298.76 995.242 300.2 993.722 301.64C992.602 302.76 991.322 303.6 989.882 304.16C988.442 304.72 987.002 305 985.562 305ZM995.042 259.16H1001.16C1002.28 257.08 1003.32 255.04 1004.28 253.04C1005.32 251.04 1006.24 249.04 1007.04 247.04C1007.6 245.76 1008.08 244.32 1008.48 242.72C1008.88 241.12 1009.08 239.88 1009.08 239C1009.08 237.8 1008.8 237.2 1008.24 237.2C1007.84 237.2 1007.24 237.56 1006.44 238.28C1005.72 238.92 1004.8 240.04 1003.68 241.64C1002.24 243.64 1000.8 246.24 999.362 249.44C998.002 252.56 996.562 255.8 995.042 259.16ZM987.242 278C989.562 275.6 991.722 273.04 993.722 270.32C995.802 267.6 997.722 264.8 999.482 261.92H993.842C992.562 264.88 991.362 267.76 990.242 270.56C989.122 273.36 988.122 275.84 987.242 278ZM1038.62 292.16L1037.42 291.92L1037.54 291.2L1068.26 232.76C1068.82 231.64 1069.66 230.96 1070.78 230.72C1071.9 230.48 1073.1 230.36 1074.38 230.36H1078.22L1078.82 230.72L1079.06 231.32C1078.9 231.88 1078.1 233.28 1076.66 235.52C1075.3 237.68 1073.5 240.44 1071.26 243.8C1069.1 247.08 1066.7 250.72 1064.06 254.72C1061.42 258.64 1058.74 262.6 1056.02 266.6C1053.3 270.52 1050.74 274.24 1048.34 277.76C1045.94 281.28 1043.86 284.32 1042.1 286.88C1040.42 289.44 1039.26 291.2 1038.62 292.16ZM1032.5 306.8C1030.98 306.8 1029.86 306.28 1029.14 305.24C1028.5 304.2 1028.26 303 1028.42 301.64C1028.58 300.2 1029.26 299.04 1030.46 298.16C1031.66 297.28 1032.9 296.84 1034.18 296.84C1035.46 296.84 1036.5 297.24 1037.3 298.04C1038.1 298.76 1038.5 299.72 1038.5 300.92C1038.5 302.44 1037.86 303.8 1036.58 305C1035.38 306.2 1034.02 306.8 1032.5 306.8Z" fill="#FFF2E4"/>
</svg>
