<svg width="1066" height="147" viewBox="0 0 1066 147" fill="none" xmlns="http://www.w3.org/2000/svg">
<path d="M-6.52419 101.68C-10.0442 101.68 -12.5242 100.28 -13.9642 97.48C-15.4042 94.76 -16.1242 91.56 -16.1242 87.88C-16.1242 84.6 -15.6842 81.36 -14.8042 78.16C-13.8442 74.96 -12.7242 72.52 -11.4442 70.84C-13.6042 73.4 -16.2842 76.32 -19.4842 79.6C-22.6842 82.88 -26.2042 86.04 -30.0442 89.08C-33.8842 92.12 -37.8442 94.64 -41.9242 96.64C-46.0042 98.64 -50.0442 99.64 -54.0442 99.64C-55.2442 99.64 -56.4442 99.52 -57.6442 99.28C-58.7642 99.12 -59.8842 98.8 -61.0042 98.32C-63.9642 97.12 -66.1642 95 -67.6042 91.96C-69.0442 88.84 -69.7642 85.12 -69.7642 80.8C-69.7642 76.24 -69.0042 71.36 -67.4842 66.16C-65.8842 60.88 -63.5642 55.52 -60.5242 50.08C-59.0842 47.44 -57.4842 44.84 -55.7242 42.28C-53.8842 39.64 -51.9242 37.16 -49.8442 34.84C-52.3242 33.72 -54.6042 32.48 -56.6842 31.12C-58.7642 29.68 -60.5242 28.12 -61.9642 26.44C-62.9242 25.32 -63.6442 24 -64.1242 22.48C-64.6042 20.96 -64.8442 19.48 -64.8442 18.04C-64.8442 15.48 -64.2442 13.8 -63.0442 13C-62.6442 12.36 -62.1642 12.04 -61.6042 12.04C-60.8842 12.04 -60.5242 12.48 -60.5242 13.36C-60.5242 13.92 -60.6842 14.52 -61.0042 15.16C-61.4042 16.2 -61.6042 17.16 -61.6042 18.04C-61.6042 19.32 -61.2842 20.52 -60.6442 21.64C-60.0042 22.68 -59.2442 23.68 -58.3642 24.64C-55.8042 27.68 -52.2842 30.2 -47.8042 32.2C-42.6842 26.6 -37.0842 21.44 -31.0042 16.72C-24.8442 11.92 -18.2442 8.08 -11.2042 5.2C-4.16419 2.32 3.23581 0.879997 10.9958 0.879997C17.4758 0.879997 22.5558 2.32 26.2358 5.2C29.9158 8 31.7558 11.64 31.7558 16.12C31.7558 18.28 31.1158 20.64 29.8358 23.2C28.5558 25.68 26.4758 28.12 23.5958 30.52C20.7158 32.84 16.8758 34.88 12.0758 36.64C7.35581 38.32 1.47581 39.48 -5.56419 40.12C-8.04419 40.36 -10.2842 40.56 -12.2842 40.72C-14.2042 40.8 -16.2842 40.84 -18.5242 40.84C-22.6842 40.84 -26.7242 40.56 -30.6442 40C-34.4842 39.44 -38.3242 38.56 -42.1642 37.36C-43.6042 39.36 -45.4442 42.08 -47.6842 45.52C-49.8442 48.96 -52.0042 52.64 -54.1642 56.56C-56.3242 60.48 -58.1242 64.2 -59.5642 67.72C-60.8442 71.08 -61.8042 74.16 -62.4442 76.96C-63.0842 79.68 -63.4042 82.12 -63.4042 84.28C-63.4042 88.2 -62.4842 91.16 -60.6442 93.16C-58.8042 95.08 -56.3242 96.04 -53.2042 96.04C-50.1642 96.04 -46.7242 95.16 -42.8842 93.4C-38.9642 91.64 -34.8842 89 -30.6442 85.48C-26.4042 81.96 -22.2842 78 -18.2842 73.6C-14.2042 69.2 -10.4842 64.72 -7.12419 60.16C-3.76419 55.6 -1.04419 51.4 1.03581 47.56C2.39581 45 3.71581 43.2 4.99581 42.16C6.27581 41.04 7.35581 40.48 8.23581 40.48C9.11581 40.48 9.79581 40.84 10.2758 41.56C10.7558 42.2 10.9958 43.08 10.9958 44.2C10.9958 46.44 9.99581 48.68 7.99581 50.92C5.75581 53.4 3.55581 56.44 1.39581 60.04C-0.76419 63.64 -2.68419 67.44 -4.36419 71.44C-6.04419 75.44 -7.24419 79.36 -7.96419 83.2C-8.20419 84.48 -8.36419 85.68 -8.44419 86.8C-8.52419 87.92 -8.56419 88.92 -8.56419 89.8C-8.56419 92.76 -8.12419 94.88 -7.24419 96.16C-6.28419 97.44 -5.04419 98.08 -3.52419 98.08C-1.68419 98.08 0.435811 97.24 2.83581 95.56C5.23581 93.88 7.55581 91.64 9.79581 88.84C11.7158 86.28 13.5558 83.56 15.3158 80.68C17.1558 77.8 18.8358 74.8 20.3558 71.68C20.5958 71.12 20.9158 70.72 21.3158 70.48C21.7958 70.16 22.1158 70 22.2758 70C22.6758 70 22.8758 70.24 22.8758 70.72C22.8758 71.04 22.7558 71.52 22.5158 72.16C21.7958 73.76 20.8358 75.68 19.6358 77.92C18.4358 80.16 17.1158 82.48 15.6758 84.88C14.2358 87.2 12.7558 89.36 11.2358 91.36C9.15581 94.08 6.51581 96.48 3.31581 98.56C0.195807 100.64 -3.08419 101.68 -6.52419 101.68ZM-19.6042 37.96C-15.4442 37.96 -10.8042 37.72 -5.68419 37.24C0.955812 36.68 6.71581 35.36 11.5958 33.28C16.4758 31.2 20.2358 28.56 22.8758 25.36C25.5158 22.16 26.8358 18.6 26.8358 14.68C26.8358 11.16 25.3558 8.47999 22.3958 6.63999C19.5158 4.79999 15.8358 3.87999 11.3558 3.87999C3.91581 3.87999 -2.88419 5.35999 -9.04419 8.31999C-15.1242 11.2 -20.7242 15 -25.8442 19.72C-30.8842 24.44 -35.6842 29.52 -40.2442 34.96C-34.1642 36.96 -27.2842 37.96 -19.6042 37.96ZM46.1342 94.12C42.6942 94.12 40.1342 93.24 38.4542 91.48C36.7742 89.72 35.9342 87.52 35.9342 84.88C35.9342 83.6 36.0942 82.36 36.4142 81.16C36.8942 79.32 37.5742 77.28 38.4542 75.04C39.4142 72.72 40.4942 70.36 41.6942 67.96C38.8942 73.4 36.3342 78 34.0142 81.76C31.7742 85.44 30.0542 87.84 28.8542 88.96C28.6142 89.2 28.3742 89.32 28.1342 89.32C27.7342 89.32 27.5342 89.12 27.5342 88.72C27.5342 88.4 27.6542 88.08 27.8942 87.76C29.5742 85.52 31.4942 82.44 33.6542 78.52C35.8942 74.6 38.2542 70.24 40.7342 65.44C43.2142 60.56 45.7342 55.64 48.2942 50.68C50.8542 45.72 53.3342 41.04 55.7342 36.64C58.2142 32.24 60.4542 28.52 62.4542 25.48C63.8942 23.32 65.2542 21.8 66.5342 20.92C67.8142 19.96 69.1342 19.48 70.4942 19.48H71.0942C71.8142 19.48 72.6142 19.6 73.4942 19.84C74.4542 20.08 75.3342 20.12 76.1342 19.96C75.0942 21.08 73.4942 23.08 71.3342 25.96C69.2542 28.76 66.8942 32.08 64.2542 35.92C61.6942 39.68 59.0942 43.68 56.4542 47.92C53.8942 52.08 51.6142 56.16 49.6142 60.16C47.6942 64 45.9742 68.12 44.4542 72.52C43.0142 76.84 42.2942 80.64 42.2942 83.92C42.2942 85.84 42.6142 87.44 43.2542 88.72C43.8942 90 44.9742 90.8 46.4942 91.12C49.0542 91.68 52.4942 89.4 56.8142 84.28C58.4942 82.28 60.1742 79.92 61.8542 77.2C63.5342 74.4 64.8542 71.8 65.8142 69.4C67.1742 66.2 67.8542 63.28 67.8542 60.64C67.8542 58.64 67.3342 57.04 66.2942 55.84C65.3342 54.64 63.6942 54.16 61.3742 54.4H60.8942C59.4542 54.4 58.7342 54 58.7342 53.2C58.7342 52.88 58.9342 52.56 59.3342 52.24C59.8142 51.92 60.4542 51.76 61.2542 51.76C61.4942 51.76 61.7342 51.8 61.9742 51.88C62.2942 51.88 62.6142 51.92 62.9342 52C66.5342 52.56 69.0942 54.04 70.6142 56.44C72.2142 58.76 73.0142 61.44 73.0142 64.48C73.0142 65.12 72.9742 65.84 72.8942 66.64C72.8142 67.36 72.6942 68.16 72.5342 69.04C71.8942 72.32 70.6542 75.68 68.8142 79.12C66.9742 82.48 64.6942 85.44 61.9742 88C59.3342 90.56 56.3742 92.28 53.0942 93.16C51.7342 93.48 50.4542 93.72 49.2542 93.88C48.1342 94.04 47.0942 94.12 46.1342 94.12ZM149.628 94C146.588 94 144.348 93 142.908 91C141.468 88.92 140.748 86.4 140.748 83.44C140.748 79.84 141.588 76.08 143.268 72.16C144.868 68.48 146.908 65.12 149.388 62.08C151.868 59.04 154.548 56.6 157.428 54.76C160.308 52.84 163.108 51.88 165.828 51.88C168.868 51.88 171.108 52.88 172.548 54.88C173.988 56.88 174.708 59.4 174.708 62.44C174.708 66.12 173.868 69.88 172.188 73.72C171.228 75.88 169.868 78.28 168.108 80.92C166.348 83.48 164.348 85.84 162.108 88C162.588 88.88 163.268 89.64 164.148 90.28C165.028 90.84 166.228 91.12 167.748 91.12C169.668 91.12 171.468 90.32 173.148 88.72C174.908 87.12 176.508 85.2 177.948 82.96C179.388 80.64 180.668 78.32 181.788 76C182.908 73.68 183.828 71.8 184.548 70.36C184.788 69.88 185.188 69.64 185.748 69.64C186.068 69.64 186.308 69.8 186.468 70.12C186.628 70.36 186.588 70.76 186.348 71.32C185.868 72.52 185.068 74.32 183.948 76.72C182.828 79.04 181.468 81.48 179.868 84.04C178.268 86.52 176.428 88.64 174.348 90.4C172.268 92.16 169.948 93.04 167.388 93.04C165.628 93.04 164.108 92.76 162.828 92.2C161.548 91.56 160.508 90.8 159.708 89.92C158.028 91.2 156.348 92.2 154.668 92.92C152.988 93.64 151.308 94 149.628 94ZM151.428 91.36C153.588 91.36 155.908 90.32 158.388 88.24C157.748 87.28 157.268 86.28 156.948 85.24C156.628 84.2 156.468 83.24 156.468 82.36C156.468 80.92 156.788 79.68 157.428 78.64C158.148 77.6 159.228 77.08 160.668 77.08C161.708 77.08 162.548 77.48 163.188 78.28C163.908 79 164.268 79.84 164.268 80.8C164.268 81.04 164.228 81.28 164.148 81.52C164.148 81.68 164.108 81.88 164.028 82.12C165.388 80.28 166.668 78.12 167.868 75.64C170.508 69.96 171.828 65.28 171.828 61.6C171.828 59.76 171.468 58.32 170.748 57.28C170.028 56.24 168.948 55.72 167.508 55.72C165.828 55.72 163.988 56.44 161.988 57.88C160.068 59.32 158.188 61.24 156.348 63.64C154.588 66.04 153.028 68.72 151.668 71.68C150.388 74.4 149.348 77.04 148.548 79.6C147.828 82.08 147.468 84.24 147.468 86.08C147.468 87.68 147.788 88.96 148.428 89.92C149.068 90.88 150.068 91.36 151.428 91.36ZM205.183 94.84C202.703 94.84 200.983 94.2 200.023 92.92C199.063 91.64 198.583 90 198.583 88C198.583 85.92 198.943 83.56 199.663 80.92C200.463 78.28 201.303 75.68 202.183 73.12C201.623 73.92 201.063 74.32 200.503 74.32C200.183 74.32 199.943 74.16 199.783 73.84C199.623 73.52 199.663 73.16 199.903 72.76C200.303 72.04 200.703 71.36 201.103 70.72C201.503 70 201.863 69.28 202.183 68.56C202.823 67.2 203.343 65.6 203.743 63.76C204.223 61.84 204.463 60.08 204.463 58.48C204.463 57.2 204.303 56.12 203.983 55.24C203.663 54.36 203.183 53.84 202.543 53.68C202.543 53.68 202.943 53.6 203.743 53.44C204.623 53.28 205.543 53.12 206.503 52.96C207.463 52.8 208.103 52.72 208.423 52.72C208.903 52.64 209.343 52.6 209.743 52.6C210.143 52.52 210.503 52.48 210.823 52.48C211.623 52.48 212.143 52.8 212.383 53.44C212.703 54.08 212.823 55.48 212.743 57.64C212.663 59.64 212.263 62.08 211.543 64.96C210.823 67.76 210.063 70.2 209.263 72.28C208.223 75 207.263 77.76 206.383 80.56C205.503 83.36 205.063 85.68 205.063 87.52C205.063 89.12 205.503 90.16 206.383 90.64C207.023 90.88 207.583 91 208.063 91C209.903 91 211.703 90.08 213.463 88.24C215.303 86.4 217.063 83.96 218.743 80.92C220.423 77.8 221.983 74.48 223.423 70.96C222.863 69.84 222.463 68.6 222.223 67.24C221.983 65.88 221.863 64.56 221.863 63.28C221.863 61.76 222.063 60.32 222.463 58.96C223.423 55.76 224.743 53.48 226.423 52.12C228.183 50.68 229.663 49.96 230.863 49.96C232.383 49.96 233.143 50.64 233.143 52C233.143 52.32 233.023 52.8 232.783 53.44C232.623 53.6 232.543 53.84 232.543 54.16C231.983 55.84 231.143 58.28 230.023 61.48C228.983 64.68 227.663 68.2 226.063 72.04C224.543 75.8 222.703 79.44 220.543 82.96C218.463 86.4 216.143 89.24 213.583 91.48C211.023 93.72 208.223 94.84 205.183 94.84ZM255.064 94C252.024 94 249.784 93 248.344 91C246.904 88.92 246.184 86.4 246.184 83.44C246.184 79.84 247.024 76.08 248.704 72.16C250.304 68.48 252.344 65.12 254.824 62.08C257.304 59.04 259.984 56.6 262.864 54.76C265.744 52.84 268.544 51.88 271.264 51.88C274.304 51.88 276.544 52.88 277.984 54.88C279.424 56.88 280.144 59.4 280.144 62.44C280.144 66.12 279.304 69.88 277.624 73.72C276.664 75.88 275.304 78.28 273.544 80.92C271.784 83.48 269.784 85.84 267.544 88C268.024 88.88 268.704 89.64 269.584 90.28C270.464 90.84 271.664 91.12 273.184 91.12C275.104 91.12 276.904 90.32 278.584 88.72C280.344 87.12 281.944 85.2 283.384 82.96C284.824 80.64 286.104 78.32 287.224 76C288.344 73.68 289.264 71.8 289.984 70.36C290.224 69.88 290.624 69.64 291.184 69.64C291.504 69.64 291.744 69.8 291.904 70.12C292.064 70.36 292.024 70.76 291.784 71.32C291.304 72.52 290.504 74.32 289.384 76.72C288.264 79.04 286.904 81.48 285.304 84.04C283.704 86.52 281.864 88.64 279.784 90.4C277.704 92.16 275.384 93.04 272.824 93.04C271.064 93.04 269.544 92.76 268.264 92.2C266.984 91.56 265.944 90.8 265.144 89.92C263.464 91.2 261.784 92.2 260.104 92.92C258.424 93.64 256.744 94 255.064 94ZM256.864 91.36C259.024 91.36 261.344 90.32 263.824 88.24C263.184 87.28 262.704 86.28 262.384 85.24C262.064 84.2 261.904 83.24 261.904 82.36C261.904 80.92 262.224 79.68 262.864 78.64C263.584 77.6 264.664 77.08 266.104 77.08C267.144 77.08 267.984 77.48 268.624 78.28C269.344 79 269.704 79.84 269.704 80.8C269.704 81.04 269.664 81.28 269.584 81.52C269.584 81.68 269.544 81.88 269.464 82.12C270.824 80.28 272.104 78.12 273.304 75.64C275.944 69.96 277.264 65.28 277.264 61.6C277.264 59.76 276.904 58.32 276.184 57.28C275.464 56.24 274.384 55.72 272.944 55.72C271.264 55.72 269.424 56.44 267.424 57.88C265.504 59.32 263.624 61.24 261.784 63.64C260.024 66.04 258.464 68.72 257.104 71.68C255.824 74.4 254.784 77.04 253.984 79.6C253.264 82.08 252.904 84.24 252.904 86.08C252.904 87.68 253.224 88.96 253.864 89.92C254.504 90.88 255.504 91.36 256.864 91.36ZM358.111 94C357.231 94 356.151 93.8 354.871 93.4C353.671 93 352.591 92.28 351.631 91.24C350.751 90.12 350.311 88.48 350.311 86.32C350.311 84.24 350.791 82.24 351.751 80.32C352.791 78.32 353.751 76.4 354.631 74.56C354.391 74.56 354.111 74.48 353.791 74.32C353.551 74.16 353.431 73.92 353.431 73.6C353.431 73.28 353.511 72.96 353.671 72.64C353.991 72 354.351 71.32 354.751 70.6C355.151 69.88 355.511 69.12 355.831 68.32C357.031 65.84 358.231 63.48 359.431 61.24C360.631 58.92 361.671 56.88 362.551 55.12C363.431 53.36 364.951 52.48 367.111 52.48H374.551C373.191 53.52 371.951 54.68 370.831 55.96C369.791 57.16 368.471 59.4 366.871 62.68C366.871 62.68 366.591 63.24 366.031 64.36C365.471 65.48 364.751 66.92 363.871 68.68C363.071 70.36 362.231 72.08 361.351 73.84C360.551 75.6 359.871 77.08 359.311 78.28C358.271 80.52 357.591 82.32 357.271 83.68C356.951 84.96 356.791 86.16 356.791 87.28C356.791 89.92 357.671 91.24 359.431 91.24C361.351 91.24 363.671 89.68 366.391 86.56C368.631 83.92 370.831 80.76 372.991 77.08C375.151 73.4 377.191 69.6 379.111 65.68C381.111 61.76 382.871 58.24 384.391 55.12C385.271 53.36 386.831 52.48 389.071 52.48H395.671C394.471 53.44 393.471 54.36 392.671 55.24C391.871 56.04 391.071 57.16 390.271 58.6C389.551 59.96 388.551 61.92 387.271 64.48C386.231 66.64 385.111 68.96 383.911 71.44C382.791 73.84 381.791 76.12 380.911 78.28C380.031 80.44 379.471 82.2 379.231 83.56C379.151 84.36 379.071 84.96 378.991 85.36C378.911 85.76 378.871 86.2 378.871 86.68C378.871 88.2 379.111 89.28 379.591 89.92C380.151 90.56 380.791 90.88 381.511 90.88C383.431 90.88 385.351 89.8 387.271 87.64C389.271 85.48 391.151 82.84 392.911 79.72C394.751 76.6 396.311 73.64 397.591 70.84C398.071 69.96 398.511 69.52 398.911 69.52C399.391 69.52 399.631 69.8 399.631 70.36C399.631 70.76 399.471 71.24 399.151 71.8C398.271 73.72 397.191 75.92 395.911 78.4C394.631 80.88 393.191 83.32 391.591 85.72C389.991 88.12 388.231 90.12 386.311 91.72C384.391 93.24 382.311 94 380.071 94C378.071 94 376.431 93.28 375.151 91.84C373.871 90.32 373.231 88.2 373.231 85.48C373.231 83.32 373.631 81 374.431 78.52C373.071 80.92 371.511 83.32 369.751 85.72C367.991 88.12 366.111 90.12 364.111 91.72C362.111 93.24 360.111 94 358.111 94ZM416.839 94.48C412.919 94.48 410.119 93.48 408.439 91.48C406.839 89.4 406.039 87.24 406.039 85C406.039 83.16 406.479 81.48 407.359 79.96C408.319 78.44 409.439 77.64 410.719 77.56C412.319 74.44 414.039 71.04 415.879 67.36C417.799 63.68 419.559 60.12 421.159 56.68C422.279 54.36 423.679 52.12 425.359 49.96C427.119 47.8 429.039 46.56 431.119 46.24H432.319C432.959 46.24 433.519 46.28 433.999 46.36C434.559 46.44 435.119 46.6 435.679 46.84C436.559 47.24 436.999 47.84 436.999 48.64C436.999 49.12 436.719 49.36 436.159 49.36C435.919 49.36 435.599 49.24 435.199 49C434.239 48.6 433.399 48.4 432.679 48.4C432.199 48.4 431.759 48.52 431.359 48.76C429.839 49.56 428.759 50.68 428.119 52.12C427.559 53.56 427.279 55.08 427.279 56.68C427.279 57.96 427.399 59.28 427.639 60.64C427.959 61.92 428.319 63.08 428.719 64.12C429.599 66.36 430.519 68.56 431.479 70.72C432.519 72.88 433.039 75.2 433.039 77.68C433.039 80.08 432.239 82.64 430.639 85.36C429.039 88 426.999 90.12 424.519 91.72L425.359 91.84C425.759 91.92 426.039 91.96 426.199 91.96C426.359 91.96 426.479 91.96 426.559 91.96C428.399 91.96 430.119 91.44 431.719 90.4C433.399 89.28 434.879 87.92 436.159 86.32C437.439 84.72 438.879 82.48 440.479 79.6C442.159 76.72 443.759 73.68 445.279 70.48C445.519 70.08 445.799 69.88 446.119 69.88C446.519 69.88 446.799 70.04 446.959 70.36C447.199 70.6 447.239 70.92 447.079 71.32C446.039 73.56 444.839 76 443.479 78.64C442.199 81.2 440.719 83.68 439.039 86.08C437.359 88.4 435.399 90.32 433.159 91.84C430.999 93.28 428.559 94 425.839 94C425.199 94 424.519 93.96 423.799 93.88C423.079 93.8 422.359 93.64 421.639 93.4C420.839 93.72 419.999 93.96 419.119 94.12C418.319 94.36 417.559 94.48 416.839 94.48ZM420.439 90.88C421.799 89.76 422.999 88.12 424.039 85.96C425.159 83.8 425.719 80.96 425.719 77.44C425.719 74.32 425.399 71 424.759 67.48C424.119 63.96 423.799 60.84 423.799 58.12C423.799 57.56 423.799 57.08 423.799 56.68C423.879 56.2 423.959 55.76 424.039 55.36C422.999 57.52 421.799 60.04 420.439 62.92C419.079 65.72 417.719 68.44 416.359 71.08C414.999 73.72 413.839 75.96 412.879 77.8C412.879 77.8 413.079 77.84 413.479 77.92C413.959 77.92 414.399 78.2 414.799 78.76C415.199 79.24 415.359 80.24 415.279 81.76C415.199 83.76 415.639 85.64 416.599 87.4C417.639 89.08 418.919 90.24 420.439 90.88ZM415.879 92.56C416.359 92.56 416.799 92.52 417.199 92.44C417.599 92.28 417.959 92.16 418.279 92.08C417.079 91.2 415.999 90.04 415.039 88.6C414.159 87.08 413.639 85.16 413.479 82.84C412.039 84.36 411.319 86 411.319 87.76C411.319 89.04 411.719 90.16 412.519 91.12C413.319 92.08 414.439 92.56 415.879 92.56ZM470.699 128.68C470.379 127.96 469.859 127.32 469.139 126.76C468.419 126.2 467.819 125.64 467.339 125.08C466.219 123.88 465.659 122.52 465.659 121C465.659 120.04 465.859 118.92 466.259 117.64C466.739 116.44 467.339 115.08 468.059 113.56C470.619 107.8 472.739 103.04 474.419 99.28C476.179 95.6 477.699 92.48 478.979 89.92C480.259 87.28 481.459 84.84 482.579 82.6C483.699 80.36 484.899 77.84 486.179 75.04C486.019 75.36 485.539 76.12 484.739 77.32C484.019 78.44 483.139 79.72 482.099 81.16C481.139 82.6 480.219 83.92 479.339 85.12C478.539 86.24 478.019 86.96 477.779 87.28C476.339 88.96 474.659 90.48 472.739 91.84C470.899 93.2 468.939 93.88 466.859 93.88C466.139 93.88 465.339 93.76 464.459 93.52C462.219 92.56 460.579 91.2 459.539 89.44C458.579 87.68 458.099 85.68 458.099 83.44C458.099 79.84 459.139 75.96 461.219 71.8C463.299 67.64 465.779 63.84 468.659 60.4C470.979 57.6 473.699 55.36 476.819 53.68C479.939 52 483.099 51.16 486.299 51.16C488.059 51.16 489.819 51.48 491.579 52.12C493.339 52.68 494.979 53.6 496.499 54.88C497.219 55.44 497.699 56 497.939 56.56C498.259 57.04 498.419 57.52 498.419 58C498.419 59.2 497.939 59.8 496.979 59.8C496.179 59.8 495.619 59.28 495.299 58.24C494.179 55.28 492.379 53.8 489.899 53.8C487.979 53.8 485.859 54.6 483.539 56.2C481.299 57.72 479.019 59.72 476.699 62.2C474.459 64.68 472.379 67.36 470.459 70.24C468.539 73.12 466.979 75.92 465.779 78.64C464.659 81.36 464.099 83.72 464.099 85.72C464.099 87.96 464.899 89.44 466.499 90.16C466.739 90.24 466.979 90.32 467.219 90.4C467.459 90.4 467.659 90.4 467.819 90.4C469.499 90.4 471.299 89.52 473.219 87.76C475.219 85.92 477.099 83.76 478.859 81.28C480.699 78.72 482.299 76.32 483.659 74.08C485.099 71.76 486.099 70.08 486.659 69.04C488.259 66.4 489.499 64.72 490.379 64C491.339 63.28 492.579 63 494.099 63.16C494.499 63.24 495.219 63.36 496.259 63.52C497.379 63.68 498.379 63.72 499.259 63.64C497.739 65.96 495.979 69 493.979 72.76C492.059 76.52 490.059 80.64 487.979 85.12C485.899 89.52 483.859 94 481.859 98.56C479.939 103.2 478.139 107.56 476.459 111.64C474.859 115.72 473.539 119.24 472.499 122.2C471.539 125.24 470.939 127.4 470.699 128.68ZM523.589 94C522.709 94 521.629 93.8 520.349 93.4C519.149 93 518.069 92.28 517.109 91.24C516.229 90.12 515.789 88.48 515.789 86.32C515.789 84.24 516.269 82.24 517.229 80.32C518.269 78.32 519.229 76.4 520.109 74.56C519.869 74.56 519.589 74.48 519.269 74.32C519.029 74.16 518.909 73.92 518.909 73.6C518.909 73.28 518.989 72.96 519.149 72.64C519.469 72 519.829 71.32 520.229 70.6C520.629 69.88 520.989 69.12 521.309 68.32C522.509 65.84 523.709 63.48 524.909 61.24C526.109 58.92 527.149 56.88 528.029 55.12C528.909 53.36 530.429 52.48 532.589 52.48H540.029C538.669 53.52 537.429 54.68 536.309 55.96C535.269 57.16 533.949 59.4 532.349 62.68C532.349 62.68 532.069 63.24 531.509 64.36C530.949 65.48 530.229 66.92 529.349 68.68C528.549 70.36 527.709 72.08 526.829 73.84C526.029 75.6 525.349 77.08 524.789 78.28C523.749 80.52 523.069 82.32 522.749 83.68C522.429 84.96 522.269 86.16 522.269 87.28C522.269 89.92 523.149 91.24 524.909 91.24C526.829 91.24 529.149 89.68 531.869 86.56C534.109 83.92 536.309 80.76 538.469 77.08C540.629 73.4 542.669 69.6 544.589 65.68C546.589 61.76 548.349 58.24 549.869 55.12C550.749 53.36 552.309 52.48 554.549 52.48H561.149C559.949 53.44 558.949 54.36 558.149 55.24C557.349 56.04 556.549 57.16 555.749 58.6C555.029 59.96 554.029 61.92 552.749 64.48C551.709 66.64 550.589 68.96 549.389 71.44C548.269 73.84 547.269 76.12 546.389 78.28C545.509 80.44 544.949 82.2 544.709 83.56C544.629 84.36 544.549 84.96 544.469 85.36C544.389 85.76 544.349 86.2 544.349 86.68C544.349 88.2 544.589 89.28 545.069 89.92C545.629 90.56 546.269 90.88 546.989 90.88C548.909 90.88 550.829 89.8 552.749 87.64C554.749 85.48 556.629 82.84 558.389 79.72C560.229 76.6 561.789 73.64 563.069 70.84C563.549 69.96 563.989 69.52 564.389 69.52C564.869 69.52 565.109 69.8 565.109 70.36C565.109 70.76 564.949 71.24 564.629 71.8C563.749 73.72 562.669 75.92 561.389 78.4C560.109 80.88 558.669 83.32 557.069 85.72C555.469 88.12 553.709 90.12 551.789 91.72C549.869 93.24 547.789 94 545.549 94C543.549 94 541.909 93.28 540.629 91.84C539.349 90.32 538.709 88.2 538.709 85.48C538.709 83.32 539.109 81 539.909 78.52C538.549 80.92 536.989 83.32 535.229 85.72C533.469 88.12 531.589 90.12 529.589 91.72C527.589 93.24 525.589 94 523.589 94ZM588.194 94.48C585.234 94.48 582.554 93.52 580.154 91.6C577.834 89.68 576.674 86.76 576.674 82.84C576.674 79.24 577.554 75.4 579.314 71.32C581.074 67.16 583.314 63.52 586.034 60.4C588.354 57.68 590.954 55.44 593.834 53.68C596.714 51.92 599.434 51.04 601.994 51.04C603.754 51.04 605.274 51.52 606.554 52.48C607.914 53.52 608.594 55 608.594 56.92C608.594 58.92 607.834 61.12 606.314 63.52C604.794 65.92 602.634 68.16 599.834 70.24C598.634 71.12 597.114 71.96 595.274 72.76C593.434 73.56 591.594 74.24 589.754 74.8C587.914 75.28 586.394 75.52 585.194 75.52C584.794 76.48 584.394 77.76 583.994 79.36C583.674 80.96 583.514 82.6 583.514 84.28C583.514 86.28 583.914 88.08 584.714 89.68C585.514 91.28 586.994 92.08 589.154 92.08C591.794 92.08 594.194 91.32 596.354 89.8C598.514 88.28 600.434 86.4 602.114 84.16C603.794 81.84 605.194 79.52 606.314 77.2C607.514 74.88 608.474 72.92 609.194 71.32C609.674 70.2 610.314 69.64 611.114 69.64C611.514 69.64 611.714 69.84 611.714 70.24C611.714 70.56 611.594 70.96 611.354 71.44C610.234 73.84 609.034 76.4 607.754 79.12C606.474 81.76 604.954 84.28 603.194 86.68C601.434 89 599.314 90.88 596.834 92.32C594.434 93.76 591.554 94.48 588.194 94.48ZM586.034 73.36C587.154 73.36 589.034 72.96 591.674 72.16C594.314 71.28 596.714 69.92 598.874 68.08C600.954 66.24 602.554 64.24 603.674 62.08C604.794 59.84 605.354 57.96 605.354 56.44C605.354 54.68 604.714 53.8 603.434 53.8C602.474 53.8 601.154 54.44 599.474 55.72C597.794 57 595.714 59.16 593.234 62.2C591.714 64.12 590.274 66.2 588.914 68.44C587.554 70.68 586.594 72.32 586.034 73.36ZM700.131 94.36C699.251 94.44 698.251 94.24 697.131 93.76C696.011 93.28 695.011 92.4 694.131 91.12C693.331 89.84 692.931 88.04 692.931 85.72C692.931 83.8 693.291 81.48 694.011 78.76C693.051 80.28 691.811 82.16 690.291 84.4C688.771 86.56 687.131 88.48 685.371 90.16C683.851 91.6 682.411 92.64 681.051 93.28C679.691 93.92 678.451 94.24 677.331 94.24C675.251 94.24 673.571 93.32 672.291 91.48C671.011 89.56 670.371 87.08 670.371 84.04C670.371 80.84 671.171 77.2 672.771 73.12C674.371 69.04 676.971 64.8 680.571 60.4C682.891 57.6 685.691 55.36 688.971 53.68C692.331 51.92 695.611 51.04 698.811 51.04C700.651 51.04 702.411 51.36 704.091 52C705.771 52.56 707.251 53.52 708.531 54.88C709.091 55.44 709.371 56.08 709.371 56.8C709.371 57.28 709.171 57.68 708.771 58C708.371 58.32 707.851 58.4 707.211 58.24C706.331 55.44 704.451 54.04 701.571 54.04C700.211 54.04 698.651 54.48 696.891 55.36C694.171 56.8 691.331 59.16 688.371 62.44C685.491 65.72 682.971 69.12 680.811 72.64C680.491 73.12 679.971 74.04 679.251 75.4C678.611 76.76 677.971 78.28 677.331 79.96C676.691 81.64 676.251 83.28 676.011 84.88C675.931 85.36 675.891 85.72 675.891 85.96C675.891 86.12 675.891 86.4 675.891 86.8C675.891 89.44 676.891 90.76 678.891 90.76C681.291 90.76 684.011 89 687.051 85.48C689.131 82.92 691.011 80.24 692.691 77.44C694.371 74.64 696.091 71.64 697.851 68.44C699.051 66.28 700.171 64.48 701.211 63.04C702.251 61.6 703.731 60.88 705.651 60.88C706.531 60.88 707.411 61 708.291 61.24C709.171 61.48 710.091 61.52 711.051 61.36C710.411 62 709.531 63.2 708.411 64.96C707.371 66.72 706.251 68.72 705.051 70.96C703.851 73.2 702.771 75.48 701.811 77.8C700.851 80.12 700.171 82.12 699.771 83.8C699.691 84.28 699.571 84.96 699.411 85.84C699.331 86.72 699.291 87.36 699.291 87.76C699.291 90 699.931 91.12 701.211 91.12C702.491 91.12 703.851 90.36 705.291 88.84C706.811 87.32 708.291 85.44 709.731 83.2C711.171 80.96 712.491 78.72 713.691 76.48C714.891 74.16 715.851 72.28 716.571 70.84C716.891 70.04 717.371 69.64 718.011 69.64C718.411 69.64 718.611 69.92 718.611 70.48C718.611 70.72 718.491 71.16 718.251 71.8C717.291 73.8 716.131 76.08 714.771 78.64C713.411 81.12 711.931 83.56 710.331 85.96C708.731 88.28 707.051 90.24 705.291 91.84C703.611 93.36 701.891 94.2 700.131 94.36ZM759.719 94C757.559 94 755.759 92.92 754.319 90.76C753.919 90.12 753.559 89.28 753.239 88.24C752.919 87.2 752.759 86.04 752.759 84.76C752.759 84.04 752.799 83.32 752.879 82.6C752.959 81.8 753.119 81 753.359 80.2C752.239 81.96 750.919 83.92 749.399 86.08C747.959 88.16 746.279 90 744.359 91.6C742.519 93.12 740.439 93.88 738.119 93.88C737.319 93.88 736.479 93.76 735.599 93.52C733.439 92.88 731.879 91.76 730.919 90.16C730.039 88.56 729.599 86.64 729.599 84.4C729.599 81.92 730.079 79.2 731.039 76.24C732.079 73.28 733.359 70.4 734.879 67.6C736.479 64.8 738.119 62.4 739.799 60.4C742.199 57.6 744.959 55.36 748.079 53.68C751.199 52 754.359 51.16 757.559 51.16C760.439 51.16 763.159 51.92 765.719 53.44C766.919 51.2 768.199 48.72 769.559 46C770.919 43.2 772.279 40.44 773.639 37.72C774.999 35 776.199 32.52 777.239 30.28C778.279 27.96 779.079 26.2 779.639 25C780.839 22.2 781.959 20.44 782.999 19.72C784.119 18.92 785.439 18.52 786.959 18.52C787.839 18.52 788.799 18.64 789.839 18.88C790.959 19.04 792.039 19.08 793.079 19C792.599 19.48 791.599 20.88 790.079 23.2C788.639 25.44 786.919 28.32 784.919 31.84C782.919 35.36 780.759 39.24 778.439 43.48C776.199 47.64 773.959 51.88 771.719 56.2C769.559 60.44 767.519 64.48 765.599 68.32C763.759 72.08 762.279 75.32 761.159 78.04C760.839 78.68 760.359 80 759.719 82C759.159 83.92 758.879 85.6 758.879 87.04C758.879 88.08 759.119 89 759.599 89.8C760.079 90.52 760.879 90.88 761.999 90.88C763.519 90.88 765.039 90.12 766.559 88.6C768.159 87 769.679 85.08 771.119 82.84C772.559 80.52 773.839 78.28 774.959 76.12C776.079 73.88 776.919 72.12 777.479 70.84C777.879 69.96 778.359 69.52 778.919 69.52C779.399 69.52 779.639 69.88 779.639 70.6C779.639 70.68 779.639 70.84 779.639 71.08C779.639 71.24 779.559 71.44 779.399 71.68C778.679 73.36 777.679 75.44 776.399 77.92C775.199 80.4 773.759 82.88 772.079 85.36C770.399 87.84 768.519 89.92 766.439 91.6C764.359 93.2 762.119 94 759.719 94ZM738.959 90.4C740.079 90.4 741.479 89.8 743.159 88.6C744.839 87.32 746.639 85.32 748.559 82.6C750.799 79.4 753.359 75.4 756.239 70.6C759.119 65.8 761.959 60.72 764.759 55.36C763.719 54.4 762.519 53.92 761.159 53.92C758.919 53.92 756.399 54.96 753.599 57.04C750.879 59.12 748.199 61.76 745.559 64.96C742.999 68.16 740.839 71.4 739.079 74.68C737.879 76.92 736.999 78.96 736.439 80.8C735.959 82.64 735.719 84.24 735.719 85.6C735.719 88.8 736.799 90.4 738.959 90.4ZM830.988 94.6C833.948 88.92 836.748 83.24 839.388 77.56C842.028 71.8 844.708 66.36 847.428 61.24C849.028 58.36 850.348 56.36 851.388 55.24C852.508 54.04 853.988 53.44 855.828 53.44C856.468 53.44 857.148 53.56 857.868 53.8C858.588 53.96 859.308 54.04 860.028 54.04C860.508 54.04 860.868 54 861.108 53.92C859.988 54.56 858.548 56.16 856.788 58.72C855.028 61.2 853.228 64.08 851.388 67.36C849.548 70.64 847.908 73.72 846.468 76.6C847.988 74.76 849.548 72.92 851.148 71.08C852.828 69.24 854.668 67.48 856.668 65.8C858.428 64.28 860.268 62.64 862.188 60.88C864.188 59.04 866.148 57.48 868.068 56.2C869.988 54.92 871.668 54.28 873.108 54.28C873.668 54.28 874.028 54.32 874.188 54.4C875.708 55.04 876.468 56.08 876.468 57.52C876.468 58 876.268 58.72 875.868 59.68C874.828 62.4 873.468 65.2 871.788 68.08C870.188 70.88 868.668 73.72 867.228 76.6C868.428 75.16 869.908 73.4 871.668 71.32C873.508 69.24 875.348 67.4 877.188 65.8C878.948 64.2 881.188 62.52 883.908 60.76C886.628 59 889.308 57.48 891.948 56.2C894.588 54.92 896.708 54.28 898.308 54.28C898.868 54.28 899.268 54.32 899.508 54.4C899.508 54.4 899.068 55.2 898.188 56.8C897.308 58.32 896.188 60.36 894.828 62.92C893.548 65.4 892.228 68.08 890.868 70.96C889.508 73.76 888.268 76.48 887.148 79.12C886.108 81.68 885.428 83.84 885.108 85.6C884.868 86.64 884.748 87.6 884.748 88.48C884.748 89.76 884.988 90.6 885.468 91C885.948 91.4 886.468 91.6 887.028 91.6C888.628 91.6 890.268 90.76 891.948 89.08C893.628 87.4 895.228 85.4 896.748 83.08C898.348 80.68 899.748 78.36 900.948 76.12C902.148 73.8 903.028 72.04 903.588 70.84C904.068 69.96 904.548 69.52 905.028 69.52C905.508 69.52 905.748 69.84 905.748 70.48C905.748 70.88 905.628 71.32 905.388 71.8C904.428 73.64 903.268 75.84 901.908 78.4C900.628 80.96 899.148 83.48 897.468 85.96C895.788 88.36 893.908 90.4 891.828 92.08C889.828 93.68 887.668 94.48 885.348 94.48C883.668 94.48 881.948 93.92 880.188 92.8C878.508 91.68 877.668 89.6 877.668 86.56C877.668 84.88 878.028 82.84 878.748 80.44C879.308 78.84 880.148 77 881.268 74.92C882.468 72.84 883.908 70.44 885.588 67.72C886.388 66.36 886.788 65.28 886.788 64.48C886.788 63.52 886.308 63.04 885.348 63.04C884.548 63.04 883.428 63.44 881.988 64.24C880.628 65.04 878.908 66.44 876.828 68.44C875.548 69.64 874.028 71.32 872.268 73.48C870.588 75.56 868.868 77.84 867.108 80.32C865.348 82.8 863.828 85.24 862.548 87.64C861.268 90.04 860.428 92.16 860.028 94C858.828 94 857.868 93.52 857.148 92.56C856.428 91.52 856.068 90.32 856.068 88.96C856.068 88.72 856.068 88.48 856.068 88.24C856.068 88 856.108 87.72 856.188 87.4C856.588 84.92 857.228 82.6 858.108 80.44C858.988 78.28 859.988 76.04 861.108 73.72C861.988 72.04 862.868 70.24 863.748 68.32C864.628 66.32 865.068 64.8 865.068 63.76C865.068 63.12 864.828 62.8 864.348 62.8C863.788 62.8 862.868 63.24 861.588 64.12C860.308 64.92 858.548 66.36 856.308 68.44C854.308 70.36 851.868 73.12 848.988 76.72C846.188 80.32 843.108 85.44 839.748 92.08C839.268 92.96 838.708 93.52 838.068 93.76C837.428 93.92 836.428 94 835.068 94C834.188 94 833.468 94 832.908 94C832.268 94.08 831.628 94.28 830.988 94.6ZM946.042 94.36C945.162 94.44 944.162 94.24 943.042 93.76C941.922 93.28 940.922 92.4 940.042 91.12C939.242 89.84 938.842 88.04 938.842 85.72C938.842 83.8 939.202 81.48 939.922 78.76C938.962 80.28 937.722 82.16 936.202 84.4C934.682 86.56 933.042 88.48 931.282 90.16C929.762 91.6 928.322 92.64 926.962 93.28C925.602 93.92 924.362 94.24 923.242 94.24C921.162 94.24 919.482 93.32 918.202 91.48C916.922 89.56 916.282 87.08 916.282 84.04C916.282 80.84 917.082 77.2 918.682 73.12C920.282 69.04 922.882 64.8 926.482 60.4C928.802 57.6 931.602 55.36 934.882 53.68C938.242 51.92 941.522 51.04 944.722 51.04C946.562 51.04 948.322 51.36 950.002 52C951.682 52.56 953.162 53.52 954.442 54.88C955.002 55.44 955.282 56.08 955.282 56.8C955.282 57.28 955.082 57.68 954.682 58C954.282 58.32 953.762 58.4 953.122 58.24C952.242 55.44 950.362 54.04 947.482 54.04C946.122 54.04 944.562 54.48 942.802 55.36C940.082 56.8 937.242 59.16 934.282 62.44C931.402 65.72 928.882 69.12 926.722 72.64C926.402 73.12 925.882 74.04 925.162 75.4C924.522 76.76 923.882 78.28 923.242 79.96C922.602 81.64 922.162 83.28 921.922 84.88C921.842 85.36 921.802 85.72 921.802 85.96C921.802 86.12 921.802 86.4 921.802 86.8C921.802 89.44 922.802 90.76 924.802 90.76C927.202 90.76 929.922 89 932.962 85.48C935.042 82.92 936.922 80.24 938.602 77.44C940.282 74.64 942.002 71.64 943.762 68.44C944.962 66.28 946.082 64.48 947.122 63.04C948.162 61.6 949.642 60.88 951.562 60.88C952.442 60.88 953.322 61 954.202 61.24C955.082 61.48 956.002 61.52 956.962 61.36C956.322 62 955.442 63.2 954.322 64.96C953.282 66.72 952.162 68.72 950.962 70.96C949.762 73.2 948.682 75.48 947.722 77.8C946.762 80.12 946.082 82.12 945.682 83.8C945.602 84.28 945.482 84.96 945.322 85.84C945.242 86.72 945.202 87.36 945.202 87.76C945.202 90 945.842 91.12 947.122 91.12C948.402 91.12 949.762 90.36 951.202 88.84C952.722 87.32 954.202 85.44 955.642 83.2C957.082 80.96 958.402 78.72 959.602 76.48C960.802 74.16 961.762 72.28 962.482 70.84C962.802 70.04 963.282 69.64 963.922 69.64C964.322 69.64 964.522 69.92 964.522 70.48C964.522 70.72 964.402 71.16 964.162 71.8C963.202 73.8 962.042 76.08 960.682 78.64C959.322 81.12 957.842 83.56 956.242 85.96C954.642 88.28 952.962 90.24 951.202 91.84C949.522 93.36 947.802 94.2 946.042 94.36ZM985.11 94.36C981.75 94.36 979.47 93.48 978.27 91.72C977.07 89.88 976.47 87.72 976.47 85.24C976.47 82.68 976.83 80.04 977.55 77.32C978.27 74.6 978.91 72.32 979.47 70.48C980.75 66 982.35 61.24 984.27 56.2C986.27 51.08 988.43 46.08 990.75 41.2C993.15 36.24 995.51 31.8 997.83 27.88C999.67 24.76 1001.63 22.44 1003.71 20.92C1005.87 19.32 1007.75 18.52 1009.35 18.52C1010.63 18.52 1011.63 19 1012.35 19.96C1013.15 20.84 1013.55 22.2 1013.55 24.04C1013.55 25.32 1013.31 26.84 1012.83 28.6C1012.43 30.36 1011.71 32.36 1010.67 34.6C1007.87 40.84 1004.51 47.08 1000.59 53.32C996.75 59.56 991.87 65.4 985.95 70.84C985.63 71.88 985.19 73.12 984.63 74.56C984.15 75.92 983.71 77.32 983.31 78.76C982.83 80.92 982.59 82.76 982.59 84.28C982.59 86.76 983.07 88.64 984.03 89.92C985.07 91.12 986.31 91.72 987.75 91.72C989.03 91.72 990.39 91.28 991.83 90.4C993.27 89.44 994.63 88.08 995.91 86.32C997.83 83.52 999.55 80.68 1001.07 77.8C1002.67 74.84 1003.87 72.56 1004.67 70.96C1005.15 70.08 1005.67 69.64 1006.23 69.64C1006.63 69.64 1006.83 69.88 1006.83 70.36C1006.83 70.76 1006.71 71.2 1006.47 71.68C1005.75 73.28 1004.79 75.36 1003.59 77.92C1002.47 80.4 1001.03 82.92 999.27 85.48C997.59 87.96 995.55 90.08 993.15 91.84C990.83 93.52 988.15 94.36 985.11 94.36ZM986.91 67C989.79 64.04 992.59 60.64 995.31 56.8C998.03 52.88 1000.55 48.84 1002.87 44.68C1005.27 40.44 1007.27 36.44 1008.87 32.68C1009.43 31.48 1009.87 30.16 1010.19 28.72C1010.59 27.28 1010.79 26.08 1010.79 25.12C1010.79 24 1010.51 23.44 1009.95 23.44C1009.63 23.44 1009.15 23.76 1008.51 24.4C1007.87 24.96 1007.03 25.96 1005.99 27.4C1004.47 29.4 1002.79 32.12 1000.95 35.56C999.19 39 997.39 42.68 995.55 46.6C993.71 50.52 992.03 54.32 990.51 58C988.99 61.6 987.79 64.6 986.91 67ZM1047.38 94.36C1046.5 94.44 1045.5 94.24 1044.38 93.76C1043.26 93.28 1042.26 92.4 1041.38 91.12C1040.58 89.84 1040.18 88.04 1040.18 85.72C1040.18 83.8 1040.54 81.48 1041.26 78.76C1040.3 80.28 1039.06 82.16 1037.54 84.4C1036.02 86.56 1034.38 88.48 1032.62 90.16C1031.1 91.6 1029.66 92.64 1028.3 93.28C1026.94 93.92 1025.7 94.24 1024.58 94.24C1022.5 94.24 1020.82 93.32 1019.54 91.48C1018.26 89.56 1017.62 87.08 1017.62 84.04C1017.62 80.84 1018.42 77.2 1020.02 73.12C1021.62 69.04 1024.22 64.8 1027.82 60.4C1030.14 57.6 1032.94 55.36 1036.22 53.68C1039.58 51.92 1042.86 51.04 1046.06 51.04C1047.9 51.04 1049.66 51.36 1051.34 52C1053.02 52.56 1054.5 53.52 1055.78 54.88C1056.34 55.44 1056.62 56.08 1056.62 56.8C1056.62 57.28 1056.42 57.68 1056.02 58C1055.62 58.32 1055.1 58.4 1054.46 58.24C1053.58 55.44 1051.7 54.04 1048.82 54.04C1047.46 54.04 1045.9 54.48 1044.14 55.36C1041.42 56.8 1038.58 59.16 1035.62 62.44C1032.74 65.72 1030.22 69.12 1028.06 72.64C1027.74 73.12 1027.22 74.04 1026.5 75.4C1025.86 76.76 1025.22 78.28 1024.58 79.96C1023.94 81.64 1023.5 83.28 1023.26 84.88C1023.18 85.36 1023.14 85.72 1023.14 85.96C1023.14 86.12 1023.14 86.4 1023.14 86.8C1023.14 89.44 1024.14 90.76 1026.14 90.76C1028.54 90.76 1031.26 89 1034.3 85.48C1036.38 82.92 1038.26 80.24 1039.94 77.44C1041.62 74.64 1043.34 71.64 1045.1 68.44C1046.3 66.28 1047.42 64.48 1048.46 63.04C1049.5 61.6 1050.98 60.88 1052.9 60.88C1053.78 60.88 1054.66 61 1055.54 61.24C1056.42 61.48 1057.34 61.52 1058.3 61.36C1057.66 62 1056.78 63.2 1055.66 64.96C1054.62 66.72 1053.5 68.72 1052.3 70.96C1051.1 73.2 1050.02 75.48 1049.06 77.8C1048.1 80.12 1047.42 82.12 1047.02 83.8C1046.94 84.28 1046.82 84.96 1046.66 85.84C1046.58 86.72 1046.54 87.36 1046.54 87.76C1046.54 90 1047.18 91.12 1048.46 91.12C1049.74 91.12 1051.1 90.36 1052.54 88.84C1054.06 87.32 1055.54 85.44 1056.98 83.2C1058.42 80.96 1059.74 78.72 1060.94 76.48C1062.14 74.16 1063.1 72.28 1063.82 70.84C1064.14 70.04 1064.62 69.64 1065.26 69.64C1065.66 69.64 1065.86 69.92 1065.86 70.48C1065.86 70.72 1065.74 71.16 1065.5 71.8C1064.54 73.8 1063.38 76.08 1062.02 78.64C1060.66 81.12 1059.18 83.56 1057.58 85.96C1055.98 88.28 1054.3 90.24 1052.54 91.84C1050.86 93.36 1049.14 94.2 1047.38 94.36Z" fill="#FFF2E4"/>
</svg>
