<svg width="1043" height="131" viewBox="0 0 1043 131" fill="none" xmlns="http://www.w3.org/2000/svg">
<path d="M20.4058 102.68C18.6458 102.68 16.9258 102.56 15.2458 102.32C10.2058 101.68 6.48577 100.2 4.08577 97.88C1.76577 95.56 0.605769 93.04 0.605769 90.32C0.605769 87.36 1.92577 84.68 4.56577 82.28C7.28577 79.88 11.0858 78.68 15.9658 78.68C17.4858 78.68 19.0858 78.84 20.7658 79.16C22.5258 79.4 24.3658 79.84 26.2858 80.48C27.2458 80.8 27.7258 81.24 27.7258 81.8C27.7258 82.12 27.4858 82.28 27.0058 82.28C26.5258 82.28 26.1258 82.2 25.8058 82.04C24.5258 81.56 23.2858 81.24 22.0858 81.08C20.9658 80.84 19.8858 80.72 18.8458 80.72C15.4058 80.72 12.7658 81.72 10.9258 83.72C9.16577 85.64 8.28577 87.76 8.28577 90.08C8.28577 92.32 9.20577 94.36 11.0458 96.2C12.8858 98.04 15.8058 98.96 19.8058 98.96C24.8458 98.96 29.4858 97.8 33.7258 95.48C38.0458 93.16 42.1258 90.12 45.9658 86.36C50.0458 82.36 53.7658 77.56 57.1258 71.96C60.4858 66.28 63.8058 60.24 67.0858 53.84C70.4458 47.36 74.0858 40.84 78.0058 34.28C81.9258 27.72 86.4458 21.56 91.5658 15.8C92.6058 14.68 93.6458 13.52 94.6858 12.32C95.8058 11.04 96.8858 9.96 97.9258 9.07999C95.2058 8.67999 92.4058 8.39999 89.5258 8.24C86.6458 8 83.8058 7.87999 81.0058 7.87999C76.8458 7.87999 72.8858 8.07999 69.1258 8.47999C65.4458 8.79999 61.7658 9.28 58.0858 9.92C54.3258 10.64 50.1258 11.76 45.4858 13.28C40.8458 14.8 36.3258 16.8 31.9258 19.28C27.6058 21.68 23.8858 24.6 20.7658 28.04C17.7258 31.48 15.8458 35.44 15.1258 39.92C15.0458 40.32 14.9658 40.76 14.8858 41.24C14.8858 41.64 14.8858 42.04 14.8858 42.44C14.8858 46.12 16.1258 49.16 18.6058 51.56C21.1658 53.96 24.1258 55.16 27.4858 55.16C29.9658 55.16 32.3658 54.52 34.6858 53.24C37.0058 51.88 39.0858 50.12 40.9258 47.96C42.7658 45.72 44.1258 43.28 45.0058 40.64C45.0858 39.84 45.4058 39.44 45.9658 39.44C46.4458 39.44 46.6858 39.88 46.6858 40.76C46.6058 44.28 45.5658 47.32 43.5658 49.88C41.6458 52.44 39.2058 54.4 36.2458 55.76C33.2858 57.04 30.2858 57.68 27.2458 57.68C24.1258 57.68 21.1658 57.04 18.3658 55.76C15.5658 54.4 13.2858 52.44 11.5258 49.88C9.76577 47.24 8.88577 44 8.88577 40.16C8.88577 35.68 9.96577 31.72 12.1258 28.28C14.3658 24.84 17.3258 21.84 21.0058 19.28C24.6858 16.64 28.6858 14.44 33.0058 12.68C37.3258 10.84 41.6458 9.4 45.9658 8.36C50.2858 7.24 54.2058 6.4 57.7258 5.84C61.3258 5.28 65.0458 4.84 68.8858 4.51999C72.8058 4.19999 76.7658 4.03999 80.7658 4.03999C84.2058 4.03999 87.6458 4.19999 91.0858 4.51999C94.5258 4.84 97.8858 5.32 101.166 5.96C102.526 4.92 103.926 4 105.366 3.2C106.806 2.4 108.406 1.68 110.166 1.04C111.286 0.559998 112.126 0.319999 112.686 0.319999C113.166 0.319999 113.406 0.479997 113.406 0.799993C113.406 1.35999 112.766 2.04 111.486 2.83999C110.846 3.16 110.046 3.72 109.086 4.51999C108.126 5.31999 107.086 6.23999 105.966 7.27999C111.166 8.56 115.846 10.48 120.006 13.04C124.566 15.76 127.806 18.64 129.726 21.68C131.726 24.72 132.726 27.84 132.726 31.04C132.726 34.72 131.606 38.4 129.366 42.08C127.126 45.68 124.206 49.04 120.606 52.16C117.006 55.28 113.046 58 108.726 60.32C104.406 62.56 100.126 64.2 95.8858 65.24C91.8058 66.28 87.6858 67.04 83.5258 67.52C79.3658 68 75.6458 68.24 72.3658 68.24C71.8058 68.24 71.2058 68.24 70.5658 68.24C70.0058 68.24 69.4458 68.2 68.8858 68.12C66.1658 71.96 63.3658 75.72 60.4858 79.4C57.6058 83 54.3658 86.52 50.7658 89.96C46.3658 94.12 41.5658 97.28 36.3658 99.44C31.1658 101.6 25.8458 102.68 20.4058 102.68ZM70.5658 65.48C73.6058 65.56 77.0058 65.32 80.7658 64.76C84.5258 64.2 88.2858 63.36 92.0458 62.24C98.2858 60.32 103.886 57.56 108.846 53.96C113.886 50.36 117.846 46.36 120.726 41.96C123.686 37.56 125.166 33.24 125.166 29C125.166 26.44 124.526 24 123.246 21.68C122.046 19.36 120.046 17.28 117.246 15.44C115.406 14.24 113.326 13.2 111.006 12.32C108.686 11.44 106.246 10.72 103.686 10.16C99.6058 15.92 95.7658 21.92 92.1658 28.16C88.6458 34.4 85.1258 40.68 81.6058 47C78.1658 53.32 74.4858 59.48 70.5658 65.48ZM134.438 98.48C131.478 98.48 128.798 97.52 126.398 95.6C124.078 93.68 122.918 90.76 122.918 86.84C122.918 83.24 123.798 79.4 125.558 75.32C127.318 71.16 129.558 67.52 132.278 64.4C134.598 61.68 137.198 59.44 140.078 57.68C142.958 55.92 145.678 55.04 148.238 55.04C149.998 55.04 151.518 55.52 152.798 56.48C154.158 57.52 154.838 59 154.838 60.92C154.838 62.92 154.078 65.12 152.558 67.52C151.038 69.92 148.878 72.16 146.078 74.24C144.878 75.12 143.358 75.96 141.518 76.76C139.678 77.56 137.838 78.24 135.998 78.8C134.158 79.28 132.638 79.52 131.438 79.52C131.038 80.48 130.638 81.76 130.238 83.36C129.918 84.96 129.758 86.6 129.758 88.28C129.758 90.28 130.158 92.08 130.958 93.68C131.758 95.28 133.238 96.08 135.398 96.08C138.038 96.08 140.438 95.32 142.598 93.8C144.758 92.28 146.678 90.4 148.358 88.16C150.038 85.84 151.438 83.52 152.558 81.2C153.758 78.88 154.718 76.92 155.438 75.32C155.918 74.2 156.558 73.64 157.358 73.64C157.758 73.64 157.958 73.84 157.958 74.24C157.958 74.56 157.838 74.96 157.598 75.44C156.478 77.84 155.278 80.4 153.998 83.12C152.718 85.76 151.198 88.28 149.438 90.68C147.678 93 145.558 94.88 143.078 96.32C140.678 97.76 137.798 98.48 134.438 98.48ZM132.278 77.36C133.398 77.36 135.278 76.96 137.918 76.16C140.558 75.28 142.958 73.92 145.118 72.08C147.198 70.24 148.798 68.24 149.918 66.08C151.038 63.84 151.598 61.96 151.598 60.44C151.598 58.68 150.958 57.8 149.678 57.8C148.718 57.8 147.398 58.44 145.718 59.72C144.038 61 141.958 63.16 139.478 66.2C137.958 68.12 136.518 70.2 135.158 72.44C133.798 74.68 132.838 76.32 132.278 77.36ZM186.763 98.12C185.243 98.12 183.723 97.52 182.203 96.32C180.683 95.04 179.923 93 179.923 90.2C179.923 88.04 180.443 85.56 181.483 82.76C182.443 80.04 183.723 77.4 185.323 74.84C187.003 72.28 188.203 70.2 188.923 68.6C189.163 67.96 189.283 67.4 189.283 66.92C189.283 65.48 188.363 64.44 186.523 63.8C184.763 63.16 182.443 62.8 179.563 62.72L178.123 66.68C177.243 69.24 176.003 72.24 174.403 75.68C172.883 79.12 171.163 82.44 169.243 85.64C167.403 88.84 165.483 91.4 163.483 93.32C163.323 93.48 163.123 93.56 162.883 93.56C162.563 93.56 162.363 93.36 162.283 92.96C162.123 92.56 162.283 92.08 162.763 91.52C165.883 87.36 168.683 82.76 171.163 77.72C173.643 72.6 175.723 67.4 177.403 62.12C179.163 56.84 180.443 51.96 181.243 47.48C181.483 46.2 181.923 45.28 182.563 44.72C183.203 44.08 183.883 43.76 184.603 43.76C185.643 43.76 186.603 44.28 187.483 45.32C188.363 46.28 188.803 47.68 188.803 49.52C188.803 49.84 188.763 50.2 188.683 50.6C188.683 51 188.643 51.4 188.563 51.8C188.243 53.48 187.283 55.08 185.683 56.6C184.163 58.04 182.923 59.12 181.963 59.84C182.763 59.92 183.603 60 184.483 60.08C185.363 60.08 186.323 60.08 187.363 60.08C191.123 60.08 194.843 59.84 198.523 59.36C198.683 59.84 198.763 60.2 198.763 60.44C198.763 61.48 198.443 62.8 197.803 64.4C197.243 66 196.643 67.44 196.003 68.72C195.683 69.44 195.043 70.76 194.083 72.68C193.123 74.52 192.083 76.64 190.963 79.04C189.843 81.36 188.883 83.68 188.083 86C187.363 88.24 187.003 90.16 187.003 91.76C187.003 93.84 187.803 94.88 189.403 94.88C190.603 94.88 191.923 94.12 193.363 92.6C194.803 91 196.203 89.08 197.563 86.84C199.003 84.52 200.283 82.28 201.403 80.12C202.603 77.88 203.523 76.12 204.163 74.84C204.483 74.04 204.923 73.64 205.483 73.64C205.803 73.64 205.963 73.92 205.963 74.48C205.963 74.8 205.843 75.28 205.603 75.92C204.723 77.76 203.683 79.84 202.483 82.16C201.283 84.48 199.923 86.76 198.403 89C196.963 91.24 195.363 93.2 193.603 94.88C191.923 96.48 190.083 97.52 188.083 98C187.843 98.08 187.403 98.12 186.763 98.12ZM294.464 98.36C293.584 98.44 292.584 98.24 291.464 97.76C290.344 97.28 289.344 96.4 288.464 95.12C287.664 93.84 287.264 92.04 287.264 89.72C287.264 87.8 287.624 85.48 288.344 82.76C287.384 84.28 286.144 86.16 284.624 88.4C283.104 90.56 281.464 92.48 279.704 94.16C278.184 95.6 276.744 96.64 275.384 97.28C274.024 97.92 272.784 98.24 271.664 98.24C269.584 98.24 267.904 97.32 266.624 95.48C265.344 93.56 264.704 91.08 264.704 88.04C264.704 84.84 265.504 81.2 267.104 77.12C268.704 73.04 271.304 68.8 274.904 64.4C277.224 61.6 280.024 59.36 283.304 57.68C286.664 55.92 289.944 55.04 293.144 55.04C294.984 55.04 296.744 55.36 298.424 56C300.104 56.56 301.584 57.52 302.864 58.88C303.424 59.44 303.704 60.08 303.704 60.8C303.704 61.28 303.504 61.68 303.104 62C302.704 62.32 302.184 62.4 301.544 62.24C300.664 59.44 298.784 58.04 295.904 58.04C294.544 58.04 292.984 58.48 291.224 59.36C288.504 60.8 285.664 63.16 282.704 66.44C279.824 69.72 277.304 73.12 275.144 76.64C274.824 77.12 274.304 78.04 273.584 79.4C272.944 80.76 272.304 82.28 271.664 83.96C271.024 85.64 270.584 87.28 270.344 88.88C270.264 89.36 270.224 89.72 270.224 89.96C270.224 90.12 270.224 90.4 270.224 90.8C270.224 93.44 271.224 94.76 273.224 94.76C275.624 94.76 278.344 93 281.384 89.48C283.464 86.92 285.344 84.24 287.024 81.44C288.704 78.64 290.424 75.64 292.184 72.44C293.384 70.28 294.504 68.48 295.544 67.04C296.584 65.6 298.064 64.88 299.984 64.88C300.864 64.88 301.744 65 302.624 65.24C303.504 65.48 304.424 65.52 305.384 65.36C304.744 66 303.864 67.2 302.744 68.96C301.704 70.72 300.584 72.72 299.384 74.96C298.184 77.2 297.104 79.48 296.144 81.8C295.184 84.12 294.504 86.12 294.104 87.8C294.024 88.28 293.904 88.96 293.744 89.84C293.664 90.72 293.624 91.36 293.624 91.76C293.624 94 294.264 95.12 295.544 95.12C296.824 95.12 298.184 94.36 299.624 92.84C301.144 91.32 302.624 89.44 304.064 87.2C305.504 84.96 306.824 82.72 308.024 80.48C309.224 78.16 310.184 76.28 310.904 74.84C311.224 74.04 311.704 73.64 312.344 73.64C312.744 73.64 312.944 73.92 312.944 74.48C312.944 74.72 312.824 75.16 312.584 75.8C311.624 77.8 310.464 80.08 309.104 82.64C307.744 85.12 306.264 87.56 304.664 89.96C303.064 92.28 301.384 94.24 299.624 95.84C297.944 97.36 296.224 98.2 294.464 98.36ZM330.292 98.48C326.372 98.48 323.572 97.48 321.892 95.48C320.292 93.4 319.492 91.24 319.492 89C319.492 87.16 319.932 85.48 320.812 83.96C321.772 82.44 322.892 81.64 324.172 81.56C325.772 78.44 327.492 75.04 329.332 71.36C331.252 67.68 333.012 64.12 334.612 60.68C335.732 58.36 337.132 56.12 338.812 53.96C340.572 51.8 342.492 50.56 344.572 50.24H345.772C346.412 50.24 346.972 50.28 347.452 50.36C348.012 50.44 348.572 50.6 349.132 50.84C350.012 51.24 350.452 51.84 350.452 52.64C350.452 53.12 350.172 53.36 349.612 53.36C349.372 53.36 349.052 53.24 348.652 53C347.692 52.6 346.852 52.4 346.132 52.4C345.652 52.4 345.212 52.52 344.812 52.76C343.292 53.56 342.212 54.68 341.572 56.12C341.012 57.56 340.732 59.08 340.732 60.68C340.732 61.96 340.852 63.28 341.092 64.64C341.412 65.92 341.772 67.08 342.172 68.12C343.052 70.36 343.972 72.56 344.932 74.72C345.972 76.88 346.492 79.2 346.492 81.68C346.492 84.08 345.692 86.64 344.092 89.36C342.492 92 340.452 94.12 337.972 95.72L338.812 95.84C339.212 95.92 339.492 95.96 339.652 95.96C339.812 95.96 339.932 95.96 340.012 95.96C341.852 95.96 343.572 95.44 345.172 94.4C346.852 93.28 348.332 91.92 349.612 90.32C350.892 88.72 352.332 86.48 353.932 83.6C355.612 80.72 357.212 77.68 358.732 74.48C358.972 74.08 359.252 73.88 359.572 73.88C359.972 73.88 360.252 74.04 360.412 74.36C360.652 74.6 360.692 74.92 360.532 75.32C359.492 77.56 358.292 80 356.932 82.64C355.652 85.2 354.172 87.68 352.492 90.08C350.812 92.4 348.852 94.32 346.612 95.84C344.452 97.28 342.012 98 339.292 98C338.652 98 337.972 97.96 337.252 97.88C336.532 97.8 335.812 97.64 335.092 97.4C334.292 97.72 333.452 97.96 332.572 98.12C331.772 98.36 331.012 98.48 330.292 98.48ZM333.892 94.88C335.252 93.76 336.452 92.12 337.492 89.96C338.612 87.8 339.172 84.96 339.172 81.44C339.172 78.32 338.852 75 338.212 71.48C337.572 67.96 337.252 64.84 337.252 62.12C337.252 61.56 337.252 61.08 337.252 60.68C337.332 60.2 337.412 59.76 337.492 59.36C336.452 61.52 335.252 64.04 333.892 66.92C332.532 69.72 331.172 72.44 329.812 75.08C328.452 77.72 327.292 79.96 326.332 81.8C326.332 81.8 326.532 81.84 326.932 81.92C327.412 81.92 327.852 82.2 328.252 82.76C328.652 83.24 328.812 84.24 328.732 85.76C328.652 87.76 329.092 89.64 330.052 91.4C331.092 93.08 332.372 94.24 333.892 94.88ZM329.332 96.56C329.812 96.56 330.252 96.52 330.652 96.44C331.052 96.28 331.412 96.16 331.732 96.08C330.532 95.2 329.452 94.04 328.492 92.6C327.612 91.08 327.092 89.16 326.932 86.84C325.492 88.36 324.772 90 324.772 91.76C324.772 93.04 325.172 94.16 325.972 95.12C326.772 96.08 327.892 96.56 329.332 96.56ZM356.912 130.76C355.952 130.76 354.992 130.6 354.032 130.28C352.992 130.04 351.952 130 350.912 130.16C351.392 129.68 352.312 128.28 353.672 125.96C355.032 123.72 356.632 120.92 358.472 117.56C360.232 114.2 362.112 110.56 364.112 106.64C366.112 102.72 367.992 98.88 369.752 95.12C371.512 91.28 372.992 87.8 374.192 84.68C375.472 81.48 376.272 78.96 376.592 77.12C375.872 78.16 375.152 78.76 374.432 78.92C373.792 79 373.632 78.76 373.952 78.2C374.112 77.88 374.432 77.12 374.912 75.92C375.472 74.64 375.952 73.56 376.352 72.68C376.992 71.08 377.512 69.32 377.912 67.4C378.392 65.48 378.632 63.64 378.632 61.88C378.632 60.76 378.512 59.8 378.272 59C378.032 58.2 377.592 57.76 376.952 57.68C376.952 57.68 377.392 57.6 378.272 57.44C379.152 57.28 380.072 57.12 381.032 56.96C381.992 56.8 382.632 56.72 382.952 56.72C383.432 56.64 383.872 56.6 384.272 56.6C384.672 56.52 385.032 56.48 385.352 56.48C386.072 56.48 386.552 56.76 386.792 57.32C387.112 57.8 387.272 58.84 387.272 60.44C387.272 62.44 386.912 65 386.192 68.12C385.552 71.16 384.792 73.84 383.912 76.16C384.792 74.72 385.912 72.88 387.272 70.64C388.712 68.4 390.352 66.12 392.192 63.8C394.032 61.48 395.952 59.56 397.952 58.04C399.952 56.44 401.912 55.64 403.832 55.64C404.232 55.64 404.752 55.72 405.392 55.88C407.632 56.44 409.192 57.56 410.072 59.24C411.032 60.84 411.512 62.76 411.512 65C411.512 67.4 411.032 70.04 410.072 72.92C409.192 75.8 407.992 78.64 406.472 81.44C404.952 84.16 403.272 86.64 401.432 88.88C399.192 91.68 396.512 93.92 393.392 95.6C390.272 97.28 387.072 98.12 383.792 98.12C380.832 98.12 378.072 97.36 375.512 95.84L364.112 124.52C362.992 126.92 361.912 128.56 360.872 129.44C359.832 130.32 358.512 130.76 356.912 130.76ZM379.952 95.6C382.192 95.6 384.712 94.56 387.512 92.48C390.312 90.4 392.992 87.76 395.552 84.56C398.192 81.28 400.392 78 402.152 74.72C403.352 72.48 404.232 70.44 404.792 68.6C405.352 66.68 405.632 65.04 405.632 63.68C405.632 60.56 404.512 59 402.272 59C401.232 59 399.872 59.56 398.192 60.68C396.592 61.8 394.712 63.84 392.552 66.8C390.232 70 387.672 74.04 384.872 78.92C382.152 83.72 379.352 88.8 376.472 94.16C377.432 95.12 378.592 95.6 379.952 95.6ZM441.019 98.48C438.059 98.48 435.379 97.52 432.979 95.6C430.659 93.68 429.499 90.76 429.499 86.84C429.499 83.24 430.379 79.4 432.139 75.32C433.899 71.16 436.139 67.52 438.859 64.4C441.179 61.68 443.779 59.44 446.659 57.68C449.539 55.92 452.259 55.04 454.819 55.04C456.579 55.04 458.099 55.52 459.379 56.48C460.739 57.52 461.419 59 461.419 60.92C461.419 62.92 460.659 65.12 459.139 67.52C457.619 69.92 455.459 72.16 452.659 74.24C451.459 75.12 449.939 75.96 448.099 76.76C446.259 77.56 444.419 78.24 442.579 78.8C440.739 79.28 439.219 79.52 438.019 79.52C437.619 80.48 437.219 81.76 436.819 83.36C436.499 84.96 436.339 86.6 436.339 88.28C436.339 90.28 436.739 92.08 437.539 93.68C438.339 95.28 439.819 96.08 441.979 96.08C444.619 96.08 447.019 95.32 449.179 93.8C451.339 92.28 453.259 90.4 454.939 88.16C456.619 85.84 458.019 83.52 459.139 81.2C460.339 78.88 461.299 76.92 462.019 75.32C462.499 74.2 463.139 73.64 463.939 73.64C464.339 73.64 464.539 73.84 464.539 74.24C464.539 74.56 464.419 74.96 464.179 75.44C463.059 77.84 461.859 80.4 460.579 83.12C459.299 85.76 457.779 88.28 456.019 90.68C454.259 93 452.139 94.88 449.659 96.32C447.259 97.76 444.379 98.48 441.019 98.48ZM438.859 77.36C439.979 77.36 441.859 76.96 444.499 76.16C447.139 75.28 449.539 73.92 451.699 72.08C453.779 70.24 455.379 68.24 456.499 66.08C457.619 63.84 458.179 61.96 458.179 60.44C458.179 58.68 457.539 57.8 456.259 57.8C455.299 57.8 453.979 58.44 452.299 59.72C450.619 61 448.539 63.16 446.059 66.2C444.539 68.12 443.099 70.2 441.739 72.44C440.379 74.68 439.419 76.32 438.859 77.36ZM493.344 98.12C491.824 98.12 490.304 97.52 488.784 96.32C487.264 95.04 486.504 93 486.504 90.2C486.504 88.04 487.024 85.56 488.064 82.76C489.024 80.04 490.304 77.4 491.904 74.84C493.584 72.28 494.784 70.2 495.504 68.6C495.744 67.96 495.864 67.4 495.864 66.92C495.864 65.48 494.944 64.44 493.104 63.8C491.344 63.16 489.024 62.8 486.144 62.72L484.704 66.68C483.824 69.24 482.584 72.24 480.984 75.68C479.464 79.12 477.744 82.44 475.824 85.64C473.984 88.84 472.064 91.4 470.064 93.32C469.904 93.48 469.704 93.56 469.464 93.56C469.144 93.56 468.944 93.36 468.864 92.96C468.704 92.56 468.864 92.08 469.344 91.52C472.464 87.36 475.264 82.76 477.744 77.72C480.224 72.6 482.304 67.4 483.984 62.12C485.744 56.84 487.024 51.96 487.824 47.48C488.064 46.2 488.504 45.28 489.144 44.72C489.784 44.08 490.464 43.76 491.184 43.76C492.224 43.76 493.184 44.28 494.064 45.32C494.944 46.28 495.384 47.68 495.384 49.52C495.384 49.84 495.344 50.2 495.264 50.6C495.264 51 495.224 51.4 495.144 51.8C494.824 53.48 493.864 55.08 492.264 56.6C490.744 58.04 489.504 59.12 488.544 59.84C489.344 59.92 490.184 60 491.064 60.08C491.944 60.08 492.904 60.08 493.944 60.08C497.704 60.08 501.424 59.84 505.104 59.36C505.264 59.84 505.344 60.2 505.344 60.44C505.344 61.48 505.024 62.8 504.384 64.4C503.824 66 503.224 67.44 502.584 68.72C502.264 69.44 501.624 70.76 500.664 72.68C499.704 74.52 498.664 76.64 497.544 79.04C496.424 81.36 495.464 83.68 494.664 86C493.944 88.24 493.584 90.16 493.584 91.76C493.584 93.84 494.384 94.88 495.984 94.88C497.184 94.88 498.504 94.12 499.944 92.6C501.384 91 502.784 89.08 504.144 86.84C505.584 84.52 506.864 82.28 507.984 80.12C509.184 77.88 510.104 76.12 510.744 74.84C511.064 74.04 511.504 73.64 512.064 73.64C512.384 73.64 512.544 73.92 512.544 74.48C512.544 74.8 512.424 75.28 512.184 75.92C511.304 77.76 510.264 79.84 509.064 82.16C507.864 84.48 506.504 86.76 504.984 89C503.544 91.24 501.944 93.2 500.184 94.88C498.504 96.48 496.664 97.52 494.664 98C494.424 98.08 493.984 98.12 493.344 98.12ZM553.074 98.36C552.194 98.44 551.194 98.24 550.074 97.76C548.954 97.28 547.954 96.4 547.074 95.12C546.274 93.84 545.874 92.04 545.874 89.72C545.874 87.8 546.234 85.48 546.954 82.76C545.994 84.28 544.754 86.16 543.234 88.4C541.714 90.56 540.074 92.48 538.314 94.16C536.794 95.6 535.354 96.64 533.994 97.28C532.634 97.92 531.394 98.24 530.274 98.24C528.194 98.24 526.514 97.32 525.234 95.48C523.954 93.56 523.314 91.08 523.314 88.04C523.314 84.84 524.114 81.2 525.714 77.12C527.314 73.04 529.914 68.8 533.514 64.4C535.834 61.6 538.634 59.36 541.914 57.68C545.274 55.92 548.554 55.04 551.754 55.04C553.594 55.04 555.354 55.36 557.034 56C558.714 56.56 560.194 57.52 561.474 58.88C562.034 59.44 562.314 60.08 562.314 60.8C562.314 61.28 562.114 61.68 561.714 62C561.314 62.32 560.794 62.4 560.154 62.24C559.274 59.44 557.394 58.04 554.514 58.04C553.154 58.04 551.594 58.48 549.834 59.36C547.114 60.8 544.274 63.16 541.314 66.44C538.434 69.72 535.914 73.12 533.754 76.64C533.434 77.12 532.914 78.04 532.194 79.4C531.554 80.76 530.914 82.28 530.274 83.96C529.634 85.64 529.194 87.28 528.954 88.88C528.874 89.36 528.834 89.72 528.834 89.96C528.834 90.12 528.834 90.4 528.834 90.8C528.834 93.44 529.834 94.76 531.834 94.76C534.234 94.76 536.954 93 539.994 89.48C542.074 86.92 543.954 84.24 545.634 81.44C547.314 78.64 549.034 75.64 550.794 72.44C551.994 70.28 553.114 68.48 554.154 67.04C555.194 65.6 556.674 64.88 558.594 64.88C559.474 64.88 560.354 65 561.234 65.24C562.114 65.48 563.034 65.52 563.994 65.36C563.354 66 562.474 67.2 561.354 68.96C560.314 70.72 559.194 72.72 557.994 74.96C556.794 77.2 555.714 79.48 554.754 81.8C553.794 84.12 553.114 86.12 552.714 87.8C552.634 88.28 552.514 88.96 552.354 89.84C552.274 90.72 552.234 91.36 552.234 91.76C552.234 94 552.874 95.12 554.154 95.12C555.434 95.12 556.794 94.36 558.234 92.84C559.754 91.32 561.234 89.44 562.674 87.2C564.114 84.96 565.434 82.72 566.634 80.48C567.834 78.16 568.794 76.28 569.514 74.84C569.834 74.04 570.314 73.64 570.954 73.64C571.354 73.64 571.554 73.92 571.554 74.48C571.554 74.72 571.434 75.16 571.194 75.8C570.234 77.8 569.074 80.08 567.714 82.64C566.354 85.12 564.874 87.56 563.274 89.96C561.674 92.28 559.994 94.24 558.234 95.84C556.554 97.36 554.834 98.2 553.074 98.36ZM660.033 98.36C659.153 98.44 658.153 98.24 657.033 97.76C655.913 97.28 654.913 96.4 654.033 95.12C653.233 93.84 652.833 92.04 652.833 89.72C652.833 87.8 653.193 85.48 653.913 82.76C652.953 84.28 651.713 86.16 650.193 88.4C648.673 90.56 647.033 92.48 645.273 94.16C643.753 95.6 642.313 96.64 640.953 97.28C639.593 97.92 638.353 98.24 637.233 98.24C635.153 98.24 633.473 97.32 632.193 95.48C630.913 93.56 630.273 91.08 630.273 88.04C630.273 84.84 631.073 81.2 632.673 77.12C634.273 73.04 636.873 68.8 640.473 64.4C642.793 61.6 645.593 59.36 648.873 57.68C652.233 55.92 655.513 55.04 658.713 55.04C660.553 55.04 662.313 55.36 663.993 56C665.673 56.56 667.153 57.52 668.433 58.88C668.993 59.44 669.273 60.08 669.273 60.8C669.273 61.28 669.073 61.68 668.673 62C668.273 62.32 667.753 62.4 667.113 62.24C666.233 59.44 664.353 58.04 661.473 58.04C660.113 58.04 658.553 58.48 656.793 59.36C654.073 60.8 651.233 63.16 648.273 66.44C645.393 69.72 642.873 73.12 640.713 76.64C640.393 77.12 639.873 78.04 639.153 79.4C638.513 80.76 637.873 82.28 637.233 83.96C636.593 85.64 636.153 87.28 635.913 88.88C635.833 89.36 635.793 89.72 635.793 89.96C635.793 90.12 635.793 90.4 635.793 90.8C635.793 93.44 636.793 94.76 638.793 94.76C641.193 94.76 643.913 93 646.953 89.48C649.033 86.92 650.913 84.24 652.593 81.44C654.273 78.64 655.993 75.64 657.753 72.44C658.953 70.28 660.073 68.48 661.113 67.04C662.153 65.6 663.633 64.88 665.553 64.88C666.433 64.88 667.313 65 668.193 65.24C669.073 65.48 669.993 65.52 670.953 65.36C670.313 66 669.433 67.2 668.313 68.96C667.273 70.72 666.153 72.72 664.953 74.96C663.753 77.2 662.673 79.48 661.713 81.8C660.753 84.12 660.073 86.12 659.673 87.8C659.593 88.28 659.473 88.96 659.313 89.84C659.233 90.72 659.193 91.36 659.193 91.76C659.193 94 659.833 95.12 661.113 95.12C662.393 95.12 663.753 94.36 665.193 92.84C666.713 91.32 668.193 89.44 669.633 87.2C671.073 84.96 672.393 82.72 673.593 80.48C674.793 78.16 675.753 76.28 676.473 74.84C676.793 74.04 677.273 73.64 677.913 73.64C678.313 73.64 678.513 73.92 678.513 74.48C678.513 74.72 678.393 75.16 678.153 75.8C677.193 77.8 676.033 80.08 674.673 82.64C673.313 85.12 671.833 87.56 670.233 89.96C668.633 92.28 666.953 94.24 665.193 95.84C663.513 97.36 661.793 98.2 660.033 98.36ZM719.62 98C717.46 98 715.66 96.92 714.22 94.76C713.82 94.12 713.46 93.28 713.14 92.24C712.82 91.2 712.66 90.04 712.66 88.76C712.66 88.04 712.7 87.32 712.78 86.6C712.86 85.8 713.02 85 713.26 84.2C712.14 85.96 710.82 87.92 709.3 90.08C707.86 92.16 706.18 94 704.26 95.6C702.42 97.12 700.34 97.88 698.02 97.88C697.22 97.88 696.38 97.76 695.5 97.52C693.34 96.88 691.78 95.76 690.82 94.16C689.94 92.56 689.5 90.64 689.5 88.4C689.5 85.92 689.98 83.2 690.94 80.24C691.98 77.28 693.26 74.4 694.78 71.6C696.38 68.8 698.02 66.4 699.7 64.4C702.1 61.6 704.86 59.36 707.98 57.68C711.1 56 714.26 55.16 717.46 55.16C720.34 55.16 723.06 55.92 725.62 57.44C726.82 55.2 728.1 52.72 729.46 50C730.82 47.2 732.18 44.44 733.54 41.72C734.9 39 736.1 36.52 737.14 34.28C738.18 31.96 738.98 30.2 739.54 29C740.74 26.2 741.86 24.44 742.9 23.72C744.02 22.92 745.34 22.52 746.86 22.52C747.74 22.52 748.7 22.64 749.74 22.88C750.86 23.04 751.94 23.08 752.98 23C752.5 23.48 751.5 24.88 749.98 27.2C748.54 29.44 746.82 32.32 744.82 35.84C742.82 39.36 740.66 43.24 738.34 47.48C736.1 51.64 733.86 55.88 731.62 60.2C729.46 64.44 727.42 68.48 725.5 72.32C723.66 76.08 722.18 79.32 721.06 82.04C720.74 82.68 720.26 84 719.62 86C719.06 87.92 718.78 89.6 718.78 91.04C718.78 92.08 719.02 93 719.5 93.8C719.98 94.52 720.78 94.88 721.9 94.88C723.42 94.88 724.94 94.12 726.46 92.6C728.06 91 729.58 89.08 731.02 86.84C732.46 84.52 733.74 82.28 734.86 80.12C735.98 77.88 736.82 76.12 737.38 74.84C737.78 73.96 738.26 73.52 738.82 73.52C739.3 73.52 739.54 73.88 739.54 74.6C739.54 74.68 739.54 74.84 739.54 75.08C739.54 75.24 739.46 75.44 739.3 75.68C738.58 77.36 737.58 79.44 736.3 81.92C735.1 84.4 733.66 86.88 731.98 89.36C730.3 91.84 728.42 93.92 726.34 95.6C724.26 97.2 722.02 98 719.62 98ZM698.86 94.4C699.98 94.4 701.38 93.8 703.06 92.6C704.74 91.32 706.54 89.32 708.46 86.6C710.7 83.4 713.26 79.4 716.14 74.6C719.02 69.8 721.86 64.72 724.66 59.36C723.62 58.4 722.42 57.92 721.06 57.92C718.82 57.92 716.3 58.96 713.5 61.04C710.78 63.12 708.1 65.76 705.46 68.96C702.9 72.16 700.74 75.4 698.98 78.68C697.78 80.92 696.9 82.96 696.34 84.8C695.86 86.64 695.62 88.24 695.62 89.6C695.62 92.8 696.7 94.4 698.86 94.4ZM828.089 98.36C827.209 98.44 826.209 98.24 825.089 97.76C823.969 97.28 822.969 96.4 822.089 95.12C821.289 93.84 820.889 92.04 820.889 89.72C820.889 87.8 821.249 85.48 821.969 82.76C821.009 84.28 819.769 86.16 818.249 88.4C816.729 90.56 815.089 92.48 813.329 94.16C811.809 95.6 810.369 96.64 809.009 97.28C807.649 97.92 806.409 98.24 805.289 98.24C803.209 98.24 801.529 97.32 800.249 95.48C798.969 93.56 798.329 91.08 798.329 88.04C798.329 84.84 799.129 81.2 800.729 77.12C802.329 73.04 804.929 68.8 808.529 64.4C810.849 61.6 813.649 59.36 816.929 57.68C820.289 55.92 823.569 55.04 826.769 55.04C828.609 55.04 830.369 55.36 832.049 56C833.729 56.56 835.209 57.52 836.489 58.88C837.049 59.44 837.329 60.08 837.329 60.8C837.329 61.28 837.129 61.68 836.729 62C836.329 62.32 835.809 62.4 835.169 62.24C834.289 59.44 832.409 58.04 829.529 58.04C828.169 58.04 826.609 58.48 824.849 59.36C822.129 60.8 819.289 63.16 816.329 66.44C813.449 69.72 810.929 73.12 808.769 76.64C808.449 77.12 807.929 78.04 807.209 79.4C806.569 80.76 805.929 82.28 805.289 83.96C804.649 85.64 804.209 87.28 803.969 88.88C803.889 89.36 803.849 89.72 803.849 89.96C803.849 90.12 803.849 90.4 803.849 90.8C803.849 93.44 804.849 94.76 806.849 94.76C809.249 94.76 811.969 93 815.009 89.48C817.089 86.92 818.969 84.24 820.649 81.44C822.329 78.64 824.049 75.64 825.809 72.44C827.009 70.28 828.129 68.48 829.169 67.04C830.209 65.6 831.689 64.88 833.609 64.88C834.489 64.88 835.369 65 836.249 65.24C837.129 65.48 838.049 65.52 839.009 65.36C838.369 66 837.489 67.2 836.369 68.96C835.329 70.72 834.209 72.72 833.009 74.96C831.809 77.2 830.729 79.48 829.769 81.8C828.809 84.12 828.129 86.12 827.729 87.8C827.649 88.28 827.529 88.96 827.369 89.84C827.289 90.72 827.249 91.36 827.249 91.76C827.249 94 827.889 95.12 829.169 95.12C830.449 95.12 831.809 94.36 833.249 92.84C834.769 91.32 836.249 89.44 837.689 87.2C839.129 84.96 840.449 82.72 841.649 80.48C842.849 78.16 843.809 76.28 844.529 74.84C844.849 74.04 845.329 73.64 845.969 73.64C846.369 73.64 846.569 73.92 846.569 74.48C846.569 74.72 846.449 75.16 846.209 75.8C845.249 77.8 844.089 80.08 842.729 82.64C841.369 85.12 839.889 87.56 838.289 89.96C836.689 92.28 835.009 94.24 833.249 95.84C831.569 97.36 829.849 98.2 828.089 98.36ZM863.917 98.48C859.997 98.48 857.197 97.48 855.517 95.48C853.917 93.4 853.117 91.24 853.117 89C853.117 87.16 853.557 85.48 854.437 83.96C855.397 82.44 856.517 81.64 857.797 81.56C859.397 78.44 861.117 75.04 862.957 71.36C864.877 67.68 866.637 64.12 868.237 60.68C869.357 58.36 870.757 56.12 872.437 53.96C874.197 51.8 876.117 50.56 878.197 50.24H879.397C880.037 50.24 880.597 50.28 881.077 50.36C881.637 50.44 882.197 50.6 882.757 50.84C883.637 51.24 884.077 51.84 884.077 52.64C884.077 53.12 883.797 53.36 883.237 53.36C882.997 53.36 882.677 53.24 882.277 53C881.317 52.6 880.477 52.4 879.757 52.4C879.277 52.4 878.837 52.52 878.437 52.76C876.917 53.56 875.837 54.68 875.197 56.12C874.637 57.56 874.357 59.08 874.357 60.68C874.357 61.96 874.477 63.28 874.717 64.64C875.037 65.92 875.397 67.08 875.797 68.12C876.677 70.36 877.597 72.56 878.557 74.72C879.597 76.88 880.117 79.2 880.117 81.68C880.117 84.08 879.317 86.64 877.717 89.36C876.117 92 874.077 94.12 871.597 95.72L872.437 95.84C872.837 95.92 873.117 95.96 873.277 95.96C873.437 95.96 873.557 95.96 873.637 95.96C875.477 95.96 877.197 95.44 878.797 94.4C880.477 93.28 881.957 91.92 883.237 90.32C884.517 88.72 885.957 86.48 887.557 83.6C889.237 80.72 890.837 77.68 892.357 74.48C892.597 74.08 892.877 73.88 893.197 73.88C893.597 73.88 893.877 74.04 894.037 74.36C894.277 74.6 894.317 74.92 894.157 75.32C893.117 77.56 891.917 80 890.557 82.64C889.277 85.2 887.797 87.68 886.117 90.08C884.437 92.4 882.477 94.32 880.237 95.84C878.077 97.28 875.637 98 872.917 98C872.277 98 871.597 97.96 870.877 97.88C870.157 97.8 869.437 97.64 868.717 97.4C867.917 97.72 867.077 97.96 866.197 98.12C865.397 98.36 864.637 98.48 863.917 98.48ZM867.517 94.88C868.877 93.76 870.077 92.12 871.117 89.96C872.237 87.8 872.797 84.96 872.797 81.44C872.797 78.32 872.477 75 871.837 71.48C871.197 67.96 870.877 64.84 870.877 62.12C870.877 61.56 870.877 61.08 870.877 60.68C870.957 60.2 871.037 59.76 871.117 59.36C870.077 61.52 868.877 64.04 867.517 66.92C866.157 69.72 864.797 72.44 863.437 75.08C862.077 77.72 860.917 79.96 859.957 81.8C859.957 81.8 860.157 81.84 860.557 81.92C861.037 81.92 861.477 82.2 861.877 82.76C862.277 83.24 862.437 84.24 862.357 85.76C862.277 87.76 862.717 89.64 863.677 91.4C864.717 93.08 865.997 94.24 867.517 94.88ZM862.957 96.56C863.437 96.56 863.877 96.52 864.277 96.44C864.677 96.28 865.037 96.16 865.357 96.08C864.157 95.2 863.077 94.04 862.117 92.6C861.237 91.08 860.717 89.16 860.557 86.84C859.117 88.36 858.397 90 858.397 91.76C858.397 93.04 858.797 94.16 859.597 95.12C860.397 96.08 861.517 96.56 862.957 96.56ZM914.657 98C912.417 98 910.417 97.24 908.657 95.72C906.897 94.12 906.017 91.64 906.017 88.28C906.017 85.64 906.497 82.4 907.457 78.56C908.497 74.64 909.737 70.6 911.177 66.44C912.697 62.2 914.177 58.36 915.617 54.92H909.257C908.697 54.92 908.417 54.52 908.417 53.72C908.417 53.32 908.497 52.96 908.657 52.64C908.897 52.32 909.217 52.16 909.617 52.16H916.817C918.177 49.12 919.617 46.16 921.137 43.28C922.657 40.4 924.137 37.68 925.577 35.12C927.417 31.92 929.377 29.52 931.457 27.92C933.537 26.32 935.337 25.52 936.857 25.52C938.057 25.52 939.057 26 939.857 26.96C940.657 27.84 941.057 29.2 941.057 31.04C941.057 32.16 940.817 33.72 940.337 35.72C939.857 37.64 939.097 39.68 938.057 41.84C937.497 42.96 936.697 44.56 935.657 46.64C934.697 48.72 933.737 50.56 932.777 52.16H938.537C939.097 52.16 939.377 52.56 939.377 53.36C939.377 53.68 939.297 54.04 939.137 54.44C938.977 54.76 938.737 54.92 938.417 54.92H931.337C929.337 58.36 927.057 61.72 924.497 65C921.937 68.28 918.897 71.56 915.377 74.84C915.137 75.56 914.817 76.6 914.417 77.96C914.097 79.32 913.777 80.72 913.457 82.16C913.217 83.52 912.977 84.68 912.737 85.64C912.577 86.6 912.497 87.08 912.497 87.08C912.257 88.12 912.137 89.08 912.137 89.96C912.137 91.64 912.537 92.88 913.337 93.68C914.137 94.4 915.057 94.76 916.097 94.76C916.737 94.76 917.377 94.68 918.017 94.52C918.657 94.28 919.377 93.88 920.177 93.32C922.977 91.32 925.417 88.6 927.497 85.16C929.657 81.72 931.537 78.4 933.137 75.2C933.617 74.24 934.097 73.76 934.577 73.76C934.897 73.76 935.057 74 935.057 74.48C935.057 74.72 934.937 75.16 934.697 75.8C932.937 79.48 931.457 82.44 930.257 84.68C929.057 86.92 927.897 88.8 926.777 90.32C925.657 91.76 924.337 93.2 922.817 94.64C921.697 95.76 920.417 96.6 918.977 97.16C917.537 97.72 916.097 98 914.657 98ZM924.137 52.16H930.257C931.377 50.08 932.417 48.04 933.377 46.04C934.417 44.04 935.337 42.04 936.137 40.04C936.697 38.76 937.177 37.32 937.577 35.72C937.977 34.12 938.177 32.88 938.177 32C938.177 30.8 937.897 30.2 937.337 30.2C936.937 30.2 936.337 30.56 935.537 31.28C934.817 31.92 933.897 33.04 932.777 34.64C931.337 36.64 929.897 39.24 928.457 42.44C927.097 45.56 925.657 48.8 924.137 52.16ZM916.337 71C918.657 68.6 920.817 66.04 922.817 63.32C924.897 60.6 926.817 57.8 928.577 54.92H922.937C921.657 57.88 920.457 60.76 919.337 63.56C918.217 66.36 917.217 68.84 916.337 71ZM963.998 98.12C962.478 98.12 960.958 97.52 959.438 96.32C957.918 95.04 957.158 93 957.158 90.2C957.158 88.04 957.678 85.56 958.718 82.76C959.678 80.04 960.958 77.4 962.558 74.84C964.238 72.28 965.438 70.2 966.158 68.6C966.398 67.96 966.518 67.4 966.518 66.92C966.518 65.48 965.598 64.44 963.758 63.8C961.998 63.16 959.678 62.8 956.798 62.72L955.358 66.68C954.478 69.24 953.238 72.24 951.638 75.68C950.118 79.12 948.398 82.44 946.478 85.64C944.638 88.84 942.718 91.4 940.718 93.32C940.558 93.48 940.358 93.56 940.118 93.56C939.798 93.56 939.598 93.36 939.518 92.96C939.358 92.56 939.518 92.08 939.998 91.52C943.118 87.36 945.918 82.76 948.398 77.72C950.878 72.6 952.958 67.4 954.638 62.12C956.398 56.84 957.678 51.96 958.478 47.48C958.718 46.2 959.158 45.28 959.798 44.72C960.438 44.08 961.118 43.76 961.838 43.76C962.878 43.76 963.838 44.28 964.718 45.32C965.598 46.28 966.038 47.68 966.038 49.52C966.038 49.84 965.998 50.2 965.918 50.6C965.918 51 965.878 51.4 965.798 51.8C965.478 53.48 964.518 55.08 962.918 56.6C961.398 58.04 960.158 59.12 959.198 59.84C959.998 59.92 960.838 60 961.718 60.08C962.598 60.08 963.558 60.08 964.598 60.08C968.358 60.08 972.078 59.84 975.758 59.36C975.918 59.84 975.998 60.2 975.998 60.44C975.998 61.48 975.678 62.8 975.038 64.4C974.478 66 973.878 67.44 973.238 68.72C972.918 69.44 972.278 70.76 971.318 72.68C970.358 74.52 969.318 76.64 968.198 79.04C967.078 81.36 966.118 83.68 965.318 86C964.598 88.24 964.238 90.16 964.238 91.76C964.238 93.84 965.038 94.88 966.638 94.88C967.838 94.88 969.158 94.12 970.598 92.6C972.038 91 973.438 89.08 974.798 86.84C976.238 84.52 977.518 82.28 978.638 80.12C979.838 77.88 980.758 76.12 981.398 74.84C981.718 74.04 982.158 73.64 982.718 73.64C983.038 73.64 983.198 73.92 983.198 74.48C983.198 74.8 983.078 75.28 982.838 75.92C981.958 77.76 980.918 79.84 979.718 82.16C978.518 84.48 977.158 86.76 975.638 89C974.198 91.24 972.598 93.2 970.838 94.88C969.158 96.48 967.318 97.52 965.318 98C965.078 98.08 964.638 98.12 963.998 98.12ZM1023.73 98.36C1022.85 98.44 1021.85 98.24 1020.73 97.76C1019.61 97.28 1018.61 96.4 1017.73 95.12C1016.93 93.84 1016.53 92.04 1016.53 89.72C1016.53 87.8 1016.89 85.48 1017.61 82.76C1016.65 84.28 1015.41 86.16 1013.89 88.4C1012.37 90.56 1010.73 92.48 1008.97 94.16C1007.45 95.6 1006.01 96.64 1004.65 97.28C1003.29 97.92 1002.05 98.24 1000.93 98.24C998.847 98.24 997.167 97.32 995.887 95.48C994.607 93.56 993.967 91.08 993.967 88.04C993.967 84.84 994.767 81.2 996.367 77.12C997.967 73.04 1000.57 68.8 1004.17 64.4C1006.49 61.6 1009.29 59.36 1012.57 57.68C1015.93 55.92 1019.21 55.04 1022.41 55.04C1024.25 55.04 1026.01 55.36 1027.69 56C1029.37 56.56 1030.85 57.52 1032.13 58.88C1032.69 59.44 1032.97 60.08 1032.97 60.8C1032.97 61.28 1032.77 61.68 1032.37 62C1031.97 62.32 1031.45 62.4 1030.81 62.24C1029.93 59.44 1028.05 58.04 1025.17 58.04C1023.81 58.04 1022.25 58.48 1020.49 59.36C1017.77 60.8 1014.93 63.16 1011.97 66.44C1009.09 69.72 1006.57 73.12 1004.41 76.64C1004.09 77.12 1003.57 78.04 1002.85 79.4C1002.21 80.76 1001.57 82.28 1000.93 83.96C1000.29 85.64 999.847 87.28 999.607 88.88C999.527 89.36 999.487 89.72 999.487 89.96C999.487 90.12 999.487 90.4 999.487 90.8C999.487 93.44 1000.49 94.76 1002.49 94.76C1004.89 94.76 1007.61 93 1010.65 89.48C1012.73 86.92 1014.61 84.24 1016.29 81.44C1017.97 78.64 1019.69 75.64 1021.45 72.44C1022.65 70.28 1023.77 68.48 1024.81 67.04C1025.85 65.6 1027.33 64.88 1029.25 64.88C1030.13 64.88 1031.01 65 1031.89 65.24C1032.77 65.48 1033.69 65.52 1034.65 65.36C1034.01 66 1033.13 67.2 1032.01 68.96C1030.97 70.72 1029.85 72.72 1028.65 74.96C1027.45 77.2 1026.37 79.48 1025.41 81.8C1024.45 84.12 1023.77 86.12 1023.37 87.8C1023.29 88.28 1023.17 88.96 1023.01 89.84C1022.93 90.72 1022.89 91.36 1022.89 91.76C1022.89 94 1023.53 95.12 1024.81 95.12C1026.09 95.12 1027.45 94.36 1028.89 92.84C1030.41 91.32 1031.89 89.44 1033.33 87.2C1034.77 84.96 1036.09 82.72 1037.29 80.48C1038.49 78.16 1039.45 76.28 1040.17 74.84C1040.49 74.04 1040.97 73.64 1041.61 73.64C1042.01 73.64 1042.21 73.92 1042.21 74.48C1042.21 74.72 1042.09 75.16 1041.85 75.8C1040.89 77.8 1039.73 80.08 1038.37 82.64C1037.01 85.12 1035.53 87.56 1033.93 89.96C1032.33 92.28 1030.65 94.24 1028.89 95.84C1027.21 97.36 1025.49 98.2 1023.73 98.36Z" fill="#FFF2E4"/>
</svg>
