<svg width="571" height="130" viewBox="0 0 571 130" fill="none" xmlns="http://www.w3.org/2000/svg">
<path d="M39.562 109.36C36.602 109.36 33.562 109.04 30.442 108.4C27.402 107.76 24.362 106.8 21.322 105.52C16.362 103.36 12.362 100.52 9.32203 97C6.28203 93.56 4.08203 89.64 2.72203 85.24C1.36203 80.84 0.682025 76.24 0.682025 71.44C0.682025 66.4 1.28203 61.36 2.48203 56.32C3.76203 51.28 5.52203 46.48 7.76203 41.92C10.002 37.28 12.522 33.16 15.322 29.56C14.762 27.48 14.282 25.08 13.882 22.36C13.562 19.64 13.402 16.88 13.402 14.08C13.402 9.84 13.882 5.8 14.842 1.95999C15.162 0.839993 15.722 0.279994 16.522 0.279994C17.082 0.279994 17.362 0.679993 17.362 1.47999C17.362 1.96 17.322 2.32 17.242 2.55999C17.082 3.76 16.922 5 16.762 6.27999C16.682 7.56 16.642 8.88 16.642 10.24C16.642 12.96 16.802 15.64 17.122 18.28C17.442 20.92 17.802 23.36 18.202 25.6C24.042 18 30.722 12.36 38.242 8.67999C45.842 4.91999 53.802 3.03999 62.122 3.03999C64.282 3.03999 66.362 3.15999 68.362 3.4C74.762 4.12 80.002 5.72 84.082 8.2C88.162 10.6 91.162 13.56 93.082 17.08C95.082 20.6 96.082 24.32 96.082 28.24C96.082 32.08 95.202 35.88 93.442 39.64C91.682 43.4 89.122 46.84 85.762 49.96C82.402 53 78.282 55.48 73.402 57.4C68.602 59.24 63.162 60.16 57.082 60.16C55.722 60.16 54.362 60.12 53.002 60.04C51.642 59.96 50.162 59.8 48.562 59.56C42.242 58.6 36.482 56.56 31.282 53.44C26.082 50.32 21.882 45.52 18.682 39.04C18.042 39.84 17.162 41.48 16.042 43.96C14.922 46.36 13.802 49.28 12.682 52.72C11.562 56.16 10.602 59.92 9.80203 64C9.00203 68 8.60203 72.04 8.60203 76.12C8.60203 80.04 9.12203 83.84 10.162 87.52C11.202 91.12 13.002 94.28 15.562 97C18.122 99.8 21.602 101.88 26.002 103.24C28.162 103.88 30.402 104.36 32.722 104.68C35.042 105 37.402 105.16 39.802 105.16C44.442 105.16 49.042 104.56 53.602 103.36C58.162 102.16 62.402 100.4 66.322 98.08C71.522 95.04 75.522 91.52 78.322 87.52C81.122 83.44 83.722 78.88 86.122 73.84C86.442 73.04 86.882 72.64 87.442 72.64C87.842 72.64 88.042 72.92 88.042 73.48C88.042 73.88 87.882 74.36 87.562 74.92C85.882 78.44 84.202 81.68 82.522 84.64C80.842 87.52 78.882 90.2 76.642 92.68C74.402 95.16 71.562 97.6 68.122 100C64.202 102.72 59.802 104.96 54.922 106.72C50.042 108.48 44.922 109.36 39.562 109.36ZM56.362 57.04C61.882 57.04 66.762 56.24 71.002 54.64C75.242 52.96 78.802 50.8 81.682 48.16C84.642 45.44 86.842 42.44 88.282 39.16C89.802 35.88 90.562 32.56 90.562 29.2C90.562 25.92 89.802 22.8 88.282 19.84C86.762 16.88 84.442 14.36 81.322 12.28C78.282 10.12 74.362 8.71999 69.562 8.07999C67.802 7.84 66.042 7.72 64.282 7.72C58.842 7.72 53.482 8.88 48.202 11.2C43.002 13.44 38.082 16.64 33.442 20.8C28.802 24.88 24.682 29.68 21.082 35.2C23.882 42.16 27.802 47.28 32.842 50.56C37.962 53.84 43.802 55.88 50.362 56.68C52.442 56.92 54.442 57.04 56.362 57.04ZM128.586 97.36C127.706 97.44 126.706 97.24 125.586 96.76C124.466 96.28 123.466 95.4 122.586 94.12C121.786 92.84 121.386 91.04 121.386 88.72C121.386 86.8 121.746 84.48 122.466 81.76C121.506 83.28 120.266 85.16 118.746 87.4C117.226 89.56 115.586 91.48 113.826 93.16C112.306 94.6 110.866 95.64 109.506 96.28C108.146 96.92 106.906 97.24 105.786 97.24C103.706 97.24 102.026 96.32 100.746 94.48C99.4661 92.56 98.8261 90.08 98.8261 87.04C98.8261 83.84 99.6261 80.2 101.226 76.12C102.826 72.04 105.426 67.8 109.026 63.4C111.346 60.6 114.146 58.36 117.426 56.68C120.786 54.92 124.066 54.04 127.266 54.04C129.106 54.04 130.866 54.36 132.546 55C134.226 55.56 135.706 56.52 136.986 57.88C137.546 58.44 137.826 59.08 137.826 59.8C137.826 60.28 137.626 60.68 137.226 61C136.826 61.32 136.306 61.4 135.666 61.24C134.786 58.44 132.906 57.04 130.026 57.04C128.666 57.04 127.106 57.48 125.346 58.36C122.626 59.8 119.786 62.16 116.826 65.44C113.946 68.72 111.426 72.12 109.266 75.64C108.946 76.12 108.426 77.04 107.706 78.4C107.066 79.76 106.426 81.28 105.786 82.96C105.146 84.64 104.706 86.28 104.466 87.88C104.386 88.36 104.346 88.72 104.346 88.96C104.346 89.12 104.346 89.4 104.346 89.8C104.346 92.44 105.346 93.76 107.346 93.76C109.746 93.76 112.466 92 115.506 88.48C117.586 85.92 119.466 83.24 121.146 80.44C122.826 77.64 124.546 74.64 126.306 71.44C127.506 69.28 128.626 67.48 129.666 66.04C130.706 64.6 132.186 63.88 134.106 63.88C134.986 63.88 135.866 64 136.746 64.24C137.626 64.48 138.546 64.52 139.506 64.36C138.866 65 137.986 66.2 136.866 67.96C135.826 69.72 134.706 71.72 133.506 73.96C132.306 76.2 131.226 78.48 130.266 80.8C129.306 83.12 128.626 85.12 128.226 86.8C128.146 87.28 128.026 87.96 127.866 88.84C127.786 89.72 127.746 90.36 127.746 90.76C127.746 93 128.386 94.12 129.666 94.12C130.946 94.12 132.306 93.36 133.746 91.84C135.266 90.32 136.746 88.44 138.186 86.2C139.626 83.96 140.946 81.72 142.146 79.48C143.346 77.16 144.306 75.28 145.026 73.84C145.346 73.04 145.826 72.64 146.466 72.64C146.866 72.64 147.066 72.92 147.066 73.48C147.066 73.72 146.946 74.16 146.706 74.8C145.746 76.8 144.586 79.08 143.226 81.64C141.866 84.12 140.386 86.56 138.786 88.96C137.186 91.28 135.506 93.24 133.746 94.84C132.066 96.36 130.346 97.2 128.586 97.36ZM175.934 97.12C174.414 97.12 172.894 96.52 171.374 95.32C169.854 94.04 169.094 92 169.094 89.2C169.094 87.04 169.614 84.56 170.654 81.76C171.614 79.04 172.894 76.4 174.494 73.84C176.174 71.28 177.374 69.2 178.094 67.6C178.334 66.96 178.454 66.4 178.454 65.92C178.454 64.48 177.534 63.44 175.694 62.8C173.934 62.16 171.614 61.8 168.734 61.72L167.294 65.68C166.414 68.24 165.174 71.24 163.574 74.68C162.054 78.12 160.334 81.44 158.414 84.64C156.574 87.84 154.654 90.4 152.654 92.32C152.494 92.48 152.294 92.56 152.054 92.56C151.734 92.56 151.534 92.36 151.454 91.96C151.294 91.56 151.454 91.08 151.934 90.52C155.054 86.36 157.854 81.76 160.334 76.72C162.814 71.6 164.894 66.4 166.574 61.12C168.334 55.84 169.614 50.96 170.414 46.48C170.654 45.2 171.094 44.28 171.734 43.72C172.374 43.08 173.054 42.76 173.774 42.76C174.814 42.76 175.774 43.28 176.654 44.32C177.534 45.28 177.974 46.68 177.974 48.52C177.974 48.84 177.934 49.2 177.854 49.6C177.854 50 177.814 50.4 177.734 50.8C177.414 52.48 176.454 54.08 174.854 55.6C173.334 57.04 172.094 58.12 171.134 58.84C171.934 58.92 172.774 59 173.654 59.08C174.534 59.08 175.494 59.08 176.534 59.08C180.294 59.08 184.014 58.84 187.694 58.36C187.854 58.84 187.934 59.2 187.934 59.44C187.934 60.48 187.614 61.8 186.974 63.4C186.414 65 185.814 66.44 185.174 67.72C184.854 68.44 184.214 69.76 183.254 71.68C182.294 73.52 181.254 75.64 180.134 78.04C179.014 80.36 178.054 82.68 177.254 85C176.534 87.24 176.174 89.16 176.174 90.76C176.174 92.84 176.974 93.88 178.574 93.88C179.774 93.88 181.094 93.12 182.534 91.6C183.974 90 185.374 88.08 186.734 85.84C188.174 83.52 189.454 81.28 190.574 79.12C191.774 76.88 192.694 75.12 193.334 73.84C193.654 73.04 194.094 72.64 194.654 72.64C194.974 72.64 195.134 72.92 195.134 73.48C195.134 73.8 195.014 74.28 194.774 74.92C193.894 76.76 192.854 78.84 191.654 81.16C190.454 83.48 189.094 85.76 187.574 88C186.134 90.24 184.534 92.2 182.774 93.88C181.094 95.48 179.254 96.52 177.254 97C177.014 97.08 176.574 97.12 175.934 97.12ZM191.503 129.76C190.543 129.76 189.583 129.6 188.623 129.28C187.583 129.04 186.543 129 185.503 129.16C185.983 128.68 186.903 127.28 188.263 124.96C189.623 122.72 191.223 119.92 193.063 116.56C194.823 113.2 196.703 109.56 198.703 105.64C200.703 101.72 202.583 97.88 204.343 94.12C206.103 90.28 207.583 86.8 208.783 83.68C210.063 80.48 210.863 77.96 211.183 76.12C210.463 77.16 209.743 77.76 209.023 77.92C208.383 78 208.223 77.76 208.543 77.2C208.703 76.88 209.023 76.12 209.503 74.92C210.063 73.64 210.543 72.56 210.943 71.68C211.583 70.08 212.103 68.32 212.503 66.4C212.983 64.48 213.223 62.64 213.223 60.88C213.223 59.76 213.103 58.8 212.863 58C212.623 57.2 212.183 56.76 211.543 56.68C211.543 56.68 211.983 56.6 212.863 56.44C213.743 56.28 214.663 56.12 215.623 55.96C216.583 55.8 217.223 55.72 217.543 55.72C218.023 55.64 218.463 55.6 218.863 55.6C219.263 55.52 219.623 55.48 219.943 55.48C220.663 55.48 221.143 55.76 221.383 56.32C221.703 56.8 221.863 57.84 221.863 59.44C221.863 61.44 221.503 64 220.783 67.12C220.143 70.16 219.383 72.84 218.503 75.16C219.383 73.72 220.503 71.88 221.863 69.64C223.303 67.4 224.943 65.12 226.783 62.8C228.623 60.48 230.543 58.56 232.543 57.04C234.543 55.44 236.503 54.64 238.423 54.64C238.823 54.64 239.343 54.72 239.983 54.88C242.223 55.44 243.783 56.56 244.663 58.24C245.623 59.84 246.103 61.76 246.103 64C246.103 66.4 245.623 69.04 244.663 71.92C243.783 74.8 242.583 77.64 241.063 80.44C239.543 83.16 237.863 85.64 236.023 87.88C233.783 90.68 231.103 92.92 227.983 94.6C224.863 96.28 221.663 97.12 218.383 97.12C215.423 97.12 212.663 96.36 210.103 94.84L198.703 123.52C197.583 125.92 196.503 127.56 195.463 128.44C194.423 129.32 193.103 129.76 191.503 129.76ZM214.543 94.6C216.783 94.6 219.303 93.56 222.103 91.48C224.903 89.4 227.583 86.76 230.143 83.56C232.783 80.28 234.983 77 236.743 73.72C237.943 71.48 238.823 69.44 239.383 67.6C239.943 65.68 240.223 64.04 240.223 62.68C240.223 59.56 239.103 58 236.863 58C235.823 58 234.463 58.56 232.783 59.68C231.183 60.8 229.303 62.84 227.143 65.8C224.823 69 222.263 73.04 219.463 77.92C216.743 82.72 213.943 87.8 211.063 93.16C212.023 94.12 213.183 94.6 214.543 94.6ZM275.61 97.48C272.65 97.48 269.97 96.52 267.57 94.6C265.25 92.68 264.09 89.76 264.09 85.84C264.09 82.24 264.97 78.4 266.73 74.32C268.49 70.16 270.73 66.52 273.45 63.4C275.77 60.68 278.37 58.44 281.25 56.68C284.13 54.92 286.85 54.04 289.41 54.04C291.17 54.04 292.69 54.52 293.97 55.48C295.33 56.52 296.01 58 296.01 59.92C296.01 61.92 295.25 64.12 293.73 66.52C292.21 68.92 290.05 71.16 287.25 73.24C286.05 74.12 284.53 74.96 282.69 75.76C280.85 76.56 279.01 77.24 277.17 77.8C275.33 78.28 273.81 78.52 272.61 78.52C272.21 79.48 271.81 80.76 271.41 82.36C271.09 83.96 270.93 85.6 270.93 87.28C270.93 89.28 271.33 91.08 272.13 92.68C272.93 94.28 274.41 95.08 276.57 95.08C279.21 95.08 281.61 94.32 283.77 92.8C285.93 91.28 287.85 89.4 289.53 87.16C291.21 84.84 292.61 82.52 293.73 80.2C294.93 77.88 295.89 75.92 296.61 74.32C297.09 73.2 297.73 72.64 298.53 72.64C298.93 72.64 299.13 72.84 299.13 73.24C299.13 73.56 299.01 73.96 298.77 74.44C297.65 76.84 296.45 79.4 295.17 82.12C293.89 84.76 292.37 87.28 290.61 89.68C288.85 92 286.73 93.88 284.25 95.32C281.85 96.76 278.97 97.48 275.61 97.48ZM273.45 76.36C274.57 76.36 276.45 75.96 279.09 75.16C281.73 74.28 284.13 72.92 286.29 71.08C288.37 69.24 289.97 67.24 291.09 65.08C292.21 62.84 292.77 60.96 292.77 59.44C292.77 57.68 292.13 56.8 290.85 56.8C289.89 56.8 288.57 57.44 286.89 58.72C285.21 60 283.13 62.16 280.65 65.2C279.13 67.12 277.69 69.2 276.33 71.44C274.97 73.68 274.01 75.32 273.45 76.36ZM388.147 97C385.987 97 384.187 95.92 382.747 93.76C382.347 93.12 381.987 92.28 381.667 91.24C381.347 90.2 381.187 89.04 381.187 87.76C381.187 87.04 381.227 86.32 381.307 85.6C381.387 84.8 381.547 84 381.787 83.2C380.667 84.96 379.347 86.92 377.827 89.08C376.387 91.16 374.707 93 372.787 94.6C370.947 96.12 368.867 96.88 366.547 96.88C365.747 96.88 364.907 96.76 364.027 96.52C361.867 95.88 360.307 94.76 359.347 93.16C358.467 91.56 358.027 89.64 358.027 87.4C358.027 84.92 358.507 82.2 359.467 79.24C360.507 76.28 361.787 73.4 363.307 70.6C364.907 67.8 366.547 65.4 368.227 63.4C370.627 60.6 373.387 58.36 376.507 56.68C379.627 55 382.787 54.16 385.987 54.16C388.867 54.16 391.587 54.92 394.147 56.44C395.347 54.2 396.627 51.72 397.987 49C399.347 46.2 400.707 43.44 402.067 40.72C403.427 38 404.627 35.52 405.667 33.28C406.707 30.96 407.507 29.2 408.067 28C409.267 25.2 410.387 23.44 411.427 22.72C412.547 21.92 413.867 21.52 415.387 21.52C416.267 21.52 417.227 21.64 418.267 21.88C419.387 22.04 420.467 22.08 421.507 22C421.027 22.48 420.027 23.88 418.507 26.2C417.067 28.44 415.347 31.32 413.347 34.84C411.347 38.36 409.187 42.24 406.867 46.48C404.627 50.64 402.387 54.88 400.147 59.2C397.987 63.44 395.947 67.48 394.027 71.32C392.187 75.08 390.707 78.32 389.587 81.04C389.267 81.68 388.787 83 388.147 85C387.587 86.92 387.307 88.6 387.307 90.04C387.307 91.08 387.547 92 388.027 92.8C388.507 93.52 389.307 93.88 390.427 93.88C391.947 93.88 393.467 93.12 394.987 91.6C396.587 90 398.107 88.08 399.547 85.84C400.987 83.52 402.267 81.28 403.387 79.12C404.507 76.88 405.347 75.12 405.907 73.84C406.307 72.96 406.787 72.52 407.347 72.52C407.827 72.52 408.067 72.88 408.067 73.6C408.067 73.68 408.067 73.84 408.067 74.08C408.067 74.24 407.987 74.44 407.827 74.68C407.107 76.36 406.107 78.44 404.827 80.92C403.627 83.4 402.187 85.88 400.507 88.36C398.827 90.84 396.947 92.92 394.867 94.6C392.787 96.2 390.547 97 388.147 97ZM367.387 93.4C368.507 93.4 369.907 92.8 371.587 91.6C373.267 90.32 375.067 88.32 376.987 85.6C379.227 82.4 381.787 78.4 384.667 73.6C387.547 68.8 390.387 63.72 393.187 58.36C392.147 57.4 390.947 56.92 389.587 56.92C387.347 56.92 384.827 57.96 382.027 60.04C379.307 62.12 376.627 64.76 373.987 67.96C371.427 71.16 369.267 74.4 367.507 77.68C366.307 79.92 365.427 81.96 364.867 83.8C364.387 85.64 364.147 87.24 364.147 88.6C364.147 91.8 365.227 93.4 367.387 93.4ZM436.164 48.28C434.964 48.28 433.964 47.88 433.164 47.08C432.444 46.2 432.084 45.16 432.084 43.96C432.084 42.44 432.684 41.12 433.884 40C435.084 38.88 436.404 38.32 437.844 38.32C439.124 38.32 440.164 38.72 440.964 39.52C441.764 40.32 442.164 41.28 442.164 42.4C442.164 43.92 441.564 45.28 440.364 46.48C439.164 47.68 437.764 48.28 436.164 48.28ZM426.444 97C423.484 97 421.404 96.16 420.204 94.48C419.004 92.72 418.404 90.72 418.404 88.48C418.404 87.28 418.524 86.08 418.764 84.88C419.084 83.6 419.444 82.44 419.844 81.4L427.884 60.88C428.124 60.24 428.244 59.68 428.244 59.2C428.244 58.4 428.044 57.72 427.644 57.16C427.244 56.52 426.964 56.08 426.804 55.84L433.404 55.6C434.604 55.52 435.444 55.68 435.924 56.08C436.484 56.4 436.764 56.8 436.764 57.28C436.764 57.76 436.484 58.64 435.924 59.92L425.964 83.32C425.964 83.32 425.724 83.84 425.244 84.88C424.844 85.84 424.604 86.48 424.524 86.8C424.284 88 424.124 88.76 424.044 89.08C423.964 89.4 423.924 89.6 423.924 89.68C423.924 89.76 423.924 90.08 423.924 90.64C423.924 91.68 424.164 92.56 424.644 93.28C425.204 94 426.124 94.36 427.404 94.36C428.204 94.36 429.124 94.12 430.164 93.64C431.204 93.16 431.964 92.68 432.444 92.2C434.444 90.12 436.404 87.4 438.324 84.04C440.324 80.6 442.164 77.2 443.844 73.84C444.164 73.04 444.564 72.64 445.044 72.64C445.444 72.64 445.644 72.92 445.644 73.48C445.644 73.8 445.524 74.28 445.284 74.92C444.484 76.6 443.484 78.68 442.284 81.16C441.084 83.64 439.644 86.12 437.964 88.6C436.364 91 434.604 93 432.684 94.6C430.764 96.2 428.684 97 426.444 97ZM469.138 97.48C466.178 97.48 463.498 96.52 461.098 94.6C458.778 92.68 457.618 89.76 457.618 85.84C457.618 82.24 458.498 78.4 460.258 74.32C462.018 70.16 464.258 66.52 466.978 63.4C469.298 60.68 471.898 58.44 474.778 56.68C477.658 54.92 480.378 54.04 482.938 54.04C484.698 54.04 486.218 54.52 487.498 55.48C488.858 56.52 489.538 58 489.538 59.92C489.538 61.92 488.778 64.12 487.258 66.52C485.738 68.92 483.578 71.16 480.778 73.24C479.578 74.12 478.058 74.96 476.218 75.76C474.378 76.56 472.538 77.24 470.698 77.8C468.858 78.28 467.338 78.52 466.138 78.52C465.738 79.48 465.338 80.76 464.938 82.36C464.618 83.96 464.458 85.6 464.458 87.28C464.458 89.28 464.858 91.08 465.658 92.68C466.458 94.28 467.938 95.08 470.098 95.08C472.738 95.08 475.138 94.32 477.298 92.8C479.458 91.28 481.378 89.4 483.058 87.16C484.738 84.84 486.138 82.52 487.258 80.2C488.458 77.88 489.418 75.92 490.138 74.32C490.618 73.2 491.258 72.64 492.058 72.64C492.458 72.64 492.658 72.84 492.658 73.24C492.658 73.56 492.538 73.96 492.298 74.44C491.178 76.84 489.978 79.4 488.698 82.12C487.418 84.76 485.898 87.28 484.138 89.68C482.378 92 480.258 93.88 477.778 95.32C475.378 96.76 472.498 97.48 469.138 97.48ZM466.978 76.36C468.098 76.36 469.978 75.96 472.618 75.16C475.258 74.28 477.658 72.92 479.818 71.08C481.898 69.24 483.498 67.24 484.618 65.08C485.738 62.84 486.298 60.96 486.298 59.44C486.298 57.68 485.658 56.8 484.378 56.8C483.418 56.8 482.098 57.44 480.418 58.72C478.738 60 476.658 62.16 474.178 65.2C472.658 67.12 471.218 69.2 469.858 71.44C468.498 73.68 467.538 75.32 466.978 76.36ZM495.903 97.6C498.863 91.92 501.663 86.24 504.303 80.56C506.943 74.8 509.623 69.36 512.343 64.24C513.943 61.36 515.263 59.36 516.303 58.24C517.423 57.04 518.903 56.44 520.743 56.44C521.383 56.44 522.063 56.56 522.783 56.8C523.503 56.96 524.223 57.04 524.943 57.04C525.423 57.04 525.783 57 526.023 56.92C524.903 57.56 523.463 59.16 521.703 61.72C519.943 64.2 518.143 67.08 516.303 70.36C514.463 73.64 512.823 76.72 511.383 79.6C512.903 77.76 514.463 75.92 516.063 74.08C517.743 72.24 519.583 70.48 521.583 68.8C523.343 67.28 525.183 65.64 527.103 63.88C529.103 62.04 531.063 60.48 532.983 59.2C534.903 57.92 536.583 57.28 538.023 57.28C538.583 57.28 538.943 57.32 539.103 57.4C540.623 58.04 541.383 59.08 541.383 60.52C541.383 61 541.183 61.72 540.783 62.68C539.743 65.4 538.383 68.2 536.703 71.08C535.103 73.88 533.583 76.72 532.143 79.6C533.343 78.16 534.823 76.4 536.583 74.32C538.423 72.24 540.263 70.4 542.103 68.8C543.863 67.2 546.103 65.52 548.823 63.76C551.543 62 554.223 60.48 556.863 59.2C559.503 57.92 561.623 57.28 563.223 57.28C563.783 57.28 564.183 57.32 564.423 57.4C564.423 57.4 563.983 58.2 563.103 59.8C562.223 61.32 561.103 63.36 559.743 65.92C558.463 68.4 557.143 71.08 555.783 73.96C554.423 76.76 553.183 79.48 552.063 82.12C551.023 84.68 550.343 86.84 550.023 88.6C549.783 89.64 549.663 90.6 549.663 91.48C549.663 92.76 549.903 93.6 550.383 94C550.863 94.4 551.383 94.6 551.943 94.6C553.543 94.6 555.183 93.76 556.863 92.08C558.543 90.4 560.143 88.4 561.663 86.08C563.263 83.68 564.663 81.36 565.863 79.12C567.063 76.8 567.943 75.04 568.503 73.84C568.983 72.96 569.463 72.52 569.943 72.52C570.423 72.52 570.663 72.84 570.663 73.48C570.663 73.88 570.543 74.32 570.303 74.8C569.343 76.64 568.183 78.84 566.823 81.4C565.543 83.96 564.063 86.48 562.383 88.96C560.703 91.36 558.823 93.4 556.743 95.08C554.743 96.68 552.583 97.48 550.263 97.48C548.583 97.48 546.863 96.92 545.103 95.8C543.423 94.68 542.583 92.6 542.583 89.56C542.583 87.88 542.943 85.84 543.663 83.44C544.223 81.84 545.063 80 546.183 77.92C547.383 75.84 548.823 73.44 550.503 70.72C551.303 69.36 551.703 68.28 551.703 67.48C551.703 66.52 551.223 66.04 550.263 66.04C549.463 66.04 548.343 66.44 546.903 67.24C545.543 68.04 543.823 69.44 541.743 71.44C540.463 72.64 538.943 74.32 537.183 76.48C535.503 78.56 533.783 80.84 532.023 83.32C530.263 85.8 528.743 88.24 527.463 90.64C526.183 93.04 525.343 95.16 524.943 97C523.743 97 522.783 96.52 522.063 95.56C521.343 94.52 520.983 93.32 520.983 91.96C520.983 91.72 520.983 91.48 520.983 91.24C520.983 91 521.023 90.72 521.103 90.4C521.503 87.92 522.143 85.6 523.023 83.44C523.903 81.28 524.903 79.04 526.023 76.72C526.903 75.04 527.783 73.24 528.663 71.32C529.543 69.32 529.983 67.8 529.983 66.76C529.983 66.12 529.743 65.8 529.263 65.8C528.703 65.8 527.783 66.24 526.503 67.12C525.223 67.92 523.463 69.36 521.223 71.44C519.223 73.36 516.783 76.12 513.903 79.72C511.103 83.32 508.023 88.44 504.663 95.08C504.183 95.96 503.623 96.52 502.983 96.76C502.343 96.92 501.343 97 499.983 97C499.103 97 498.383 97 497.823 97C497.183 97.08 496.543 97.28 495.903 97.6Z" fill="#FFF2E4"/>
</svg>
