<svg width="195" height="215" viewBox="0 0 195 215" fill="none" xmlns="http://www.w3.org/2000/svg">
<path d="M149.059 53.7653C166.827 74.3121 188.802 89.2315 193.828 109.778C198.854 130.325 186.815 156.5 169.164 177.57C151.397 198.64 128.019 214.737 104.408 214.999C80.796 215.13 56.9506 199.687 38.1314 178.617C19.3122 157.547 5.51922 130.849 5.40233 104.02C5.16855 77.1913 18.7277 50.1008 37.5469 29.6849C56.3661 9.26888 80.5623 -4.60352 99.2646 1.41658C117.967 7.43668 131.292 33.3493 149.059 53.7653Z" fill="#FFEDD8"/>
<path d="M26.8036 60.8899C29.0879 60.3618 29.0605 57.0711 30.9866 56.0915C32.286 57.6771 30.3235 58.4572 30.6943 59.7475C33.733 59.7361 35.3893 57.9077 36.2889 54.7793C37.3585 51.0594 38.4508 47.5583 37.4611 43.3961C36.4718 39.2365 38.5087 35.2283 41.8689 33.1619C41.4719 36.0767 39.0438 37.5385 38.7439 40.2507C38.4452 42.9512 39.0459 45.4858 38.9934 48.4181C42.0587 47.3869 42.2619 44.1802 43.638 42.0638C44.9092 42.5036 44.8081 43.4311 44.3246 44.3622C43.5722 45.8117 42.7963 47.2573 41.9107 48.6066C40.0026 51.5145 37.7926 54.1725 36.7376 57.7173C36.2404 59.3882 34.9767 60.3985 33.3966 60.7848C30.7087 61.4416 29.1784 63.5667 27.9096 66.079C26.6471 68.5795 25.0768 70.9259 24.737 73.8771C24.5499 75.5047 23.2313 76.0192 22.4382 77.0448C20.5453 79.4919 20.8197 84.649 23.0559 86.5365C23.8984 87.248 24.4633 86.4127 24.7699 85.6475C26.3777 81.6349 29.4971 78.3245 29.3323 73.4732C29.3272 73.3187 29.6893 73.149 30.1689 72.7404C30.9237 74.1295 30.5549 75.6237 30.6876 76.987C30.8223 78.3713 31.3637 78.8295 32.6924 78.6378C36.4487 78.0957 37.2673 77.2762 37.5261 73.2063C37.5793 72.3698 37.4607 71.5004 37.6259 70.6988C37.7504 70.0933 37.1929 68.618 38.008 68.992C39.5191 69.6855 38.9249 68.2618 38.9366 68.0054C38.9926 66.7571 40.2575 65.4892 38.4308 64.2072C37.5594 63.5955 38.9307 59.5983 40.1983 58.7311C42.0058 57.4951 43.9003 56.417 45.7716 55.3004C46.0903 55.1101 46.4872 54.9478 46.8329 54.9789C47.5262 55.0414 47.9807 55.5056 47.9666 56.34C47.9545 57.0659 47.5568 57.2741 46.9715 57.1109C46.1411 56.8803 45.5519 57.4631 44.8962 57.8468C41.5592 59.7987 39.0728 62.2423 40.8028 67.2511C41.926 67.5793 42.4341 66.0659 43.3749 65.6231C44.913 64.899 45.9446 63.6354 48.2532 64.4063C50.231 65.067 53.0708 63.5107 54.8513 61.0155C55.657 62.3604 55.1802 63.1296 54.3507 63.5321C51.835 64.7533 49.3274 66.0343 46.5244 66.2627C43.5483 66.5055 42.6044 67.3132 42.0293 70.5466C41.6085 72.9127 40.2845 74.7499 39.087 77.0264C42.4252 77.8293 45.2376 77.9386 47.733 75.394C48.3452 74.7696 48.7947 74.4222 48.3691 73.3774C47.6687 71.657 48.8631 71.1766 49.9828 70.8318C58.978 68.0627 67.211 63.3567 75.3504 58.4082C76.9997 57.4058 78.7054 56.5124 80.3148 55.4374C81.8107 54.4381 83.3457 53.4077 83.7975 51.2721C83.882 50.8735 83.994 50.2557 84.2317 50.1577C87.2982 48.8959 86.4694 45.2727 87.7899 42.9752C88.2882 42.108 87.8189 41.786 87.3146 41.3191C87.0613 41.0846 86.7669 40.3846 86.8354 40.3141C88.4072 38.6983 86.5442 36.7269 87.3742 34.8757C88.0879 33.2835 86.5493 31.0153 88.1598 29.382C86.6734 28.2803 88.2091 26.2966 87.7123 25.7343C86.5011 24.3631 87.5178 23.0567 87.3299 21.7944C86.6797 17.4252 88.1924 13.0876 87.9175 8.66851C87.8753 7.98596 88.1763 7.20195 88.9248 7.16738C89.6475 7.13413 89.9587 7.82543 90.1369 8.52986C90.2387 8.93326 90.4466 9.37469 90.3796 9.74834C89.9502 12.1582 90.8803 14.4159 90.9915 16.7681C91.0389 17.7748 92.0618 18.7584 90.6619 19.5547C90.2641 19.7809 90.2508 20.2412 90.7272 20.3825C92.5594 20.9268 91.1278 22.4647 91.4527 23.1761C92.1734 24.7543 89.7422 26.5014 91.8375 27.7291C90.0856 28.6711 92.0575 30.3661 91.1727 31.834C90.6419 32.7152 91.0647 34.9732 91.4272 36.4306C91.7779 37.8404 89.3265 39.3997 91.6891 40.4865C90.508 41.8219 91.4038 43.1922 91.4687 44.6212C91.5619 46.678 91.7804 48.1495 93.8423 48.5664C94.1203 48.6229 94.529 49.1676 94.5239 49.4791C94.4738 52.7846 96.9202 53.5498 98.8549 54.582C109.462 60.2423 120.135 65.7465 131.579 69.0503C132.296 69.2572 133.195 69.2257 133.371 70.2333C133.501 70.9776 132.873 71.4064 132.401 71.8828C127.147 77.1791 121.14 80.5669 113.985 81.1777C112.182 81.3317 110.394 81.7237 108.485 82.0243C109.093 83.2809 109.931 83.2271 110.627 83.1934C112.958 83.0809 114.509 83.7538 114.457 86.838C114.436 88.0731 115.345 88.7566 116.407 89.0685C118.107 89.5673 119.819 89.871 121.589 89.934C123.61 90.0062 125.561 89.7546 127.478 89.0699C128.886 91.2103 130.831 90.1904 132.61 90.1689C133.222 90.1615 133.904 90.0783 134.169 90.9236C134.352 91.5082 134.093 91.9995 133.755 92.434C132.28 94.3272 130.836 96.1565 128.561 97.0416C124.777 98.5135 121.001 99.9687 117.091 100.974C114.898 101.537 112.709 102.145 110.561 102.887C107.746 103.859 107.085 105.511 107.931 108.596C108.23 109.688 108.736 110.265 109.708 110.421C110.697 110.581 111.689 110.931 112.671 110.899C118.28 110.713 123.918 111.702 129.501 110.269C132.002 109.627 130.518 111.999 130.956 112.979C132.24 113.183 133.358 112.444 134.555 112.183C135.053 112.074 135.576 112.06 135.886 112.627C136.178 113.158 136.109 113.759 135.744 114.168C134.607 115.447 133.911 117.112 132.5 118.185C129.867 120.187 127.051 121.594 123.941 122.292C119.939 123.19 115.954 124.209 111.926 124.925C109.624 125.334 109.647 126.914 109.639 128.851C109.631 130.997 110.533 131.824 112.347 131.979C114.339 132.15 116.313 132.561 118.302 132.796C119.383 132.924 120.495 133.323 121.423 132.105C122.975 130.066 123.265 132.382 123.997 133.144C125.144 129.113 128.14 127.377 130.824 129.668C132.162 130.81 132.515 130.729 133.289 129.43C133.618 128.877 133.922 128.19 134.97 128.222C135.253 129.992 134.245 131.914 135.318 133.918C136.327 132.814 136.733 130.166 139.184 131.517C138.72 133.504 136.342 134.153 136.257 136.565C137.516 137.625 138.928 135.563 139.989 136.447C140.888 137.197 141.88 137.916 142.823 138.598C141.389 140.855 139.288 136.771 138.197 139.708C138.739 141.24 140.93 140.149 141.244 142.228C140.47 143.806 138.547 143.191 137.382 144.362C141.59 145.212 142.287 145.07 143.991 141.615C144.911 139.75 146.378 139.865 148.217 139.316C146.56 137.94 145.821 136.164 145.041 134.429C144.533 133.298 144.689 132.096 145.756 131.529C153.664 127.323 160.832 121.636 168.626 117.015C169.273 121.58 169.24 121.519 166.013 123.72C161.725 126.643 157.108 128.824 152.638 131.335C150.994 132.258 149.296 133.103 147.995 134.717C150.819 134.413 153.293 133.034 155.776 131.71C159.728 129.602 163.625 127.361 167.613 125.342C170.399 123.932 170.923 124.334 170.971 127.687C171.006 130.136 171.253 132.648 170.153 135.012C169.27 132.987 169.805 130.828 169.614 128.755C169.55 128.058 169.516 127.238 168.676 127.278C167.953 127.313 167.66 127.982 167.629 128.751C167.554 130.708 167.527 132.668 167.402 134.621C167.317 135.952 167.506 137.414 166.203 138.694C165.414 136.796 165.995 135.035 165.951 133.34C165.926 132.364 165.998 131.382 165.929 130.411C165.892 129.889 165.779 129.244 165.116 129.214C164.361 129.18 163.96 129.702 163.913 130.471C163.794 132.424 163.772 134.385 163.636 136.337C163.556 137.494 163.818 138.823 162.777 139.784C161.662 138.599 162.174 137.3 162.164 136.13C162.153 134.875 162.324 133.62 162.378 132.363C162.409 131.65 162.34 130.849 161.485 130.917C160.982 130.957 160.679 131.506 160.662 132.134C160.61 134.091 160.619 136.054 160.487 138.005C160.398 139.323 160.836 140.806 159.429 142.259C158.323 139.097 159.572 135.863 158.673 132.685C157.588 135.176 157.582 135.176 158.053 140.737C158.271 143.31 158.425 145.875 158.087 148.843C155.524 147.133 156.909 144.297 155.417 142.369C152.244 143.549 148.946 144.776 145.647 146.002C144.819 146.309 143.932 146.993 143.17 146.85C139.527 146.164 136.64 148.26 133.583 149.783C129.618 151.759 125.65 153.726 121.733 156.058C125.722 157.564 129.799 157.342 133.777 156.926C137.778 156.508 141.171 153.199 145.346 153.011C145.555 154.463 144.79 154.757 144.104 155.065C142.828 155.639 141.538 156.175 140.247 156.708C136.861 158.105 136.87 158.102 136.862 162.024C136.859 163.561 136.822 165.1 136.743 166.634C136.723 167.007 136.477 167.365 136.229 168.001C134.599 166.383 135.107 164.323 134.943 162.537C134.633 159.142 134.692 159.122 131.584 159.099C129.582 159.084 127.577 159.181 125.577 159.107C123.945 159.047 123.279 159.931 123.32 161.621C123.358 163.155 123.475 164.685 123.546 166.219C123.594 167.262 123.992 168.43 122.631 169.227C121.638 168.04 122.115 166.615 122.044 165.328C121.89 162.552 121.733 162.304 119.16 162.073C113.538 161.569 107.911 161.553 102.284 162.036C99.8199 162.248 97.3488 162.358 94.8594 162.516C94.8194 164.248 96.9758 163.686 96.8403 165.283C95.9794 165.159 55.0514 145.357 53.579 144.151C58.4248 145.204 62.1714 147.74 66.8786 148.987C64.2643 146.631 55.1607 141.677 51.8428 140.622C48.8092 138.543 45.4709 137.174 42.2646 135.498C41.8387 135.341 41.4128 135.185 40.9888 135.031C40.1283 133.966 39.043 133.425 37.7691 133.329C37.2062 132.594 36.4992 131.941 36.121 131.102C35.7553 130.29 36.4193 128.871 36.83 129.085C38.8532 130.144 39.3848 126.963 41.3246 127.435C42.6169 127.749 43.2312 126.058 42.2928 124.968C39.46 121.679 35.7997 119.802 32.1463 117.984C31.2192 117.523 30.8512 118.402 30.9197 119.404C31.6107 129.532 30.7549 139.705 31.6224 149.833C31.7536 151.363 32.1399 153.228 30.1719 154.278C29.4618 152.418 29.6818 150.572 29.6071 148.803C29.176 138.61 27.9773 128.465 28.2552 118.225C28.3848 113.446 26.3656 109.31 24.5123 105.176C24.2226 104.53 23.75 103.89 23.1291 103.871C19.612 103.768 17.002 100.781 13.6215 100.228C12.3914 100.026 11.2276 99.3666 10.2719 98.4259C9.5336 97.6992 8.55525 96.8955 9.12682 95.6284C9.84481 94.0358 10.8509 95.7439 12.1209 95.5002C11.2123 92.424 10.0405 89.5734 8.69577 86.8109C7.79926 84.9693 7.01317 82.9794 5.79564 81.431C3.38526 78.3661 4.32047 75.0409 4.26019 70.8236C5.8551 72.5172 5.46174 73.7896 5.47622 74.9258C5.49032 76.0332 5.14226 77.1712 5.58738 78.2384C5.96321 79.1388 6.4733 80.0506 7.48451 80.0226C8.45148 79.9959 7.81023 78.4891 8.8097 78.1211C8.37436 81.7613 10.3737 84.488 11.4534 87.5328C12.3714 90.1217 13.4648 92.7039 14.8754 94.9844C16.5325 97.6633 18.7997 99.6576 22.1559 99.627C22.5474 95.1016 19.7874 92.3036 17.5434 89.2383C16.834 88.2692 16.0068 87.3993 15.3585 86.3847C14.8323 85.5617 14.7169 84.6171 15.7935 83.4935C16.7984 87.0752 19.6135 88.8655 20.9837 92.4913C22.114 88.0193 20.6444 84.0238 17.6123 82.6797C14.8422 81.4516 13.0472 79.4184 12.2137 76.2078C11.5744 73.7467 10.5369 71.5669 8.34108 70.2981C6.37855 69.1644 6.60288 66.8245 5.87784 64.9147C7.92258 64.286 7.96766 66.7961 9.41929 67.0792C9.72387 63.6428 7.79618 60.4768 8.84028 56.9762C9.33551 59.2474 9.9333 61.4985 10.3009 63.795C10.8087 66.9693 11.1958 70.1445 13.071 72.7977C13.6324 73.5922 13.4629 74.6756 13.5987 75.636C14.0599 78.9004 15.7785 80.7787 18.8309 81.5728C19.4761 79.1874 18.9872 77.1358 17.9486 75.4596C16.5882 73.2636 15.9563 71.0415 16.1837 68.3896C16.3348 66.629 16.1192 65.0167 13.899 64.997C13.1924 64.9908 12.4047 63.5645 13.3908 63.4223C16.1716 63.022 15.1056 61.4941 14.5951 59.9474C14.4781 59.5922 14.4909 59.1835 14.3942 58.3916C16.2761 59.0111 16.9812 60.5022 17.0869 62.0708C17.3183 65.5045 19.1841 68.635 18.3079 72.3182C17.9677 73.748 19.2859 74.9713 20.3828 76.4117C21.9852 72.7137 22.0671 69.3648 20.6663 66.0755C19.5255 63.3969 19.713 60.6453 19.8011 57.8556C19.8206 57.2387 19.9092 56.7307 20.5575 56.6961C21.129 56.6655 21.499 56.9985 21.5777 57.6474C21.7624 59.1713 22.2526 60.756 22.04 62.2103C21.6317 65.004 22.7388 67.389 23.1272 70.1533C25.1743 63.5588 25.0525 60.1141 22.6378 54.2893C21.3655 51.2191 21.178 50.0405 21.6987 47.1996C23.2744 49.8247 22.9596 52.8236 24.3087 55.0572C25.7459 57.4364 25.4995 60.2869 25.6005 63.1134C26.9821 62.5538 26.7594 61.6206 26.8498 60.84L26.8036 60.8899ZM52.0029 83.049C50.0447 84.2702 48.0942 85.1347 45.8025 84.5826C44.8151 84.3445 43.6979 83.8418 42.9169 84.6643C40.6631 87.0392 36.5775 86.6258 35.8325 91.0103C34.146 89.7357 35.8192 88.1327 34.752 86.6774C31.9858 87.3167 29.068 87.9612 26.164 88.6734C24.4798 89.0865 23.6466 90.4638 23.4431 92.255C23.2066 94.335 23.3582 96.4474 23.7716 98.4732C24.1689 100.42 25.1684 100.638 26.2759 99.1269C27.1458 97.9403 27.8426 96.5967 28.6973 95.3943C29.9402 93.6464 31.1847 91.8818 32.854 90.5937C33.3383 90.2201 33.8394 90.375 34.1499 90.8904C34.483 91.4435 34.3566 91.9309 33.7608 92.2034C31.9717 93.022 30.8739 94.6186 29.6306 96.4597C31.6475 97.2587 33.3983 96.7664 35.066 96.5424C36.1579 96.3954 37.5895 95.88 37.2078 93.9028C40.4521 93.1476 43.5628 91.9339 46.5811 90.3343C44.4487 93.2732 41.3164 94.4169 38.3517 96.3639C40.425 98.3 42.5309 99.2253 44.9804 99.2371C46.2222 99.2433 47.4091 99.396 47.5356 101.517C41.2878 100.46 35.6124 96.6133 29.205 98.7156C31.9227 99.2118 34.3832 100.254 36.1688 102.531C38.2781 105.22 40.5703 107.432 43.8102 108.154C44.0741 108.212 44.2518 108.752 44.675 109.367C41.56 109.441 39.0928 108.681 37.1753 106.124C36.215 104.844 35.2437 103.505 34.0614 102.516C31.7645 100.593 29.2492 100.079 26.1013 101.775C28.9623 105.076 30.2182 108.8 30.5337 112.682C30.8074 116.051 32.3851 117.118 34.9082 117.839C40.3597 119.397 43.9743 123.979 47.8758 128.055C48.0532 128.24 48.1749 128.505 48.2881 128.752C48.8518 129.986 48.8252 130.678 47.3058 131.024C45.5042 131.434 43.8991 131.446 42.2971 130.353C41.6492 129.91 41.1309 130.398 40.7691 131.054C40.3001 131.904 40.7538 132.443 41.3575 132.703C44.3516 133.993 47.1797 136.108 50.6471 135.201C56.1354 133.765 61.7314 133.041 67.2905 132.079C68.6384 131.846 69.8289 131.558 69.7795 129.688C69.7337 127.958 70.4255 125.747 68.4175 124.918C66.4946 124.125 64.6839 122.433 62.3652 123.414C61.7779 123.663 61.1633 123.499 60.5561 123.201C56.732 121.32 52.9245 119.342 48.5645 119.798C48.1953 119.837 47.8131 119.777 47.442 119.721C46.4696 119.574 45.7187 119.179 46.0264 117.841C46.2124 117.034 45.7093 116.641 45.3824 116.053C44.4671 114.406 44.8406 113.612 46.5436 113.316C47.1551 113.21 47.7925 113.287 48.4177 113.278C55.457 113.182 62.3498 111.851 69.1977 110.166C70.1487 109.932 71.3329 109.813 71.502 108.431C71.6602 107.138 71.2961 105.94 70.1878 105.197C69.7592 104.909 69.3438 104.595 68.9319 104.278C63.9244 100.425 58.2514 98.9904 52.3031 98.5353C51.2062 98.4513 49.459 98.9925 49.1865 97.8996C48.7641 96.2064 48.0978 95.1239 46.8893 94.1242C46.295 93.6324 46.7694 92.7114 47.4177 92.5285C48.1185 92.3312 48.8996 92.4685 49.6446 92.4944C53.9204 92.6422 58.1195 91.9203 62.3127 91.1188C63.8978 90.8156 65.241 90.3238 65.1325 88.0346C65.0296 85.8487 66.3842 85.3198 67.9873 84.9076C69.5635 84.5025 71.358 84.6141 72.7642 83.1698C71.6285 82.1267 70.4564 82.2278 69.3763 81.9442C64.6358 80.6999 59.7614 79.8401 55.2295 77.957C52.7408 76.9231 50.4029 78.0935 48.1174 77.1664C45.8146 79.2451 43.0781 78.178 40.5295 78.5302C37.9304 78.8894 35.3243 79.4157 32.8047 80.2024C29.6748 81.1798 27.9288 83.9153 26.3366 87.1053C30.0119 87.1255 33.0291 84.87 36.2201 85.1614C38.6759 85.3854 40.1224 83.5701 42.0971 83.1068C44.1285 82.6303 46.2641 83.9398 48.3656 83.0831C49.0703 82.7957 49.7808 82.5253 50.4945 82.2667C50.9862 82.0882 51.4619 82.0532 52.0029 83.049ZM57.7346 96.8338C61.6553 98.0252 65.5573 99.1242 68.8313 101.821C71.0401 103.64 73.3569 104.022 75.9165 103.359C85.2139 100.949 94.5611 101.713 103.913 102.799C104.903 102.914 105.9 103.255 106.849 102.65C110.5 100.323 114.62 99.6791 118.591 98.4627C121.719 97.5041 124.999 96.8736 127.728 94.5985C124.32 94.6422 120.978 95.0885 117.624 95.2478C105.637 95.8161 93.9667 93.614 82.5005 89.8994C80.7329 89.3267 79.2042 89.1538 77.4718 90.1444C71.2926 93.677 64.7571 95.9526 57.7346 96.8338ZM121.757 76.8939C121.687 76.6213 121.618 76.3491 121.548 76.0765C120.303 76.0765 119.058 76.0739 117.813 76.077C105.054 76.105 92.6753 73.7861 80.8261 68.4018C79.396 67.7521 78.4917 68.2023 77.4335 69.0756C73.3464 72.4503 68.6674 74.3951 63.8485 75.9829C62.9023 76.2949 61.8774 76.3753 60.8674 77.4013C63.9993 78.4007 66.9303 79.4193 69.987 79.9754C71.3353 80.2208 73.0763 80.209 73.8976 81.1352C75.79 83.27 77.74 82.7781 79.7664 82.0847C83.9197 80.6631 88.1203 80.5936 92.3848 81.1291C95.6114 81.5347 98.8509 81.8174 102.083 82.1696C102.974 82.2667 103.821 82.2028 104.62 81.6843C107.638 79.7277 110.993 79.3361 114.378 79.1086C116.994 78.9331 119.467 78.2463 121.757 76.8939ZM57.9148 118.627C60.1333 120.163 62.1882 119.157 63.8191 120.459C67.5574 123.443 71.7271 123.236 76.0531 122.431C80.2158 121.657 84.3887 121.304 88.6915 121.549C95.3006 121.924 101.882 122.789 108.509 122.937C110.617 122.985 112.286 121.307 114.105 121.58C116.928 122.003 119.514 120.954 122.195 120.653C124.706 120.372 127.314 119.658 129.482 117.665C128.56 116.801 127.688 117.189 126.899 117.322C123.318 117.927 119.72 118.895 116.117 118.59C108.781 117.967 101.368 118.562 94.0999 116.97C89.2353 115.904 84.1401 115.713 79.8142 112.472C78.8221 111.729 77.9386 112.361 77.0123 112.832C73.2521 114.745 69.4319 116.266 65.2171 116.657C62.9802 116.865 60.4951 116.763 57.9148 118.627ZM127.67 70.9893C127.538 69.9913 127.143 69.8841 126.813 69.7564C116.057 65.5999 105.518 60.8789 95.4524 54.9001C94.4702 54.3169 93.3999 53.871 92.3261 53.5433C91.1849 53.1951 90.1447 53.4134 89.3378 54.6131C87.5284 57.303 85.4175 59.6836 83.1359 61.883C82.0276 62.9515 82.3326 63.8336 83.6143 64.3065C86.3395 65.312 88.9378 66.6832 91.7584 67.4349C99.7135 69.5552 107.879 69.5547 115.943 70.5278C119.751 70.9872 123.633 71.4807 127.67 70.9893ZM59.0637 140.83C58.9901 141.142 58.9165 141.455 58.8429 141.767C63.4593 144.207 68.0739 146.651 72.6938 149.082C73.3781 149.442 74.1756 149.834 74.7448 149.007C76.0363 147.132 77.8336 147.494 79.5624 147.469C84.1906 147.402 88.8187 147.344 93.4461 147.243C94.0486 147.23 95.0316 147.18 95.1851 146.81C96.2554 144.226 98.3636 143.032 100.291 141.519C101.327 140.705 100.947 139.434 99.6629 139.176C98.5597 138.955 97.419 138.982 96.3009 138.84C91.9652 138.288 87.5359 138.528 83.3329 136.845C80.9299 135.883 78.6115 135.526 76.2731 137.409C75.2133 138.263 73.7113 138.455 72.3916 138.876C68.0445 140.264 63.5298 140.362 59.0637 140.83ZM76.9884 149.988C76.611 152.752 77.4636 154.379 79.6771 155.251C80.9588 155.756 82.1415 156.592 83.3434 157.331C86.1452 159.054 88.8176 160.107 92.3339 160.062C98.0555 159.989 103.785 159.478 109.518 159.706C113.104 159.849 116.698 159.733 120.409 159.733C119.873 158.786 119.181 159.137 118.606 159.023C117.46 158.795 115.755 159.45 115.491 157.639C115.281 156.206 116.843 155.915 117.791 155.3C118.436 154.883 119.536 154.946 119.615 153.376C113.729 153.376 107.995 153.365 102.262 153.382C100.106 153.388 97.8946 153.605 97.2987 150.379C97.1523 149.586 96.5624 149.339 95.8808 149.313C89.5512 149.065 83.2444 149.366 76.9884 149.988ZM111.374 144.64C110.369 143.303 109.182 142.866 108.191 142.629C105.403 141.962 102.621 140.711 99.8986 143.606C98.0625 145.559 98.7359 147.153 99.1172 149.216C99.5208 151.4 100.805 151.298 102.199 151.301C109.452 151.319 116.704 151.35 123.957 151.335C124.818 151.333 125.717 151.213 126.53 150.914C127.945 150.394 128.214 149.242 127.112 148.076C125.272 146.128 122.845 144.679 120.515 144.758C118.714 144.819 117.53 143.66 116.057 143.565C113.979 143.431 114.345 146.362 112.983 147.267C112.683 147.467 112.257 147.488 111.889 147.489C110.829 147.491 110.746 149.103 109.809 149.373C108.946 147.119 110.502 146.116 111.374 144.64ZM81.4001 133.72C94.5736 137.885 107.979 137.403 121.417 136.342C108.269 132.18 94.8849 132.012 81.4001 133.72ZM53.3191 72.0875C55.1262 72.7985 56.8796 72.6795 58.5873 72.3081C64.2591 71.0738 69.5204 68.5121 74.733 65.8322C75.3954 65.4918 76.1608 64.9952 76.4947 64.3302C78.0775 61.1773 80.7369 59.3305 83.13 57.1477C83.4828 56.8261 83.9283 56.4708 83.7999 55.5752C73.9187 61.8047 64.0752 67.963 53.3191 72.0875ZM77.8786 133.539C76.9567 132.776 76.1792 132.847 75.4671 132.958C67.8417 134.15 60.1869 135.136 52.6387 136.883C52.3177 136.957 52.035 137.282 52.2472 137.766C62.1522 139.621 73.3534 137.845 77.8786 133.539ZM92.6619 125.73C93.6763 126.57 93.4594 127.961 93.8368 129.078C94.3042 130.46 95.2924 130.422 96.2938 130.22C97.2373 130.029 97.2753 129.152 97.2843 128.292C97.3203 124.876 96.5831 124.046 93.3588 123.892C92.2454 123.839 91.132 123.744 90.0182 123.738C87.2657 123.723 86.8033 124.337 87.1439 127.449C87.4368 130.127 88.0745 130.575 90.6016 130.496C92.8847 130.425 92.314 128.75 92.2807 127.292C92.2682 126.752 92.1867 126.172 92.6619 125.73ZM54.378 115.35C58.0321 116.023 61.5043 114.826 65.0449 114.54C69.3927 114.189 73.3766 112.731 77.0569 110.259C78.4005 109.356 79.2586 109.705 80.4053 110.585C84.2149 113.51 88.6555 113.815 93.0448 114.281C92.7633 113.909 92.4372 113.725 92.0915 113.629C87.9911 112.485 83.6922 111.943 80.4225 108.417C79.5244 107.448 78.6025 108.206 77.6942 108.745C73.905 110.995 69.8543 112.331 65.6176 113.08C61.8577 113.744 58.1234 114.586 54.378 115.35ZM102.33 128.216C101.509 127.588 101.716 126.464 101.302 125.66C100.662 124.415 99.634 124.321 98.7641 125.042C97.5799 126.023 98.4247 130.026 99.8751 130.303C101.834 130.677 103.833 130.796 105.819 130.98C106.444 131.039 107.165 130.984 107.535 130.37C108.286 129.125 108.067 127.68 107.888 126.314C107.728 125.096 106.791 124.998 105.891 124.86C103.032 124.419 102.809 124.609 102.33 128.216ZM127.104 113.238C115.946 113.471 104.856 112.328 93.7613 111.271C100.989 114.154 122.485 115.467 127.104 113.238ZM126.66 73.636C115.654 72.5465 104.648 71.4575 93.6423 70.3681C104.432 73.6272 115.408 74.5347 126.66 73.636ZM109.57 140.203C111.015 141.562 112.698 142.315 114.324 141.704C115.933 141.098 117.193 141.139 118.504 142.255C119.448 143.058 120.423 142.578 121.342 142.168C122.267 141.754 122.714 140.715 122.49 139.818C122.172 138.55 121.055 138.926 120.275 139.237C119.398 139.587 118.825 140.408 117.592 139.822C114.983 138.582 112.264 139.261 109.57 140.203ZM80.6962 128.328C80.6707 125.075 80.0898 123.989 78.3743 123.99C76.503 123.993 75.8354 124.823 75.8162 127.174C75.7924 130.073 76.5146 130.987 78.6467 130.991C80.3359 130.995 80.825 129.996 80.6962 128.328ZM67.1127 92.1689C70.3957 91.52 73.5887 90.4861 76.4599 88.6573C78.7136 87.2217 80.7682 87.0577 83.1676 88.0535C84.6157 88.6546 86.1542 89.4772 88.2377 88.8563C85.697 87.8133 83.4985 86.8962 81.2901 86.011C80.4817 85.6873 79.6575 85.2449 78.7974 85.8693C75.146 88.5199 71.0703 90.1799 67.1127 92.1689ZM81.6044 126.517C81.6823 127.336 81.6941 128.175 81.853 128.978C82.1686 130.572 83.2858 130.669 84.4618 130.577C85.7306 130.477 86.1601 129.585 86.0603 128.316C85.9628 127.08 85.8242 125.842 85.6066 124.626C85.4006 123.476 84.604 123.107 83.6484 123.204C82.7295 123.298 81.9658 123.714 81.7759 124.86C81.6859 125.401 81.6604 125.955 81.6044 126.517ZM74.9981 128.964C74.9981 127.712 75.0235 127.298 74.9934 126.888C74.9057 125.694 74.6085 124.705 73.2622 124.789C72.1163 124.86 71.3749 125.415 71.3979 126.794C71.416 127.891 71.4543 128.996 71.5948 130.079C71.7131 130.992 72.2314 131.568 73.1322 131.414C73.8631 131.29 74.6457 131.123 74.8657 130.167C75.0168 129.51 75.013 128.809 74.9981 128.964ZM113.568 90.7714C113.518 89.8412 113.209 89.4947 112.859 89.461C107.303 88.9276 101.744 88.4324 96.1865 87.9283C101.843 90.0464 107.678 90.3548 113.568 90.7714ZM93.7249 106.81C93.7358 105.082 93.266 103.956 91.6108 103.935C90.3142 103.919 89.3821 104.319 89.4439 106.037C89.505 107.744 90.3123 108.542 91.8199 108.589C93.0218 108.626 93.7491 108.143 93.7249 106.81ZM82.9014 105.583C82.8286 104.735 82.1419 104.443 81.3652 104.547C79.1549 104.841 76.9508 105.198 74.753 105.594C73.8972 105.748 73.382 106.417 73.7089 107.381C74.0965 108.524 74.9695 108.06 75.5818 107.711C77.5537 106.588 79.3964 104.955 81.7935 106.585C82.1955 106.858 82.7534 106.535 82.9014 105.583ZM95.9912 104.127C94.8105 104.196 94.5071 105.138 94.5728 106.371C94.6613 108.033 95.1174 109.313 96.919 109.319C97.9885 109.323 98.4728 108.854 98.4579 107.623C98.4313 105.47 97.5615 104.117 95.9912 104.127ZM155.948 139.118C154.307 137.626 152.639 138.067 151.158 138.482C149.73 138.883 150.184 140.694 149.058 142.302C151.945 141.467 154.068 140.97 155.948 139.118ZM102.776 107.785C102.819 105.464 102.246 104.591 100.724 104.6C99.6559 104.607 99.0024 105.14 99.159 106.362C99.354 107.883 99.5823 109.52 101.389 109.698C102.613 109.82 102.797 108.862 102.776 107.785ZM86.3535 103.915C85.0722 103.856 84.2943 104.365 84.1917 105.717C84.0516 107.565 85.2135 108.037 86.5085 108.231C87.3397 108.356 88.0146 107.975 87.9837 106.921C87.9441 105.561 87.9696 104.058 86.3535 103.915ZM90.1905 85.8238C90.8337 85.5079 92.0094 85.9713 91.9839 84.471C91.9667 83.4472 91.1352 83.2306 90.4207 83.0704C89.8268 82.9374 89.2071 82.8923 88.6003 82.9046C88.0858 82.9151 87.6654 83.2004 87.5429 83.8273C87.3918 84.6013 87.6764 85.2182 88.2961 85.4733C88.8544 85.703 89.4878 85.7043 90.1905 85.8238ZM105.688 92.1671C101.886 91.9807 98.2125 90.7386 94.0232 90.3549C97.8351 92.2774 100.45 92.6764 105.688 92.1671Z" fill="#701A1A"/>
<path d="M38.058 133.351C39.3445 133.447 40.4409 133.989 41.3095 135.055C38.3261 135.933 38.2545 135.945 38.6653 139.003C39.7063 146.763 39.3983 154.638 40.3611 162.404C40.5279 163.752 40.5626 165.197 39.613 166.336C38.3629 166.417 38.5135 165.336 38.4993 164.615C38.3218 155.655 37.0846 146.794 36.5327 137.871C36.4272 136.174 35.7242 134.095 38.058 133.351Z" fill="#701A1A"/>
<path d="M83.5568 190.258C82.0672 186.448 82.7684 182.374 82.1971 178.512C81.6065 174.521 82.7332 170.556 81.7916 166.341C83.4768 167.461 84.2513 168.803 84.3781 170.595C84.7967 176.523 84.6998 182.461 84.5838 188.397C84.5703 189.062 84.3402 189.757 83.5568 190.258Z" fill="#701A1A"/>
<path d="M58.9616 179.124C58.1959 170.551 57.2613 162.097 58.2801 153.557C59.4122 161.308 60.1124 169.092 60.3103 176.92C60.3312 177.753 60.0113 178.576 58.9616 179.124Z" fill="#701A1A"/>
<path d="M8.26271 89.3168C7.46847 90.0578 7.13899 91.4878 6.18313 91.2663C4.36051 90.8438 2.32224 91.4036 0.715223 90.0609C-0.219347 89.2801 -0.0916239 88.0288 0.275346 87.0288C0.624577 86.0771 1.5749 86.3011 2.25917 86.592C4.22173 87.4272 6.32656 87.9179 8.26271 89.3168Z" fill="#701A1A"/>
<path d="M42.2425 135.413C45.5253 137.142 48.9431 138.553 52.0491 140.698C51.9874 141.207 52.1269 142.226 51.5124 141.97C48.3583 140.658 45.233 139.224 42.491 136.961C42.0504 136.597 42.085 135.98 42.2425 135.413Z" fill="#701A1A"/>
<path d="M26.8861 61.138C25.513 56.7575 26.1591 52.2613 26.2959 47.7992C26.3165 47.1271 26.5422 46.2997 27.3362 46.3429C28.0651 46.3826 28.3408 47.0984 28.4145 47.8434C28.4558 48.2591 28.5934 48.8248 28.4121 49.0812C25.7859 52.7918 27.1407 57.1193 26.8405 61.1865C26.8389 61.1883 26.8861 61.138 26.8861 61.138Z" fill="#701A1A"/>
<path d="M10.7615 41.8052C12.4743 44.4558 14.014 47.2035 14.4585 50.8773C11.9029 48.9023 10.5521 45.7195 10.7615 41.8052Z" fill="#701A1A"/>
</svg>
