<svg width="195" height="215" viewBox="0 0 195 215" fill="none" xmlns="http://www.w3.org/2000/svg">
<path d="M50.7121 39.193C67.522 21.4916 84.4946 11.9951 107.614 8.92096C130.733 5.84682 159.974 9.0198 170.034 29.3517C179.945 49.5269 170.774 86.6674 159.764 112.81C148.755 138.953 136.032 154.08 116.207 173.839C96.232 193.442 69.1549 217.676 48.6092 207.667C28.1881 197.639 14.2731 153.192 15.7142 118.093C17.1553 82.9947 33.9021 56.8945 50.7121 39.193Z" fill="#FFEDD8"/>
<path d="M121.845 159.023C122.227 159.326 122.487 159.435 122.591 159.63C123.103 160.594 122.688 162.053 123.976 162.583C125.226 163.097 125.936 162.143 126.859 161.478C127.49 161.023 129.002 161.126 129.462 161.292C132.074 162.236 134.519 161.205 137.022 161.145C137.373 161.137 137.738 161.246 138.079 161.357C140.968 162.295 141.428 162.144 143.042 159.341C143.712 161.925 145.483 162.594 147.611 162.663C147.974 162.674 148.529 162.942 148.669 162.786C150.837 160.365 153.674 162.387 156.066 161.585C156.612 161.401 157.09 161.488 157.238 162.081C157.434 162.868 156.874 163.37 156.253 163.416C153.017 163.653 149.882 166.144 146.531 163.907C142.42 164.744 138.373 163.448 134.279 163.53C130.096 163.614 125.957 164.866 121.724 163.887C120.582 163.622 120.177 164.465 120.621 165.567C121.029 166.578 121.688 167.246 122.857 167.27C124.619 167.307 126.33 167.657 127.966 168.329C128.977 168.745 129.914 168.53 130.86 168.113C133.197 167.081 135.468 167.207 137.676 168.528C138.542 169.046 139.433 169.543 140.496 169.147C143.105 168.175 145.428 169.019 147.595 170.422C148.906 171.271 149.918 171.647 151.068 170.115C152.068 168.784 153.58 168.438 155.128 169.089C158.611 170.552 162.245 171.373 165.948 171.957C166.113 171.983 166.231 172.324 166.575 172.801C165.303 173.662 164.036 173.298 162.802 172.972C159.358 172.062 156.431 172.683 154.174 176.236C152.461 172.778 149.125 173.524 146.41 172.802C144.686 172.343 142.808 173.022 141.849 174.714C140.911 176.366 140.149 175.689 139.24 174.885C138.581 174.301 137.917 173.718 137.309 173.082C135.209 170.889 132.732 170.547 130.108 171.765C128.653 172.441 127.367 172.468 125.809 172.15C123.703 171.721 121.513 171.979 120.044 173.93C119.36 174.838 118.499 175.133 117.496 175.307C115.11 175.721 113.426 176.848 112.62 179.395C112.01 181.324 111.524 181.24 110.004 179.554C108.349 177.719 106.02 177.13 103.845 176.298C103.476 176.158 102.778 176.373 102.486 176.676C101.944 177.242 102.412 177.846 102.787 178.339C105.076 181.356 107.395 184.35 109.669 187.379C110.461 188.434 111.602 189.363 111.404 191.06C108.259 189.051 97.4311 175.199 96.3269 171.731C100.063 171.607 103.62 170.882 106.832 168.923C103.045 163.024 96.1079 160.141 89.3348 161.777C84.6802 162.9 80.4781 164.993 76.788 168.342C79.4305 170.027 82.1248 170.561 85.0104 170.285C85.6291 170.226 86.2591 170.239 86.8808 170.273C88.0951 170.339 89.172 170.894 89.5475 172.033C89.8519 172.956 88.8859 173.586 88.2856 174.211C82.6264 180.099 76.9602 185.979 70.856 192.319C71.0562 190.239 72.2014 189.427 73.0394 188.496C77.0011 184.092 81.0066 179.728 84.9968 175.351C85.4214 174.885 85.9047 174.463 86.263 173.95C86.7973 173.184 88.0092 172.37 86.9425 171.396C86.1088 170.635 85.3356 170.779 84.2427 171.911C83.0975 173.098 80.9781 172.029 79.6728 171.124C78.2833 170.161 77.1011 169.715 75.3458 170.576C76.4215 173.049 79.5269 172.581 81.1744 174.929C79.0347 174.898 77.3883 174.967 76.007 173.456C74.9586 172.309 73.938 172.74 73.3084 173.963C72.6164 175.307 72.0796 176.736 71.5043 178.141C71.0445 179.263 70.9271 180.644 69.3061 180.939C68.5012 179.751 68.8033 178.499 69.0855 177.305C70.3583 171.922 73.0824 167.487 77.5464 164.251C78.6619 163.442 79.8544 162.735 81.0503 162.052C90.4237 156.698 97.8628 157.389 107.232 165.952C109.008 167.575 110.295 169.63 111.561 171.677C113.635 175.033 114.417 175.274 117.737 173.565C120.748 172.016 121.421 170.246 119.798 167.265C117.743 163.488 115.433 159.856 113.35 156.094C112.37 154.323 110.885 154.19 109.208 154.223C100.599 154.394 91.9893 154.549 83.3801 154.71C83.2552 154.712 83.1303 154.719 83.0058 154.717C81.5148 154.694 80.3852 155.036 79.9867 156.822C79.6897 158.153 78.7677 159.215 77.6089 160.32C77.4254 158.386 78.9278 157.079 78.5492 155.272C76.7346 154.774 74.8641 155.083 73.0234 154.985C71.9438 154.927 71.1484 155.365 70.4665 156.245C67.5266 160.035 64.5633 163.807 62.1266 167.967C60.0317 171.544 60.3596 173.391 63.771 175.931C65.3354 177.096 66.5926 178.422 67.2792 180.263C67.4938 180.838 67.6937 181.471 67.1144 182.021C66.1262 182.05 66.0329 181.171 65.6722 180.547C63.8959 177.476 60.6777 175.782 58.6547 172.904C57.7382 171.6 55.7344 171.851 54.3878 171.299C54.5572 170.19 55.1165 170.306 55.5685 170.217C56.7617 169.981 58.1255 171.372 59.1067 170.159C60.2035 168.803 61.0446 167.208 61.8452 165.638C62.3592 164.628 61.5399 164.249 60.7375 164.262C59.883 164.276 58.7648 164.177 58.2097 164.477C54.8952 166.264 51.3964 165.259 48.0089 165.385C44.1881 165.528 40.3407 166.027 36.2709 165.406C36.5347 164.08 37.466 163.508 38.37 163.634C40.8192 163.977 43.1396 164.16 45.3578 162.664C46.3207 162.014 46.5924 163.771 47.521 163.666C48.2712 163.273 48.0002 162.612 47.9737 162.012C47.9284 160.984 48.0865 160.505 49.4257 160.536C51.3995 160.583 53.4834 159.878 53.5404 163.056C53.5494 163.55 54.0353 163.861 54.6192 163.9C56.0388 163.993 55.8866 161.466 57.8991 162.143C59.9217 162.824 59.2222 160.592 59.7425 159.654C59.8573 159.447 60.0396 159.28 60.1969 159.087C60.9673 158.866 61.2624 159.459 61.6734 159.936C63.3217 161.851 64.2249 161.872 65.6874 160.036C66.6308 158.852 67.4903 157.598 68.4587 156.437C69.7354 154.906 70.5438 153.388 69.7026 151.256C69.02 149.526 70.2861 147.816 70.187 146.036C70.1566 145.49 70.5812 145.049 71.1058 145.002C73.4715 144.787 74.0023 142.783 74.7108 141.085C77.3544 134.747 79.1061 128.131 80.5015 121.403C80.8216 119.861 80.2014 118.764 79.4949 117.52C78.078 115.025 78.1268 114.773 80.4121 113.038C81.5866 112.146 81.7029 110.907 81.9324 109.703C83.5495 101.213 84.4445 92.6212 85.0225 84.0072C85.72 73.6149 86.3164 63.2198 87.2454 52.8406C87.8106 46.5276 87.7165 40.1418 87.6869 33.7898C87.6736 30.9407 86.1892 28.1067 87.6658 25.2346C87.8925 24.7934 87.8332 24.0931 88.1564 23.826C91.1438 21.3545 90.5299 17.9585 90.5452 14.7024C90.5506 13.5187 90.3019 12.2218 91.5552 10.8688C92.4916 12.872 92.0705 14.6261 92.1251 16.2907C92.2094 18.8532 92.5271 21.0862 94.3281 23.3037C96.1056 25.4926 96.6087 28.5825 95.1419 31.4077C94.6271 32.3994 94.6145 33.3124 94.6473 34.3224C94.9408 43.3406 95.4382 52.3442 96.3289 61.3247C96.7805 65.8757 96.7898 70.4582 97.0646 75.0239C97.7527 86.4532 99.8799 97.7013 100.886 109.085C101.017 110.569 101.006 112.024 102.654 112.988C104.124 113.849 103.851 115.479 102.974 116.677C101.364 118.876 101.606 121.143 102.231 123.56C103.826 129.719 105.772 135.744 108.568 141.456C109.111 142.564 109.472 143.882 110.881 144.267C111.913 144.549 113.586 144.22 113.632 145.64C113.689 147.367 115.158 148.932 114.104 150.764C113.179 152.37 113.561 153.911 114.496 155.422C115.76 157.464 116.944 159.557 118.162 161.629C118.566 162.315 119.069 162.924 119.938 162.677C120.586 162.492 120.849 161.884 120.968 161.218C121.096 160.491 120.948 159.658 121.845 159.023ZM91.6919 61.4431C92.1829 66.5137 91.7785 70.9455 91.7012 75.3741C91.5053 86.615 93.6626 97.604 95.0888 108.671C95.1856 109.421 95.3991 110.161 95.613 110.889C96.0689 112.441 97.3421 112.675 98.611 112.502C100.121 112.296 99.6196 111.011 99.5419 110.071C99.3432 107.668 99.1149 105.267 98.8401 102.872C97.7839 93.6681 96.0919 84.5326 95.6899 75.2584C95.0685 60.9232 93.5865 46.6301 93.656 32.2639C93.6642 30.616 93.1236 29.9657 91.5112 30.0138C89.405 30.0766 88.8871 30.4307 88.859 32.7039C88.8121 36.5137 89.1061 40.3362 88.9066 44.1344C88.1677 58.2037 87.3028 72.2663 86.4421 86.3285C86.2872 88.8592 85.9035 91.374 85.6709 93.9007C85.1588 99.4661 84.4843 105.001 83.3204 110.476C82.8949 112.477 83.946 113.22 85.8929 112.679C87.4628 112.243 87.5213 110.909 87.743 109.689C88.9257 103.181 88.8738 96.5475 89.6497 89.992C90.7403 80.7905 89.8457 71.4455 91.6919 61.4431ZM90.6494 144.396C92.7098 144.396 94.4577 144.377 96.2047 144.402C97.7106 144.424 98.1848 143.694 97.8995 142.244C96.846 136.89 95.8187 131.531 94.7801 126.174C94.469 124.57 93.3269 124.272 91.9667 124.333C90.72 124.389 89.4487 124.301 89.0373 126.001C87.665 131.675 86.2263 137.332 84.8411 143.003C84.5042 144.382 85.2361 144.871 86.4855 144.769C87.9773 144.648 89.4671 144.503 90.6494 144.396ZM79.1674 144.937C83.1151 144.965 83.1596 144.976 84.1143 141.118C84.9023 137.933 85.5737 134.717 86.2875 131.513C86.6443 129.911 87.0241 128.312 87.3067 126.697C87.4597 125.823 87.4765 124.952 86.3453 124.557C83.7599 123.655 81.4109 124.8 80.667 127.552C79.4792 131.945 78.098 136.268 76.4266 140.493C74.6784 144.913 74.6616 144.906 79.1674 144.937ZM108.101 144.165C105.366 137.98 103.115 132.079 101.66 125.889C101.221 124.023 99.255 123.365 97.111 124.044C95.3741 124.593 95.7535 125.962 96.0127 127.179C96.8843 131.275 97.8218 135.356 98.7379 139.441C99.981 144.987 100.127 145.101 105.687 144.656C106.29 144.607 106.883 144.418 108.101 144.165ZM87.1392 149.326C87.1396 149.269 87.1404 149.213 87.1408 149.156C94.4674 148.866 101.794 148.583 109.12 148.271C109.857 148.24 110.591 148.056 111.317 147.899C111.729 147.811 111.96 147.404 111.889 147.063C111.825 146.752 111.52 146.365 111.234 146.261C110.784 146.098 110.262 146.12 109.769 146.106C97.8308 145.773 85.907 146.584 73.9727 146.597C73.1671 146.598 72.0414 146.428 71.9895 147.73C71.9321 149.174 73.1039 149.2 74.0871 149.284C74.9524 149.358 75.8267 149.324 76.6971 149.325C80.1776 149.328 83.6584 149.326 87.1392 149.326ZM91.1454 91.3688C91.001 91.6884 90.7614 91.9976 90.727 92.3291C90.1138 98.2343 89.4964 104.139 88.9476 110.051C88.745 112.231 89.106 112.502 91.5436 112.489C94.1388 112.475 94.6099 112.116 94.2063 109.763C93.1622 103.673 92.3394 97.5547 91.1454 91.3688ZM90.9589 115.741C90.9913 115.744 90.2481 115.689 89.5046 115.64C88.6373 115.584 87.7602 115.43 86.9039 115.506C85.6435 115.619 83.8664 114.843 83.3719 116.636C82.9671 118.103 84.9991 118.325 85.4976 119.471C85.5834 119.668 85.8683 119.809 86.0908 119.903C86.4577 120.058 86.9726 120.011 87.0393 119.643C87.551 116.826 88.7868 118.429 89.7676 119.199C91.3558 120.444 91.3691 116.724 92.9585 118.207C93.2301 118.46 93.4385 118.784 93.7094 119.039C94.3011 119.596 94.9377 120.064 95.3925 118.921C95.8702 117.722 96.6321 118.096 97.524 118.332C98.6243 118.623 99.604 118.171 99.6297 116.919C99.6547 115.69 98.5806 115.741 97.695 115.741C95.7086 115.742 93.7223 115.741 90.9589 115.741ZM103.68 174.778C105.934 174.407 106.477 176.264 107.776 176.537C109.045 176.804 110.56 178.025 111.563 177.04C112.881 175.746 111.05 174.653 110.562 173.481C110.42 173.139 110.181 172.835 109.968 172.527C108.785 170.808 108.806 170.847 106.734 172.156C106.259 172.456 105.567 172.461 104.97 172.487C103.739 172.54 102.504 172.486 101.273 172.534C100.494 172.564 99.7367 172.824 99.7753 173.792C99.8159 174.805 100.467 175.487 101.454 175.386C102.416 175.287 103.347 174.875 103.68 174.778ZM99.9209 122.515C99.9362 122.285 99.9517 122.055 99.967 121.826C94.2227 121.826 88.4784 121.808 82.7341 121.855C82.2076 121.859 81.982 122.406 82.3161 123.133C88.1408 122.928 94.0307 122.722 99.9209 122.515ZM132.098 168.886C134.015 169.557 136.155 169.785 137.917 171.402C140.321 173.607 140.392 173.543 143.422 171.895C143.996 171.583 144.979 171.717 144.925 170.664C142.809 168.665 140.619 171.379 138.667 170.569C136.631 169.723 134.857 168.207 132.447 168.767C132.328 168.794 132.214 168.846 132.098 168.886ZM94.622 150.572C93.6298 151.159 91.3823 149.802 91.293 151.625C91.1841 153.843 93.4881 152.93 94.812 153.073C95.9408 153.195 97.4166 153.045 97.387 151.61C97.3495 149.821 95.7344 150.829 94.622 150.572ZM94.6075 28.0284C92.9186 26.658 91.4159 26.865 89.9737 26.8785C89.2153 26.8857 88.236 27.0829 88.2278 27.9271C88.2146 29.3099 89.4503 28.8683 90.2012 28.829C91.5037 28.7606 92.8984 29.1004 94.6075 28.0284Z" fill="#701A1A"/>
<path d="M48.4146 179.983C46.1835 177.995 44.0659 177.52 41.8005 177.933C40.5857 178.155 39.9424 177.769 39.629 176.554C38.9429 173.896 37.4563 172.368 34.4861 173.03C33.7282 173.199 33.0027 172.906 32.3677 172.481C30.1775 171.017 28.4255 171.506 26.9191 173.589C26.5722 174.069 25.9531 174.362 25.4295 174.693C24.8054 175.088 24.095 174.99 23.8541 174.331C22.662 171.069 19.8141 170.184 17.1904 169.652C16.7955 168.991 16.9129 168.664 17.2064 168.737C20.5638 169.567 23.814 168.705 27.0871 168.166C27.6996 168.066 28.4185 167.774 28.9214 167.981C32.1533 169.316 35.5255 168.015 38.769 168.626C40.0863 168.875 41.1155 168.608 42.2726 167.928C45.3933 166.092 47.8014 166.549 51.3506 169.739C49.7943 169.093 48.8252 168.646 47.8248 168.288C46.5021 167.814 44.9278 167.44 43.8784 168.372C41.7724 170.242 39.4941 170.459 36.9363 169.982C36.3632 169.876 35.6978 169.925 35.2682 170.562C35.2845 171.663 36.2081 171.46 36.8486 171.613C37.8486 171.852 38.9671 172.202 39.3452 173.103C40.514 175.889 42.7611 176.252 45.3399 176.44C46.7438 176.543 48.3905 176.924 48.4146 179.983ZM29.9736 170.344C28.4255 169.36 26.8934 169.434 25.3738 169.586C24.6795 169.656 23.7508 169.784 23.9411 170.798C24.1071 171.682 24.7149 172.443 25.771 172.074C27.1986 171.575 28.5752 170.928 29.9736 170.344Z" fill="#701A1A"/>
<path d="M117.856 182.732C119.024 180.951 120.444 180.181 121.874 179.418C123.498 178.551 125.048 178.733 126.441 179.857C127.687 180.862 128.833 180.814 130.235 180.104C133.61 178.394 136.954 178.046 139.972 180.933C140.609 181.543 141.369 181.372 142.107 181.287C144.024 181.064 145.418 182.248 146.955 183.052C147.44 183.306 147.784 183.71 147.558 184.235C147.326 184.775 146.642 184.888 146.27 184.617C144.47 183.306 142.606 182.563 140.317 183.155C139.712 183.311 139.334 182.529 138.888 182.092C136.095 179.36 132.515 179.306 129.662 182.156C128.76 183.056 128.292 183.378 127.258 182.527C123.633 179.54 123.618 179.561 119.93 181.926C119.435 182.243 119.089 182.837 117.856 182.732Z" fill="#701A1A"/>
<path d="M14.2314 175.208C16.3235 175.403 17.2568 176.395 18.0687 177.458C18.9006 178.547 19.7431 179.087 21.228 178.693C23.7007 178.037 26.1764 178.215 28.4936 179.421C29.9335 180.17 31.4341 179.607 32.9029 179.706C35.2092 179.861 37.6473 179.784 38.9776 182.485C37.4767 183.421 36.9121 181.747 35.9068 181.708C31.8432 181.549 27.8817 180.761 23.8968 180.004C21.7413 179.595 17.7039 178.393 16.0205 176.873C15.7472 176.626 15.3945 176.467 15.1056 176.235C14.9267 176.092 14.8002 175.886 14.2314 175.208Z" fill="#701A1A"/>
<path d="M158.253 183.184C158.866 180.613 160.328 178.949 163.034 179.215C165.5 179.458 166.508 181.255 167.349 183.76C165.504 183.48 165.397 182.075 164.624 181.386C162.814 179.774 160.647 180.31 159.898 182.633C159.706 183.229 159.796 183.933 159.546 184.493C158.932 185.872 157.559 185.907 156.67 184.599C156.246 183.974 156.001 183.203 155.505 182.654C153.424 180.349 151.208 180.108 147.629 181.69C149.96 178.205 152.966 178.582 158.253 183.184Z" fill="#701A1A"/>
<path d="M50.5775 175.606C53.4123 176.383 56.3032 176.651 58.9048 177.754C61.4876 178.849 62.3885 181.762 64.1105 184.3C62.1534 184.653 61.6728 183.378 61.0349 182.395C59.5667 180.134 58.2081 177.706 54.9442 179.222C54.2659 179.537 53.8127 178.944 53.5432 178.347C52.9229 176.971 51.786 176.327 50.5775 175.606Z" fill="#701A1A"/>
<path d="M36.271 187.585C34.7683 188.429 33.1935 187.447 31.654 187.732C30.4529 187.954 29.2342 188.035 28.1765 188.799C27.638 189.188 27.1057 189.245 26.473 188.942C22.6298 187.1 22.624 187.114 19.258 187.296C20.9297 185.993 22.7249 185.903 24.3046 186.368C26.4055 186.986 28.3102 186.8 30.3476 186.22C31.8706 185.786 33.4959 185.931 35.0611 186.287C35.6678 186.425 36.2212 186.705 36.271 187.585Z" fill="#701A1A"/>
<path d="M105.863 162.873C103.955 161.146 103.078 158.874 102.441 156.47C102.346 156.112 102.355 155.695 102.714 155.461C103.211 155.138 103.616 155.378 103.87 155.837C105.058 157.987 105.955 160.245 105.863 162.873Z" fill="#701A1A"/>
</svg>
