<svg width="195" height="215" viewBox="0 0 195 215" fill="none" xmlns="http://www.w3.org/2000/svg">
<path d="M31.6867 170.979C16.8512 145.768 38.1838 106.971 55.3138 74.6936C72.6349 42.3718 85.0478 16.6277 103.116 12.0869C121.03 7.75647 144.357 24.5475 157.76 42.404C171.126 60.0943 174.897 78.5381 171.628 108.124C168.586 137.833 158.562 178.51 128.066 193.097C97.5697 207.684 46.4853 196.025 31.6867 170.979Z" fill="#FFEDD8"/>
<path d="M151.814 117.25C153.442 117.879 155.072 117.998 156.77 117.972C160.505 117.916 164.363 117.616 168.097 117.611C169.184 117.61 170.267 117.503 171.283 118.334C170.609 119.279 169.63 118.665 168.805 118.695C164.961 118.838 161.322 118.919 157.478 119.057C154.869 119.15 154.385 119.503 154.646 121.948C155.186 127.011 155.143 132.056 155.354 137.128C155.483 140.228 155.923 140.587 158.54 139.296C161.716 137.729 165.077 136.65 168.451 135.682C170.269 135.161 171.026 134.023 170.929 132.068C170.82 129.879 170.913 127.757 170.929 125.562C170.942 123.847 171.119 122.197 171.637 120.502C172.758 121.142 171.976 121.899 171.991 122.671C172.054 125.788 172.336 128.95 172.345 132.068C172.349 133.451 172.826 133.817 174.115 133.514C175.621 133.159 177.238 132.401 179.071 132.429C178.71 133.668 177.718 133.992 176.947 134.236C172.734 135.571 168.413 136.866 164.203 138.212C162.083 138.89 159.988 139.396 158.186 141.103C161.275 141.394 164.31 141.819 167.389 142.188C170.533 142.564 173.805 143.238 176.947 143.633C179.977 144.015 183.136 143.88 186.15 144.356C189.149 144.829 192.273 144.146 195 146.163C194.704 146.714 194.279 146.927 193.938 146.886C180.463 145.273 167.121 143.291 153.584 142.188C144.341 141.434 135.228 140.943 125.973 140.381C124.266 140.277 122.333 139.959 120.663 139.658C119.565 139.459 118.645 139.035 117.478 139.296C116.154 139.592 115.641 140.553 116.416 141.465C120.009 145.691 118.231 150.862 118.54 155.56C118.57 156.021 118.5 156.546 118.54 157.006C118.676 158.604 118.358 160.322 119.248 161.704C120.147 163.101 121.79 162.225 123.141 162.789C127.123 164.449 131.354 166.062 134.469 169.294C135.507 170.372 136.17 171.257 136.947 172.547C137.972 174.251 137.837 176.059 136.593 177.607C134.326 180.426 131.786 182.355 128.451 183.751C121.465 186.677 114.087 188.421 106.504 188.449C99.8326 188.475 93.2676 188.263 86.6811 187.004C80.7062 185.861 75.975 182.545 71.8137 178.33C70.0154 176.508 69.945 174.208 71.1058 171.824C72.6839 168.584 74.8263 166.218 78.1854 164.957C80.0946 164.24 81.8731 163.609 83.8492 163.15C85.182 162.84 85.9911 162.384 85.9731 160.981C85.9256 157.287 85.9681 153.472 85.9731 149.777C85.9745 148.756 85.366 148.17 84.5571 147.97C82.3602 147.427 80.0422 147.006 77.8315 146.525C76.7833 146.297 76.2959 146.701 76.0615 147.97C75.4863 151.085 75.4741 150.917 72.5217 151.223C64.3028 152.076 56.2456 153.514 48.0968 154.837C46.0946 155.162 43.9504 155.879 41.7251 155.56C42.025 154.593 42.9616 154.606 43.495 154.476C44.3259 154.274 44.9159 154.039 44.911 153.03C44.9007 150.839 45.0444 148.71 44.911 146.525C44.8554 145.613 44.2958 144.389 43.1411 144.356C41.9838 144.323 41.6402 145.275 41.3711 146.163C40.6263 148.624 41.2968 151.183 41.3711 154.114C30.9309 154.274 20.487 155.285 10.5746 158.813C10.4029 157.454 11.4121 157.549 11.9905 157.367C13.9357 156.758 15.6793 156.052 17.6542 155.56C19.0639 155.209 19.7729 154.75 19.4242 153.03C19.2309 152.077 19.3076 150.777 20.8401 150.862C22.3612 150.946 22.0157 151.967 21.902 153.03C21.8585 153.438 21.7335 153.875 22.256 154.476C23.574 154.219 24.7965 154.016 26.1498 153.753C26.5725 152.91 25.6999 152.276 25.7959 151.585C25.89 150.907 26.0064 150.362 26.8578 150.139C27.6395 149.934 28.2653 150.23 28.2738 150.862C28.3106 153.664 30.1565 153.101 31.8136 153.03C32.7181 152.992 33.7413 153.002 34.6455 153.03C36.0162 153.073 36.6621 152.723 36.7694 151.223C37.0133 147.81 36.669 147.585 33.2295 147.97C28.1715 148.537 23.4181 148.828 18.3622 149.416C17.1675 149.555 15.9779 149.819 14.4684 149.416C15.5846 148.288 16.583 148.764 17.6542 148.693C23.308 148.32 29.0398 147.277 34.6455 146.525C35.5234 146.407 36.5835 146.3 36.7694 145.079C36.9927 143.612 37.1793 142.111 36.4154 140.742C35.9608 139.927 35.0547 140.371 34.2915 140.381C30.4463 140.425 26.5961 141.409 22.61 141.103C22.8475 142.36 23.1208 143.273 23.318 144.356C23.4709 145.197 23.3152 146.017 22.256 146.163C21.3406 146.29 20.4815 146.159 20.1321 145.079C20.0971 144.97 20.1827 144.814 20.1321 144.718C19.53 143.574 21.4108 141.746 19.4242 141.103C18.2825 140.734 16.7718 141.173 15.5303 141.103C15.2057 141.085 15.0603 140.905 14.4684 140.742C15.2858 139.487 15.6911 138.324 15.5303 136.766C15.1781 133.352 15.3937 129.731 15.5303 126.285C15.5689 125.317 15.862 125.299 16.5923 125.201C16.9272 125.156 17.3151 124.833 17.6542 124.839C27.9596 125.036 38.1462 124.116 48.4508 124.117C56.2537 124.117 63.996 123.19 71.8137 123.394C74.0616 123.452 74.3224 123.078 74.2916 121.225C74.2569 119.131 74.0627 118.695 71.8137 118.695C65.589 118.696 59.2777 118.658 53.0526 118.695C47.5065 118.729 41.9615 118.704 36.4154 118.695C35.7619 118.695 35.02 119.031 34.2915 118.334C35.4317 117.569 36.7102 117.989 37.8313 117.972C43.1495 117.893 48.4424 117.683 53.7606 117.611C55.5193 117.587 56.9467 117.19 58.0084 115.443C58.9553 113.884 60.4242 112.689 62.2562 112.19C63.7635 111.779 64.1231 110.732 64.0261 109.298C63.8555 106.782 64.8367 104.498 65.442 102.07C65.9213 104.4 67.7107 106.516 67.5659 108.937C67.4746 110.463 67.7892 111.483 69.3358 112.19C71.2025 113.043 72.6236 114.566 73.9376 116.165C74.9632 117.414 76.2728 117.908 77.8315 117.972C84.0714 118.232 90.3777 117.553 96.5926 117.25C98.2599 117.168 98.3622 116.207 98.3625 114.72C98.3643 108.368 98.6577 101.9 98.3625 95.5644C97.765 82.7482 98.2312 70.0687 98.0085 57.2539C97.9721 55.1643 97.8818 52.7685 97.3006 50.7483C96.7618 48.8755 96.404 47.1087 94.8227 45.6885C93.7971 44.7674 93.6799 43.5345 95.1767 43.1585C98.8898 42.2248 99.2662 39.3105 99.0705 36.2915C98.9958 35.1404 98.6673 34.1906 98.7165 33.0387C98.8209 30.606 98.5208 28.1734 96.5926 26.5332C95.721 25.792 95.1884 24.7504 94.8227 23.6418C94.4188 22.4166 94.6215 21.8552 95.8846 22.1961C97.0822 22.5191 98.2984 23.1134 99.4245 23.6418C100.943 24.3545 101.68 23.5803 102.256 22.1961C102.621 21.3195 102.897 20.5855 102.964 19.6662C103.103 17.7464 104.039 16.1476 105.442 14.6063C106.804 16.3838 105.958 18.3105 106.15 20.0276C106.527 23.3904 106.545 26.6843 104.734 29.786C102.907 32.9169 103.428 36.4866 104.026 39.9057C104.294 41.4354 105.67 41.7646 106.858 42.4357C108.751 43.5052 109.005 44.4018 107.566 45.6885C105.043 47.9453 105.026 50.4741 105.088 53.6397C105.468 72.8012 105.916 91.9368 105.796 111.105C105.764 116.293 105.708 116.594 110.752 116.165C120.895 115.304 131.061 114.246 141.195 113.274C143.804 113.024 146.345 112.467 148.628 114.358C149.835 115.358 151.411 115.137 152.876 115.081C157.068 114.922 161.095 115.337 165.265 115.804C166.006 115.887 166.996 115.579 168.097 116.527C164.646 116.789 161.729 116.57 158.894 116.165C156.979 115.892 155.155 115.816 153.23 115.804C152.226 115.798 151.601 116.18 151.814 117.25C150.681 116.785 149.7 116.743 148.628 116.165C145.799 114.64 145.776 114.551 143.318 117.611C146.363 118.127 149.014 118.192 151.814 117.25ZM78.5394 130.622C78.8003 131.666 79.2629 132.369 79.9554 133.152C81.36 134.741 81.2556 134.933 80.3093 137.851C79.7606 134.734 78.7264 132.753 76.4155 130.622C75.9546 133.136 74.9375 135.165 77.8315 136.405C78.2534 136.586 78.2853 137.348 78.5394 137.851C78.8952 138.555 79.5741 138.725 80.3093 138.573C83.312 137.952 85.7854 139.206 87.743 141.465C88.8128 140.264 88.4842 138.927 89.1589 137.851C90.6203 135.519 89.6457 133.347 88.451 131.345C87.5122 129.772 85.8999 129.093 84.9111 129.899C83.7167 130.874 84.3861 132.16 84.9111 133.152C85.2846 133.858 85.914 134.469 85.9731 135.321C86.0234 136.051 86.1466 136.743 85.2651 137.489C84.9154 136.414 84.8612 135.678 84.5571 134.959C84.2456 134.223 83.8202 133.522 83.4952 132.791C82.042 129.52 81.8129 129.614 78.1854 130.622C80.8097 127.959 84.4487 129.878 87.389 128.815C87.4612 128.789 87.6722 128.735 87.743 128.815C89.0875 130.346 90.6912 129.817 92.3448 129.899C94.2759 129.996 95.1522 129.036 95.8846 127.369C96.4238 126.143 96.5221 124.541 97.6545 123.755C98.7385 123.003 98.6946 121.871 98.3625 120.864C97.9189 119.518 96.821 120.148 95.8846 120.141C90.3636 120.097 84.7688 120.146 79.2474 120.141C78.7967 120.141 78.2821 120.149 77.8315 120.141C76.4618 120.117 75.8722 120.873 75.7076 122.31C75.3408 125.507 75.7747 128.489 78.5394 130.622ZM88.451 177.245C88.5812 176.226 88.9261 175.403 87.743 174.715C86.0696 173.743 84.5112 172.483 83.1412 171.101C82.3875 170.341 81.5887 170.389 80.6633 170.74C77.8731 171.798 75.2634 173.704 72.8757 175.438C72.1287 175.98 72.1369 176.585 72.8757 177.245C75.4992 179.592 77.7428 182.297 81.0173 183.751C82.285 184.314 83.1334 183.86 83.8492 182.667C84.6099 181.398 85.4484 179.936 86.6811 179.052C86.4612 180.22 85.7876 181.291 85.2651 182.305C84.1805 184.411 84.3878 184.704 86.6811 185.197C92.6609 186.482 98.6132 187.446 104.734 187.365C108.004 187.322 111.403 187.308 114.646 186.642C116.194 186.324 116.337 185.506 115.708 184.112C114.858 182.23 113.986 180.613 113.23 178.691C112.718 177.39 112.028 176.728 110.752 176.884C104.645 177.631 98.3986 176.982 92.3448 176.161C90.83 175.956 89.6525 176.171 88.451 177.245ZM68.2739 142.91C68.2675 144.866 68.2466 146.738 68.2739 148.693C68.2863 149.564 68.6027 150.546 69.6898 150.5C70.5961 150.462 71.0325 149.985 71.1058 149.055C71.3295 146.219 71.3253 143.372 70.0438 140.742C68.5963 141.002 69.1005 142.329 68.2739 142.91C68.2796 142.565 68.2035 142.157 68.2739 141.826C68.5359 140.593 68.7751 139.203 70.3978 139.296C71.8067 139.377 71.5015 140.763 71.8137 141.826C72.3752 143.738 72.4127 146.018 72.5217 147.97C72.5652 148.748 72.4413 149.784 73.5837 149.777C74.5996 149.772 74.6215 148.783 74.6456 147.97C74.7182 145.55 74.9996 143.164 74.9996 140.742C74.9996 137.019 74.7732 136.801 71.1058 137.128C70.7681 137.158 70.3819 137.102 70.0438 137.128C63.2824 137.647 56.6654 138.785 49.8668 138.935C46.7059 139.005 43.4669 139.431 40.3092 139.658C39.1038 139.744 37.8703 139.983 37.8313 141.465C37.7439 144.807 37.7973 148.241 37.8313 151.585C37.8395 152.374 38.4256 152.74 39.2472 152.669C40.0551 152.599 40.2819 152.004 40.3092 151.223C40.3457 150.186 40.3032 149.37 40.3092 148.332C40.3159 147.173 40.5311 145.795 41.0172 144.718C41.4643 143.726 41.9601 142.882 43.1411 142.91C44.4073 142.941 45.272 143.875 45.6189 145.079C45.8699 145.95 45.9294 146.693 45.9729 147.609C46.0388 148.991 45.9443 150.561 45.9729 151.946C45.9967 153.102 46.3166 153.838 47.7429 153.753C49.1397 153.67 50.3581 153.38 50.2207 151.585C50.1244 150.323 50.1524 149.235 50.2207 147.97C50.3145 146.243 50.5318 144.508 51.2827 142.91C51.6413 142.147 51.7949 141.489 52.6986 141.465C53.6158 141.441 54.0965 142.157 54.4685 142.91C55.2498 144.493 55.7075 146.254 55.8845 147.97C56.3617 152.6 56.3745 152.473 60.8402 151.585C61.395 151.474 61.7057 151.355 62.2562 151.223C62.7231 151.111 63.3008 150.638 63.3181 150.139C63.4059 147.617 63.7932 145.376 62.9641 142.91C62.7808 142.364 62.1996 141.778 61.5482 141.826C60.8972 141.874 60.6236 142.364 60.4863 142.91C60.2643 143.794 60.1748 144.891 60.1323 145.802C60.0664 147.213 60.1323 148.363 60.1323 149.777C59.5107 147.593 59.3401 145.437 59.4243 143.272C59.476 141.942 59.9867 140.936 61.5482 140.742C62.8966 140.574 63.7425 141.508 64.0261 143.272C64.2261 144.516 64.2934 145.621 64.3801 146.886C64.4427 147.803 64.5903 148.871 64.7341 149.777C64.8289 150.376 65.1291 150.866 65.796 150.862C66.5146 150.857 67.0781 150.589 67.2119 149.777C67.361 148.872 67.4817 147.802 67.5659 146.886C67.6898 145.533 67.3648 144.131 68.2739 142.91ZM39.6012 138.212C42.2856 138.079 42.1166 137.895 42.0791 135.321C42.0494 133.256 42.3602 131.241 42.4331 129.177C42.4791 127.874 42.7863 126.926 44.203 127.008C45.5238 127.085 45.9432 128.108 45.9729 129.177C46.0519 132.021 46.0314 134.992 44.557 137.851C46.2321 137.914 47.7729 138.105 49.1588 137.489C55.5138 137.667 61.636 136.775 67.9199 136.043C70.1165 135.788 72.9308 136.819 74.2916 134.959C75.6453 133.109 74.9663 130.137 74.9996 127.731C75.0368 125.036 74.5463 124.919 71.8137 124.839C71.1355 124.82 70.3681 124.824 69.6898 124.839C59.9682 125.07 50.3841 125.309 40.6632 125.562C38.0637 125.63 35.4743 125.827 32.8755 125.924C31.0984 125.99 30.3056 126.864 30.3977 128.815C30.495 130.885 30.0932 132.883 30.0437 134.959C30.0217 135.891 29.9545 136.763 29.3357 137.489C28.6238 138.325 28.1463 138.708 27.5658 137.489C28.4065 137.32 28.792 136.932 28.9817 136.043C29.494 133.644 29.4592 131.249 29.3357 128.092C27.2163 132.18 27.2486 132.058 27.5658 137.489C26.4963 133.911 26.6794 130.24 27.5658 126.647C24.8534 126.226 24.6844 126.096 24.7339 128.454C24.7775 130.53 24.7357 132.882 24.7339 134.959C24.7329 136.261 24.5545 137.218 23.672 138.212C23.2326 138.706 22.6649 139.676 21.902 139.296C21.1997 138.947 21.2266 138.175 21.1941 137.489C22.6614 138.451 23.3537 137.321 23.672 136.043C24.18 134.004 24.05 131.967 24.0259 129.899C24.0189 129.295 24.1135 128.479 22.61 128.454C22.21 131.395 21.6033 134.478 21.1941 137.489C20.0354 133.815 20.0527 130.212 21.902 126.647C18.6406 126.539 18.7891 126.276 18.7162 128.815C18.6337 131.693 18.9488 134.624 18.3622 137.489C17.9721 139.395 18.2021 140.006 20.1321 140.019C26.6964 140.064 33.1187 139.163 39.6012 138.212ZM127.743 136.043C128.09 137.476 127.943 139.212 129.867 139.296C132.579 139.415 135.295 139.229 138.009 139.296C138.998 139.321 139.174 138.838 139.071 137.851C138.472 132.093 138.837 126.274 138.717 120.502C138.693 119.368 138.084 118.823 136.947 118.695C132.62 118.209 128.523 119.896 124.203 119.418C123.611 119.352 123.07 119.561 122.787 120.141C122.341 121.059 122.006 120.786 121.725 120.141C121.386 119.36 120.617 119.413 119.956 119.418C116.221 119.448 112.714 119.287 108.982 119.418C106.43 119.508 105.733 120.611 106.504 123.032C107.331 125.629 108.111 128.12 110.044 130.261C111.792 132.197 113.397 134.039 114.646 136.405C115.06 137.191 115.949 137.735 116.77 137.851C119.233 138.199 121.733 138.652 124.203 138.935C127.017 139.257 126.962 139.183 127.743 136.043ZM99.4245 89.0589C99.4245 96.7886 99.4114 104.46 99.4245 112.19C99.4298 115.304 99.7271 118.472 99.7784 121.587C99.7915 122.374 99.5483 122.943 100.486 123.394C103.097 124.648 105.033 123.75 105.088 120.864C105.097 120.403 105.094 119.88 105.088 119.418C104.862 100.965 105.203 82.5672 104.38 64.1209C104.257 61.3566 103.999 58.5765 104.026 55.8082C104.043 54.1163 103.607 53.3379 101.902 53.2783C100.124 53.2161 99.2209 53.8516 99.0705 55.8082C98.9381 57.5286 98.9653 59.1448 99.0705 60.8681C99.639 70.2045 99.2262 79.716 99.4245 89.0589ZM143.318 120.502C144.627 121.568 143.748 122.743 144.026 123.755C144.53 125.588 146.143 124.561 147.212 124.839C149.959 125.554 149.85 123.13 150.398 121.225C151.274 122.21 151.276 123.026 151.46 123.755C151.593 124.282 151.703 124.42 152.168 124.478C152.65 124.538 153.364 124.543 153.584 124.117C154.334 122.663 152.687 119.238 151.106 119.057C148.636 118.773 146.158 118.749 143.672 118.695C140.515 118.627 139.865 119.393 139.779 122.671C139.647 127.644 139.907 132.532 140.133 137.489C140.153 137.947 140.345 138.505 140.487 138.935C140.675 139.507 140.9 140.082 141.549 140.019C142.334 139.944 142.62 139.139 142.61 138.573C142.575 136.38 142.246 134.261 142.256 132.068C142.262 130.97 142.072 129.518 143.318 128.815C144.497 129.364 144.348 130.66 144.38 131.706C144.427 133.207 144.65 134.546 144.734 136.043C144.792 137.078 144.927 138.273 145.088 139.296C145.164 139.778 145.253 140.122 145.796 140.019C146.19 139.944 146.506 139.64 146.504 139.296C146.502 138.725 146.513 138.061 146.504 137.489C146.468 135.184 146.493 132.928 146.504 130.622C146.507 130.146 146.655 129.74 147.212 129.899C147.457 129.969 147.911 130.364 147.92 130.622C147.992 132.58 147.84 134.448 147.92 136.405C147.964 137.461 147.512 138.66 148.982 140.019C148.982 137.736 148.835 135.921 148.982 134.236C149.117 132.705 148.331 131.039 150.044 129.538C150.858 131.586 150.543 133.524 150.752 135.321C150.957 137.08 150.091 138.963 151.106 140.742C151.96 140.239 151.832 139.493 151.814 138.935C151.735 136.522 151.789 134.082 151.106 131.706C150.931 131.099 150.875 130.265 151.814 130.261C152.527 130.258 152.864 130.769 152.876 131.345C152.924 133.766 152.856 136.152 152.876 138.573C152.882 139.315 152.334 140.79 153.584 140.742C154.707 140.699 154.304 139.291 154.292 138.573C154.236 135.228 154.387 131.784 153.938 128.454C153.564 125.678 153.512 125.957 150.752 125.924C147.615 125.886 144.686 125.562 141.549 125.562C143.999 124.441 142.149 122.31 143.318 120.502ZM85.6191 164.957C81.8306 166.241 81.1028 167.777 83.8492 170.378C86.0539 172.467 88.3152 173.999 91.9908 173.27C98.1582 172.047 104.428 172.491 110.752 172.547C111.341 172.552 112.107 172.258 112.522 173.27C111.506 174.245 110.145 173.984 108.982 173.993C104.688 174.022 100.533 173.993 96.2386 173.993C95.5611 173.993 94.7802 174.249 94.1147 174.354C93.4658 174.457 92.5353 173.825 91.9908 174.715C99.4394 175.971 106.902 176.442 114.292 174.715C116.292 174.248 118.259 173.358 119.956 172.186C121.79 170.917 123.124 169.258 123.849 167.126C124.176 166.166 124.617 164.992 123.495 164.234C122.433 163.517 121.196 163.109 119.956 163.511C118.801 163.886 119.371 165.196 119.248 166.041C119.149 166.718 118.946 167.523 118.894 168.21C118.751 170.101 117.858 170.545 116.416 169.294C115.095 168.149 113.761 167.363 112.168 166.764C111.434 166.488 110.337 166.141 109.69 166.764C109.009 167.42 109.474 168.158 109.69 168.933C109.888 169.643 110.813 170.261 110.044 171.463C105.702 171.463 101.452 171.523 96.9466 171.463C95.7242 171.446 93.8786 171.998 93.0528 171.101C92.063 170.026 93.9791 169.316 94.1147 168.21C94.1862 167.628 94.2754 166.842 93.7607 166.403C93.2701 165.983 92.7997 166.074 92.3448 166.403C91.2318 167.207 89.7692 166.883 88.805 167.848C88.6584 169.008 90.1179 169.374 89.8669 170.74C88.676 169.757 87.5562 169.169 86.3271 168.571C84.9171 167.887 86.6538 166.039 85.6191 164.957ZM132.345 179.414C132.21 179.19 132.213 178.931 131.991 178.691C129.65 176.164 126.855 173.977 124.203 171.824C123.684 171.402 123.307 171.452 122.787 171.824C120.463 173.491 117.751 174.983 115 175.8C114.154 176.051 113.866 176.629 114.292 177.607C115.346 180.029 116.386 182.431 117.478 184.835C117.74 185.412 118.283 185.697 118.894 185.558C123.435 184.52 127.598 182.885 131.637 180.498C132.009 180.278 132.367 180.04 132.345 179.414ZM93.0528 133.875C94.5849 134.722 96.1515 135.299 97.6545 135.321C99.5485 135.348 100.092 136.484 100.132 138.212C100.154 139.134 100.2 139.822 100.132 140.742C99.9979 142.581 99.8156 144.685 99.7784 146.525C99.7402 148.422 99.9047 148.364 102.256 148.332C103.572 148.314 104.908 148.536 104.734 146.525C104.525 144.1 103.388 141.632 105.088 139.296C105.258 139.062 104.913 138.262 104.734 137.851C103.965 136.077 105.042 135.488 106.504 135.321C107.178 135.243 107.953 135.387 108.628 135.321C109.708 135.213 110.799 134.667 110.752 133.514C110.706 132.375 109.865 131.61 108.628 131.345C108.301 131.275 107.905 131.345 107.566 131.345C103.945 131.344 100.213 131.036 96.5926 130.984C94.8806 130.959 93.6723 131.957 93.0528 133.875ZM136.239 174.715C136.13 173.678 135.721 172.912 135.177 172.186C133.305 169.686 130.911 167.735 128.097 166.403C125.889 165.357 125.59 165.513 124.911 167.848C124.522 169.189 124.589 170.16 125.619 171.101C128.043 173.314 130.595 175.433 133.053 177.607C133.518 178.018 134.021 178.138 134.469 177.607C135.273 176.651 135.922 175.882 136.239 174.715ZM106.858 117.611C107.686 118.62 108.191 118.375 108.628 118.334C114.834 117.747 120.814 118.091 127.035 117.972C130.43 117.907 133.912 117.797 137.301 117.611C139.541 117.488 141.817 116.932 143.318 114.358C131.078 115.153 119.243 116.341 106.858 117.611ZM95.8846 44.2428C96.868 46.7362 98.7731 48.3259 100.132 50.3869C100.8 51.3997 101.693 51.4586 102.61 50.3869C103.702 49.1115 104.786 48.0212 105.442 46.4113C106.386 44.0938 106.498 44.0057 104.38 42.7971C103.295 42.1776 102.294 40.6462 100.84 41.7128C99.2824 42.856 97.4104 43.0743 95.8846 44.2428ZM92.6988 149.055C92.7012 149.001 93.0503 148.747 93.0528 148.693C93.8404 148.693 94.3961 148.769 95.1767 148.693C96.147 148.599 97.5621 148.777 98.0085 147.609C98.5278 146.25 97.0103 146.03 96.2386 145.44C95.8796 145.166 95.4691 145.06 95.1767 144.718C93.5429 142.803 91.6529 142.63 89.5129 142.91C88.0321 143.104 87.0655 144.712 87.035 146.525C87.0074 148.159 88.0838 148.5 89.1589 148.693C90.3686 148.911 91.4686 148.954 92.6988 149.055ZM118.186 168.933C118.047 166.4 117.89 163.951 117.832 161.704C117.748 158.496 117.905 155.516 117.832 152.307C117.811 151.428 118.007 150.262 116.77 150.139C115.448 150.007 115.429 151.053 115.354 151.946C114.958 156.651 114.908 161.385 115.708 166.041C115.931 167.344 116.524 168.352 118.186 168.933ZM72.5217 116.888C69.0295 111.205 61.9431 111.415 58.7163 117.25C63.4026 117.683 67.8861 117.218 72.5217 116.888ZM106.15 147.97C109.867 148.746 113.117 148.352 116.416 148.332C117.056 148.328 117.48 147.937 117.478 147.248C117.468 144.833 115.541 142.937 113.23 143.272C110.327 143.692 108.442 145.841 106.15 147.97ZM101.194 169.656C102.005 169.317 102.25 168.887 102.256 168.21C102.29 164.438 102.277 160.417 102.256 156.644C102.251 155.742 102.158 154.809 100.84 154.837C99.5617 154.864 99.4291 155.744 99.4245 156.644C99.4075 159.959 99.3526 163.451 99.4245 166.764C99.4524 168.047 99.9016 169.073 101.194 169.656ZM81.7253 165.68C75.7766 166.486 71.6743 170.26 71.8137 174.715C74.2673 173.137 76.3942 171.266 78.8934 170.017C80.9077 169.01 81.5023 167.755 81.7253 165.68ZM105.796 143.995C105.82 144.051 105.33 144.955 106.15 145.44C107.025 145.958 107.736 145.241 108.274 144.718C109.806 143.227 111.528 142.416 113.584 142.188C115.12 142.017 115.033 141.069 114.646 140.019C114.326 139.154 114.017 138.093 112.876 138.935C111.347 140.063 109.266 140.242 107.566 140.742C106.182 141.149 105.299 141.705 105.796 143.995ZM98.7165 143.633C98.8011 142.591 98.467 141.937 97.6545 141.465C96.1819 140.609 94.8861 139.777 93.4067 138.935C92.8347 138.609 91.943 138.296 91.2828 138.212C90.0201 138.052 89.6563 138.808 89.5129 140.019C89.3688 141.235 89.5716 142.308 90.9289 142.188C93.3499 141.974 95.1741 142.679 96.9466 144.356C97.7445 145.112 98.617 144.567 98.7165 143.633ZM79.6014 139.658C80.1908 141.43 82.3419 142.341 81.7253 144.356C81.1589 146.208 82.4162 146.277 83.4952 146.525C84.8124 146.828 85.4775 146.479 85.9731 145.079C86.7253 142.953 85.5799 141.642 84.5571 140.381C83.2824 138.808 81.3994 139.247 79.6014 139.658ZM53.0526 142.549C51.621 143.127 51.3931 144.367 51.2827 145.44C51.0852 147.361 51.293 149.289 51.2827 151.223C51.2788 151.987 51.2079 153.048 52.3446 153.03C53.2424 153.016 54.3719 153.004 54.4685 151.946C54.7546 148.822 55.0517 145.375 53.0526 142.549ZM104.026 155.199C102.798 160.015 104.037 164.671 103.318 169.294C103.216 169.955 103.749 170.381 104.38 170.378C104.984 170.376 105.34 169.983 105.442 169.294C105.492 168.959 105.453 168.551 105.442 168.21C105.324 164.55 105.241 161.025 105.088 157.367C105.058 156.631 105.367 155.809 104.026 155.199ZM75.7076 140.742C75.7376 140.742 76.0311 140.742 76.0615 140.742C76.0615 141.659 76.0024 142.721 76.0615 143.633C76.155 145.076 77.2834 144.763 78.1854 145.079C78.868 145.318 79.4842 145.332 79.9554 144.718C80.6131 143.86 80.5621 142.982 79.9554 142.188C79.1978 141.196 78.1695 140.213 77.8315 138.935C77.6194 138.133 78.0347 136.916 76.7695 137.128C75.6997 137.307 75.7656 138.413 75.7076 139.296C75.6775 139.754 75.7076 140.283 75.7076 140.742ZM99.7784 35.5687C99.8011 35.5687 100.11 35.5687 100.132 35.5687C100.132 36.4847 100.119 37.544 100.132 38.4601C100.146 39.3706 100.087 39.9935 101.194 39.9057C102.078 39.836 102.948 39.5379 102.964 38.4601C102.993 36.5135 102.98 34.6235 102.964 32.6773C102.957 31.6945 102.775 30.8543 101.548 30.8702C100.213 30.8879 99.7802 31.5262 99.7784 32.6773C99.7767 33.5908 99.7126 34.6556 99.7784 35.5687ZM107.212 155.199C106.908 155.409 106.52 155.425 106.504 155.56C106.01 159.683 106.243 163.729 106.504 167.848C106.525 168.179 106.722 168.618 106.858 168.933C107.097 169.483 107.578 169.923 108.274 169.656C108.811 169.449 108.69 169.037 108.628 168.571C108.14 164.92 108.045 161.404 107.92 157.729C107.891 156.873 108.036 155.801 107.212 155.199ZM88.805 150.139C87.9833 154.401 88.595 163.753 89.5129 165.68C90.3356 162.459 89.9158 152.956 88.805 150.139ZM97.6545 155.56C97.2223 160.27 97.2666 164.956 97.6545 169.656C97.6903 170.089 97.8276 170.151 98.3625 170.017C98.908 169.88 99.1639 169.434 99.0705 168.933C98.4145 165.414 98.8754 161.987 98.7165 158.452C98.6687 157.379 98.9243 156.403 97.6545 155.56ZM93.7607 164.234C94.5204 161.05 94.5706 157.703 94.4687 154.476C94.4616 154.246 94.0351 154.2 93.7607 154.114C93.2485 153.954 92.7211 154.353 92.6988 154.837C92.5497 158.075 91.9571 161.15 93.7607 164.234ZM91.6368 150.5C90.3918 151.315 90.583 151.919 90.5749 152.669C90.5409 155.869 90.5547 159.227 90.5749 162.427C90.5784 162.994 90.7834 163.692 90.9289 164.234C91.0028 164.51 91.0375 164.559 91.2828 164.596C91.8036 164.674 92.3745 164.371 92.3448 163.873C92.0796 159.45 92.4457 155.179 91.6368 150.5ZM113.584 164.596C113.807 164.599 114.069 164.593 114.292 164.596C114.292 162.186 114.331 159.775 114.292 157.367C114.254 155.065 114.642 152.699 113.584 150.5C112.597 155.236 112.629 159.94 113.584 164.596ZM94.8227 152.307C96.9711 153.925 99.3744 153.414 101.548 153.392C103.699 153.369 105.973 154.334 108.628 152.307C103.554 152.307 99.1656 152.307 94.8227 152.307ZM112.168 164.234C112.331 159.82 112.879 155.245 111.46 150.862C111.178 155.296 110.681 159.813 112.168 164.234ZM101.194 127.008C102.593 127.008 103.728 127.042 104.734 127.008C105.173 126.993 105.468 126.892 105.442 126.285C105.422 125.812 105.212 125.245 104.734 125.201C103.626 125.099 102.641 125.06 101.548 125.201C100.313 125.36 97.9391 124.483 98.0085 125.924C98.1013 127.851 100.347 126.615 101.194 127.008ZM97.3006 118.334C90.5572 119.508 83.8913 118.578 77.1235 119.057C83.897 118.737 90.5682 119.821 97.3006 118.334ZM96.5926 129.177C99.7478 130.377 102.965 129.831 106.15 129.538C106.535 129.503 106.877 129.176 106.858 128.815C106.839 128.446 106.506 128.449 106.15 128.454C102.994 128.494 99.6986 128.007 96.5926 129.177ZM97.3006 139.296C96.4991 136.246 94.5449 134.942 92.6988 135.321C92.0927 135.445 91.7221 135.788 91.6368 136.405C91.5621 136.943 91.9164 137.302 92.3448 137.489C93.7629 138.11 95.4852 138.489 97.3006 139.296ZM43.849 135.682C44.4781 133.402 45.4395 131.204 44.203 128.454C42.856 131.392 42.6872 132.794 43.849 135.682ZM108.274 139.296C110.048 139.222 111.414 138.779 112.522 137.489C113.012 136.919 113.04 136.314 112.522 135.682C112.078 135.141 111.449 134.925 111.106 135.321C110.131 136.445 108.578 137.311 108.274 139.296ZM109.336 164.596C110.472 161.87 110.237 157.369 108.982 154.476C108.647 158.057 108.666 161.298 109.336 164.596ZM87.035 151.946C87.4892 156.536 86.9536 161.139 87.743 165.68C87.9412 161.069 87.9338 156.478 87.035 151.946ZM94.1147 150.5C99.1419 150.5 103.954 150.5 108.982 150.5C103.945 149.733 99.1352 150.003 94.1147 150.5ZM17.3003 128.815C16.4131 131.446 16.0878 133.98 16.9463 137.489C17.9509 134.103 17.7884 131.556 17.3003 128.815ZM95.1767 169.656C96.3321 166.792 96.5785 158.438 95.5306 155.56C95.2142 160.456 95.5738 165.085 95.1767 169.656Z" fill="#701A1A"/>
<path d="M82.4332 151.946C79.8314 152.428 77.2384 152.866 74.6455 153.392C61.8009 155.995 48.8611 157.773 36.0613 160.62C27.1886 162.594 18.7758 165.711 10.5745 169.656C9.6 170.125 8.55053 170.964 7.03467 171.101C7.95012 169.77 8.91891 169.427 9.86654 168.933C21.3421 162.944 33.7173 159.722 46.3269 157.367C56.7642 155.418 67.405 153.233 77.8314 151.223C79.3738 150.926 80.8912 150.565 82.4332 150.862C82.4693 151.134 82.3971 151.674 82.4332 151.946Z" fill="#701A1A"/>
<path d="M122.079 149.777C126.296 148.274 140.649 150.483 155 154.114C178.539 160.073 186.199 162.594 188.982 165.68C167.128 157.965 145.401 151.46 122.079 149.777Z" fill="#701A1A"/>
<path d="M16.9462 145.079C16.9312 145.98 17.1841 147.226 15.8843 147.248C14.3949 147.272 14.0869 145.956 14.1144 144.718C14.1365 143.725 14.017 142.478 15.5303 142.549C17.0897 142.623 16.8913 143.93 16.9462 145.079Z" fill="#701A1A"/>
<path d="M26.5038 143.633C26.5787 142.789 26.5507 141.825 27.5658 141.826C28.4554 141.827 28.9422 142.384 28.9817 143.272C29.0268 144.29 29.095 145.342 28.2738 146.163C27.9733 146.463 27.5861 146.456 27.2118 146.163C26.2899 145.441 26.579 144.625 26.5038 143.633Z" fill="#701A1A"/>
<path d="M118.54 121.225C118.54 125.13 118.553 128.886 118.54 132.791C118.537 133.349 118.627 134.102 118.186 134.598C117.721 134.122 117.833 133.349 117.832 132.791C117.817 128.882 117.832 125.134 117.832 121.225C118.054 121.223 118.317 121.228 118.54 121.225Z" fill="#701A1A"/>
<path d="M60.4863 129.899C60.2647 131.577 60.492 133.331 59.7783 134.959C59.5418 135.499 58.9588 136.223 58.3624 136.043C58.0097 135.937 57.7756 135.333 57.6544 134.959C56.9251 132.716 56.5913 130.368 57.3004 128.092C57.5701 127.227 58.4376 126.475 59.4243 126.647C60.4884 126.832 60.3923 127.895 60.4863 128.815C60.5218 129.159 60.4863 129.509 60.4863 129.899Z" fill="#701A1A"/>
<path d="M55.5304 130.622C55.4741 132.409 55.4383 133.975 54.4685 135.321C53.8988 136.111 52.9582 136.427 52.6986 135.321C52.1914 133.157 51.5949 130.73 52.3446 128.454C52.6385 127.561 53.0187 126.841 54.1145 127.008C55.0183 127.146 55.4175 128.018 55.5304 128.815C55.6249 129.482 55.4899 130.154 55.5304 130.622Z" fill="#701A1A"/>
<path d="M61.1942 130.984C61.1845 129.438 61.0677 127.873 61.9022 126.647C62.6222 125.589 63.3522 125.678 64.0261 126.647C65.1036 128.194 64.7674 133.689 63.3181 134.959C62.4368 135.731 61.7481 135.222 61.5482 134.236C61.3191 133.109 61.2837 131.99 61.1942 130.984Z" fill="#701A1A"/>
<path d="M65.442 129.538C65.4597 129.726 65.4166 129.266 65.442 128.815C65.5099 127.611 65.8964 126.339 67.212 126.285C68.5572 126.229 68.5544 127.476 68.6279 128.454C68.7653 130.284 68.5007 132.21 67.5659 133.875C67.3307 134.294 66.9784 134.687 66.504 134.598C66.043 134.511 65.8409 134.002 65.796 133.514C65.6922 132.377 65.5575 131.321 65.442 129.538Z" fill="#701A1A"/>
<path d="M72.8756 129.538C72.6594 131.101 72.4069 132.879 71.4597 134.236C71.2953 134.472 71.0185 134.621 70.7517 134.598C70.2916 134.557 69.7083 133.986 69.6898 133.513C69.6207 131.764 69.5567 130.19 69.6898 128.454C69.7585 127.555 70.4243 126.525 71.4597 126.647C72.3422 126.75 72.6867 127.665 72.8756 128.454C72.9555 128.788 72.8463 129.121 72.8756 129.538Z" fill="#701A1A"/>
<path d="M32.8755 131.345C33.0081 130.121 32.5808 128.646 33.5835 127.369C34.0045 126.833 34.5937 126.105 35.3534 126.285C35.9188 126.419 36.2849 126.788 36.4154 127.369C37.0842 130.35 36.6632 133.559 35.7074 136.405C35.5217 136.958 35.2736 137.212 34.6455 137.128C34.0301 137.045 33.3767 136.604 33.2295 136.044C32.8505 134.602 32.7686 133.076 32.8755 131.345ZM34.2915 135.682C35.9671 132.83 36.252 130.764 34.9994 128.092C34.2498 130.787 33.6039 133.082 34.2915 135.682Z" fill="#701A1A"/>
<path d="M49.5127 137.489C47.6793 135.629 46.9031 130.235 48.0968 128.092C48.5283 127.317 48.9328 126.832 49.8667 127.008C50.9508 127.212 51.558 128.2 51.6366 129.176C51.8814 132.224 51.8249 135.079 49.5127 137.489C49.5127 137.489 49.5112 137.49 49.5127 137.489ZM49.5127 128.454C49.2082 130.727 47.2341 132.898 49.1587 135.321C50.9058 132.563 51.0062 130.791 49.5127 128.454Z" fill="#701A1A"/>
<path d="M39.9552 138.212C39.3825 137.664 38.9225 136.945 38.8932 136.044C38.8293 134.077 38.5433 132.227 38.5393 130.261C38.5379 129.594 38.6533 128.723 38.8932 128.092C39.1386 127.446 39.9141 126.997 40.6632 127.008C41.6189 127.022 41.969 127.992 42.0791 128.815C42.4727 131.754 41.9975 134.483 40.6632 137.128C40.4592 137.532 40.1989 137.829 39.9552 138.212C39.9552 138.212 39.9542 138.213 39.9552 138.212ZM39.9552 135.682C40.6172 133.356 41.7414 130.986 40.3092 127.731C39.7902 130.81 38.8693 133.148 39.9552 135.682Z" fill="#701A1A"/>
</svg>
