<svg width="196" height="216" viewBox="0 0 196 216" fill="none" xmlns="http://www.w3.org/2000/svg">
<path d="M188.967 52.5603C200.546 84.2991 166.741 122.815 139.506 155.116C112.039 187.423 91.6068 213.504 69.5445 214.436C47.7092 215.167 24.2495 190.944 12.6777 167.797C1.11132 144.845 1.20578 123.168 11.6951 90.6923C21.9467 58.0271 42.8255 14.5567 81.6267 5.20798C120.428 -4.14078 177.394 21.0166 188.967 52.5603Z" fill="#FFEDD8"/>
<path d="M110.673 25.2016C111.003 24.2944 111.919 23.5359 111.628 22.4727C111.364 21.5038 111.741 21.0139 112.854 20.5988C115.884 19.4686 115.85 19.4052 114.269 17.157C114.023 16.8071 113.8 16.4454 113.279 15.6517C114.998 16.0421 115.656 17.0088 116.467 17.7025C117.87 18.9027 119.259 20.0272 121.458 19.7194C123.642 19.4139 124.535 20.5001 125.251 22.1076C126.883 25.7762 127.41 29.7391 129.34 33.3204C130.124 34.7727 129.739 35.9433 128.295 36.9978C126.461 38.3375 124.833 39.8927 122.973 41.2033C121.405 42.3082 121.169 43.1502 122.57 44.6103C124.375 46.4916 123.846 47.2583 120.937 47.5887C116.75 48.0647 116.686 48.0668 116.874 51.759C117.12 56.6165 117.536 61.4679 117.769 66.3254C117.887 68.7774 118.991 70.2883 121.659 71.488C128.481 74.5555 134.993 78.1373 142.163 80.6284C143.048 80.9362 143.836 81.4478 144.691 81.8281C148.622 83.5772 150.165 85.9093 149.855 90.1413C149.248 98.4414 149.799 106.806 149.918 115.144C149.931 116.064 149.705 117.295 150.996 117.682C152.256 118.06 152.07 118.387 151.325 118.988C149.716 120.286 149.519 121.822 150.383 123.82C153.03 123.321 155.616 122.663 158.287 121.772C154.496 125.372 149.02 127.694 148.027 133.441C152.552 132.074 154.375 127.911 158.742 126.476C157.824 128.857 156.106 130.571 154.083 132.104C133.811 147.472 114.753 163.995 94.3387 179.226C91.4548 181.378 88.3899 183.348 84.8721 185.772C85.2924 183.567 87.4647 183.12 87.9305 181.67C86.7777 180.856 86.041 182.514 84.2629 181.729C94.0052 175.423 103 168.765 111.176 161.272C103.887 162.353 96.9041 163.244 90.9287 167.82C82.4155 174.34 72.9625 179.905 63.2092 185.035C61.1397 186.123 59.8484 186.178 58.6805 184.059C69.702 177.375 80.6965 170.706 91.9312 163.893C89.481 162.228 87.6928 163.043 85.7497 164.169C74.2788 170.818 62.1516 176.52 50.1898 182.456C48.889 183.101 47.0161 185.114 45.8151 183.061C44.9541 181.589 47.6624 181.184 48.9291 180.576C59.5961 175.459 69.885 169.804 80.2055 164.194C80.8665 163.834 81.6794 163.593 81.894 162.549C77.6802 161.326 73.6691 161.102 69.6769 163.363C58.3811 169.761 45.8958 174.285 34.2384 180.12C33.3463 180.567 32.38 181.422 31.5341 179.873C30.8787 178.674 31.4047 178.069 32.4848 177.527C37.891 174.812 43.2557 172.022 48.9954 169.857C54.4422 167.802 59.6995 165.431 64.8524 162.884C65.9165 162.358 67.2193 162.005 67.8376 160.696C65.3118 159.208 62.8732 159.556 60.3213 160.676C49.7415 165.32 39.1422 169.931 28.5343 174.528C26.3881 175.457 24.0814 176.132 22.0184 177.176C20.0251 178.185 18.8998 177.097 17.2565 176.097C20.1645 174.142 23.4862 173.127 26.6062 171.886C34.0408 168.931 41.4108 165.874 48.5525 162.419C51.6415 160.924 54.8539 159.703 58.1429 158.584C61.1251 157.57 61.6967 155.826 59.2516 154.413C56.9825 153.102 56.614 151.351 56.3101 149.479C52.8977 128.438 49.5073 107.396 48.3098 86.1405C48.0601 81.7081 47.4839 77.2901 47.2417 72.8477C47.1364 70.9164 47.7652 69.7889 49.3052 68.567C53.9492 64.8818 59.6453 63.5065 65.6222 63.2335C74.0963 62.8471 82.605 62.5685 91.0671 63.6734C92.4858 63.8586 93.948 63.7782 95.3862 63.8699C97.1248 63.9807 97.9557 63.3839 98.2786 61.8234C98.9847 58.4104 99.8903 55.0273 100.781 51.6451C101.197 50.0677 101.504 48.9123 99.1095 48.0268C97.3589 47.3796 96.2567 45.7065 95.4394 43.8887C93.585 39.7632 91.0727 35.8742 89.1516 31.7452C87.7906 28.8198 87.4687 26.4795 90.9709 24.6008C91.884 24.111 92.6573 23.3929 92.9351 22.3366C93.4501 20.3788 94.0262 19.8098 95.821 19.0192C95.8661 17.4787 93.6772 17.0032 93.5413 15.1992C94.996 15.4574 95.5823 16.4998 96.4583 17.1422C97.8097 18.1333 99.1311 19.2495 101.052 19.1609C104.221 19.0148 105.709 20.4966 106.377 22.9565C106.851 24.7021 108.302 25.4076 110.258 25.4889C113.711 27.2971 115.909 27.0168 119.41 24.1536C116.153 23.2694 113.372 23.9271 110.673 25.2016ZM95.3862 153.896C100.378 153.947 104.351 153.491 108.257 152.714C112.585 151.853 112.907 151.321 112.324 147.571C112.068 145.922 111.885 144.265 111.711 142.608C111.246 138.185 110.795 133.761 110.359 129.336C110.175 127.472 109.389 126.757 106.954 127.101C90.4529 129.431 74.1515 128.239 58.013 124.701C54.6859 123.972 54.1368 124.274 54.5078 127.131C55.3312 133.473 56.4199 139.789 57.2855 146.127C57.638 148.709 59.1975 149.801 62.0649 150.449C73.3241 152.995 84.8626 153.228 95.3862 153.896ZM53.7587 83.7455C66.1898 82.3684 78.6756 82.1789 91.1774 82.3197C93.7389 82.3484 96.3385 82.4349 98.8588 82.1219C106.88 81.1261 107.218 82.6401 106.473 74.0709C106.073 69.472 105.962 69.552 100.385 69.326C88.3538 68.8391 76.3609 69.8628 64.345 69.9349C60.9802 69.9549 57.6059 69.9045 54.2536 70.1079C48.7316 70.4426 48.3795 70.9347 48.2727 75.6283C48.188 79.3444 49.4281 82.877 49.6307 86.6196C55.2475 84.6331 57.6675 85.8289 57.9293 90.4773C58.0777 93.1136 58.2928 95.7356 58.6875 98.3606C59.8619 106.165 59.8534 114.069 61.5844 121.888C58.4965 122.512 56.7228 120.129 53.9814 120.102C53.7507 121.771 54.7415 122.416 56.2915 122.724C57.8476 123.033 59.4522 123.236 60.9405 123.71C67.1411 125.684 73.5783 125.331 79.9759 125.435C76.0545 124.732 72.093 124.342 68.1445 123.873C65.386 123.544 63.8284 122.555 63.2187 119.746C61.1366 110.146 61.0193 100.416 60.0605 90.7455C59.7426 87.5385 60.1197 87.6289 63.7863 86.4474C69.0607 84.7478 74.2603 86.127 79.4805 86.4122C83.8412 86.65 84.4499 87.1529 84.7799 90.8772C85.32 96.9679 85.6549 103.072 86.1012 109.169C86.4262 113.605 86.6859 118.047 87.1904 122.467C87.393 124.241 86.7767 125.429 83.788 126.43C91.8845 126.633 98.5945 126.526 105.275 125.654C109.504 125.102 109.526 125.121 109.566 121.223C109.581 119.78 109.569 118.336 109.569 116.893C109.305 118.277 109.379 119.662 109.289 121.039C109.116 123.671 108.567 124.172 105.592 124.367C101.758 124.619 97.9211 124.885 94.0804 124.986C90.4985 125.079 90.0768 124.838 89.7418 121.882C88.5519 111.375 87.7781 100.846 87.6011 90.283C87.5635 88.0444 88.61 86.9951 91.007 86.5548C96.2768 85.5863 101.545 84.8795 106.974 86.3522C106.444 83.1052 106.437 83.0243 102.758 83.2704C86.4372 84.3627 70.1002 83.832 53.7587 83.7455ZM128.893 113.594C126.323 115.416 124.488 116.696 122.681 118.004C119.983 119.956 117.421 122.069 114.577 123.843C112.658 125.04 111.845 126.35 112.05 128.361C112.77 135.397 113.356 142.443 114.094 149.478C114.312 151.564 115.134 151.859 117.192 150.596C120.579 148.515 123.747 146.153 127.221 144.194C129.54 142.886 130.419 141.342 130.18 139.025C129.412 131.567 129.064 124.092 129.21 116.601C129.223 115.923 129.073 115.243 128.893 113.594ZM104.921 101.027C104.921 98.804 105.043 97.2678 104.901 95.7503C103.986 85.9788 105.426 86.9512 93.8016 87.618C90.4418 87.8106 90.4523 88.1435 90.5401 91.3627C90.7673 99.6959 91.4989 107.989 92.5986 116.269C93.2645 121.282 93.6021 121.647 99.3162 120.942C100.109 120.845 100.905 120.683 101.698 120.688C105.776 120.714 106.003 120.665 106.09 116.534C106.206 111.1 104.646 105.767 104.921 101.027ZM122.519 115.668C118.697 116.467 118.721 116.466 118.481 113.114C117.927 105.356 117.323 97.6012 116.798 89.8418C116.695 88.3252 116.656 86.7656 116.948 85.2794C117.285 83.5686 120.335 81.4991 121.844 81.8546C123.918 82.3436 123.366 84.0515 123.703 85.3329C123.732 85.4411 123.847 85.5324 123.922 85.6315C123.993 85.5094 124.112 85.392 124.126 85.2651C124.329 83.5207 123.931 81.1474 127.055 81.4425C129.706 81.6934 129.082 83.9428 129.115 85.5007C129.321 95.3291 129.177 105.166 130.166 114.974C130.245 115.757 129.873 116.698 130.953 117.192C131.161 117.288 131.608 117.204 131.81 117.06C133.075 116.164 131.716 115.712 131.365 115.053C131.106 114.568 130.979 113.995 130.956 113.455C130.647 106.243 130.287 99.0313 130.119 91.8165C130.052 88.9664 130.603 88.5169 133.936 88.3026C135.146 88.2248 136.074 87.824 137.051 87.405C139.19 86.4887 139.484 84.4066 137.627 83.233C136.993 82.8326 136.184 82.644 135.464 82.3445C127.673 79.1023 119.693 76.1752 112.551 71.8575C111.41 71.1677 110.195 70.3522 107.963 70.9169C108.468 76.8128 107.825 82.8692 109.579 89.2246C109.757 88.5499 109.855 88.2883 109.892 88.0201C110.173 86.0053 110.685 83.7724 113.503 83.8424C116.606 83.9198 115.798 86.4744 115.838 88.0957C116.008 95.0384 117.036 101.939 117.01 108.895C116.999 112.024 117.683 115.155 118.078 118.507C120.22 118.059 121.303 116.932 122.519 115.668ZM132.24 140.778C135.007 139.138 137.578 137.138 140.075 135.067C140.98 134.317 140.745 133.27 140.735 132.306C140.683 127.448 140.692 122.588 140.547 117.732C140.508 116.422 141.028 114.943 139.579 113.676C137.088 114.71 135.658 116.922 133.304 118.042C130.632 119.315 130.051 121.273 130.419 123.67C131.138 128.364 130.991 133.09 131.134 137.806C131.161 138.723 130.814 139.766 132.24 140.778ZM72.9073 97.6399C72.9073 97.5655 72.9078 97.4912 72.9083 97.4169C74.9894 97.4169 77.0705 97.4343 79.151 97.4134C83.7349 97.3678 84.0102 97.0883 83.4972 93.0566C83.3919 92.2282 83.2178 91.4066 83.106 90.579C82.9375 89.3258 82.2215 88.4843 80.7286 88.3452C75.9592 87.9005 71.2089 86.9955 66.3794 87.5806C61.1196 88.2179 60.902 88.5321 61.6286 93.2097C61.757 94.036 61.8883 94.8627 61.9746 95.6925C62.1546 97.4321 63.3215 98.0859 65.225 97.9924C67.785 97.8668 70.3459 97.7568 72.9073 97.6399ZM74.32 111.454C74.32 111.346 74.32 111.238 74.3205 111.13C75.1198 111.13 75.9196 111.118 76.7189 111.132C84.8736 111.276 84.8045 111.284 83.8968 104.206C83.6611 102.368 82.9049 101.518 80.7361 101.311C75.6092 100.822 70.5089 101.36 65.398 101.415C64.2246 101.428 63.1049 101.781 62.9971 103.001C62.7895 105.357 62.8511 107.718 63.5587 110.015C63.9754 111.368 65.3484 111.44 66.6562 111.449C69.2111 111.466 71.766 111.454 74.32 111.454ZM52.6259 68.407C58.8224 68.2662 64.8715 68.1332 70.9266 68.055C76.8363 67.9785 82.746 67.7681 88.6506 67.5299C94.5077 67.2938 100.394 68.4405 106.903 67.5503C105.042 66.4962 103.701 66.0342 102.274 65.9346C89.3762 65.0348 76.4792 63.9182 63.5231 64.974C59.5871 65.2948 55.8147 66.2006 52.6259 68.407ZM62.829 156.238C64.1915 157.84 65.556 157.761 66.7439 158.035C73.5627 159.609 80.5686 160.15 87.5249 161.033C96.3821 162.156 104.704 160.877 112.914 158.242C113.651 158.006 114.448 157.737 115.001 157.285C115.77 156.655 115.806 155.724 115.17 155.024C114.474 154.257 113.636 154.851 113.14 155.303C111.822 156.504 110.085 156.754 108.378 157.076C96.163 159.385 83.9354 159.049 71.6908 157.23C68.9423 156.821 66.2495 155.884 62.829 156.238ZM72.9034 114.922C72.8994 114.949 72.8953 114.975 72.8918 115.002C70.6628 115.002 68.4334 114.982 66.2049 115.012C65.394 115.023 64.6433 115.21 64.3475 116.016C63.6199 117.996 65.4762 120.635 67.9223 120.829C72.9926 121.234 78.0754 121.523 83.1541 121.85C83.9519 121.901 84.7794 121.909 85.2502 121.204C86.3896 119.496 84.2874 115.791 81.9411 115.555C78.9399 115.253 75.9166 115.125 72.9034 114.922ZM52.1876 91.84C52.1365 91.8448 52.0853 91.8495 52.0342 91.8548C52.7382 97.2178 53.4553 102.58 54.1408 107.945C54.4572 110.42 54.6653 112.906 55.0148 115.377C55.1983 116.677 56.1772 117.357 57.6941 117.131C58.9593 116.943 58.8023 115.956 58.852 115.152C58.8775 114.738 58.8575 114.32 58.8144 113.907C58.0085 106.19 57.2082 98.4727 56.3673 90.7589C56.279 89.9509 56.1075 89.0868 55.6768 88.3861C55.1202 87.4806 54.048 86.9903 52.8445 87.295C51.6706 87.5919 51.7544 88.5243 51.8506 89.3658C51.9454 90.1917 52.0738 91.0154 52.1876 91.84ZM147.938 112.765C143.014 114.607 141.294 117.274 141.885 121.308C142.287 124.047 142.02 126.857 142.161 129.63C142.213 130.666 142.073 131.855 143.568 132.681C145.425 131.511 148.075 130.792 148.159 128.396C148.337 123.318 148.585 118.22 147.938 112.765ZM122.308 97.0583C122.308 93.8404 122.323 89.6983 122.292 85.5563C122.287 84.8947 122.311 84.048 121.324 83.8702C120.299 83.6859 119.423 84.1723 118.997 84.9495C118.671 85.5441 118.52 86.2796 118.553 86.9425C118.94 94.6619 119.371 102.38 119.808 110.097C119.846 110.768 119.864 111.562 120.982 111.57C121.889 111.576 122.555 111.023 122.716 110.361C122.939 109.438 122.909 108.454 122.866 107.499C122.726 104.327 122.532 101.157 122.308 97.0583ZM113.47 47.1401C111.666 48.6436 109.53 48.1385 107.521 48.1085C106.291 48.0903 105.215 48.1468 105.304 49.5613C105.629 54.74 105.976 59.9174 108.329 64.9088C110.791 59.2189 112.271 53.3694 113.47 47.1401ZM114.554 116.725C116.183 115.878 115.818 114.556 115.803 113.382C115.697 104.932 114.241 96.5288 114.651 88.0609C114.671 87.6506 114.58 87.2342 114.519 86.8225C114.433 86.2249 114.045 85.7211 113.407 85.6098C112.752 85.495 112.231 85.8993 111.861 86.3961C111.019 87.5271 111.152 88.7599 111.263 90.0165C111.925 97.473 112.534 104.933 113.223 112.388C113.357 113.833 113.027 115.436 114.554 116.725ZM118.305 156.155C127.645 149.092 136.952 142.703 145.38 135.257C144.152 134.569 143.59 134.97 143.159 135.297C135.555 141.042 127.344 146.097 119.13 151.142C117.035 152.43 117.487 153.876 118.305 156.155ZM59.1754 151.737C68.5321 157.59 104.332 158.798 111.203 153.905C93.8257 156.665 76.4938 155.098 59.1754 151.737ZM105.361 36.3041C107.269 36.1602 108.074 36.1393 108.861 36.0302C109.755 35.9059 110.454 35.4212 110.08 34.6197C108.655 31.5561 107.722 28.2126 104.25 26.2113C103.363 25.7001 102.6 24.7278 101.314 25.4489C100.013 26.1783 99.104 27.1989 99.5679 28.586C100.145 30.3116 101.027 31.959 101.662 33.6721C102.438 35.762 104.073 36.4918 105.361 36.3041ZM146.946 97.9563C147.132 97.9668 147.319 97.9776 147.505 97.9881C147.692 95.5178 147.897 93.0484 148.061 90.5773C148.307 86.8821 148.299 86.8704 144.201 85.6328C143.209 85.3333 142.258 84.5826 140.96 85.3516C140.96 87.8892 140.944 90.4999 140.963 93.1101C141.008 99.4751 142.085 105.804 141.858 112.18C141.833 112.87 141.947 113.668 143.112 113.42C143.419 113.354 143.875 112.707 143.779 112.481C141.678 107.531 143.135 102.307 142.186 97.2708C141.797 95.2083 141.918 93.1162 142.965 91.1675C143.298 90.546 143.802 89.957 144.746 89.9935C145.742 90.0317 146.123 90.7372 146.217 91.3871C146.533 93.5687 146.713 95.7656 146.946 97.9563ZM100.458 35.8724C100.299 33.7408 98.8939 31.8399 98.0811 29.803C97.4618 28.2513 91.9201 27.4623 90.5321 28.6164C90.2493 28.8516 90.0191 29.4118 90.1455 29.6948C91.1138 31.8643 91.8314 34.2085 93.3242 36.0802C94.4058 37.4368 96.4132 35.8181 98.0349 35.9294C98.7736 35.9807 99.4937 36.5223 100.458 35.8724ZM123.827 34.8079C127.449 34.8579 127.864 34.3632 126.741 31.3918C126.192 29.9404 125.637 28.4808 124.913 27.0924C124.357 26.027 123.91 24.4278 121.897 25.282C120.217 25.9944 118.151 26.6803 118.779 28.8928C119.159 30.2356 119.819 31.517 120.291 32.8427C120.869 34.4662 122.198 34.9557 123.827 34.8079ZM115.859 69.0756C115.526 63.6165 115.573 58.7299 114.392 53.8711C112.938 57.4354 111.914 61.0506 110.676 64.6102C110.079 66.3258 110.75 67.2652 112.472 67.8928C113.339 68.2084 114.217 68.5036 115.859 69.0756ZM111.444 37.7402C108.619 38.6439 106.893 40.8434 104.301 41.9075C103.697 42.1548 103.547 42.7629 103.671 43.3506C103.844 44.166 104.506 44.5134 105.374 44.4842C107.763 44.4047 110.163 44.3699 112.533 44.1269C114.646 43.91 115.172 42.8851 114.107 41.2302C113.343 40.0453 112.382 38.9565 111.444 37.7402ZM103.262 52.8126C102.979 52.7796 102.696 52.7461 102.413 52.7131C101.752 54.8295 101.07 56.9412 100.442 59.065C100.165 60.003 99.8918 60.9585 99.8061 61.9191C99.6601 63.553 100.845 64.345 103.265 64.4537C105.413 64.5502 105.079 63.1909 104.927 62.1816C104.456 59.0494 103.829 55.9345 103.262 52.8126ZM132.573 90.9941C130.894 92.9667 131.809 95.1005 131.926 97.1778C132.05 99.3764 132.018 101.59 132.315 103.771C132.581 105.731 131.621 107.91 133.679 110.34C134.005 103.384 133.456 97.193 132.573 90.9941ZM126.985 83.5286C125.662 86.0584 126.252 104.68 126.985 107.364C126.985 99.4338 126.985 91.4814 126.985 83.5286ZM83.116 113.623C77.1542 112.124 71.1603 112.725 65.1709 112.729C65.1643 113.027 65.1578 113.325 65.1513 113.623C71.1402 113.623 77.1281 113.623 83.116 113.623ZM117.989 33.453C117.578 28.1578 117.3 27.9813 109.363 28.7159C113.229 29.9765 114.697 32.6919 117.989 33.453ZM100.52 23.6445C96.7913 23.2229 93.7374 22.886 91.9628 26.1587C97.562 26.5856 97.562 26.5856 100.52 23.6445ZM117.587 71.7197C116.901 71.8845 116.746 72.1674 117.084 72.3665C121.01 74.6768 125.318 76.3099 129.748 77.7326C125.906 75.2723 121.89 73.1059 117.587 71.7197Z" fill="#701A1A"/>
<path d="M146.748 38.3147C141.876 35.5248 137.005 32.7352 132.134 29.9453C137.765 31.7494 142.729 34.4187 147.338 37.5475C147.141 37.803 146.945 38.0588 146.748 38.3147Z" fill="#701A1A"/>
<path d="M81.4522 140.86C81.4182 143.449 79.6321 145.071 76.7573 145.122C73.2022 145.186 70.5191 143.043 70.473 140.103C70.4228 136.913 72.5836 134.696 75.6774 134.763C78.8893 134.832 81.4953 137.584 81.4522 140.86Z" fill="#701A1A"/>
</svg>
