<svg width="84" height="88" viewBox="0 0 84 88" fill="none" xmlns="http://www.w3.org/2000/svg">
<path d="M76.4501 54.7207C75.9486 54.8965 75.4624 55.1028 74.9631 55.3307C74.4467 55.5604 73.9438 55.8192 73.4566 56.1057C72.9595 56.4009 72.432 56.7113 71.9262 57.0782L71.1534 57.6404C72.5241 55.6477 73.6934 53.5236 74.644 51.2996C74.7004 51.1672 74.7525 51.0326 74.8068 50.898C77.3661 50.5919 79.3763 49.5022 80.822 47.9197C82.4284 46.1831 83.4117 43.9103 84 41.5094C83.0822 41.9707 82.1882 42.4779 81.3213 43.029C80.8871 43.309 80.453 43.5999 80.0188 43.9168C79.5876 44.236 79.1731 44.5773 78.7771 44.9392C78.3497 45.3093 77.9438 45.7036 77.5615 46.1201L76.9689 46.7844C76.7692 47.0015 76.5738 47.2511 76.3828 47.4986C76.1657 47.7851 75.9486 48.0782 75.7207 48.3842C76.2579 46.7038 76.6722 44.9866 76.9602 43.246L77.0492 42.7294L77.1122 42.2084L77.2402 41.1686C77.2576 41.034 77.2706 40.8994 77.2793 40.7627C77.7002 40.578 78.1098 40.3686 78.5058 40.1353C78.7923 39.966 79.068 39.7858 79.3285 39.597C79.5853 39.4135 79.8304 39.2141 80.0622 39C80.5103 38.5895 80.9207 38.1398 81.2887 37.6563C81.4692 37.4206 81.6352 37.1741 81.7858 36.9182C81.9356 36.6664 82.0767 36.4081 82.2069 36.1433C83.2446 34.0268 83.5246 31.5651 83.3857 29.0948C83.0188 29.4508 82.6672 29.809 82.3003 30.1802C81.9334 30.5514 81.5883 30.9269 81.254 31.3198C80.5597 32.1196 79.9331 32.9757 79.3806 33.8792C78.5547 35.2441 77.8917 36.7013 77.4052 38.2207C77.4052 38.1621 77.4052 38.1035 77.4052 38.0449C77.4052 37.6997 77.4291 37.3546 77.4052 37.0094C77.3878 36.3213 77.377 35.6353 77.3162 34.9559C77.2323 33.6092 77.0722 32.2684 76.8365 30.9399L76.7127 30.343C77.0813 30.0346 77.4301 29.7033 77.7569 29.3509C78.1897 28.8767 78.5751 28.3613 78.9074 27.8119C79.2251 27.2935 79.4863 26.7426 79.6867 26.1686C79.7865 25.8864 79.8755 25.602 79.9515 25.3133C80.0257 25.0274 80.0837 24.7375 80.1252 24.445C80.5007 22.1114 80.0405 19.6693 79.1831 17.3531C78.204 19.1397 77.2988 20.9783 76.7627 23.1013C76.3731 24.692 76.1656 26.3219 76.144 27.9595C76.0615 27.6795 75.9768 27.3994 75.8944 27.1194C75.7207 26.4986 75.4928 25.9016 75.2887 25.3025C75.191 25.0029 75.0608 24.7164 74.9479 24.4233C74.835 24.1303 74.7308 23.8415 74.5984 23.555C74.1382 22.5152 73.6628 21.508 73.1375 20.5593C74.5897 18.3278 75.0022 16.0507 74.7004 13.8777C74.3748 11.5376 73.2287 9.34298 71.733 7.37627C71.3162 9.3712 70.9754 11.39 71.0926 13.5738C71.1841 15.2665 71.4756 16.9424 71.9609 18.5666C70.5153 16.2722 68.8078 14.1538 66.8727 12.254C67.6281 9.67945 67.3654 7.36324 66.4385 5.35962C65.4486 3.21491 63.7142 1.45224 61.7084 0C61.8886 2.03184 62.1621 4.05934 62.9001 6.12156C63.5037 7.76777 64.3055 9.33431 65.288 10.7865C64.268 9.89226 63.1951 9.06008 62.0753 8.2945L61.3849 7.82562L60.9899 7.57815C60.3419 6.5661 59.5357 5.66462 58.602 4.90811C57.624 4.11579 56.5095 3.50885 55.3133 3.11722C53.0557 2.38567 50.8025 2.52894 48.7533 3.02822C50.4725 4.27641 52.1114 5.47468 54.0456 6.37554C55.0799 6.85833 56.1578 7.24139 57.2648 7.51954C58.3765 7.79512 59.5017 8.01249 60.636 8.17077L60.9899 8.39653L61.6628 8.86324C62.7552 9.62185 63.8006 10.4461 64.7931 11.3314C64.2867 11.0889 63.7619 10.8871 63.2236 10.7279C62.6744 10.5739 62.1118 10.4721 61.5434 10.424C61.0247 10.3862 60.5035 10.3979 59.987 10.4588C57.992 10.7106 56.3596 11.6679 54.9161 12.8466C56.5029 13.2808 58.1136 13.7149 59.9978 13.7779C61.7627 13.8408 63.7858 13.5912 66.3408 12.7923C68.2169 14.664 69.8691 16.7475 71.2641 19.0007C70.8867 18.6683 70.4862 18.3629 70.0658 18.0868C69.5852 17.7794 69.0764 17.5185 68.5463 17.3075C68.0599 17.1208 67.557 16.9805 67.0441 16.8886C65.0622 16.5499 63.2214 16.9906 61.5 17.6896C62.8893 18.5796 64.309 19.4544 66.0955 20.0622C67.754 20.6288 69.7446 20.9761 72.3907 20.9588C73.4862 22.9936 74.3672 25.1368 75.0195 27.3538C75.102 27.6382 75.1867 27.9248 75.2692 28.2221C75.1889 28.0984 75.1085 27.9769 75.026 27.8618C74.8408 27.5999 74.6534 27.3524 74.4638 27.1194C74.0935 26.6865 73.6844 26.2883 73.2417 25.9298C72.8312 25.6072 72.3924 25.3224 71.9305 25.0789C70.131 24.178 68.2402 24.0651 66.3929 24.2344C67.4631 25.487 68.5637 26.733 70.0832 27.8336C70.2742 27.9725 70.4826 28.1049 70.6845 28.2395C70.8864 28.3741 71.097 28.5065 71.3205 28.6368C71.7656 28.8951 72.254 29.1426 72.7641 29.3857C73.2742 29.6288 73.8495 29.8567 74.4573 30.0782C74.877 30.2316 75.322 30.3763 75.7923 30.5123C75.8292 30.6947 75.864 30.877 75.9009 31.0593C76.1283 32.3521 76.2827 33.6566 76.3632 34.9667C76.4327 36.0261 76.4501 37.1006 76.4197 38.1773C76.3915 38.0796 76.3654 37.9819 76.3372 37.8886C76.2493 37.5924 76.142 37.3023 76.0159 37.0203C75.8922 36.7424 75.7641 36.4797 75.6273 36.2301C75.4996 35.9842 75.3545 35.7477 75.1932 35.5224C74.347 34.2936 73.1709 33.3289 71.8003 32.7395C71.3766 32.5489 70.9416 32.3844 70.4978 32.2467C70.0637 32.1078 69.5948 31.9971 69.1411 31.9016C69.7923 33.4211 70.4805 34.9407 71.6223 36.4363C71.7634 36.623 71.9153 36.8119 72.076 37.0007C72.2366 37.1896 72.4059 37.3806 72.5752 37.5695C72.9402 37.9713 73.328 38.3518 73.7366 38.7091C73.9537 38.9023 74.1708 39.0934 74.4096 39.2844C74.6483 39.4754 74.8871 39.6708 75.1476 39.864C75.4906 40.1245 75.8683 40.385 76.2634 40.6476C76.1831 41.4378 76.0789 42.2279 75.9399 43.0138C75.6451 44.7144 75.2257 46.3912 74.6852 48.0304C74.6941 47.6742 74.6753 47.3178 74.6288 46.9646C74.5941 46.6628 74.5463 46.3741 74.492 46.0962C74.4638 45.9573 74.4334 45.8206 74.4009 45.6881C74.3683 45.5557 74.3205 45.4211 74.2771 45.2909C73.9752 44.3271 73.4836 43.4333 72.8314 42.6621C72.533 42.2961 72.2025 41.9575 71.8437 41.6505C71.137 41.0448 70.367 40.5172 69.547 40.0767C69.7272 41.7156 69.9443 43.3611 70.6042 45.1281C71.2185 46.7475 72.1498 48.4646 73.78 50.466C73.7323 50.5811 73.6867 50.6961 73.6389 50.809C72.6935 52.9708 71.5351 55.0331 70.1809 56.9653C70.2729 56.6701 70.3454 56.3691 70.398 56.0644C70.6082 54.9922 70.6016 53.8887 70.3784 52.8191C70.2721 52.3401 70.1232 51.8715 69.9334 51.419C69.7531 50.9827 69.5352 50.5628 69.2822 50.1643C68.7823 49.3809 68.2001 48.6532 67.5456 47.9935C67.2395 49.6107 66.9616 51.2496 67.0724 53.1339C67.0919 53.6006 67.1614 54.102 67.2308 54.6035C67.3091 55.141 67.4178 55.6737 67.5564 56.199C67.7019 56.7591 67.8625 57.33 68.0796 57.9356C68.212 58.3133 68.364 58.7084 68.5268 59.1143C66.9634 60.9916 65.207 62.6992 63.2865 64.2091C63.4313 63.9834 63.5637 63.7598 63.6838 63.5384C63.9402 63.0293 64.1544 62.5 64.3242 61.9559C64.4628 61.4536 64.5565 60.94 64.6042 60.4211C64.6481 59.9327 64.643 59.4411 64.589 58.9537C64.5402 58.4859 64.4575 58.0223 64.3415 57.5666C64.091 56.6649 63.7469 55.7918 63.3148 54.9617C62.555 56.4269 61.7952 57.9117 61.3611 59.7374C61.3046 59.9675 61.2547 60.2041 61.2113 60.4494C61.1679 60.6947 61.1179 60.9334 61.0832 61.1896C61.006 61.7287 60.9568 62.2713 60.9356 62.8155C60.8877 63.8232 60.9124 64.833 61.0094 65.8372C60.2561 66.3365 59.4899 66.7967 58.7453 67.2135C57.4116 67.9569 56.0293 68.6096 54.6078 69.1672C54.7771 69.0196 54.9399 68.8698 55.0919 68.7222C55.4907 68.3181 55.8518 67.8785 56.1708 67.4088C56.32 67.1892 56.4535 66.9593 56.5702 66.7207C56.6874 66.4884 56.7873 66.2562 56.8871 66.0239C56.987 65.7916 57.0608 65.5615 57.1302 65.3314C57.1997 65.1013 57.254 64.8582 57.2996 64.6216C57.3886 64.1588 57.443 63.6901 57.4624 63.2193C57.4873 62.286 57.4102 61.3528 57.2323 60.4363C56.9392 60.7229 56.6614 61.0333 56.3748 61.335C56.0883 61.6368 55.8039 61.945 55.5347 62.2815C55.2471 62.6061 54.9789 62.9476 54.7316 63.3039C54.4754 63.673 54.2149 64.0311 53.9783 64.4457C53.11 65.8936 52.398 67.7019 51.8705 70.1288H51.8575L50.6071 70.4783L49.4132 70.7518C49.22 70.7931 49.0311 70.8408 48.8444 70.8777L48.2909 70.9732L47.2424 71.1556L46.2721 71.2772C45.9638 71.3119 45.6708 71.3575 45.3907 71.3792L44.5962 71.4356C44.0991 71.4747 43.6671 71.5073 43.2938 71.5073L42.4103 71.5268H41.5789L40.7106 71.5073C40.5304 71.5073 40.3307 71.5073 40.1158 71.4877L39.4233 71.4378L38.6353 71.3813C38.3553 71.3618 38.0644 71.314 37.767 71.2793L36.7988 71.1621L35.7547 70.9798L35.2012 70.8842C35.0145 70.8495 34.8256 70.8018 34.6346 70.7583L33.4428 70.4892C33.0217 70.3698 32.5876 70.2525 32.1404 70.1245C31.6129 67.6932 30.8922 65.8893 30.0326 64.4414C29.7959 64.0268 29.5355 63.6686 29.2793 63.2996C29.0306 62.9437 28.7617 62.6023 28.474 62.2771C28.2048 61.9407 27.9247 61.6259 27.636 61.3307C27.3473 61.0355 27.0716 60.7185 26.7677 60.432C26.5916 61.3487 26.5152 62.2818 26.5398 63.2149C26.5591 63.6858 26.6136 64.1545 26.7026 64.6172C26.7482 64.8539 26.8025 65.0926 26.8698 65.3271C26.937 65.5615 27.0217 65.7895 27.115 66.0196C27.2084 66.2497 27.3148 66.4841 27.432 66.7164C27.5487 66.9549 27.6821 67.1849 27.8314 67.4045C28.1474 67.8799 28.5064 68.3253 28.9038 68.7352C29.0557 68.8828 29.2185 69.0326 29.3878 69.1802C27.9812 68.6317 26.6127 67.9899 25.2916 67.2591C24.5232 66.8379 23.7525 66.369 22.9863 65.8611C23.0833 64.8562 23.1079 63.8456 23.0601 62.8372C23.0389 62.2931 22.9896 61.7504 22.9124 61.2113C22.8777 60.9552 22.8278 60.7164 22.7844 60.4711C22.741 60.2258 22.691 59.9892 22.6346 59.7591C22.2004 57.9248 21.4385 56.44 20.6809 54.9834C20.2488 55.8135 19.9046 56.6866 19.6541 57.5883C19.536 58.0436 19.4533 58.5074 19.4067 58.9754C19.3527 59.4628 19.3476 59.9544 19.3915 60.4429C19.4392 60.9617 19.5329 61.4753 19.6715 61.9776C19.8448 62.522 20.0626 63.0513 20.3227 63.5601C20.4443 63.7771 20.5767 64.0051 20.7221 64.2308C18.7963 62.716 17.0355 61.0025 15.4689 59.1187C15.6339 58.7127 15.7858 58.3177 15.9182 57.94C16.1353 57.3256 16.2938 56.7547 16.4392 56.2033C16.5798 55.6762 16.6892 55.1413 16.767 54.6013C16.8365 54.0999 16.9059 53.5984 16.9255 53.1317C17.0362 51.2475 16.7562 49.6086 16.4522 47.9913C15.7977 48.651 15.2155 49.3787 14.7156 50.1621C14.4626 50.5607 14.2447 50.9805 14.0644 51.4168C13.8784 51.8697 13.7331 52.3383 13.6302 52.8169C13.5273 53.3261 13.4692 53.8432 13.4566 54.3625C13.4543 54.9327 13.5059 55.5018 13.6107 56.0622C13.662 56.3686 13.7345 56.6711 13.8278 56.9674C12.4807 55.0476 11.3281 52.9985 10.3871 50.8502C10.3307 50.7222 10.2808 50.5919 10.2265 50.4638C11.8567 48.4624 12.7858 46.7453 13.4023 45.1259C14.0535 43.3589 14.2706 41.7135 14.4595 40.0745C13.6389 40.515 12.8681 41.0426 12.1606 41.6483C11.803 41.9566 11.4732 42.2959 11.1751 42.6621C10.8612 43.0398 10.5802 43.4435 10.335 43.869C10.0898 44.3249 9.88497 44.8014 9.72287 45.2931C9.67945 45.4233 9.63821 45.5557 9.59913 45.6903C9.56657 45.8227 9.53618 45.9595 9.50796 46.0984C9.45152 46.3741 9.40593 46.6628 9.36903 46.9667C9.3233 47.3222 9.30516 47.6808 9.31476 48.0391C8.77872 46.4116 8.36156 44.7473 8.06657 43.0593L7.9754 42.5579L7.9081 42.0521L7.77569 41.0449C7.75832 40.9146 7.7453 40.7822 7.73444 40.652C8.12952 40.3893 8.50724 40.1266 8.85239 39.8661C9.11288 39.6737 9.3589 39.4805 9.59045 39.2865C9.82055 39.0955 10.042 38.9045 10.2634 38.7113C10.672 38.354 11.0598 37.9735 11.4247 37.5716C11.5919 37.3828 11.7612 37.1918 11.924 37.0029C12.0868 36.814 12.2344 36.6252 12.3755 36.4385C13.5195 34.932 14.2055 33.4146 14.8589 31.9038C14.4052 31.9993 13.9428 32.1208 13.5022 32.2489C13.0584 32.3865 12.6234 32.5511 12.1997 32.7417C11.3191 33.1344 10.5117 33.674 9.81187 34.3372C9.44194 34.7021 9.10557 35.0995 8.8068 35.5246C8.647 35.7509 8.50198 35.9873 8.37265 36.2323C8.23806 36.4819 8.10999 36.7446 7.98625 37.0224C7.86019 37.3045 7.75286 37.5946 7.66498 37.8907C7.63676 37.9797 7.61288 38.0731 7.58466 38.1664C7.58466 38.1143 7.58466 38.0622 7.58466 38.0101C7.58466 37.6737 7.55644 37.3394 7.56946 37.0029C7.58249 36.3343 7.58466 35.6657 7.63893 35.0058C7.71894 33.6957 7.87258 32.3912 8.09913 31.0984C8.13603 30.9052 8.17511 30.712 8.21418 30.5188C8.68451 30.3741 9.1288 30.2294 9.54703 30.0847C10.157 29.8676 10.7279 29.6353 11.2424 29.3922C11.7569 29.1491 12.241 28.9016 12.686 28.6433C12.903 28.513 13.1201 28.3806 13.322 28.246C13.5239 28.1114 13.7323 27.979 13.9233 27.8401C15.4428 26.7395 16.5521 25.4935 17.6136 24.241C15.7619 24.0716 13.8755 24.1845 12.0781 25.0854C11.6161 25.3246 11.1765 25.6051 10.7648 25.9233C10.3225 26.279 9.9134 26.6743 9.54269 27.1042C9.35166 27.3372 9.16425 27.5847 8.98046 27.8466C8.89797 27.9617 8.81766 28.081 8.73734 28.2048L8.97829 27.3755C9.1411 26.7677 9.35818 26.1838 9.55138 25.5999C9.64472 25.3068 9.76845 25.0246 9.87699 24.7316C9.98553 24.4385 10.0941 24.1606 10.2113 23.885C10.6454 22.8647 11.1078 21.877 11.6136 20.9436C14.2598 20.9609 16.2525 20.6136 17.9088 20.047C19.6932 19.4392 21.1129 18.5644 22.5043 17.6744C20.7808 16.9754 18.9421 16.5347 16.958 16.8734C16.446 16.9656 15.9438 17.1059 15.458 17.2923C14.9279 17.5033 14.4191 17.7642 13.9385 18.0716C13.518 18.3522 13.1182 18.6627 12.7424 19.0007C13.5236 17.7379 14.3857 16.5269 15.3234 15.3755C16.1027 14.4226 16.8907 13.563 17.6635 12.7902C20.2164 13.589 22.2395 13.8386 24.0043 13.7757C25.8907 13.7127 27.5014 13.2894 29.0883 12.8444C27.6447 11.6744 26.0123 10.7171 24.0174 10.4566C23.5008 10.3957 22.9797 10.3841 22.4609 10.4219C21.8925 10.4699 21.33 10.5717 20.7808 10.7258C20.2424 10.885 19.7176 11.0868 19.2113 11.3292C20.203 10.4455 21.2469 9.62202 22.3372 8.86324L23.0101 8.39653L23.3878 8.15774C24.5221 7.99926 25.6474 7.78189 26.759 7.50651C27.866 7.22836 28.944 6.8453 29.9783 6.36252C31.9124 5.46165 33.5514 4.26339 35.2706 3.0152C33.2214 2.51592 30.9682 2.36397 28.7106 3.1042C27.5142 3.49538 26.3996 4.10235 25.4219 4.89508C24.4882 5.6516 23.682 6.55308 23.034 7.56512L22.6411 7.81042L21.953 8.27931C20.8271 9.0487 19.7491 9.886 18.725 10.7865C19.7075 9.33431 20.5094 7.76777 21.1129 6.12156C21.8509 4.05934 22.1223 2.03184 22.3046 0C20.2923 1.4479 18.5579 3.21491 17.5745 5.35962C16.6476 7.36324 16.3828 9.67728 17.1404 12.254C16.2959 13.0805 15.4945 13.9499 14.7395 14.8589C13.7584 16.0342 12.8555 17.2728 12.0369 18.5666C12.522 16.9423 12.8135 15.2665 12.9052 13.5738C13.0116 11.3857 12.6881 9.36686 12.254 7.37193C10.7605 9.33864 9.61433 11.5333 9.28871 13.8842C8.98698 16.055 9.39942 18.3343 10.8517 20.5659C9.71379 22.6407 8.79286 24.8274 8.10347 27.0912L7.84298 27.9595C7.82375 26.3232 7.61616 24.6945 7.22431 23.1056C6.6903 20.9826 5.78509 19.144 4.80608 17.3575C3.93777 19.678 3.48842 22.1158 3.86397 24.4494C3.90577 24.7416 3.96302 25.0315 4.03546 25.3177C4.1136 25.6064 4.20043 25.8907 4.30246 26.1729C4.50284 26.7469 4.7641 27.2978 5.08177 27.8162C5.41406 28.3656 5.7994 28.8811 6.23227 29.3553C6.55885 29.7071 6.90683 30.0384 7.27424 30.3473L7.15702 30.9096C6.91135 32.2353 6.74104 33.5739 6.64689 34.919C6.56657 36.0043 6.53835 37.1028 6.56006 38.2055C6.07462 36.6898 5.41308 35.2364 4.589 33.8748C4.03721 32.9714 3.41133 32.1153 2.7178 31.3155C2.38133 30.9226 2.03184 30.5449 1.67149 30.1758C1.31114 29.8068 0.96165 29.4486 0.586107 29.0905C0.447178 31.5608 0.727207 34.0224 1.76483 36.1389C1.89508 36.4038 2.03618 36.6621 2.18596 36.9139C2.33579 37.1703 2.50182 37.4168 2.68307 37.652C3.05094 38.1349 3.46063 38.5846 3.90738 38.9957C4.14002 39.2098 4.38579 39.4091 4.64327 39.5926C4.90376 39.7822 5.178 39.9617 5.46599 40.131C5.87092 40.3631 6.28998 40.5698 6.72069 40.7496C6.79667 41.5659 6.89653 42.3799 7.03328 43.1896C7.32002 44.9461 7.73724 46.6789 8.28148 48.3734C8.0644 48.0673 7.82779 47.7721 7.61722 47.4855C7.42619 47.2381 7.22865 46.9993 7.02894 46.7714L6.4385 46.1071C6.05601 45.69 5.64937 45.2957 5.22069 44.9262C4.82542 44.5643 4.4117 44.223 3.98119 43.9038C3.54703 43.5868 3.11288 43.296 2.67873 43.0159C1.81042 42.458 0.907381 41.9718 0 41.4964C0.588278 43.8973 1.56946 46.1744 3.17583 47.9067C4.62156 49.487 6.63169 50.5767 9.19103 50.885C9.23878 51.0044 9.28437 51.1237 9.3343 51.2431C10.2919 53.4875 11.4715 55.6306 12.8553 57.6404L12.0803 57.0825C11.5745 56.7156 11.047 56.4052 10.5478 56.11C10.0613 55.8235 9.55907 55.5648 9.04342 55.335C8.54414 55.1071 8.05572 54.9009 7.55427 54.725C7.05282 54.5492 6.54486 54.3994 6.05861 54.2562C5.07091 53.9761 4.05499 53.7786 3.05427 53.6049C4.31983 55.7323 5.92836 57.6187 7.97106 58.7996C8.48264 59.0978 9.0212 59.3471 9.57959 59.5442C10.1544 59.7415 10.7458 59.8868 11.3466 59.9783C11.9852 60.066 12.6309 60.09 13.2742 60.0499C13.6994 60.0247 14.1227 59.9747 14.542 59.9002C16.1476 61.8634 17.9565 63.6513 19.9385 65.2337C19.6737 65.1382 19.4088 65.0492 19.1462 64.9689C18.5776 64.7728 17.9976 64.6111 17.4096 64.4848C16.8599 64.3424 16.3025 64.2315 15.7402 64.1527C15.1867 64.0897 14.6548 64.029 14.136 64.0051C13.6172 63.9812 13.0832 63.9812 12.5644 64.0051C11.5399 64.033 10.5175 64.1142 9.50145 64.2482C11.3271 65.9154 13.4088 67.246 15.7164 67.7779C16.0029 67.8452 16.2916 67.9016 16.5847 67.945C16.8797 67.9868 17.1768 68.0121 17.4747 68.021C18.0813 68.0466 18.689 68.0139 19.2894 67.9233C20.3308 67.7498 21.3395 67.4182 22.2808 66.94C23.0579 67.4653 23.8357 67.9472 24.6143 68.3857C25.9983 69.1689 27.4336 69.8578 28.9103 70.4479C27.5071 70.3758 26.1003 70.4486 24.712 70.665C24.4385 70.7084 24.1715 70.7605 23.9067 70.8191C23.6418 70.8777 23.3878 70.9277 23.1317 70.9928C22.6194 71.1187 22.1201 71.2685 21.6274 71.4269C20.644 71.7569 19.7084 72.1303 18.7685 72.5492C19.3329 72.8054 19.8907 73.0615 20.466 73.2677C21.0412 73.474 21.6252 73.652 22.2026 73.8018C22.7857 73.9332 23.3756 74.0325 23.9696 74.0992C24.5583 74.1577 25.1508 74.1664 25.741 74.1252C27.9956 73.9766 30.1226 73.0256 31.7366 71.4443H31.7496L33.0521 71.8177L34.2916 72.1129C34.4913 72.1585 34.6867 72.2084 34.8821 72.2475L35.4595 72.3539L36.5449 72.5514L37.5543 72.686C37.8777 72.7251 38.1816 72.7728 38.4725 72.7989L39.2996 72.8662C39.8162 72.9096 40.2677 72.9465 40.6476 72.9486L41.568 72.9747H42.4363L43.3459 72.9486C43.5326 72.9486 43.741 72.9486 43.9624 72.9248L44.6852 72.8662L45.5058 72.801C45.7967 72.7772 46.1006 72.7272 46.4219 72.6881L47.4269 72.5557L48.5123 72.3582L49.0876 72.254C49.2808 72.2171 49.4761 72.165 49.6758 72.1194L50.9153 71.8285C51.3495 71.7004 51.8032 71.5745 52.2634 71.4378C53.8755 73.0273 56.0046 73.9856 58.2634 74.1382C58.8535 74.1795 59.4461 74.1707 60.0347 74.1122C60.6287 74.0455 61.2186 73.9462 61.8017 73.8148C62.3813 73.665 62.9609 73.4827 63.5383 73.2808C64.1158 73.0789 64.6715 72.8184 65.2359 72.5622C64.2959 72.1433 63.3604 71.7699 62.377 71.44C61.8842 71.2706 61.3828 71.1209 60.8726 71.0058C60.6165 70.9407 60.3603 70.8864 60.0977 70.8321C59.835 70.7779 59.5637 70.7214 59.2923 70.678C57.9026 70.4616 56.4943 70.3888 55.0897 70.4609C56.5537 69.8775 57.9767 69.1957 59.3488 68.4204C60.1411 67.9863 60.9356 67.4848 61.7258 66.9508C62.6683 67.4278 63.6775 67.7593 64.7192 67.9342C65.3189 68.0247 65.9259 68.0574 66.5318 68.0319C66.8304 68.023 67.1283 67.9976 67.424 67.9559C67.7127 67.9125 68.0014 67.856 68.2923 67.7887C70.5912 67.2569 72.6816 65.9262 74.5051 64.2591C73.4897 64.125 72.4681 64.0438 71.4443 64.0159C70.9255 63.9986 70.398 63.9964 69.8727 64.0159C69.3473 64.0355 68.822 64.1006 68.2684 64.1635C67.1125 64.3304 65.973 64.5962 64.8625 64.958C64.5999 65.0384 64.335 65.1295 64.0658 65.2251C66.0454 63.6388 67.852 61.8481 69.4559 59.8828C69.8761 59.9562 70.3 60.0062 70.7258 60.0326C71.3691 60.0726 72.0148 60.0486 72.6534 59.9609C73.2542 59.8691 73.8455 59.7238 74.4204 59.5268C74.9781 59.3297 75.5159 59.0804 76.0268 58.7822C78.0716 57.6013 79.6802 55.7149 80.9457 53.5876C79.945 53.7699 78.9269 53.9674 77.9414 54.2388C77.4595 54.3951 76.9472 54.5427 76.4501 54.7207ZM78.2931 37.7757C78.369 37.6129 78.4493 37.4544 78.5297 37.3003C78.61 37.1462 78.6816 36.9986 78.7619 36.8531C78.9226 36.5622 79.0919 36.2909 79.2699 36.0304C79.6099 35.5379 79.9834 35.0693 80.3878 34.6281C80.7786 34.1939 81.204 33.8097 81.61 33.4342C81.5328 34.0673 81.4102 34.6941 81.2431 35.3097C81.0669 35.9263 80.8238 36.5217 80.5181 37.0854C80.1866 37.6713 79.7753 38.2083 79.2959 38.6809C78.7578 39.2106 78.1413 39.6543 77.4682 39.9964C77.6948 39.2391 77.9704 38.4973 78.2931 37.7757ZM76.8538 27.1628C76.8988 26.8191 76.9611 26.4778 77.0405 26.1404C77.1078 25.8169 77.186 25.5065 77.2771 25.2091C77.4594 24.6368 77.6806 24.0776 77.9392 23.5355C78.1867 23.0145 78.4645 22.5195 78.7554 22.0333C78.8661 22.6632 78.9328 23.3001 78.9551 23.9392C78.969 24.582 78.91 25.2243 78.7793 25.8538C78.6381 26.5112 78.4034 27.145 78.0825 27.7359C77.7152 28.3951 77.2562 28.9988 76.7192 29.5289C76.7096 28.7381 76.7546 27.9475 76.8538 27.1628ZM56.0145 6.25398C55.7019 6.08249 55.3958 5.91968 55.0984 5.74602C54.801 5.57236 54.5232 5.38133 54.2431 5.19465C53.6809 4.83864 53.1577 4.41534 52.6259 4.03329C53.3019 4.00976 53.9787 4.04316 54.6491 4.13314C54.9964 4.18712 55.3406 4.25958 55.6802 4.35022C56.0365 4.43577 56.3856 4.54899 56.7243 4.68886C58.3241 5.33723 59.7085 6.42369 60.7185 7.82345C59.0873 7.51604 57.5055 6.98804 56.0166 6.25398H56.0145ZM65.2402 9.44935C65.0853 9.14042 64.9462 8.8238 64.8234 8.50073C64.7041 8.18814 64.5912 7.89291 64.5022 7.59117C64.182 6.46551 64.0005 5.30497 63.9617 4.13531C64.4037 4.59585 64.8128 5.08693 65.186 5.60492C65.3661 5.86976 65.5376 6.13893 65.6939 6.41896C65.7721 6.55789 65.8459 6.69899 65.911 6.84226C65.9761 6.98553 66.0412 7.13965 66.0999 7.29161C66.6262 8.62575 66.7448 10.0861 66.4407 11.4877C66.2019 11.1208 65.9674 10.7844 65.7721 10.4414C65.6722 10.2706 65.5789 10.1013 65.492 9.93343C65.4074 9.76411 65.3314 9.60347 65.2402 9.44935ZM61.6281 12.8596C61.4891 12.8488 61.3524 12.8336 61.2178 12.8184C61.0832 12.8032 60.9465 12.788 60.814 12.7706C60.5492 12.7316 60.2931 12.6816 60.0456 12.623C59.5485 12.5036 59.0579 12.3821 58.5977 12.2236C59.5432 11.7114 60.5878 11.4086 61.6606 11.3357C61.9581 11.3204 62.2564 11.3276 62.5528 11.3575C62.8726 11.3925 63.1896 11.4498 63.5014 11.5289C63.6643 11.5702 63.8336 11.6158 64.0029 11.67C64.1722 11.7243 64.3372 11.7938 64.5109 11.8676C64.879 12.0202 65.2359 12.1986 65.5789 12.4016C64.2983 12.7814 62.9616 12.9364 61.6281 12.8596ZM72.686 11.9783C72.977 12.5468 73.2259 13.1359 73.4305 13.741C73.5282 14.047 73.6129 14.3553 73.6802 14.6657C73.7149 14.822 73.7453 14.9805 73.7713 15.1368C73.7974 15.2931 73.8104 15.4602 73.8234 15.623C73.9426 17.0562 73.6312 18.4924 72.9291 19.7475C72.8075 19.3133 72.6816 18.9356 72.5948 18.5492C72.5492 18.3582 72.508 18.1693 72.4732 17.9826C72.4385 17.796 72.3973 17.6223 72.369 17.4443C72.3083 17.0926 72.267 16.7496 72.2431 16.4153C72.2192 16.081 72.1975 15.7641 72.1997 15.4515C72.2209 14.2784 72.3841 13.1121 72.686 11.9783ZM67.919 19.652C67.7887 19.602 67.6628 19.5478 67.5391 19.4935C67.4153 19.4392 67.2873 19.385 67.1657 19.3285C66.9248 19.2156 66.6946 19.0941 66.4732 18.966C66.0391 18.7077 65.6049 18.4472 65.2012 18.1628C66.2555 17.948 67.3437 17.962 68.3922 18.2041C68.6813 18.2758 68.9644 18.3702 69.2388 18.4863C69.5336 18.6125 69.82 18.7575 70.0962 18.9204C70.2395 19.0072 70.3893 19.0984 70.5304 19.2004C70.6715 19.3025 70.8148 19.4175 70.9645 19.5369C71.2736 19.7889 71.5638 20.0631 71.8329 20.3575C70.4972 20.3513 69.1727 20.1125 67.919 19.652ZM74.5311 38.5051C73.7212 37.7028 73.052 36.7702 72.5514 35.746C72.3083 35.2858 72.1346 34.8235 71.9436 34.3676C72.4231 34.5747 72.883 34.8247 73.3177 35.1143C73.7801 35.4148 74.2006 35.7754 74.568 36.1867C74.764 36.4106 74.9453 36.647 75.1107 36.8944C75.1954 37.0224 75.28 37.157 75.3604 37.2981C75.4407 37.4392 75.508 37.5847 75.5774 37.7323C75.8915 38.4177 76.1036 39.1454 76.2069 39.8922C75.6146 39.4737 75.0545 39.0115 74.5311 38.5094V38.5051ZM73.474 28.9537C72.4638 28.4263 71.5501 27.732 70.7713 26.9002C70.4252 26.5379 70.0977 26.1582 69.7902 25.7627C70.3039 25.8256 70.812 25.9286 71.3097 26.0709C71.8389 26.2192 72.3456 26.4383 72.8162 26.7221C73.0763 26.8796 73.3244 27.0559 73.5586 27.2496C73.8024 27.4587 74.0322 27.6835 74.2467 27.9226C74.7467 28.4882 75.164 29.1219 75.4863 29.8046C74.7925 29.5804 74.1193 29.2972 73.474 28.958V28.9537ZM75.8748 49.2178C76.1093 48.903 76.3502 48.6143 76.5933 48.3495C77.0306 47.8443 77.5131 47.38 78.0347 46.9624C78.2844 46.767 78.5275 46.5847 78.7684 46.4132C79.0094 46.2417 79.259 46.0876 79.5087 45.94C80.0058 45.6469 80.5289 45.3929 81.0282 45.1498C80.7672 45.7338 80.467 46.2995 80.1295 46.843C79.9603 47.1147 79.7725 47.3744 79.5673 47.6201C79.3629 47.8694 79.1455 48.1078 78.9161 48.3343C78.801 48.4472 78.6816 48.5514 78.5579 48.6643C78.4342 48.7771 78.2974 48.8813 78.1606 48.9682C77.8832 49.1663 77.5931 49.3461 77.2923 49.5065C76.9732 49.6764 76.6416 49.8215 76.3003 49.9407C75.9267 50.0646 75.5453 50.1632 75.1585 50.2359C75.3972 49.8734 75.6469 49.5391 75.8748 49.2222V49.2178ZM73.3155 48.8379C73.1158 48.534 72.9334 48.2366 72.7771 47.9479C72.6208 47.6592 72.4863 47.377 72.3712 47.1035C72.3126 46.9646 72.2627 46.83 72.2106 46.6954C72.1585 46.5608 72.1064 46.424 72.0608 46.2894C71.9749 46.0314 71.9024 45.7691 71.8437 45.5036C71.7829 45.2453 71.7439 44.9935 71.6896 44.7373C71.5919 44.2294 71.555 43.7366 71.5094 43.246C71.9076 43.5834 72.2751 43.9554 72.6078 44.3575C72.7788 44.5662 72.9389 44.7835 73.0876 45.0087C73.2439 45.2418 73.3798 45.488 73.4935 45.7446C73.7505 46.3093 73.9253 46.9081 74.0123 47.5224C74.0552 47.8746 74.0762 48.2292 74.0752 48.5839C74.0786 48.9818 74.0466 49.3792 73.9797 49.7714C73.7308 49.453 73.5094 49.1433 73.3155 48.8423V48.8379ZM10.0007 47.5268C10.0878 46.9124 10.2625 46.3137 10.5195 45.7489C10.6333 45.4923 10.7691 45.2461 10.9255 45.013C11.0734 44.7874 11.2336 44.57 11.4052 44.3618C11.7379 43.9597 12.1055 43.5878 12.5036 43.2504C12.4686 43.7503 12.4077 44.2481 12.3213 44.7417C12.2692 44.9978 12.2301 45.2496 12.1693 45.508C12.1085 45.7663 12.0347 46.0268 11.9522 46.2938C11.9067 46.4284 11.8567 46.563 11.8025 46.6997C11.7482 46.8365 11.7004 46.9689 11.6418 47.1078C11.5268 47.3813 11.3922 47.6635 11.2359 47.9523C11.0796 48.241 10.8951 48.5384 10.6975 48.8423C10.5 49.1462 10.2851 49.4544 10.0463 49.7757C9.9798 49.3834 9.94712 48.9862 9.94862 48.5883C9.94512 48.2337 9.96251 47.8793 10.0007 47.5268ZM8.42909 37.7431C8.49855 37.589 8.56802 37.4436 8.64616 37.309C8.72431 37.1744 8.81331 37.0333 8.89797 36.9052C9.06341 36.6579 9.24469 36.4215 9.44067 36.1975C9.80808 35.7863 10.2286 35.4256 10.691 35.1252C11.1257 34.8355 11.5856 34.5856 12.0651 34.3784C11.8741 34.8343 11.7004 35.2967 11.4573 35.7569C11.2243 36.2379 10.952 36.699 10.6433 37.1353C10.2982 37.6305 9.90796 38.0927 9.47757 38.5159C8.95576 39.0193 8.39704 39.483 7.80608 39.903C7.90733 39.1566 8.11722 38.4289 8.42909 37.7431ZM27.28 4.68452C27.6181 4.54498 27.9665 4.43176 28.322 4.34588C28.6624 4.25545 29.0073 4.18299 29.3553 4.1288C30.025 4.03887 30.701 4.00547 31.3763 4.02894C30.8444 4.411 30.3234 4.8343 29.7612 5.19031C29.4812 5.37699 29.2012 5.57019 28.9059 5.74168C28.6107 5.91317 28.3025 6.07815 27.9877 6.24964C26.4987 6.9824 24.9169 7.50895 23.2858 7.81476C24.296 6.41612 25.6805 5.33108 27.28 4.68452ZM19.4957 11.8676C19.6671 11.7938 19.8365 11.7287 20.0036 11.67C20.1708 11.6114 20.3401 11.5702 20.5051 11.5289C20.8162 11.4498 21.1324 11.3925 21.4515 11.3575C21.7487 11.3277 22.0476 11.3204 22.3459 11.3357C23.4187 11.4088 24.4632 11.7116 25.4088 12.2236C24.9465 12.3821 24.458 12.5036 23.9609 12.623C23.7113 12.6816 23.4573 12.7316 23.1925 12.7706C23.0601 12.788 22.9255 12.8054 22.7887 12.8184C22.652 12.8314 22.5174 12.8488 22.3784 12.8596C21.0449 12.9364 19.7082 12.7814 18.4276 12.4016C18.7706 12.1986 19.1275 12.0202 19.4957 11.8676ZM17.898 7.27858C17.9588 7.12663 18.0217 6.97468 18.089 6.82923C18.1563 6.68379 18.2344 6.54486 18.3061 6.40593C18.4624 6.12591 18.6317 5.85673 18.814 5.5919C19.1858 5.07288 19.595 4.58171 20.0383 4.12229C19.9995 5.29195 19.818 6.45249 19.4978 7.57815C19.4088 7.87989 19.2959 8.17511 19.1766 8.4877C19.0556 8.81508 18.9179 9.13605 18.7641 9.44935C18.686 9.60999 18.597 9.77062 18.508 9.93343C18.419 10.0962 18.3278 10.2699 18.2279 10.4414C18.0326 10.7844 17.7938 11.1208 17.5593 11.4877C17.2518 10.0822 17.3697 8.61689 17.898 7.27858ZM13.042 19.5434C13.1852 19.424 13.3285 19.3111 13.4761 19.2069C13.6237 19.1028 13.7692 19.0138 13.9103 18.9269C14.19 18.7636 14.4801 18.6186 14.7786 18.4928C15.0515 18.3762 15.3331 18.2811 15.6208 18.2084C16.6686 17.9663 17.7561 17.9523 18.8097 18.1672C18.4146 18.4515 17.9805 18.712 17.5398 18.9703C17.3227 19.0984 17.0883 19.22 16.8473 19.3329C16.7258 19.3893 16.602 19.4457 16.474 19.4978C16.3459 19.5499 16.2243 19.6064 16.0941 19.6563C14.8423 20.1164 13.5203 20.3558 12.1867 20.364C12.451 20.0696 12.7369 19.7953 13.042 19.5434ZM10.1939 15.623C10.2069 15.4602 10.2221 15.2974 10.246 15.1368C10.2699 14.9761 10.3025 14.822 10.335 14.6657C10.4045 14.3553 10.4891 14.047 10.5847 13.741C10.7912 13.1367 11.04 12.5476 11.3292 11.9783C11.6332 13.1117 11.7965 14.2782 11.8155 15.4515C11.8155 15.7663 11.7959 16.081 11.7742 16.4153C11.7525 16.7496 11.7091 17.0926 11.6483 17.4443C11.6179 17.6223 11.581 17.8003 11.5441 17.9826C11.5072 18.165 11.4682 18.3582 11.4226 18.5492C11.3357 18.9356 11.2055 19.3242 11.0883 19.7475C10.3862 18.4924 10.0747 17.0562 10.1939 15.623ZM9.75977 27.9226C9.9741 27.6841 10.2032 27.4594 10.4457 27.2496C10.6781 27.062 10.9232 26.8908 11.1795 26.7373C11.6495 26.4539 12.1554 26.2348 12.6838 26.0861C13.1858 25.9433 13.6982 25.8402 14.2164 25.7779C13.919 26.1664 13.5847 26.542 13.2352 26.9153C12.8713 27.3082 12.4764 27.6712 12.0543 28.0007C11.5792 28.3728 11.0704 28.6998 10.5347 28.9776C9.88938 29.3167 9.21615 29.6 8.52243 29.8242C8.84236 29.1347 9.259 28.4944 9.75977 27.9226ZM5.92402 27.7359C5.60312 27.145 5.36846 26.5112 5.22721 25.8538C5.09647 25.2243 5.03748 24.582 5.05137 23.9392C5.07408 23.3002 5.14008 22.6634 5.24891 22.0333C5.5398 22.5195 5.81983 23.0145 6.06729 23.5355C6.3222 24.0779 6.53978 24.6371 6.71852 25.2091C6.81187 25.5065 6.89001 25.8169 6.95731 26.1404C7.0246 26.4638 7.09624 26.8068 7.14399 27.1628C7.24326 27.9475 7.28823 28.7381 7.27858 29.5289C6.74403 28.9988 6.28791 28.395 5.92402 27.7359ZM4.71056 38.6809C4.23058 38.2088 3.81919 37.6718 3.48842 37.0854C3.18274 36.5217 2.93962 35.9263 2.76339 35.3097C2.59635 34.6941 2.47375 34.0673 2.39653 33.4342C2.80029 33.8097 3.22793 34.2026 3.61867 34.6281C4.02299 35.0688 4.39584 35.5374 4.73444 36.0304C4.91824 36.2959 5.0885 36.5705 5.24457 36.8531C5.32272 36.9986 5.40087 37.1462 5.47685 37.3003C5.55282 37.4544 5.63748 37.6129 5.71346 37.7757C6.03613 38.4973 6.31167 39.2391 6.53835 39.9964C5.86521 39.6543 5.24873 39.2106 4.71056 38.6809ZM7.71056 49.9385C7.36998 49.8193 7.03906 49.6742 6.72069 49.5044C6.41961 49.3444 6.12953 49.1646 5.85239 48.966C5.71563 48.8683 5.58104 48.7685 5.45514 48.6621C5.32923 48.5557 5.21201 48.445 5.09696 48.3321C4.86752 48.1057 4.65014 47.8673 4.44573 47.618C4.24057 47.3722 4.05271 47.1126 3.8835 46.8408C3.54605 46.2974 3.2458 45.7317 2.9848 45.1476C3.48408 45.3907 4.00724 45.6447 4.50434 45.9378C4.75398 46.0854 5.00145 46.2417 5.24457 46.411C5.4877 46.5803 5.72865 46.7648 5.97829 46.9602C6.49992 47.3778 6.98238 47.8421 7.41968 48.3473C7.66281 48.6143 7.90376 48.903 8.13821 49.2156C8.37265 49.5282 8.61577 49.8669 8.86107 50.2272C8.47151 50.157 8.08714 50.0605 7.71056 49.9385ZM14.3509 54.5644C14.422 54.018 14.5681 53.484 14.7851 52.9776C14.9851 52.4968 15.2263 52.0342 15.5058 51.5948C15.6253 52.0846 15.7152 52.5812 15.775 53.0818C15.8529 53.6106 15.8849 54.1451 15.8705 54.6795C15.8282 56.0124 15.555 57.3278 15.063 58.5673C14.4317 57.3339 14.1837 55.9399 14.3509 54.5644ZM9.91606 58.6303C9.34673 58.3326 8.81109 57.9745 8.31838 57.5622C7.8398 57.1401 7.38813 56.6884 6.96599 56.2099C7.51954 56.2923 8.08611 56.3813 8.64834 56.5181C9.2301 56.6594 9.8016 56.8399 10.3589 57.0586C11.5268 57.521 12.712 58.2417 14.0709 59.3423C12.646 59.5229 11.1996 59.275 9.91606 58.6303ZM19.5282 67.1288C18.8591 67.1965 18.1839 67.1753 17.5203 67.0659C16.8908 66.9417 16.2755 66.7541 15.6838 66.5058C15.1032 66.2426 14.5405 65.9417 13.9993 65.6049C14.5615 65.5117 15.1281 65.4473 15.6968 65.4117C15.9855 65.3944 16.2742 65.39 16.5651 65.3922C16.856 65.3944 17.1751 65.3922 17.4855 65.4291C18.1503 65.4931 18.8093 65.6077 19.4566 65.7721C19.8061 65.8611 20.1621 65.974 20.542 66.1042C20.9219 66.2345 21.2822 66.3604 21.6708 66.5232L21.699 66.5427C21.0066 66.8393 20.2758 67.0366 19.5282 67.1288ZM22.4023 65.4704C22.1469 65.1833 21.9064 64.8833 21.6816 64.5716C21.4853 64.274 21.3076 63.9645 21.1498 63.6447C20.8709 63.0904 20.6812 62.4955 20.5876 61.8821C20.5434 61.6068 20.5159 61.3292 20.5051 61.0507C20.502 60.7796 20.5143 60.5085 20.542 60.2388C20.597 59.7196 20.6935 59.2057 20.8307 58.7019C21.0832 59.1361 21.3115 59.584 21.5145 60.0434C21.7455 60.5257 21.9309 61.0287 22.068 61.5456C22.2394 62.1253 22.3507 62.721 22.4001 63.3235C22.4697 64.045 22.4791 64.7711 22.4284 65.4942L22.4023 65.4704ZM29.1317 67.8473C28.97 67.5974 28.8249 67.3371 28.6975 67.068C28.2386 66.0935 27.9985 65.0302 27.9942 63.953C28.7557 64.6554 29.4299 65.4469 30.0022 66.3104C30.3336 66.8171 30.6128 67.3561 30.8357 67.919C31.1097 68.57 31.3275 69.2432 31.487 69.9313L31.3133 69.8727C31.0268 69.6903 30.7619 69.5036 30.521 69.3169C30.2409 69.0964 29.9796 68.8532 29.7395 68.5897C29.5227 68.3533 29.3205 68.1039 29.1339 67.843L29.1317 67.8473ZM29.2055 72.4059C28.586 72.6643 27.9348 72.8388 27.2692 72.9248C25.9907 73.0472 24.7005 72.9204 23.4703 72.5514C24.5171 72.0281 25.6226 71.6317 26.7634 71.3705C27.0695 71.3054 27.3842 71.2554 27.712 71.2185C28.0553 71.1691 28.4009 71.1379 28.7475 71.1252C29.11 71.1057 29.4768 71.1252 29.8741 71.1252C30.1997 71.1252 30.5405 71.1512 30.8922 71.1838L31.0658 71.2424C30.5008 71.7098 29.8759 72.0997 29.2077 72.4016L29.2055 72.4059ZM53.1751 67.919C53.3971 67.3557 53.6765 66.8166 54.0087 66.3104C54.5749 65.448 55.2425 64.6565 55.9971 63.953C55.9969 65.0292 55.7613 66.0924 55.3068 67.068C55.1767 67.3378 55.028 67.5982 54.8618 67.8473C54.6757 68.1078 54.4726 68.3559 54.254 68.5897C54.0152 68.8537 53.7545 69.097 53.4747 69.3169C53.1598 69.5593 52.8323 69.7846 52.4935 69.9921C52.6584 69.2821 52.8865 68.5883 53.1751 67.919ZM55.2656 71.1187C55.6129 71.1313 55.9592 71.1624 56.3032 71.212C56.631 71.2489 56.9544 71.2989 57.2518 71.364C58.3926 71.6252 59.4981 72.0216 60.5449 72.5449C59.3146 72.9137 58.0245 73.0406 56.746 72.9183C56.0804 72.8323 55.4292 72.6578 54.8097 72.3994C54.1204 72.0889 53.4775 71.6841 52.8994 71.1968C53.3336 71.1491 53.7439 71.123 54.1411 71.1187C54.5384 71.1143 54.8944 71.0991 55.2547 71.1187H55.2656ZM61.6107 63.3235C61.6591 62.7209 61.7704 62.125 61.9428 61.5456C62.079 61.0284 62.2644 60.5253 62.4964 60.0434C62.6987 59.584 62.9262 59.1362 63.178 58.7019C63.3159 59.2056 63.4132 59.7195 63.4689 60.2388C63.4969 60.5085 63.5085 60.7796 63.5036 61.0507C63.4947 61.3292 63.4678 61.6069 63.4233 61.8821C63.3296 62.4955 63.1399 63.0904 62.8611 63.6447C62.7024 63.964 62.5248 64.2735 62.3292 64.5716C62.0971 64.8945 61.8478 65.2046 61.5825 65.5007C61.5273 64.7758 61.5332 64.0475 61.5999 63.3235H61.6107ZM64.5478 65.7721C65.1944 65.6079 65.8526 65.4933 66.5166 65.4291C66.8292 65.4009 67.1353 65.39 67.437 65.3922C67.7388 65.3944 68.0253 65.3922 68.3054 65.4117C68.8741 65.4473 69.4407 65.5117 70.0029 65.6049C69.4609 65.9417 68.8975 66.2426 68.3162 66.5058C67.7254 66.7544 67.1108 66.942 66.4819 67.0659C65.8183 67.1753 65.1431 67.1965 64.4739 67.1288C63.7224 67.0376 62.9878 66.8395 62.2923 66.5405C62.6939 66.3712 63.0825 66.2279 63.4602 66.1064C63.8379 65.9848 64.1874 65.8611 64.5369 65.7721H64.5478ZM68.1469 54.6708C68.1314 54.1364 68.1634 53.6018 68.2424 53.0731C68.3011 52.5755 68.3895 52.0818 68.5072 51.5948C68.7859 52.0346 69.027 52.4972 69.2279 52.9776C69.4429 53.4847 69.589 54.0184 69.6621 54.5644C69.8268 55.9372 69.5782 57.328 68.9479 58.5586C68.4553 57.3191 68.1806 56.0038 68.136 54.6708H68.1469ZM75.699 57.5622C75.2059 57.9741 74.6703 58.3321 74.1013 58.6303C72.8178 59.275 71.3714 59.5229 69.9465 59.3423C71.3054 58.2417 72.4906 57.521 73.6563 57.0586C74.2143 56.8399 74.7866 56.6593 75.369 56.5181C75.9291 56.3813 76.4978 56.301 77.0514 56.2099C76.6257 56.6888 76.1704 57.1405 75.6881 57.5622H75.699Z" fill="#3A261E"/>
<path d="M30.3669 60.9117C37.9646 64.526 46.0355 64.526 53.6375 60.9117L51.4667 56.696C45.1954 59.6114 38.8025 59.6136 32.5311 56.696L30.3669 60.9117Z" fill="#701A1A"/>
<path d="M52.9884 58.2916L53.5246 59.2685C55.6388 58.1072 57.5771 56.6512 59.2814 54.9443C57.66 55.4807 55.9865 55.8446 54.2887 56.0297C54.9945 54.6171 55.5455 53.1324 55.932 51.6013C54.5435 52.9885 52.9665 54.1731 51.2474 55.1201L51.7836 56.097L52.9884 58.2916Z" fill="#701A1A"/>
<path d="M24.7251 54.9442C26.4294 56.6512 28.3678 58.1071 30.482 59.2684L31.0181 58.2915L32.2229 56.0904L32.7591 55.1135C31.0392 54.1678 29.462 52.9831 28.0746 51.5947C28.461 53.1258 29.012 54.6106 29.7179 56.0231C28.0203 55.8401 26.3468 55.4785 24.7251 54.9442Z" fill="#701A1A"/>
<path d="M38.928 47.9002L40.6624 46.1658H40.8148C40.8538 46.1658 40.9359 46.1776 41.0609 46.201C41.1937 46.2244 41.3421 46.2361 41.5062 46.2361C42.303 46.2361 42.9202 45.9471 43.3577 45.369C43.803 44.783 44.1663 43.7869 44.4476 42.3807L46.6155 31.4705C45.0062 31.4705 43.7054 31.9041 42.7132 32.7713C41.721 33.6307 41.2249 34.7557 41.2249 36.1463V36.4041L38.9515 37.5057C39.1624 35.0994 40.096 33.3416 41.7523 32.2322C43.4163 31.1151 45.9359 30.5565 49.3109 30.5565C51.9437 30.5565 53.7874 30.8104 54.8421 31.3182C55.8968 31.8182 56.4241 32.6971 56.4241 33.9549C56.4241 36.033 54.9046 37.8065 51.8655 39.2752L54.678 43.9979C55.678 45.6776 56.4202 46.5174 56.9046 46.5174C57.4359 46.5174 58.389 45.826 59.764 44.4432L59.5413 45.5565C57.8304 47.3143 56.5687 48.1932 55.7562 48.1932C54.7015 48.1932 53.5374 47.0174 52.264 44.6658L49.6273 39.8026H47.4124L47.2015 40.8572C46.7405 43.1776 45.4437 45.0135 43.3109 46.3651L47.8929 46.4588L46.2757 48.1932L38.928 47.9002ZM47.553 39.076H50.6585C52.7913 38.0291 53.8577 36.4236 53.8577 34.2596C53.8577 32.2674 52.428 31.2713 49.5687 31.2713H49.1116L47.553 39.076Z" fill="black"/>
<path d="M33.9648 36.293L34.0352 33.2344C34.0352 27.1797 33.4844 22.9766 32.3828 20.625C31.2188 18.1484 29.793 16.9102 28.1055 16.9102C26.582 16.9102 25.2344 17.8828 24.0625 19.8281L23.4648 19.5117C25.1992 16.8164 27.0938 15.4688 29.1484 15.4688C34.0547 15.4688 36.5078 21.0977 36.5078 32.3555L40.2578 26.4844C42.5312 22.9297 43.668 20.707 43.668 19.8164C43.668 19.5195 43.3164 19.3711 42.6133 19.3711H41.6758L41.8164 18.6562H46.8555L46.7031 19.3711H45.7305L35.1953 36L33.9648 36.293Z" fill="black"/>
<path d="M35.516 60.1194C35.9215 60.8029 36.5719 61.3065 37.3351 61.5282C38.1435 61.7894 39.018 61.7579 39.8054 61.4392C39.3621 60.7473 38.6879 60.2351 37.9025 59.9934C37.1171 59.7518 36.2716 59.7964 35.516 60.1194Z" fill="#FFF3E6"/>
<path d="M47.8372 60.6621C47.3769 61.268 46.7046 61.6774 45.9551 61.8083C45.157 61.9699 44.3276 61.8519 43.6063 61.474C44.1057 60.8659 44.8022 60.4518 45.575 60.3035C46.3478 60.1552 47.1481 60.2821 47.8372 60.6621Z" fill="#FFF3E6"/>
<path d="M40.4718 65.7591C40.5283 65.5984 40.7497 65.542 40.7974 65.542C40.9407 65.5181 41.1231 65.4942 41.3315 65.4791C41.586 65.4658 41.841 65.4658 42.0956 65.4791C42.4417 65.485 42.7857 65.5332 43.1202 65.6223C43.1641 65.6296 43.2061 65.6459 43.2434 65.6702C43.2808 65.6945 43.3127 65.7262 43.3372 65.7634C43.4067 65.9089 43.2721 66.0977 43.2482 66.1325C43.1089 66.4041 42.9272 66.6517 42.7099 66.8662C42.5747 66.9934 42.4295 67.1095 42.2757 67.2135C42.0152 67.398 41.9219 67.4306 41.8264 67.4306C41.7176 67.4189 41.6163 67.3698 41.5398 67.2916C41.3596 67.1367 41.1906 66.9691 41.0341 66.7902C40.8646 66.5874 40.7142 66.3694 40.5847 66.139C40.4762 65.9371 40.4414 65.8481 40.4718 65.7591Z" fill="#701A1A"/>
<path d="M11.6042 80.8464C11.6901 80.7396 11.7787 80.6615 11.8698 80.612C11.961 80.5599 12.0586 80.5339 12.1628 80.5339C12.418 80.5339 12.6784 80.9362 12.944 81.7409C12.9779 81.8347 13.0026 81.9076 13.0182 81.9597C13.0182 81.9597 13.0196 81.961 13.0222 81.9636C13.7461 84.1042 14.1589 85.1745 14.2604 85.1745C14.2969 85.1745 14.3659 85.112 14.4675 84.987C14.569 84.8594 14.6758 84.6979 14.7878 84.5026C15.1862 83.7995 15.4701 83.194 15.6393 82.6862C15.8112 82.1758 15.8972 81.6927 15.8972 81.237C15.8972 81.1276 15.8893 81.0222 15.8737 80.9206C15.8581 80.819 15.8347 80.7227 15.8034 80.6315C15.8893 80.5977 15.9675 80.5729 16.0378 80.5573C16.1081 80.5417 16.1732 80.5339 16.2331 80.5339C16.3946 80.5339 16.5065 80.5729 16.569 80.6511C16.6341 80.7292 16.6667 80.8659 16.6667 81.0612C16.6667 81.569 16.5352 82.1537 16.2722 82.8151C16.0117 83.4766 15.5938 84.2709 15.0182 85.1979C14.75 85.6354 14.556 85.9271 14.4362 86.0729C14.3164 86.2162 14.2201 86.2878 14.1472 86.2878C14.056 86.2878 13.9518 86.1979 13.8347 86.0182C13.7175 85.836 13.5873 85.5625 13.444 85.1979C13.2279 84.6589 12.9623 83.9492 12.6472 83.069C12.1836 81.7669 11.836 81.0261 11.6042 80.8464ZM18.3112 85.9909C18.2018 86.0508 18.0977 86.0951 17.9987 86.1237C17.8998 86.1524 17.8047 86.1667 17.7136 86.1667C17.586 86.1667 17.4987 86.1328 17.4518 86.0651C17.4076 85.9948 17.3854 85.8555 17.3854 85.6472C17.3854 85.5274 17.3972 85.2591 17.4206 84.8425C17.444 84.4258 17.4557 84.0677 17.4557 83.7682C17.4557 83.4427 17.4401 83.1784 17.4089 82.9753C17.3776 82.7722 17.3268 82.599 17.2565 82.4557C17.3529 82.3985 17.4518 82.3555 17.5534 82.3268C17.655 82.2956 17.7552 82.28 17.8542 82.28C17.974 82.28 18.056 82.3099 18.1003 82.3698C18.1446 82.4271 18.1667 82.5352 18.1667 82.694C18.1667 82.7357 18.155 82.9636 18.1315 83.3776C18.1081 83.7917 18.0964 84.1849 18.0964 84.5573C18.0964 84.9063 18.1133 85.1953 18.1472 85.4245C18.1836 85.6537 18.2383 85.8425 18.3112 85.9909ZM18.28 81.0886C18.28 81.237 18.2279 81.3607 18.1237 81.4597C18.0196 81.5586 17.888 81.6081 17.7292 81.6081C17.5912 81.6081 17.4818 81.569 17.4011 81.4909C17.3203 81.4128 17.28 81.3073 17.28 81.1745C17.28 81.0287 17.3321 80.905 17.4362 80.8034C17.5404 80.6992 17.6667 80.6472 17.8151 80.6472C17.9505 80.6472 18.0612 80.6888 18.1472 80.7722C18.2357 80.8555 18.28 80.961 18.28 81.0886ZM20.0807 83.1667C20.0755 83.4531 20.0677 83.7617 20.0573 84.0925C20.0495 84.4206 20.0456 84.6055 20.0456 84.6472C20.0456 84.9857 20.0612 85.2604 20.0925 85.4714C20.1237 85.6823 20.1732 85.8581 20.2409 85.9987C20.1315 86.056 20.0313 86.099 19.9401 86.1276C19.849 86.1537 19.7591 86.1667 19.6706 86.1667C19.5508 86.1667 19.4688 86.1328 19.4245 86.0651C19.3802 85.9974 19.3581 85.8555 19.3581 85.6393C19.3581 85.5925 19.3711 85.3516 19.3972 84.9167C19.4258 84.4792 19.4401 84.0664 19.4401 83.6784C19.4401 83.3112 19.4258 83.0274 19.3972 82.8268C19.3685 82.6263 19.3216 82.4466 19.2565 82.2878C19.3138 82.2696 19.3711 82.2552 19.4284 82.2448C19.4883 82.2344 19.5456 82.2292 19.6003 82.2292C19.7383 82.2292 19.8477 82.2682 19.9284 82.3464C20.0091 82.4219 20.0547 82.53 20.0651 82.6706C20.2604 82.53 20.4675 82.4219 20.6862 82.3464C20.905 82.2682 21.1211 82.2292 21.3347 82.2292C21.5951 82.2292 21.8281 82.2865 22.0339 82.4011C22.2422 82.513 22.4011 82.6693 22.5104 82.8698C22.586 83.0078 22.6393 83.1693 22.6706 83.3542C22.7044 83.5365 22.7214 83.8151 22.7214 84.1901C22.7214 84.2292 22.7188 84.3216 22.7136 84.4675C22.711 84.6133 22.7097 84.7396 22.7097 84.8464C22.7097 85.1146 22.7266 85.3451 22.7604 85.5378C22.7969 85.7305 22.8503 85.8815 22.9206 85.9909C22.7982 86.0508 22.6914 86.0951 22.6003 86.1237C22.5117 86.1524 22.431 86.1667 22.3581 86.1667C22.2357 86.1667 22.1498 86.1354 22.1003 86.0729C22.0534 86.0078 22.03 85.8867 22.03 85.7097C22.03 85.6029 22.0378 85.3737 22.0534 85.0222C22.0716 84.668 22.0807 84.3672 22.0807 84.1198C22.0807 83.6485 22.0091 83.3073 21.8659 83.0964C21.7227 82.8828 21.4922 82.7761 21.1745 82.7761C21.013 82.7761 20.8386 82.8099 20.6511 82.8776C20.4636 82.9427 20.2735 83.0391 20.0807 83.1667ZM24.1081 83.0339C24.0638 83.0339 24.0026 83.0365 23.9245 83.0417C23.8464 83.0443 23.7956 83.0456 23.7722 83.0456C23.6654 83.0456 23.5899 83.0313 23.5456 83.0026C23.5039 82.9714 23.4831 82.9193 23.4831 82.8464C23.4831 82.8125 23.4883 82.7735 23.4987 82.7292C23.5117 82.6823 23.5313 82.6302 23.5573 82.5729C23.5781 82.5729 23.6133 82.5742 23.6628 82.5768C23.7123 82.5794 23.7513 82.5807 23.78 82.5807C23.8477 82.5807 23.9557 82.5768 24.1042 82.569C24.1224 82.569 24.1367 82.5677 24.1472 82.5651C24.1472 82.5365 24.1485 82.4935 24.1511 82.4362C24.1537 82.3789 24.155 82.3373 24.155 82.3112C24.155 82.1081 24.1419 81.9297 24.1159 81.7761C24.0899 81.6198 24.0495 81.4831 23.9948 81.3659C24.1068 81.3112 24.2071 81.2696 24.2956 81.2409C24.3841 81.2123 24.4597 81.1979 24.5222 81.1979C24.6289 81.1979 24.7057 81.2318 24.7526 81.2995C24.8021 81.3646 24.8268 81.4727 24.8268 81.6237C24.8268 81.6888 24.8151 81.8932 24.7917 82.237C24.7839 82.3646 24.7774 82.4662 24.7722 82.5417C24.9232 82.5209 25.0586 82.5052 25.1784 82.4948C25.3008 82.4844 25.4102 82.4792 25.5065 82.4792C25.5925 82.4792 25.6537 82.4948 25.6901 82.5261C25.7292 82.5573 25.7487 82.6081 25.7487 82.6784C25.7487 82.7175 25.737 82.7669 25.7136 82.8268C25.6901 82.8841 25.6563 82.9492 25.612 83.0222C25.5443 83.0065 25.4727 82.9948 25.3972 82.987C25.3216 82.9792 25.2305 82.9753 25.1237 82.9753C25.1055 82.9753 25.0508 82.9779 24.9597 82.9831C24.8685 82.9857 24.7904 82.9883 24.7253 82.9909C24.7018 83.3972 24.6849 83.7318 24.6745 83.9948C24.6641 84.2578 24.6589 84.4727 24.6589 84.6393C24.6589 85.0013 24.6901 85.2552 24.7526 85.4011C24.8177 85.5443 24.9258 85.6159 25.0768 85.6159C25.1185 85.6159 25.1615 85.6081 25.2057 85.5925C25.2526 85.5768 25.2995 85.5521 25.3464 85.5182C25.3698 85.5703 25.3867 85.6159 25.3972 85.655C25.4076 85.694 25.4128 85.7292 25.4128 85.7604C25.4128 85.888 25.3594 85.9935 25.2526 86.0768C25.1485 86.1576 25.0117 86.1979 24.8425 86.1979C24.5612 86.1979 24.3516 86.1055 24.2136 85.9206C24.0781 85.7331 24.0104 85.4466 24.0104 85.0612C24.0104 84.9518 24.0235 84.6628 24.0495 84.194C24.0755 83.7227 24.0951 83.336 24.1081 83.0339ZM29.5729 85.9597C29.4714 86.0248 29.3789 86.0742 29.2956 86.1081C29.2123 86.1419 29.1393 86.1589 29.0768 86.1589C28.9649 86.1589 28.8828 86.125 28.8307 86.0573C28.7813 85.987 28.7526 85.875 28.7448 85.7214C28.5495 85.888 28.3555 86.0117 28.1628 86.0925C27.9727 86.1732 27.7787 86.2136 27.5807 86.2136C27.1901 86.2136 26.875 86.1042 26.6354 85.8854C26.3959 85.6667 26.2761 85.3789 26.2761 85.0222C26.2761 84.6185 26.4401 84.2956 26.7682 84.0534C27.099 83.8086 27.543 83.6862 28.1003 83.6862C28.1914 83.6862 28.2878 83.6901 28.3893 83.6979C28.4935 83.7031 28.6042 83.7123 28.7214 83.7253C28.7266 83.7018 28.7292 83.6784 28.7292 83.655C28.7318 83.6289 28.7331 83.599 28.7331 83.5651C28.7331 83.2943 28.6563 83.0886 28.5026 82.9479C28.3516 82.8047 28.1315 82.7331 27.8425 82.7331C27.6029 82.7331 27.405 82.7735 27.2487 82.8542C27.0951 82.9323 26.9701 83.0547 26.8737 83.2214C26.78 83.1979 26.7084 83.1576 26.6589 83.1003C26.612 83.043 26.5886 82.9688 26.5886 82.8776C26.5886 82.6875 26.7084 82.5313 26.9479 82.4089C27.1901 82.2839 27.5052 82.2214 27.8932 82.2214C28.3698 82.2214 28.7266 82.3373 28.9636 82.569C29.2031 82.7982 29.3229 83.1419 29.3229 83.6003C29.3229 83.6862 29.319 83.836 29.3112 84.0495C29.3034 84.263 29.2995 84.4349 29.2995 84.5651C29.2995 84.9245 29.3203 85.2136 29.362 85.4323C29.4063 85.6511 29.4766 85.8268 29.5729 85.9597ZM28.7136 84.2214C28.5938 84.2031 28.4857 84.1901 28.3893 84.1823C28.2956 84.1719 28.2149 84.1667 28.1472 84.1667C27.7435 84.1667 27.4388 84.2344 27.2331 84.3698C27.0274 84.5026 26.9245 84.7018 26.9245 84.9675C26.9245 85.181 26.9961 85.349 27.1393 85.4714C27.2826 85.5938 27.4805 85.655 27.7331 85.655C27.9232 85.655 28.1003 85.6198 28.2643 85.5495C28.431 85.4766 28.5834 85.3685 28.7214 85.2253C28.7162 85.0951 28.7123 84.9896 28.7097 84.9089C28.7097 84.8255 28.7097 84.7461 28.7097 84.6706C28.7097 84.6237 28.711 84.5508 28.7136 84.4518C28.7162 84.3503 28.7162 84.2735 28.7136 84.2214ZM31.3893 85.9206H31.3972C31.181 86.0065 31.0182 86.112 30.9089 86.237C30.8021 86.3646 30.7487 86.5091 30.7487 86.6706C30.7487 86.9102 30.8542 87.1029 31.0651 87.2487C31.2761 87.3972 31.5573 87.4714 31.9089 87.4714C32.25 87.4714 32.5261 87.405 32.737 87.2722C32.9479 87.1419 33.0534 86.974 33.0534 86.7682C33.0534 86.4584 32.5235 86.181 31.4636 85.9362C31.4297 85.9284 31.405 85.9232 31.3893 85.9206ZM31.9011 84.3347C32.1667 84.3347 32.3854 84.2578 32.5573 84.1042C32.7318 83.9479 32.819 83.7526 32.819 83.5182C32.819 83.2735 32.7357 83.0768 32.569 82.9284C32.405 82.7774 32.1875 82.7018 31.9167 82.7018C31.638 82.7018 31.4128 82.7761 31.2409 82.9245C31.0716 83.0703 30.987 83.263 30.987 83.5026C30.987 83.7448 31.0716 83.944 31.2409 84.1003C31.4128 84.2565 31.6328 84.3347 31.9011 84.3347ZM31.1315 84.6862C30.8789 84.5586 30.6888 84.4011 30.5612 84.2136C30.4362 84.0235 30.3737 83.8047 30.3737 83.5573C30.3737 83.1589 30.5169 82.8307 30.8034 82.5729C31.0925 82.3125 31.4636 82.1823 31.9167 82.1823C32.0469 82.1823 32.1797 82.2018 32.3151 82.2409C32.4505 82.28 32.5899 82.3373 32.7331 82.4128C33.0248 82.3347 33.2409 82.2643 33.3815 82.2018C33.5222 82.1367 33.612 82.0716 33.6511 82.0065C33.7031 82.0612 33.7409 82.1185 33.7643 82.1784C33.7904 82.2383 33.8034 82.3008 33.8034 82.3659C33.8034 82.4987 33.7526 82.6016 33.6511 82.6745C33.5521 82.7448 33.3815 82.7969 33.1393 82.8307C33.2331 82.9479 33.3021 83.0651 33.3464 83.1823C33.3906 83.2995 33.4128 83.4219 33.4128 83.5495C33.4128 83.9115 33.2722 84.2149 32.9909 84.4597C32.7097 84.7018 32.3568 84.8229 31.9323 84.8229C31.8802 84.8229 31.8242 84.8216 31.7643 84.819C31.7071 84.8138 31.6485 84.8073 31.5886 84.7995C31.5391 84.849 31.5013 84.8985 31.4753 84.9479C31.4492 84.9948 31.4362 85.0417 31.4362 85.0886C31.4362 85.2682 31.6862 85.4128 32.1862 85.5222C32.3034 85.5482 32.3946 85.5677 32.4597 85.5807C32.9492 85.6953 33.28 85.8281 33.4518 85.9792C33.6237 86.1276 33.7097 86.3399 33.7097 86.6159C33.7097 87.0117 33.5313 87.3386 33.1745 87.5964C32.8203 87.8542 32.3633 87.9831 31.8034 87.9831C31.2826 87.9831 30.8711 87.875 30.569 87.6589C30.2669 87.4453 30.1159 87.1563 30.1159 86.7917C30.1159 86.5365 30.1901 86.3125 30.3386 86.1198C30.4896 85.9245 30.711 85.7643 31.0026 85.6393C30.9401 85.5821 30.8919 85.5235 30.8581 85.4636C30.8268 85.4037 30.8112 85.3399 30.8112 85.2722C30.8112 85.1862 30.8373 85.0951 30.8893 84.9987C30.944 84.9024 31.0248 84.7982 31.1315 84.6862ZM34.9323 83.8073C35.1042 83.836 35.293 83.8581 35.4987 83.8737C35.7071 83.8867 35.931 83.8932 36.1706 83.8932C36.4961 83.8932 36.7136 83.8633 36.8229 83.8034C36.9323 83.7435 36.987 83.6354 36.987 83.4792C36.987 83.2422 36.905 83.0547 36.7409 82.9167C36.5768 82.7787 36.3529 82.7097 36.069 82.7097C35.7669 82.7097 35.5156 82.806 35.3151 82.9987C35.1146 83.1914 34.987 83.461 34.9323 83.8073ZM37.2057 85.3425C37.263 85.4128 37.3047 85.4792 37.3307 85.5417C37.3594 85.6016 37.3737 85.6602 37.3737 85.7175C37.3737 85.8581 37.2682 85.974 37.0573 86.0651C36.849 86.1537 36.5755 86.1979 36.237 86.1979C35.6146 86.1979 35.1263 86.0287 34.7722 85.6901C34.4206 85.349 34.2448 84.8789 34.2448 84.28C34.2448 83.6758 34.4219 83.1823 34.7761 82.7995C35.1328 82.4141 35.5899 82.2214 36.1472 82.2214C36.5768 82.2214 36.9297 82.3438 37.2057 82.5886C37.4818 82.8334 37.6198 83.1459 37.6198 83.5261C37.6198 83.8255 37.5052 84.0391 37.2761 84.1667C37.0469 84.2943 36.6576 84.3581 36.1081 84.3581C35.9024 84.3581 35.6966 84.3516 35.4909 84.3386C35.2878 84.3229 35.086 84.3008 34.8854 84.2722V84.3268C34.8854 84.7331 35.0052 85.0547 35.2448 85.2917C35.4844 85.5287 35.8099 85.6472 36.2214 85.6472C36.4141 85.6472 36.5925 85.6224 36.7565 85.5729C36.9206 85.5209 37.0703 85.444 37.2057 85.3425ZM41.7682 81.1589C41.7474 81.5938 41.7318 82.0104 41.7214 82.4089C41.711 82.8073 41.7057 83.1927 41.7057 83.5651C41.7266 83.5651 41.7565 83.5664 41.7956 83.569C41.8373 83.5716 41.8685 83.5729 41.8893 83.5729C42.4206 83.5729 42.836 83.4479 43.1354 83.1979C43.4349 82.9479 43.5847 82.6016 43.5847 82.1589C43.5847 81.8203 43.474 81.5586 43.2526 81.3737C43.0339 81.1888 42.724 81.0964 42.3229 81.0964C42.2344 81.0964 42.1446 81.1016 42.0534 81.112C41.9623 81.1224 41.8672 81.138 41.7682 81.1589ZM43.0807 83.8229C43.2709 83.888 43.5065 84.0794 43.7878 84.3972C43.8633 84.4831 43.9206 84.5482 43.9597 84.5925C44.2539 84.9128 44.5104 85.1628 44.7292 85.3425C44.9479 85.5196 45.1341 85.6289 45.2878 85.6706C45.2123 85.8737 45.1328 86.0196 45.0495 86.1081C44.9662 86.194 44.8672 86.237 44.7526 86.237C44.6563 86.237 44.5495 86.1966 44.4323 86.1159C44.3177 86.0352 44.1823 85.9024 44.0261 85.7175C43.9089 85.5821 43.75 85.3946 43.5495 85.155C42.9349 84.4102 42.4453 84.0378 42.0807 84.0378C42.0391 84.0378 41.9883 84.0404 41.9284 84.0456C41.8685 84.0482 41.7943 84.0547 41.7057 84.0651C41.7214 84.6459 41.7474 85.0716 41.7839 85.3425C41.8203 85.6107 41.8763 85.819 41.9518 85.9675C41.8268 86.0352 41.711 86.086 41.6042 86.1198C41.5 86.1511 41.4037 86.1667 41.3151 86.1667C41.1719 86.1667 41.0742 86.1302 41.0222 86.0573C40.9701 85.9844 40.944 85.8347 40.944 85.6081C40.944 85.53 40.9557 85.1875 40.9792 84.5807C41.0052 83.974 41.0182 83.4037 41.0182 82.8698C41.0182 82.1823 41 81.6732 40.9636 81.3425C40.9271 81.0117 40.8685 80.7591 40.7878 80.5847C41.1237 80.5742 41.4753 80.5586 41.8425 80.5378C42.2097 80.5143 42.4141 80.5026 42.4557 80.5026C43.0417 80.5026 43.5026 80.6419 43.8386 80.9206C44.1771 81.1992 44.3464 81.5768 44.3464 82.0534C44.3464 82.4727 44.2396 82.8321 44.0261 83.1315C43.8125 83.4284 43.4974 83.6589 43.0807 83.8229ZM48.8307 85.9597C48.7292 86.0248 48.6367 86.0742 48.5534 86.1081C48.4701 86.1419 48.3972 86.1589 48.3347 86.1589C48.2227 86.1589 48.1406 86.125 48.0886 86.0573C48.0391 85.987 48.0104 85.875 48.0026 85.7214C47.8073 85.888 47.6133 86.0117 47.4206 86.0925C47.2305 86.1732 47.0365 86.2136 46.8386 86.2136C46.4479 86.2136 46.1328 86.1042 45.8932 85.8854C45.6537 85.6667 45.5339 85.3789 45.5339 85.0222C45.5339 84.6185 45.6979 84.2956 46.0261 84.0534C46.3568 83.8086 46.8008 83.6862 47.3581 83.6862C47.4492 83.6862 47.5456 83.6901 47.6472 83.6979C47.7513 83.7031 47.862 83.7123 47.9792 83.7253C47.9844 83.7018 47.987 83.6784 47.987 83.655C47.9896 83.6289 47.9909 83.599 47.9909 83.5651C47.9909 83.2943 47.9141 83.0886 47.7604 82.9479C47.6094 82.8047 47.3893 82.7331 47.1003 82.7331C46.8607 82.7331 46.6628 82.7735 46.5065 82.8542C46.3529 82.9323 46.2279 83.0547 46.1315 83.2214C46.0378 83.1979 45.9662 83.1576 45.9167 83.1003C45.8698 83.043 45.8464 82.9688 45.8464 82.8776C45.8464 82.6875 45.9662 82.5313 46.2057 82.4089C46.4479 82.2839 46.763 82.2214 47.1511 82.2214C47.6276 82.2214 47.9844 82.3373 48.2214 82.569C48.461 82.7982 48.5807 83.1419 48.5807 83.6003C48.5807 83.6862 48.5768 83.836 48.569 84.0495C48.5612 84.263 48.5573 84.4349 48.5573 84.5651C48.5573 84.9245 48.5781 85.2136 48.6198 85.4323C48.6641 85.6511 48.7344 85.8268 48.8307 85.9597ZM47.9714 84.2214C47.8516 84.2031 47.7435 84.1901 47.6472 84.1823C47.5534 84.1719 47.4727 84.1667 47.405 84.1667C47.0013 84.1667 46.6966 84.2344 46.4909 84.3698C46.2852 84.5026 46.1823 84.7018 46.1823 84.9675C46.1823 85.181 46.2539 85.349 46.3972 85.4714C46.5404 85.5938 46.7383 85.655 46.9909 85.655C47.181 85.655 47.3581 85.6198 47.5222 85.5495C47.6888 85.4766 47.8412 85.3685 47.9792 85.2253C47.974 85.0951 47.9701 84.9896 47.9675 84.9089C47.9675 84.8255 47.9675 84.7461 47.9675 84.6706C47.9675 84.6237 47.9688 84.5508 47.9714 84.4518C47.974 84.3503 47.974 84.2735 47.9714 84.2214ZM52.1667 83.0143C52.0651 82.9518 51.9662 82.9076 51.8698 82.8815C51.7735 82.8529 51.6667 82.8386 51.5495 82.8386C51.1537 82.8386 50.8242 82.9805 50.5612 83.2643C50.2982 83.5482 50.1667 83.9076 50.1667 84.3425C50.1667 84.7357 50.2826 85.0482 50.5143 85.28C50.7487 85.5091 51.0651 85.6237 51.4636 85.6237C51.6354 85.6237 51.7917 85.6003 51.9323 85.5534C52.0729 85.5065 52.2044 85.4336 52.3268 85.3347C52.3737 85.3998 52.4089 85.4623 52.4323 85.5222C52.4584 85.5821 52.4714 85.6393 52.4714 85.694C52.4714 85.8581 52.3763 85.9883 52.1862 86.0847C51.9961 86.181 51.7383 86.2292 51.4128 86.2292C50.8425 86.2292 50.3789 86.0664 50.0222 85.7409C49.6654 85.4128 49.487 84.987 49.487 84.4636C49.487 83.8281 49.7031 83.2943 50.1354 82.862C50.5677 82.4297 51.0925 82.2136 51.7097 82.2136C51.9362 82.2136 52.1042 82.2461 52.2136 82.3112C52.3255 82.3763 52.3815 82.4753 52.3815 82.6081C52.3815 82.6758 52.3646 82.7422 52.3307 82.8073C52.2969 82.8698 52.2422 82.9388 52.1667 83.0143ZM55.5573 83.0143C55.4557 82.9518 55.3568 82.9076 55.2604 82.8815C55.1641 82.8529 55.0573 82.8386 54.9401 82.8386C54.5443 82.8386 54.2149 82.9805 53.9518 83.2643C53.6888 83.5482 53.5573 83.9076 53.5573 84.3425C53.5573 84.7357 53.6732 85.0482 53.905 85.28C54.1393 85.5091 54.4557 85.6237 54.8542 85.6237C55.0261 85.6237 55.1823 85.6003 55.3229 85.5534C55.4636 85.5065 55.5951 85.4336 55.7175 85.3347C55.7643 85.3998 55.7995 85.4623 55.8229 85.5222C55.849 85.5821 55.862 85.6393 55.862 85.694C55.862 85.8581 55.7669 85.9883 55.5768 86.0847C55.3867 86.181 55.1289 86.2292 54.8034 86.2292C54.2331 86.2292 53.7696 86.0664 53.4128 85.7409C53.056 85.4128 52.8776 84.987 52.8776 84.4636C52.8776 83.8281 53.0938 83.2943 53.5261 82.862C53.9584 82.4297 54.4831 82.2136 55.1003 82.2136C55.3268 82.2136 55.4948 82.2461 55.6042 82.3112C55.7162 82.3763 55.7722 82.4753 55.7722 82.6081C55.7722 82.6758 55.7552 82.7422 55.7214 82.8073C55.6875 82.8698 55.6328 82.9388 55.5573 83.0143ZM58.362 85.7018C58.7839 85.7018 59.1289 85.5612 59.3972 85.28C59.668 84.9961 59.8034 84.6328 59.8034 84.1901C59.8034 83.7578 59.6706 83.4063 59.405 83.1354C59.1419 82.862 58.7995 82.7253 58.3776 82.7253C57.9479 82.7253 57.6003 82.8672 57.3347 83.1511C57.0716 83.4323 56.9401 83.806 56.9401 84.2722C56.9401 84.6862 57.0742 85.0287 57.3425 85.2995C57.6107 85.5677 57.9505 85.7018 58.362 85.7018ZM58.3151 86.2643C57.711 86.2643 57.2188 86.0781 56.8386 85.7057C56.4584 85.3334 56.2682 84.8555 56.2682 84.2722C56.2682 83.6524 56.4714 83.1498 56.8776 82.7643C57.2839 82.3763 57.8112 82.1823 58.4597 82.1823C59.0456 82.1823 59.5274 82.3659 59.905 82.7331C60.2852 83.1003 60.4753 83.5651 60.4753 84.1276C60.4753 84.3542 60.4388 84.5781 60.3659 84.7995C60.2956 85.0209 60.1992 85.2097 60.0768 85.3659C59.8451 85.6654 59.5821 85.8906 59.2878 86.0417C58.9961 86.1901 58.6719 86.2643 58.3151 86.2643ZM63.1667 85.7018C63.5886 85.7018 63.9336 85.5612 64.2018 85.28C64.4727 84.9961 64.6081 84.6328 64.6081 84.1901C64.6081 83.7578 64.4753 83.4063 64.2097 83.1354C63.9466 82.862 63.6042 82.7253 63.1823 82.7253C62.7526 82.7253 62.405 82.8672 62.1393 83.1511C61.8763 83.4323 61.7448 83.806 61.7448 84.2722C61.7448 84.6862 61.8789 85.0287 62.1472 85.2995C62.4154 85.5677 62.7552 85.7018 63.1667 85.7018ZM63.1198 86.2643C62.5156 86.2643 62.0235 86.0781 61.6432 85.7057C61.263 85.3334 61.0729 84.8555 61.0729 84.2722C61.0729 83.6524 61.2761 83.1498 61.6823 82.7643C62.0886 82.3763 62.6159 82.1823 63.2643 82.1823C63.8503 82.1823 64.3321 82.3659 64.7097 82.7331C65.0899 83.1003 65.28 83.5651 65.28 84.1276C65.28 84.3542 65.2435 84.5781 65.1706 84.7995C65.1003 85.0209 65.0039 85.2097 64.8815 85.3659C64.6498 85.6654 64.3867 85.8906 64.0925 86.0417C63.8008 86.1901 63.4766 86.2643 63.1198 86.2643ZM66.862 83.1667C66.8568 83.4531 66.849 83.7617 66.8386 84.0925C66.8307 84.4206 66.8268 84.6055 66.8268 84.6472C66.8268 84.9857 66.8425 85.2604 66.8737 85.4714C66.905 85.6823 66.9544 85.8581 67.0222 85.9987C66.9128 86.056 66.8125 86.099 66.7214 86.1276C66.6302 86.1537 66.5404 86.1667 66.4518 86.1667C66.3321 86.1667 66.25 86.1328 66.2057 86.0651C66.1615 85.9974 66.1393 85.8555 66.1393 85.6393C66.1393 85.5925 66.1524 85.3516 66.1784 84.9167C66.2071 84.4792 66.2214 84.0664 66.2214 83.6784C66.2214 83.3112 66.2071 83.0274 66.1784 82.8268C66.1498 82.6263 66.1029 82.4466 66.0378 82.2878C66.0951 82.2696 66.1524 82.2552 66.2097 82.2448C66.2696 82.2344 66.3268 82.2292 66.3815 82.2292C66.5196 82.2292 66.6289 82.2682 66.7097 82.3464C66.7904 82.4219 66.836 82.53 66.8464 82.6706C67.0417 82.53 67.2487 82.4219 67.4675 82.3464C67.6862 82.2682 67.9024 82.2292 68.1159 82.2292C68.3763 82.2292 68.6094 82.2865 68.8151 82.4011C69.0235 82.513 69.1823 82.6693 69.2917 82.8698C69.3672 83.0078 69.4206 83.1693 69.4518 83.3542C69.4857 83.5365 69.5026 83.8151 69.5026 84.1901C69.5026 84.2292 69.5 84.3216 69.4948 84.4675C69.4922 84.6133 69.4909 84.7396 69.4909 84.8464C69.4909 85.1146 69.5078 85.3451 69.5417 85.5378C69.5781 85.7305 69.6315 85.8815 69.7018 85.9909C69.5794 86.0508 69.4727 86.0951 69.3815 86.1237C69.293 86.1524 69.2123 86.1667 69.1393 86.1667C69.0169 86.1667 68.931 86.1354 68.8815 86.0729C68.8347 86.0078 68.8112 85.8867 68.8112 85.7097C68.8112 85.6029 68.819 85.3737 68.8347 85.0222C68.8529 84.668 68.862 84.3672 68.862 84.1198C68.862 83.6485 68.7904 83.3073 68.6472 83.0964C68.5039 82.8828 68.2735 82.7761 67.9557 82.7761C67.7943 82.7761 67.6198 82.8099 67.4323 82.8776C67.2448 82.9427 67.0547 83.0391 66.862 83.1667Z" fill="black"/>
</svg>
