<svg width="497" height="19" viewBox="0 0 497 19" fill="none" xmlns="http://www.w3.org/2000/svg">
<path d="M243.859 18.56C243.723 18.56 243.587 18.56 243.462 18.55C242.747 18.56 236.359 18.46 231.991 11.51C230.538 9.24 228.587 7.12 226.896 5.97L226.635 5.79C224.457 4.23 221.563 3.76 218.886 4.52C216.321 5.25 214.472 6.97 213.791 9.22C213.734 9.4 213.689 9.58 213.655 9.76C213.303 11.38 213.757 13.05 214.948 14.45C216.65 16.44 218.897 17.32 221.144 16.87C223.163 16.46 224.718 15.01 225.115 13.19C225.319 12.26 225.047 11.27 224.377 10.47C223.367 9.26 222.029 8.72 220.724 8.98C219.544 9.22 218.636 10.05 218.409 11.12C218.171 12.22 218.965 13.28 220.19 13.49L219.85 15.02C217.683 14.64 216.253 12.76 216.673 10.82C217.036 9.15 218.477 7.82 220.338 7.45C222.346 7.05 224.389 7.83 225.818 9.53C226.783 10.68 227.169 12.12 226.874 13.47C226.352 15.9 224.264 17.83 221.563 18.38C218.659 18.97 215.663 17.85 213.553 15.38C212.055 13.62 211.476 11.52 211.93 9.46C211.976 9.24 212.032 9.03 212.1 8.82C212.94 6.04 215.221 3.93 218.364 3.04C221.62 2.11 225.138 2.69 227.781 4.58L228.02 4.75C229.903 6.02 231.979 8.27 233.568 10.75C237.585 17.14 243.417 16.99 243.474 16.99H243.53H243.587C244.585 17.06 245.561 16.78 246.333 16.2C247.127 15.6 247.604 14.76 247.694 13.84C247.819 12.43 246.651 11.18 245.073 11.05C244.517 11 243.927 11.2 243.496 11.58C242.849 12.14 242.611 12.8 242.861 13.4C243.065 13.9 243.576 14.25 244.166 14.29L244.018 15.85C242.736 15.76 241.624 15.01 241.182 13.93C240.694 12.75 241.102 11.46 242.248 10.46C243.042 9.77 244.154 9.41 245.221 9.5C247.751 9.7 249.646 11.7 249.442 13.96C249.328 15.3 248.625 16.52 247.467 17.39C246.435 18.15 245.175 18.56 243.859 18.56Z" fill="#1A1A1A"/>
<path d="M253.243 18.56C251.927 18.56 250.667 18.15 249.657 17.39C248.5 16.52 247.808 15.3 247.683 13.96C247.479 11.7 249.374 9.7 251.904 9.5C252.959 9.41 254.082 9.78 254.877 10.46C256.034 11.45 256.431 12.75 255.943 13.92C255.501 15 254.389 15.75 253.107 15.84L252.959 14.28C253.549 14.24 254.06 13.89 254.264 13.39C254.502 12.8 254.275 12.13 253.617 11.57C253.186 11.2 252.596 11 252.04 11.04C250.474 11.16 249.294 12.41 249.419 13.83C249.499 14.76 249.986 15.6 250.781 16.19C251.552 16.77 252.528 17.05 253.527 16.98H253.583H253.64C253.878 16.98 259.552 17.09 263.545 10.75C265.134 8.27 267.21 6.02 269.117 4.73L269.332 4.57C271.976 2.67 275.493 2.1 278.75 3.03C281.893 3.93 284.173 6.04 285.013 8.82C285.081 9.03 285.138 9.24 285.183 9.46C285.637 11.52 285.058 13.63 283.561 15.38C281.45 17.85 278.455 18.98 275.55 18.38C272.85 17.83 270.762 15.9 270.24 13.47C269.945 12.12 270.331 10.68 271.295 9.53C272.725 7.82 274.767 7.05 276.776 7.45C278.636 7.82 280.077 9.15 280.44 10.82C280.86 12.76 279.431 14.64 277.263 15.02L276.923 13.49C278.137 13.28 278.943 12.21 278.704 11.12C278.477 10.06 277.57 9.22 276.39 8.98C275.074 8.72 273.746 9.26 272.736 10.47C272.067 11.27 271.794 12.27 271.999 13.19C272.396 15.01 273.95 16.46 275.97 16.87C278.205 17.33 280.463 16.45 282.165 14.45C283.356 13.05 283.822 11.39 283.459 9.76C283.413 9.58 283.368 9.4 283.322 9.22C282.642 6.97 280.781 5.25 278.228 4.52C275.55 3.75 272.657 4.23 270.478 5.79L270.24 5.96C268.527 7.12 266.575 9.24 265.123 11.52C260.754 18.47 254.389 18.57 253.651 18.55C253.515 18.56 253.379 18.56 253.243 18.56Z" fill="#1A1A1A"/>
<path d="M248.557 9.85C247.15 9.85 246.015 9.01 245.743 7.76C245.107 4.87 247.706 1.21 247.808 1.05L248.557 0L249.306 1.05C249.419 1.2 252.006 4.87 251.371 7.76C251.098 9.01 249.964 9.85 248.557 9.85ZM247.479 7.46C247.615 8.07 248.126 8.29 248.557 8.29C248.988 8.29 249.498 8.07 249.635 7.46C249.941 6.06 249.192 4.28 248.557 3.11C247.921 4.28 247.172 6.06 247.479 7.46Z" fill="#1A1A1A"/>
<path d="M470.574 8.48001H284.355V10.04H470.574V8.48001Z" fill="#1A1A1A"/>
<path d="M7.56813 11.86C4.5613 11.86 1.2935 10 1.13465 9.91001L0 9.26001L1.146 8.60001C1.3162 8.50001 5.42363 6.17001 8.65739 6.74001C10.053 6.99001 10.9948 8.00001 10.9948 9.26001C10.9948 10.51 10.053 11.52 8.64604 11.77C8.30565 11.83 7.94256 11.86 7.56813 11.86ZM3.43799 9.26001C4.83361 9.86001 6.81926 10.5 8.30565 10.24C8.98644 10.12 9.22472 9.66001 9.22472 9.26001C9.22472 8.86001 8.98644 8.40001 8.30565 8.28001C6.81926 8.01001 4.83361 8.65001 3.43799 9.26001Z" fill="#1A1A1A"/>
<path d="M14.3079 10.05C13.5477 10.05 12.8216 9.81001 12.2315 9.37001C11.5734 8.87001 11.165 8.17001 11.0969 7.40001C10.9834 6.06001 12.1067 4.88001 13.6045 4.76001C14.2626 4.72001 14.9434 4.93001 15.4313 5.35001C16.1347 5.95001 16.373 6.75001 16.0667 7.49001C15.9078 7.87001 15.6241 8.18001 15.2611 8.40001C16.1801 8.21001 17.78 7.59001 19.0281 5.59001C19.845 4.31001 20.923 3.15001 21.9101 2.48001L22.0122 2.41001C23.4419 1.38001 25.3481 1.07001 27.1068 1.57001C28.7861 2.05001 30.0569 3.23001 30.5108 4.71001C30.5448 4.82001 30.5788 4.94001 30.6015 5.05001C30.8512 6.17001 30.5221 7.35001 29.7165 8.30001C28.5592 9.66001 26.9026 10.27 25.28 9.94001C23.7709 9.63001 22.6022 8.55001 22.3072 7.19001C22.137 6.41001 22.3526 5.58001 22.9086 4.93001C23.7256 3.95001 24.9169 3.51001 26.0856 3.75001C27.1862 3.97001 28.0259 4.75001 28.2415 5.73001C28.4911 6.90001 27.6288 8.05001 26.3126 8.27001L25.9722 6.74001C26.3352 6.68001 26.5735 6.35001 26.5054 6.02001C26.426 5.64001 26.1083 5.35001 25.6998 5.27001C25.2233 5.17001 24.7354 5.38001 24.3383 5.86001C24.0773 6.17001 23.9752 6.55001 24.0546 6.90001C24.2135 7.65001 24.8602 8.25001 25.6885 8.42001C26.6189 8.61001 27.572 8.23001 28.3095 7.37001C28.8201 6.77001 29.0244 6.05001 28.8655 5.35001C28.8428 5.27001 28.8315 5.19001 28.7974 5.11001C28.5024 4.12001 27.6855 3.37001 26.5622 3.05001C25.3821 2.71001 24.1 2.92001 23.1355 3.61001L23.0221 3.69001C22.2051 4.24001 21.2747 5.25001 20.5826 6.34001C18.3473 9.90001 15.0795 10.05 14.5122 10.03C14.4555 10.04 14.376 10.05 14.3079 10.05ZM13.7974 6.32001C13.786 6.32001 13.7747 6.32001 13.7633 6.32001C13.23 6.36001 12.8329 6.79001 12.8669 7.28001C12.901 7.64001 13.0825 7.96001 13.3889 8.18001C13.6385 8.37001 13.9449 8.47001 14.2626 8.48001L14.1377 7.14001C14.2853 7.13001 14.376 7.03001 14.3987 6.95001C14.4554 6.80001 14.3874 6.63001 14.1831 6.46001C14.081 6.37001 13.9335 6.32001 13.7974 6.32001Z" fill="#1A1A1A"/>
<path d="M25.4275 17.19C24.2021 17.19 22.9994 16.82 22.0236 16.12L21.9101 16.03C20.9457 15.38 19.8677 14.22 19.0508 12.94C17.7913 10.94 16.2028 10.32 15.2724 10.13C15.6355 10.34 15.9192 10.66 16.078 11.04C16.3844 11.77 16.1347 12.57 15.4426 13.18C14.9547 13.6 14.2626 13.82 13.6158 13.77C12.1181 13.65 10.9948 12.47 11.1082 11.13C11.1763 10.36 11.5848 9.66001 12.2429 9.16001C12.8783 8.68001 13.6952 8.44001 14.5235 8.49001H14.5349C15.0909 8.49001 18.37 8.65001 20.5939 12.19C21.2861 13.27 22.2051 14.28 23.0107 14.82L23.1469 14.92C24.1113 15.61 25.3935 15.82 26.5735 15.48C27.6968 15.16 28.5138 14.41 28.8088 13.42C28.8315 13.34 28.8542 13.26 28.8769 13.18C29.0244 12.49 28.8315 11.77 28.3096 11.17C27.572 10.31 26.6303 9.92001 25.6885 10.12C24.8602 10.29 24.2135 10.89 24.0546 11.64C23.9752 11.99 24.0773 12.37 24.3383 12.68C24.7354 13.15 25.212 13.36 25.6999 13.27C26.1083 13.19 26.426 12.89 26.5055 12.52C26.5735 12.19 26.3353 11.86 25.9722 11.8L26.3126 10.27C27.6288 10.5 28.4911 11.64 28.2415 12.81C28.0259 13.79 27.1862 14.57 26.0856 14.79C24.9169 15.03 23.7256 14.58 22.9086 13.61C22.3526 12.95 22.137 12.13 22.3072 11.35C22.6023 9.99001 23.7709 8.91001 25.28 8.60001C26.9026 8.27001 28.5592 8.88001 29.7165 10.24C30.5221 11.19 30.8512 12.37 30.6015 13.49C30.5789 13.61 30.5448 13.72 30.5108 13.83C30.0569 15.32 28.7861 16.5 27.1068 16.98C26.5622 17.11 25.9949 17.19 25.4275 17.19ZM14.2626 10.04C13.9449 10.05 13.6385 10.15 13.3889 10.34C13.0825 10.57 12.901 10.89 12.8669 11.24C12.8216 11.73 13.2187 12.16 13.7633 12.2C13.8995 12.21 14.081 12.15 14.1945 12.05C14.3874 11.88 14.4668 11.71 14.3987 11.56C14.3647 11.48 14.2739 11.38 14.1378 11.37L14.2626 10.04Z" fill="#1A1A1A"/>
<path d="M212.645 8.48001H26.426V10.04H212.645V8.48001Z" fill="#1A1A1A"/>
<path d="M489.432 11.86C489.069 11.86 488.706 11.83 488.354 11.77C486.947 11.52 486.005 10.51 486.005 9.26001C486.005 8.00001 486.947 7.00001 488.354 6.75001C491.588 6.18001 495.695 8.51001 495.865 8.61001L497 9.26001L495.865 9.91001C495.706 10 492.439 11.86 489.432 11.86ZM488.694 8.28001C488.014 8.40001 487.775 8.86001 487.775 9.26001C487.775 9.65001 488.014 10.12 488.694 10.24C490.181 10.5 492.166 9.86001 493.562 9.26001C492.178 8.65001 490.181 8.01001 488.694 8.28001Z" fill="#1A1A1A"/>
<path d="M482.692 10.05C482.624 10.05 482.545 10.05 482.476 10.04H482.465C481.909 10.04 478.63 9.88001 476.406 6.34001C475.714 5.26001 474.795 4.25001 473.989 3.71001L473.853 3.61001C472.889 2.92001 471.607 2.71001 470.426 3.05001C469.303 3.37001 468.486 4.12001 468.191 5.11001C468.169 5.19001 468.146 5.27001 468.123 5.35001C467.976 6.05001 468.169 6.76001 468.679 7.37001C469.417 8.23001 470.37 8.61001 471.3 8.42001C472.128 8.25001 472.775 7.65001 472.934 6.90001C473.013 6.55001 472.911 6.17001 472.65 5.86001C472.253 5.38001 471.777 5.18001 471.289 5.27001C470.88 5.35001 470.563 5.65001 470.483 6.02001C470.415 6.35001 470.653 6.68001 471.016 6.74001L470.676 8.27001C469.36 8.04001 468.498 6.90001 468.747 5.73001C468.963 4.74001 469.814 3.97001 470.903 3.75001C472.083 3.52001 473.263 3.96001 474.08 4.93001C474.636 5.59001 474.852 6.42001 474.681 7.19001C474.386 8.55001 473.218 9.63001 471.709 9.94001C470.086 10.27 468.429 9.66001 467.272 8.30001C466.467 7.35001 466.137 6.17001 466.387 5.05001C466.41 4.93001 466.444 4.82001 466.478 4.70001C466.932 3.21001 468.203 2.04001 469.882 1.56001C471.641 1.06001 473.547 1.37001 474.976 2.39001L475.09 2.48001C476.054 3.13001 477.132 4.29001 477.949 5.57001C479.209 7.57001 480.797 8.19001 481.728 8.38001C481.365 8.16001 481.081 7.85001 480.922 7.47001C480.627 6.74001 480.865 5.94001 481.557 5.34001C482.045 4.92001 482.726 4.70001 483.384 4.75001C484.882 4.87001 486.005 6.05001 485.892 7.39001C485.824 8.16001 485.415 8.86001 484.757 9.36001C484.178 9.81001 483.452 10.05 482.692 10.05ZM483.203 6.32001C483.066 6.32001 482.919 6.38001 482.806 6.47001C482.613 6.64001 482.533 6.81001 482.59 6.96001C482.624 7.04001 482.715 7.14001 482.851 7.15001L482.726 8.49001C483.044 8.48001 483.35 8.38001 483.6 8.19001C483.906 7.96001 484.088 7.64001 484.122 7.29001C484.167 6.80001 483.77 6.37001 483.225 6.33001C483.225 6.32001 483.214 6.32001 483.203 6.32001Z" fill="#1A1A1A"/>
<path d="M471.572 17.19C471.005 17.19 470.438 17.11 469.882 16.95C468.203 16.47 466.932 15.29 466.478 13.81C466.444 13.7 466.41 13.58 466.387 13.46C466.137 12.34 466.467 11.16 467.272 10.21C468.429 8.85001 470.086 8.24001 471.709 8.57001C473.218 8.88001 474.386 9.96001 474.681 11.32C474.852 12.1 474.636 12.93 474.08 13.58C473.263 14.56 472.072 15 470.903 14.76C469.802 14.54 468.963 13.76 468.747 12.78C468.498 11.61 469.36 10.47 470.676 10.24L471.016 11.77C470.653 11.83 470.415 12.16 470.483 12.49C470.563 12.86 470.88 13.16 471.289 13.24C471.765 13.34 472.253 13.13 472.65 12.65C472.911 12.34 473.013 11.96 472.934 11.61C472.775 10.86 472.128 10.26 471.3 10.09C470.37 9.90001 469.417 10.28 468.679 11.14C468.169 11.74 467.964 12.46 468.123 13.16C468.146 13.24 468.157 13.32 468.18 13.4C468.475 14.39 469.292 15.14 470.415 15.46C471.595 15.8 472.877 15.59 473.842 14.9L473.955 14.82C474.772 14.27 475.703 13.26 476.395 12.17C478.63 8.61001 481.932 8.50001 482.465 8.48001C483.293 8.43001 484.11 8.67001 484.757 9.15001C485.415 9.65001 485.824 10.35 485.892 11.12C486.005 12.46 484.882 13.64 483.384 13.76C482.726 13.81 482.045 13.59 481.557 13.17C480.854 12.57 480.616 11.77 480.922 11.03C481.081 10.65 481.365 10.34 481.728 10.12C480.809 10.31 479.209 10.93 477.949 12.93C477.132 14.21 476.054 15.37 475.067 16.04L474.965 16.11C474.001 16.82 472.798 17.19 471.572 17.19ZM482.749 10.04L482.874 11.38C482.726 11.39 482.635 11.49 482.613 11.57C482.556 11.72 482.624 11.89 482.828 12.06C482.953 12.16 483.123 12.22 483.259 12.21C483.793 12.17 484.19 11.74 484.156 11.25C484.122 10.89 483.94 10.57 483.634 10.35C483.373 10.16 483.066 10.05 482.749 10.04Z" fill="#1A1A1A"/>
</svg>
