<svg id="Слой_1" data-name="Слой 1" xmlns="http://www.w3.org/2000/svg" viewBox="0 0 386.93 398.88"><defs><style>.cls-1{fill:#3a261e;}.cls-2{fill:#701a1a;}.cls-3{font-size:113.58px;font-family:LucidaCalligraphy-Italic, Lucida Calligraphy;font-style:italic;}.cls-4{fill:#fff3e6;}.cls-5{font-size:33.13px;font-family:MaiandraGD-Regular, Maiandra GD;}.cls-6{letter-spacing:-0.02em;}.cls-7{letter-spacing:-0.02em;}</style></defs><title>Безымянный-2</title><path class="cls-1" d="M361.22,252.55c-2.31.81-4.55,1.76-6.85,2.81a69.11,69.11,0,0,0-6.94,3.57c-2.29,1.36-4.72,2.79-7.05,4.48L336.82,266a168.14,168.14,0,0,0,16.08-29.21c.26-.61.5-1.23.75-1.85,11.79-1.41,21.05-6.43,27.71-13.72,7.4-8,11.93-18.47,14.64-29.53a141.27,141.27,0,0,0-12.34,7c-2,1.29-4,2.63-6,4.09a71.76,71.76,0,0,0-5.72,4.71,68.09,68.09,0,0,0-5.6,5.44l-2.73,3.06c-.92,1-1.82,2.15-2.7,3.29-1,1.32-2,2.67-3.05,4.08a167.52,167.52,0,0,0,5.71-23.67l.41-2.38.29-2.4.59-4.79c.08-.62.14-1.24.18-1.87a53.41,53.41,0,0,0,5.65-2.89c1.32-.78,2.59-1.61,3.79-2.48a34.81,34.81,0,0,0,3.38-2.75,47,47,0,0,0,5.65-6.19,33.73,33.73,0,0,0,2.29-3.4c.69-1.16,1.34-2.35,1.94-3.57,4.78-9.75,6.07-21.09,5.43-32.47-1.69,1.64-3.31,3.29-5,5s-3.28,3.44-4.82,5.25a88.11,88.11,0,0,0-8.63,11.79,94,94,0,0,0-9.1,20c0-.27,0-.54,0-.81,0-1.59.11-3.18,0-4.77-.08-3.17-.13-6.33-.41-9.46A164.42,164.42,0,0,0,363,143l-.57-2.75a52.54,52.54,0,0,0,4.81-4.57,45.26,45.26,0,0,0,5.3-7.09,39.24,39.24,0,0,0,3.59-7.57c.46-1.3.87-2.61,1.22-3.94a36.11,36.11,0,0,0,.8-4c1.73-10.75-.39-22-4.34-32.67-4.51,8.23-8.68,16.7-11.15,26.48a99.6,99.6,0,0,0-2.85,22.38c-.38-1.29-.77-2.58-1.15-3.87-.8-2.86-1.85-5.61-2.79-8.37-.45-1.38-1.05-2.7-1.57-4.05s-1-2.68-1.61-4c-2.12-4.79-4.31-9.43-6.73-13.8,6.69-10.28,8.59-20.77,7.2-30.78-1.5-10.78-6.78-20.89-13.67-29.95C337.57,43.64,336,52.94,336.54,63a99,99,0,0,0,4,23A161.1,161.1,0,0,0,317.1,56.92c3.48-11.86,2.27-22.53-2-31.76-4.56-9.88-12.55-18-21.79-24.69.83,9.36,2.09,18.7,5.49,28.2a99.43,99.43,0,0,0,11,21.49A156,156,0,0,0,295,38.68l-3.18-2.16L290,35.38a51.73,51.73,0,0,0-11-12.3,47.59,47.59,0,0,0-15.15-8.25c-10.4-3.37-20.78-2.71-30.22-.41,7.92,5.75,15.47,11.27,24.38,15.42a82.72,82.72,0,0,0,14.83,5.27,151.63,151.63,0,0,0,15.53,3L290,39.15l3.1,2.15a151.35,151.35,0,0,1,14.42,11.37,48.74,48.74,0,0,0-7.23-2.78,41.66,41.66,0,0,0-7.74-1.4,37.79,37.79,0,0,0-7.17.16c-9.19,1.16-16.71,5.57-23.36,11,7.31,2,14.73,4,23.41,4.29,8.13.29,17.45-.86,29.22-4.54A157.52,157.52,0,0,1,337.33,88a49.3,49.3,0,0,0-5.52-4.21,41.42,41.42,0,0,0-7-3.59,38,38,0,0,0-6.92-1.93c-9.13-1.56-17.61.47-25.54,3.69,6.4,4.1,12.94,8.13,21.17,10.93,7.64,2.61,16.81,4.21,29,4.13a153.67,153.67,0,0,1,12.11,29.46c.38,1.31.77,2.63,1.15,4-.37-.57-.74-1.13-1.12-1.66q-1.28-1.81-2.59-3.42a43.1,43.1,0,0,0-5.63-5.48A39.84,39.84,0,0,0,340.4,116c-8.29-4.15-17-4.67-25.51-3.89,4.93,5.77,10,11.51,17,16.58.88.64,1.84,1.25,2.77,1.87s1.9,1.23,2.93,1.83c2.05,1.19,4.3,2.33,6.65,3.45s5,2.17,7.8,3.19q2.9,1.06,6.15,2c.17.84.33,1.68.5,2.52a160.87,160.87,0,0,1,2.13,18c.32,4.88.4,9.83.26,14.79-.13-.45-.25-.9-.38-1.33a32.37,32.37,0,0,0-1.48-4c-.57-1.28-1.16-2.49-1.79-3.64a26.88,26.88,0,0,0-2-3.26,36.47,36.47,0,0,0-15.63-12.82,52.63,52.63,0,0,0-6-2.27c-2-.64-4.16-1.15-6.25-1.59,3,7,6.17,14,11.43,20.89.65.86,1.35,1.73,2.09,2.6s1.52,1.75,2.3,2.62a65.27,65.27,0,0,0,5.35,5.25c1,.89,2,1.77,3.1,2.65s2.2,1.78,3.4,2.67c1.58,1.2,3.32,2.4,5.14,3.61-.37,3.64-.85,7.28-1.49,10.9a162.37,162.37,0,0,1-5.78,23.11,31.59,31.59,0,0,0-.26-4.91c-.16-1.39-.38-2.72-.63-4-.13-.64-.27-1.27-.42-1.88s-.37-1.23-.57-1.83A34.92,34.92,0,0,0,344.55,197a36.42,36.42,0,0,0-4.55-4.66,59.61,59.61,0,0,0-10.58-7.25c.83,7.55,1.83,15.13,4.87,23.27,2.83,7.46,7.12,15.37,14.63,24.59-.22.53-.43,1.06-.65,1.58a163.7,163.7,0,0,1-15.93,28.36,32.51,32.51,0,0,0,1-4.15,37.69,37.69,0,0,0-.09-14.95,37.94,37.94,0,0,0-2.05-6.45,37.53,37.53,0,0,0-3-5.78,60.1,60.1,0,0,0-8-10c-1.41,7.45-2.69,15-2.18,23.68.09,2.15.41,4.46.73,6.77a66.24,66.24,0,0,0,1.5,7.35c.67,2.58,1.41,5.21,2.41,8,.61,1.74,1.31,3.56,2.06,5.43a160.56,160.56,0,0,1-24.14,23.47q1-1.56,1.83-3.09a48,48,0,0,0,2.95-7.29,40.51,40.51,0,0,0,1.29-7.07,33.88,33.88,0,0,0-.07-6.76,44.69,44.69,0,0,0-1.14-6.39,61.83,61.83,0,0,0-4.73-12c-3.5,6.75-7,13.59-9,22-.26,1.06-.49,2.15-.69,3.28s-.43,2.23-.59,3.41a72.81,72.81,0,0,0-.68,7.49,96.9,96.9,0,0,0,.34,13.92c-3.47,2.3-7,4.42-10.43,6.34a156.6,156.6,0,0,1-19.06,9c.78-.68,1.53-1.37,2.23-2.05A43,43,0,0,0,267.8,311a25.84,25.84,0,0,0,1.84-3.17c.54-1.07,1-2.14,1.46-3.21s.8-2.13,1.12-3.19.57-2.18.78-3.27a43.68,43.68,0,0,0,.75-6.46,59,59,0,0,0-1.06-12.82c-1.35,1.32-2.63,2.75-3.95,4.14s-2.63,2.81-3.87,4.36a50.61,50.61,0,0,0-3.7,4.71c-1.18,1.7-2.38,3.35-3.47,5.26-4,6.67-7.28,15-9.71,26.18l-.06,0-5.76,1.61-5.5,1.26c-.89.19-1.76.41-2.62.58l-2.55.44-4.83.84-4.47.56c-1.42.16-2.77.37-4.06.47l-3.66.26c-2.29.18-4.28.33-6,.33l-4.07.09h-3.83l-4-.09c-.83,0-1.75,0-2.74-.09l-3.19-.23-3.63-.26c-1.29-.09-2.63-.31-4-.47l-4.46-.54-4.81-.84-2.55-.44c-.86-.16-1.73-.38-2.61-.58l-5.49-1.24c-1.94-.55-3.94-1.09-6-1.68-2.43-11.2-5.75-19.51-9.71-26.18-1.09-1.91-2.29-3.56-3.47-5.26a52.42,52.42,0,0,0-3.71-4.71c-1.24-1.55-2.53-3-3.86-4.36s-2.6-2.82-4-4.14a59.63,59.63,0,0,0-1.05,12.82,43.68,43.68,0,0,0,.75,6.46c.21,1.09.46,2.19.77,3.27s.7,2.13,1.13,3.19.92,2.14,1.46,3.21a25.84,25.84,0,0,0,1.84,3.17,43,43,0,0,0,4.94,6.13c.7.68,1.45,1.37,2.23,2.05a156.25,156.25,0,0,1-18.87-8.85c-3.54-1.94-7.09-4.1-10.62-6.44a97.07,97.07,0,0,0,.34-13.93,72.81,72.81,0,0,0-.68-7.49c-.16-1.18-.39-2.28-.59-3.41s-.43-2.22-.69-3.28c-2-8.45-5.51-15.29-9-22a61.83,61.83,0,0,0-4.73,12,42.07,42.07,0,0,0-1.14,6.39,33.88,33.88,0,0,0-.07,6.76,40.51,40.51,0,0,0,1.29,7.07,48,48,0,0,0,3,7.29c.56,1,1.17,2.05,1.84,3.09A160.66,160.66,0,0,1,80.3,272.81c.76-1.87,1.46-3.69,2.07-5.43,1-2.83,1.73-5.46,2.4-8A64.15,64.15,0,0,0,86.28,252c.32-2.31.64-4.62.73-6.77.51-8.68-.78-16.23-2.18-23.68a60.1,60.1,0,0,0-8,10,37.53,37.53,0,0,0-3,5.78,37.94,37.94,0,0,0-2,6.45,40.91,40.91,0,0,0-.8,7.12,41.66,41.66,0,0,0,.71,7.83,30.87,30.87,0,0,0,1,4.17h0a162.75,162.75,0,0,1-15.85-28.18c-.26-.59-.49-1.19-.74-1.78,7.51-9.22,11.79-17.13,14.63-24.59,3-8.14,4-15.72,4.87-23.27a59.68,59.68,0,0,0-10.59,7.25A37,37,0,0,0,60.52,197a39.74,39.74,0,0,0-3.87,5.56,40.86,40.86,0,0,0-2.82,6.56q-.3.9-.57,1.83c-.15.61-.29,1.24-.42,1.88-.26,1.27-.47,2.6-.64,4a32,32,0,0,0-.25,4.94,163.07,163.07,0,0,1-5.75-22.94l-.42-2.31-.31-2.33-.61-4.64c-.08-.6-.14-1.21-.19-1.81,1.82-1.21,3.56-2.42,5.15-3.62q1.8-1.33,3.4-2.67c1.06-.88,2.08-1.76,3.1-2.65a65.27,65.27,0,0,0,5.35-5.25c.77-.87,1.55-1.75,2.3-2.62s1.43-1.74,2.08-2.6c5.27-6.94,8.43-13.93,11.44-20.89-2.09.44-4.22,1-6.25,1.59a52.63,52.63,0,0,0-6,2.27,39.21,39.21,0,0,0-11,7.35,39.94,39.94,0,0,0-4.63,5.47,29.64,29.64,0,0,0-2,3.26c-.62,1.15-1.21,2.36-1.78,3.64a32.37,32.37,0,0,0-1.48,4c-.13.41-.24.84-.37,1.27,0-.24,0-.48,0-.72,0-1.55-.13-3.09-.07-4.64.06-3.08.07-6.16.32-9.2a161.22,161.22,0,0,1,2.12-18c.17-.89.35-1.78.53-2.67q3.25-1,6.14-2c2.81-1,5.44-2.07,7.81-3.19s4.6-2.26,6.65-3.45c1-.6,2-1.21,2.93-1.83s1.89-1.23,2.77-1.87c7-5.07,12.11-10.81,17-16.58-8.53-.78-17.22-.26-25.5,3.89a39.84,39.84,0,0,0-6.05,3.86A43.1,43.1,0,0,0,53,125.33q-1.32,1.61-2.59,3.42c-.38.53-.75,1.08-1.12,1.65l1.11-3.82c.75-2.8,1.75-5.49,2.64-8.18.43-1.35,1-2.65,1.5-4s1-2.63,1.54-3.9c2-4.7,4.13-9.25,6.46-13.55,12.19.08,21.37-1.52,29-4.13,8.22-2.8,14.76-6.83,21.17-10.93-7.94-3.22-16.41-5.25-25.55-3.69a38.16,38.16,0,0,0-6.91,1.93,41.42,41.42,0,0,0-7,3.59A48.41,48.41,0,0,0,67.74,88a158.4,158.4,0,0,1,11.89-16.7c3.59-4.39,7.22-8.35,10.78-11.91,11.76,3.68,21.08,4.83,29.21,4.54,8.69-.29,16.11-2.24,23.42-4.29-6.65-5.39-14.17-9.8-23.36-11a37.79,37.79,0,0,0-7.17-.16,41.66,41.66,0,0,0-7.74,1.4,48.74,48.74,0,0,0-7.23,2.78,153.07,153.07,0,0,1,14.4-11.36l3.1-2.15,1.74-1.1a152.16,152.16,0,0,0,15.53-3,82.72,82.72,0,0,0,14.83-5.27c8.91-4.15,16.46-9.67,24.38-15.42-9.44-2.3-19.82-3-30.22.41a47.49,47.49,0,0,0-15.15,8.25,51.73,51.73,0,0,0-11,12.3l-1.81,1.13-3.17,2.16A154.61,154.61,0,0,0,95.3,50.16a99.43,99.43,0,0,0,11-21.49c3.4-9.5,4.65-18.84,5.49-28.2C102.52,7.14,94.53,15.28,90,25.16c-4.27,9.23-5.49,19.89-2,31.76a158.49,158.49,0,0,0-11.06,12A160.9,160.9,0,0,0,64.49,86a99.11,99.11,0,0,0,4-23c.49-10.08-1-19.38-3-28.57-6.88,9.06-12.16,19.17-13.66,30-1.39,10,.51,20.5,7.2,30.78a158.61,158.61,0,0,0-12.66,30.06l-1.2,4a98.2,98.2,0,0,0-2.85-22.36c-2.46-9.78-6.63-18.25-11.14-26.48-4,10.69-6.07,21.92-4.34,32.67a38.55,38.55,0,0,0,.79,4c.36,1.33.76,2.64,1.23,3.94a39.24,39.24,0,0,0,3.59,7.57,45.26,45.26,0,0,0,5.3,7.09,53.72,53.72,0,0,0,4.8,4.57l-.54,2.59a164.36,164.36,0,0,0-2.35,18.47c-.37,5-.5,10.06-.4,15.14a93.76,93.76,0,0,0-9.08-19.95,88.06,88.06,0,0,0-8.62-11.79c-1.55-1.81-3.16-3.55-4.82-5.25s-3.27-3.35-5-5c-.64,11.38.65,22.72,5.43,32.47.6,1.22,1.25,2.41,1.94,3.57a32.13,32.13,0,0,0,2.29,3.4,47.64,47.64,0,0,0,5.64,6.19,35,35,0,0,0,3.39,2.75q1.8,1.31,3.79,2.48A51.59,51.59,0,0,0,40,188.19c.35,3.76.81,7.51,1.44,11.24a165.05,165.05,0,0,0,5.75,23.88c-1-1.41-2.09-2.77-3.06-4.09-.88-1.14-1.79-2.24-2.71-3.29l-2.72-3.06a66.65,66.65,0,0,0-5.61-5.44,71.62,71.62,0,0,0-5.71-4.71c-2-1.46-4-2.8-6-4.09-4-2.57-8.16-4.81-12.34-7,2.71,11.06,7.23,21.55,14.63,29.53,6.66,7.28,15.92,12.3,27.71,13.72.22.55.43,1.1.66,1.65A168.74,168.74,0,0,0,68.26,266l-3.57-2.57c-2.33-1.69-4.76-3.12-7.06-4.48a69,69,0,0,0-6.93-3.57c-2.3-1.05-4.55-2-6.86-2.81s-4.65-1.5-6.89-2.16c-4.55-1.29-9.23-2.2-13.84-3,5.83,9.8,13.24,18.49,22.65,23.93a43.39,43.39,0,0,0,7.41,3.43,46.73,46.73,0,0,0,8.14,2,44.82,44.82,0,0,0,8.88.33,50.38,50.38,0,0,0,5.84-.69,165.57,165.57,0,0,0,24.86,24.57c-1.22-.44-2.44-.85-3.65-1.22a68.88,68.88,0,0,0-8-2.23A68.62,68.62,0,0,0,81.55,296c-2.55-.29-5-.57-7.39-.68s-4.85-.11-7.24,0a136.37,136.37,0,0,0-14.11,1.12c8.41,7.68,18,13.81,28.63,16.26,1.32.31,2.65.57,4,.77a37.16,37.16,0,0,0,4.1.35,43.69,43.69,0,0,0,8.36-.45,47.75,47.75,0,0,0,13.78-4.53q5.37,3.63,10.75,6.66A163,163,0,0,0,142.22,325a94.19,94.19,0,0,0-19.34,1c-1.26.2-2.49.44-3.71.71s-2.39.5-3.57.8c-2.36.58-4.66,1.27-6.93,2-4.53,1.52-8.84,3.24-13.17,5.17,2.6,1.18,5.17,2.36,7.82,3.31s5.34,1.77,8,2.46a75.16,75.16,0,0,0,8.14,1.37,48.37,48.37,0,0,0,8.16.12,43.56,43.56,0,0,0,27.62-12.35l.06,0,6,1.72,5.71,1.36c.92.21,1.82.44,2.72.62l2.66.49,5,.91,4.65.62c1.49.18,2.89.4,4.23.52l3.81.31c2.38.2,4.46.37,6.21.38l4.24.12h4l4.19-.12c.86,0,1.82,0,2.84-.11l3.33-.27,3.78-.3c1.34-.11,2.74-.34,4.22-.52l4.63-.61,5-.91,2.65-.48c.89-.17,1.79-.41,2.71-.62l5.71-1.34c2-.59,4.09-1.17,6.21-1.8A43.55,43.55,0,0,0,277.44,342a48.37,48.37,0,0,0,8.16-.12,75.16,75.16,0,0,0,8.14-1.37c2.67-.69,5.34-1.53,8-2.46s5.22-2.13,7.82-3.31c-4.33-1.93-8.64-3.65-13.17-5.17-2.27-.78-4.58-1.47-6.93-2-1.18-.3-2.36-.55-3.57-.8s-2.46-.51-3.71-.71a94.35,94.35,0,0,0-19.36-1,161.18,161.18,0,0,0,19.62-9.4c3.65-2,7.31-4.31,10.95-6.77a48.22,48.22,0,0,0,13.79,4.53,43.63,43.63,0,0,0,8.35.45,37.34,37.34,0,0,0,4.11-.35c1.33-.2,2.66-.46,4-.77,10.59-2.45,20.22-8.58,28.62-16.26a136,136,0,0,0-14.1-1.12c-2.39-.08-4.82-.09-7.24,0s-4.84.39-7.39.68a94,94,0,0,0-15.69,3.66c-1.21.37-2.43.79-3.67,1.23A166.18,166.18,0,0,0,329,276.33a53.12,53.12,0,0,0,5.85.69,44.82,44.82,0,0,0,8.88-.33,47,47,0,0,0,8.14-2,43.29,43.29,0,0,0,7.4-3.43c9.42-5.44,16.83-14.13,22.66-23.93-4.61.84-9.3,1.75-13.84,3C365.87,251.05,363.51,251.73,361.22,252.55Zm8.49-78.06c.35-.75.72-1.48,1.09-2.19s.7-1.39,1.07-2.06c.74-1.34,1.52-2.59,2.34-3.79a60.06,60.06,0,0,1,5.15-6.46c1.8-2,3.76-3.77,5.63-5.5a61.36,61.36,0,0,1-1.69,8.64,40.52,40.52,0,0,1-3.34,8.18,33.46,33.46,0,0,1-5.63,7.35,33.9,33.9,0,0,1-8.42,6.06A84.24,84.24,0,0,1,369.71,174.49Zm-6.63-48.89a47.46,47.46,0,0,1,.86-4.71c.31-1.49.67-2.92,1.09-4.29a60.68,60.68,0,0,1,3.05-7.71c1.14-2.4,2.42-4.68,3.76-6.92a63.62,63.62,0,0,1,.92,8.78,39.21,39.21,0,0,1-.81,8.82,32.45,32.45,0,0,1-3.21,8.67,36.73,36.73,0,0,1-6.28,8.26A79.16,79.16,0,0,1,363.08,125.6Zm-96-96.32c-1.44-.79-2.85-1.54-4.22-2.34s-2.65-1.68-3.94-2.54c-2.59-1.64-5-3.59-7.45-5.35a55.54,55.54,0,0,1,9.32.46,45.55,45.55,0,0,1,4.75,1,32.45,32.45,0,0,1,4.81,1.56,42.27,42.27,0,0,1,18.4,14.44A84.27,84.27,0,0,1,267.09,29.28ZM309.58,44a46.93,46.93,0,0,1-1.92-4.37c-.55-1.44-1.07-2.8-1.48-4.19a66.23,66.23,0,0,1-2.49-15.92,62.66,62.66,0,0,1,5.64,6.77c.83,1.22,1.62,2.46,2.34,3.75.36.64.7,1.29,1,1.95s.6,1.37.87,2.07a33.38,33.38,0,0,1,1.57,19.33c-1.1-1.69-2.18-3.24-3.08-4.82q-.69-1.18-1.29-2.34C310.35,45.45,310,44.71,309.58,44ZM292.94,59.71c-.64-.05-1.27-.12-1.89-.19s-1.25-.14-1.86-.22c-1.22-.18-2.4-.41-3.54-.68-2.29-.55-4.55-1.11-6.67-1.84a34.53,34.53,0,0,1,14.11-4.09,27.09,27.09,0,0,1,4.11.1,31.81,31.81,0,0,1,4.37.79c.75.19,1.53.4,2.31.65s1.54.57,2.34.91a38.9,38.9,0,0,1,4.92,2.46A53.25,53.25,0,0,1,292.94,59.71Zm50.94-4.06a60,60,0,0,1,3.43,8.12c.45,1.41.84,2.83,1.15,4.26.16.72.3,1.45.42,2.17s.18,1.49.24,2.24a33.27,33.27,0,0,1-4.12,19c-.56-2-1.14-3.74-1.54-5.52-.21-.88-.4-1.75-.56-2.61s-.35-1.66-.48-2.48c-.28-1.62-.47-3.2-.58-4.74s-.21-3-.2-4.44A66.89,66.89,0,0,1,343.88,55.65ZM321.92,91c-.6-.23-1.18-.48-1.75-.73s-1.16-.5-1.72-.76c-1.11-.52-2.17-1.08-3.19-1.67-2-1.19-4-2.39-5.86-3.7a34.62,34.62,0,0,1,14.7.19A26.22,26.22,0,0,1,328,85.63a34.5,34.5,0,0,1,3.95,2c.66.4,1.35.82,2,1.29s1.31,1,2,1.55a37.67,37.67,0,0,1,4,3.78A53,53,0,0,1,321.92,91Zm30.46,86.85a46.85,46.85,0,0,1-9.12-12.71c-1.12-2.12-1.92-4.25-2.8-6.35a40.07,40.07,0,0,1,6.33,3.44,28.66,28.66,0,0,1,5.76,4.94,31.76,31.76,0,0,1,2.5,3.26c.39.59.78,1.21,1.15,1.86s.68,1.32,1,2a35.59,35.59,0,0,1,2.9,9.95A67,67,0,0,1,352.38,177.87Zm-4.87-44a46.59,46.59,0,0,1-12.45-9.46,68,68,0,0,1-4.52-5.24,45.63,45.63,0,0,1,7,1.42,28.13,28.13,0,0,1,6.94,3A28.61,28.61,0,0,1,347.9,126a34,34,0,0,1,3.17,3.1,36.82,36.82,0,0,1,5.71,8.67A58.79,58.79,0,0,1,347.51,133.87Zm11.06,93.35c1.08-1.45,2.19-2.78,3.31-4a50.63,50.63,0,0,1,6.64-6.39c1.15-.9,2.27-1.74,3.38-2.53s2.26-1.5,3.41-2.18c2.29-1.35,4.7-2.52,7-3.64a65.26,65.26,0,0,1-4.14,7.8,31.87,31.87,0,0,1-2.59,3.58,42.37,42.37,0,0,1-3,3.29c-.53.52-1.08,1-1.65,1.52s-1.2,1-1.83,1.4a36.2,36.2,0,0,1-4,2.48,32.61,32.61,0,0,1-4.57,2,40.4,40.4,0,0,1-5.26,1.36C356.37,230.22,357.52,228.68,358.57,227.22Zm-11.79-1.75c-.92-1.4-1.76-2.77-2.48-4.1s-1.34-2.63-1.87-3.89c-.27-.64-.5-1.26-.74-1.88s-.48-1.25-.69-1.87a36.17,36.17,0,0,1-1-3.62c-.28-1.19-.46-2.35-.71-3.53-.45-2.34-.62-4.61-.83-6.87a40.82,40.82,0,0,1,5.06,5.12,36.31,36.31,0,0,1,2.21,3,22.31,22.31,0,0,1,1.87,3.39,29.89,29.89,0,0,1,2.39,8.19,39.58,39.58,0,0,1,.29,4.89,31,31,0,0,1-.44,5.47Q348.12,227.55,346.78,225.47ZM55.11,219.41a29.89,29.89,0,0,1,2.39-8.19,22.31,22.31,0,0,1,1.87-3.39,34.16,34.16,0,0,1,2.21-3,40.82,40.82,0,0,1,5.06-5.12,67,67,0,0,1-.84,6.87c-.24,1.18-.42,2.34-.7,3.53s-.62,2.39-1,3.62c-.21.62-.44,1.24-.69,1.87s-.47,1.24-.74,1.88c-.53,1.26-1.15,2.56-1.87,3.89s-1.57,2.7-2.48,4.1-1.9,2.82-3,4.3a32,32,0,0,1-.45-5.47A41.56,41.56,0,0,1,55.11,219.41Zm-7.24-45.07c.32-.71.64-1.38,1-2s.77-1.27,1.16-1.86a31.76,31.76,0,0,1,2.5-3.26,28.66,28.66,0,0,1,5.76-4.94,40.07,40.07,0,0,1,6.33-3.44c-.88,2.1-1.68,4.23-2.8,6.35a44.84,44.84,0,0,1-3.75,6.35,45,45,0,0,1-5.37,6.36A67,67,0,0,1,45,184.29,35.59,35.59,0,0,1,47.87,174.34ZM134.71,22.05a32.72,32.72,0,0,1,4.8-1.56,46.27,46.27,0,0,1,4.76-1,55.47,55.47,0,0,1,9.31-.46c-2.45,1.76-4.85,3.71-7.44,5.35-1.29.86-2.58,1.75-3.94,2.54s-2.78,1.55-4.23,2.34a84.19,84.19,0,0,1-21.66,7.21A42.21,42.21,0,0,1,134.71,22.05ZM98.85,55.14c.79-.34,1.57-.64,2.34-.91s1.55-.46,2.31-.65a31.68,31.68,0,0,1,4.36-.79,27.25,27.25,0,0,1,4.12-.1,34.57,34.57,0,0,1,14.11,4.09c-2.13.73-4.38,1.29-6.67,1.84-1.15.27-2.32.5-3.54.68-.61.08-1.23.16-1.86.22s-1.25.14-1.89.19a53.25,53.25,0,0,1-18.2-2.11A38.9,38.9,0,0,1,98.85,55.14ZM91.49,34c.28-.7.57-1.4.88-2.07s.67-1.31,1-1.95c.72-1.29,1.5-2.53,2.34-3.75a60.42,60.42,0,0,1,5.64-6.77,66.23,66.23,0,0,1-2.49,15.92c-.41,1.39-.93,2.75-1.48,4.19A47.07,47.07,0,0,1,95.48,44c-.36.74-.77,1.48-1.18,2.23s-.83,1.55-1.29,2.34c-.9,1.58-2,3.13-3.08,4.82A33.38,33.38,0,0,1,91.49,34ZM69.12,90.5c.66-.55,1.32-1.07,2-1.55s1.35-.89,2-1.29a34.5,34.5,0,0,1,4-2A26.22,26.22,0,0,1,81,84.35a34.57,34.57,0,0,1,14.69-.19c-1.82,1.31-3.82,2.51-5.85,3.7-1,.59-2.08,1.15-3.19,1.67-.56.26-1.13.52-1.72.76s-1.15.5-1.75.73a53.12,53.12,0,0,1-18,3.26A36.73,36.73,0,0,1,69.12,90.5ZM56,72.44c.06-.75.13-1.5.24-2.24s.26-1.45.41-2.17c.32-1.43.71-2.85,1.15-4.26a62.68,62.68,0,0,1,3.43-8.12,65.89,65.89,0,0,1,2.24,16c0,1.45-.09,2.9-.19,4.44s-.3,3.12-.58,4.74c-.14.82-.31,1.64-.48,2.48s-.35,1.73-.56,2.61c-.4,1.78-1,3.57-1.54,5.52A33.27,33.27,0,0,1,56,72.44ZM54,129.1a35.26,35.26,0,0,1,3.16-3.1,29.55,29.55,0,0,1,3.38-2.36,28.23,28.23,0,0,1,6.93-3,45.75,45.75,0,0,1,7.06-1.42c-1.37,1.79-2.91,3.52-4.52,5.24a46,46,0,0,1-5.44,5,44.81,44.81,0,0,1-7,4.5,58.79,58.79,0,0,1-9.27,3.9A36.82,36.82,0,0,1,54,129.1Zm-17.67-.86a32.45,32.45,0,0,1-3.21-8.67,39.21,39.21,0,0,1-.81-8.82,65.18,65.18,0,0,1,.91-8.78c1.34,2.24,2.63,4.52,3.77,6.92a60.67,60.67,0,0,1,3,7.71c.43,1.37.79,2.8,1.1,4.29s.64,3.07.86,4.71a79.16,79.16,0,0,1,.62,10.9A36.44,36.44,0,0,1,36.33,128.24Zm-5.59,50.42a33.16,33.16,0,0,1-5.63-7.35,40.52,40.52,0,0,1-3.34-8.18,61.36,61.36,0,0,1-1.69-8.64c1.86,1.73,3.83,3.54,5.63,5.5a58.79,58.79,0,0,1,5.14,6.46,44.14,44.14,0,0,1,2.35,3.79c.36.67.72,1.35,1.07,2.06s.74,1.44,1.09,2.19a84.24,84.24,0,0,1,3.8,10.23A33.9,33.9,0,0,1,30.74,178.66Zm13.82,51.86a32.48,32.48,0,0,1-4.56-2,35.31,35.31,0,0,1-4-2.48c-.63-.45-1.25-.91-1.83-1.4s-1.12-1-1.65-1.52a42.37,42.37,0,0,1-3-3.29,31.87,31.87,0,0,1-2.59-3.58,65.26,65.26,0,0,1-4.14-7.8c2.3,1.12,4.71,2.29,7,3.64,1.15.68,2.29,1.4,3.41,2.18s2.23,1.63,3.38,2.53a50.63,50.63,0,0,1,6.64,6.39c1.12,1.23,2.23,2.56,3.31,4s2.2,3,3.33,4.66A40.56,40.56,0,0,1,44.56,230.52Zm30.59,21.31a27.6,27.6,0,0,1,2-7.31,41.74,41.74,0,0,1,3.32-6.37A57.84,57.84,0,0,1,81.71,245a42.59,42.59,0,0,1,.44,7.36,53.11,53.11,0,0,1-3.72,17.91A32,32,0,0,1,75.15,251.83ZM54.72,270.56a41.25,41.25,0,0,1-7.36-4.92,70.44,70.44,0,0,1-6.23-6.23c2.55.38,5.16.79,7.75,1.42a60.93,60.93,0,0,1,7.88,2.49c5.38,2.13,10.84,5.45,17.1,10.52A33.31,33.31,0,0,1,54.72,270.56ZM99,309.71a35.12,35.12,0,0,1-9.25-.29,43.74,43.74,0,0,1-8.46-2.58,67.28,67.28,0,0,1-7.76-4.15,77.27,77.27,0,0,1,7.82-.89c1.33-.08,2.66-.1,4-.09s2.81,0,4.24.17a60.43,60.43,0,0,1,9.08,1.58c1.61.41,3.25.93,5,1.53s3.41,1.18,5.2,1.93l.13.09A36.86,36.86,0,0,1,99,309.71Zm13.24-7.64a51.88,51.88,0,0,1-3.32-4.14,39.54,39.54,0,0,1-2.45-4.27,27.21,27.21,0,0,1-2.59-8.12,32,32,0,0,1-.38-3.83,33,33,0,0,1,.17-3.74,45,45,0,0,1,1.33-7.08,62.71,62.71,0,0,1,3.15,6.18,39.4,39.4,0,0,1,2.55,6.92,40.6,40.6,0,0,1,1.53,8.19,60.24,60.24,0,0,1,.13,10Zm31,10.95a31.15,31.15,0,0,1-2-3.59A34,34,0,0,1,138,295.08a59.48,59.48,0,0,1,9.25,10.86,41.35,41.35,0,0,1,3.84,7.41,57.19,57.19,0,0,1,3,9.27l-.8-.27c-1.32-.84-2.54-1.7-3.65-2.56a29.86,29.86,0,0,1-3.6-3.35A36.6,36.6,0,0,1,143.25,313Zm.34,21a34.74,34.74,0,0,1-8.92,2.39,45.74,45.74,0,0,1-17.5-1.72,67.75,67.75,0,0,1,15.17-5.44c1.41-.3,2.86-.53,4.37-.7a45,45,0,0,1,4.77-.43c1.67-.09,3.36,0,5.19,0,1.5,0,3.07.12,4.69.27l.8.27A37.93,37.93,0,0,1,143.59,334ZM254,313.35a40.71,40.71,0,0,1,3.84-7.41A59.48,59.48,0,0,1,267,295.08a34,34,0,0,1-3.18,14.35,29.84,29.84,0,0,1-2.05,3.59,33.68,33.68,0,0,1-2.8,3.42,29,29,0,0,1-3.59,3.35,51.5,51.5,0,0,1-4.52,3.11A56.3,56.3,0,0,1,254,313.35Zm9.63,14.74a44.92,44.92,0,0,1,4.78.43c1.51.17,3,.4,4.37.7a67.75,67.75,0,0,1,15.17,5.44,45.76,45.76,0,0,1-17.5,1.72,34.74,34.74,0,0,1-8.92-2.39,37.65,37.65,0,0,1-8.8-5.54c2-.22,3.89-.34,5.72-.36S261.92,328,263.58,328.09Zm29.23-35.91a39.91,39.91,0,0,1,1.53-8.19,38.62,38.62,0,0,1,2.55-6.92,62.67,62.67,0,0,1,3.14-6.18,45,45,0,0,1,1.34,7.08,30.84,30.84,0,0,1,.16,3.74,30,30,0,0,1-.37,3.83,27.21,27.21,0,0,1-2.59,8.12,41.29,41.29,0,0,1-2.45,4.27,51.2,51.2,0,0,1-3.44,4.28A59.85,59.85,0,0,1,292.81,292.18Zm13.53,11.28a60.53,60.53,0,0,1,9.07-1.58c1.44-.13,2.85-.18,4.24-.17s2.71,0,4,.09a77.27,77.27,0,0,1,7.82.89,67.41,67.41,0,0,1-7.77,4.15,43.43,43.43,0,0,1-8.45,2.58,35.12,35.12,0,0,1-9.25.29A36.62,36.62,0,0,1,296,307c1.85-.78,3.64-1.44,5.38-2S304.73,303.87,306.34,303.46Zm16.58-51.14a41.62,41.62,0,0,1,.44-7.36,57.84,57.84,0,0,1,1.22-6.81,42.65,42.65,0,0,1,3.32,6.37,28.38,28.38,0,0,1,2,7.31,32,32,0,0,1-3.29,18.4A53.32,53.32,0,0,1,322.92,252.32Zm34.79,13.32a41.61,41.61,0,0,1-7.36,4.92,33.31,33.31,0,0,1-19.14,3.28c6.26-5.07,11.72-8.39,17.09-10.52a61.06,61.06,0,0,1,7.89-2.49c2.58-.63,5.2-1,7.75-1.42A70.44,70.44,0,0,1,357.71,265.64Z" transform="translate(-9.07 -0.47)"/><path class="cls-2" d="M148.93,281.07c35,16.65,72.18,16.65,107.2,0l-10-19.42c-28.89,13.43-58.34,13.44-87.23,0Z" transform="translate(-9.07 -0.47)"/><path class="cls-2" d="M253.14,269l2.47,4.5a117.23,117.23,0,0,0,26.52-19.92,111.81,111.81,0,0,1-23,5,100.85,100.85,0,0,0,7.57-20.4,96.22,96.22,0,0,1-21.58,16.21l2.47,4.5Z" transform="translate(-9.07 -0.47)"/><path class="cls-2" d="M122.94,253.58a117.23,117.23,0,0,0,26.52,19.92l2.47-4.5,5.55-10.14,2.47-4.5a95.7,95.7,0,0,1-21.58-16.21,100.85,100.85,0,0,0,7.57,20.4A111.81,111.81,0,0,1,122.94,253.58Z" transform="translate(-9.07 -0.47)"/><text class="cls-3" transform="translate(162.59 225.67)">R</text><text class="cls-3" transform="translate(102.16 174.15)">V</text><path class="cls-4" d="M172.65,277.42a14.42,14.42,0,0,0,8.38,6.49,16.67,16.67,0,0,0,11.38-.41,16,16,0,0,0-19.76-6.08Z" transform="translate(-9.07 -0.47)"/><path class="cls-4" d="M229.41,279.92a13.89,13.89,0,0,1-8.67,5.28,16.33,16.33,0,0,1-10.82-1.54,15.52,15.52,0,0,1,19.49-3.74Z" transform="translate(-9.07 -0.47)"/><path class="cls-2" d="M195.48,303.4c.26-.74,1.28-1,1.5-1,.66-.11,1.5-.22,2.46-.29a33.86,33.86,0,0,1,3.52,0,19.64,19.64,0,0,1,4.72.66,1.49,1.49,0,0,1,1,.65c.32.67-.3,1.54-.41,1.7a13.24,13.24,0,0,1-2.48,3.38,16,16,0,0,1-2,1.6c-1.2.85-1.63,1-2.07,1a2.17,2.17,0,0,1-1.32-.64,23.12,23.12,0,0,1-2.33-2.31,19.84,19.84,0,0,1-2.07-3C195.5,304.22,195.34,303.81,195.48,303.4Z" transform="translate(-9.07 -0.47)"/><text class="cls-5" transform="translate(73.28 391.07)"><tspan class="cls-6">V</tspan><tspan x="21.19" y="0">intage </tspan><tspan class="cls-7" x="118.26" y="0">R</tspan><tspan x="138.85" y="0">accoon</tspan></text></svg>